<svg version="1.2" baseProfile="tiny" xmlns="http://www.w3.org/2000/svg" viewBox="0 0 117.16 120.09"><path fill="none" stroke="#B8CDC9" stroke-miterlimit="10" d="M.87 100.97L58.58 1l57.72 99.97z"/><path d="M57.44 42.98c-.02 1.1-.19 2.19-.43 3.25a23.3 23.3 0 0 1-.98 3.09c-.4 1-.84 1.97-1.33 2.92-.98 1.9-2.12 3.69-3.37 5.35s-2.6 3.19-4.02 4.58a36.2 36.2 0 0 1-4.44 3.7 30.7 30.7 0 0 1-4.63 2.7 25.85 25.85 0 0 1-4.53 1.64 22.98 22.98 0 0 1-5.95.73 8.4 8.4 0 0 1-.84-.05 3.6 3.6 0 0 1-.78-.17c-.12-.05-.24-.1-.34-.18a.77.77 0 0 1-.26-.29l-.04-.09-.02-.1a.73.73 0 0 1 0-.18c.02-.12.05-.23.1-.33.1-.2.21-.38.34-.54l.37-.42a10.07 10.07 0 0 1 1.24-1.06l.34-.26.11-.08-.1.08a18.44 18.44 0 0 0-1.38 1.18 5.3 5.3 0 0 0-.68.8c-.1.16-.2.34-.25.54-.02.1-.02.21 0 .32.03.1.1.2.17.27.16.15.39.23.62.3a9.37 9.37 0 0 0 2.37.1 22.51 22.51 0 0 0 5.8-1.09 28.72 28.72 0 0 0 6.5-3.1 34.12 34.12 0 0 0 6.33-5.26 38.6 38.6 0 0 0 5.44-7.14 32.02 32.02 0 0 0 2.68-5.66c.35-1 .64-2.01.84-3.05a13.2 13.2 0 0 0 .17-3.9 5.29 5.29 0 0 0-.72-2.15c-.54-.9-1.18-1.76-1.93-2.48a8.98 8.98 0 0 0-5.54-2.5c-1.03-.1-2.07-.05-3.1.1-1.03.15-2.04.4-3.03.71-.98.31-1.95.68-2.9 1.09l-1.42.62a7.75 7.75 0 0 1-.6.22l-.07.02h-.04l-.04.02h-.04a1.13 1.13 0 0 1-.14.01.64.64 0 0 1-.26-.07.57.57 0 0 1-.21-.18c-.07-.1-.08-.16-.1-.22a.62.62 0 0 1 .02-.27c0-.04.02-.06.03-.09l.02-.06.03-.05a1.3 1.3 0 0 1 .18-.24 14.88 14.88 0 0 1 .92-.8l.59-.47 1.13-.9c.73-.58 1.4-1.17 2.01-1.76.3-.3.59-.6.84-.9.26-.3.49-.6.67-.92.19-.31.32-.63.39-.93.03-.15.04-.3.03-.43a1.3 1.3 0 0 0-.24-.66l-.06-.09a2.26 2.26 0 0 0-1-.8 3.23 3.23 0 0 0-1.61-.19c-.54.06-1.06.2-1.55.34-.48.14-.93.3-1.35.46-.84.31-1.55.6-2.16.83l-.56.2a45.78 45.78 0 0 0-.83 3.6l-.22 1.15-.2 1.26a146.6 146.6 0 0 0-1.39 14.25c-.25 4.54-.34 9-.35 12.38-.02 3.39.02 5.7.02 5.97.01 1-.07 1.94-.18 2.14-.1.19-.25-.38-.33-2.4a246.61 246.61 0 0 1 .32-19.04c.12-2.18.28-4.37.48-6.45a113.2 113.2 0 0 1 1.22-8.9l.1-.54.11-.5.05-.25.05-.24c.2-.92.4-1.67.54-2.21a11.72 11.72 0 0 1-1.07.28c-.15.02-.18 0-.1-.06.13-.1.57-.32 1.3-.68l.01-.05c.31-1.07.62-1.83.86-2.3.11-.25.22-.42.3-.53.07-.1.12-.14.15-.12.03.02.03.1 0 .24 0 .07-.03.15-.05.25l-.1.35-.05.2-.07.23-.15.52-.26.9a115.97 115.97 0 0 1 2.62-1.23c.4-.16.82-.33 1.28-.49.47-.15.97-.3 1.52-.37.28-.03.57-.06.88-.04a3.52 3.52 0 0 1 1.39.36 3.17 3.17 0 0 1 1.16 1l.08.11.08.13a2.23 2.23 0 0 1 .28.84c.05.4 0 .8-.12 1.16-.12.37-.3.7-.48 1.02-.2.31-.42.61-.65.9-.48.57-1 1.1-1.57 1.62-.57.52-1.17 1.02-1.8 1.52l-.29.23a33.1 33.1 0 0 1 1.7-.66c.87-.3 1.79-.58 2.74-.79.95-.2 1.94-.35 2.96-.4 1.01-.03 2.05.04 3.08.27a9.87 9.87 0 0 1 5.42 3.28 12.72 12.72 0 0 1 1.79 2.75c.21.52.35 1.07.43 1.62.09.56.11 1.11.1 1.66zm-20.52-6.3M76.04 54.69l-.04.03-.13.1-.47.42-.7.73-.87 1.02c-.63.78-1.36 1.74-2.2 2.82-.42.54-.87 1.1-1.37 1.67-.25.29-.51.57-.8.86-.27.27-.57.55-.9.8-.17.12-.35.23-.54.33-.19.1-.39.19-.6.24a1.55 1.55 0 0 1-1.3-.26c-.2-.13-.35-.3-.5-.47a3.38 3.38 0 0 1-.35-.58c-.2-.41-.35-.85-.46-1.29-.23-.89-.34-1.81-.41-2.75-.04-.46-.06-.93-.08-1.4l-.07-1.41a9.13 9.13 0 0 0-.08-.86l-.02-.07v-.02-.01h-.01c0-.02-.01-.03-.02-.03l-.02.02h-.01l-.03.03-.05.06a3.74 3.74 0 0 0-.3.41l-.38.6c-.5.8-1 1.62-1.58 2.37-.3.37-.62.73-.98 1.05-.18.16-.37.3-.58.44s-.43.23-.68.3c-.24.07-.5.1-.75.07l-.09-.01h-.05l-.07-.02-.04-.02-.03-.02-.04-.03-.08-.05a2.16 2.16 0 0 1-.53-.51 2.26 2.26 0 0 1-.3-.67 3.56 3.56 0 0 1 .08-1.7 5.8 5.8 0 0 1 1.05-2.07c.22-.28.44-.54.67-.76.47-.46.95-.8 1.45-1.02.49-.21.98-.28 1.4-.22a2.12 2.12 0 0 1 .98.4c.22.17.37.36.46.51.04.08.07.15.08.22l.01.05-.02.06-.03.03h-.02-.02c-.02 0-.02-.01-.03-.02-.03-.02-.04-.04-.04-.05h.03l.03.02h.02l.01-.02c0-.02 0-.04-.02-.06a1.67 1.67 0 0 0-.41-.48 1.95 1.95 0 0 0-.71-.36c-.3-.08-.66-.1-1.04 0a3.16 3.16 0 0 0-1.18.56 6.85 6.85 0 0 0-2.38 3.53c-.06.31-.1.65-.06.98a1.72 1.72 0 0 0 .36.93c.1.13.24.25.38.35l.06.03.04.03.09.01c.09.01.17.02.26.01.36-.01.71-.16 1.04-.37.33-.21.63-.49.92-.8.56-.6 1.06-1.31 1.54-2.06l.72-1.14a9.5 9.5 0 0 1 .5-.71l.06-.07.04-.04.02-.01.03-.03a.4.4 0 0 1 .26-.11c.05 0 .1.01.14.04l.02.02.03.03.02.02.02.04c.03.04.04.1.06.14v.03l.02.02v.05l.04.18c.02.12.03.23.03.35l.04.7.05 1.38c.03.92.09 1.84.21 2.74.07.45.15.9.27 1.33.11.43.26.85.48 1.23.1.18.22.36.37.52.14.15.3.28.49.38.18.1.37.15.57.15.2 0 .4-.04.6-.11a4.98 4.98 0 0 0 1.52-1.03 25.43 25.43 0 0 0 1.97-2.15c.47-.56.9-1.1 1.3-1.61a63.96 63.96 0 0 1 2.12-2.54A16.02 16.02 0 0 1 76 54.73l.05-.04z"/><path d="M102.18 55.49l-.05.05-.15.14-.64.46c-.56.38-1.41.86-2.48 1.33a30.6 30.6 0 0 1-8.4 2.3c-.8.09-1.62.14-2.44.14a11.3 11.3 0 0 1-1.82-.17l-.22-.04a62.56 62.56 0 0 0-.67 5.04 16.7 16.7 0 0 0-.06 2.47 4.9 4.9 0 0 0 .15.89l-.06-.2a4.5 4.5 0 0 1-.1-.59c-.06-.52-.07-1.28-.03-2.23.07-1.43.28-3.3.6-5.43l-.2-.05-.3-.1-.28-.11-.27-.14-.13-.08-.03-.02-.02-.01-.03-.02-.04-.03-.04-.04a1.3 1.3 0 0 1-.03-.04l-.03-.04a.52.52 0 0 1-.05-.1l-.01-.03-.01-.02-.01-.06-.02-.1c0-.13.03-.24.07-.35a2.05 2.05 0 0 1 .2-.41l.08-.13c.22-.32.46-.6.71-.86a16.07 16.07 0 0 1 1.06-1.02A190.18 190.18 0 0 1 89 43.8l-.82 1.84c-.65 1.47-1.43 3.18-2.35 5-.46.9-.96 1.83-1.5 2.78-.53.95-1.11 1.9-1.75 2.85-.64.94-1.33 1.87-2.12 2.73-.4.43-.8.85-1.26 1.23s-.94.73-1.47 1a5 5 0 0 1-1.74.5 3.68 3.68 0 0 1-.9-.08l-.1-.02-.04-.03-.03-.02-.1-.07-.1-.07-.1-.09-.16-.17-.07-.1-.07-.1a2.62 2.62 0 0 1-.34-.84c-.07-.3-.1-.6-.1-.88 0-.58.08-1.15.2-1.69a9.98 9.98 0 0 1 1.9-3.96c.4-.47.8-.86 1.25-1.13.22-.13.44-.23.67-.3a1.72 1.72 0 0 1 1.2.08l.11.06.1.06c.08.04.13.09.19.13l.15.13.06.07.06.06c.08.08.13.16.18.22.19.28.22.4.15.34-.03-.02-.1-.08-.18-.18l-.17-.16-.1-.1a1.84 1.84 0 0 0-.79-.44c-.28-.07-.6-.05-.95.08-.34.13-.69.36-1.01.68-.33.31-.65.7-.94 1.14a9.98 9.98 0 0 0-1.62 4.74c0 .24 0 .5.04.73s.1.48.2.7l.09.16.05.08.05.07c.07.1.15.19.24.26l.07.06.07.05h.03l.1.03a3.1 3.1 0 0 0 1.17 0 4.23 4.23 0 0 0 1.53-.63A12.19 12.19 0 0 0 80 58.94a23.7 23.7 0 0 0 2.26-2.8c.7-.98 1.33-2 1.92-3.01.6-1.02 1.15-2.03 1.66-3a112.64 112.64 0 0 0 3.33-7 130.9 130.9 0 0 1 .95-3.55 55.14 55.14 0 0 1 1.03-3.22c.1-.24.18-.48.3-.7 0-.03.02-.06.04-.1l.03-.07.05-.07c.06-.1.12-.2.19-.26.06-.06.13-.09.2-.1a.3.3 0 0 1 .11 0 .3.3 0 0 1 .1.06c.05.04.1.1.13.18l.06.3v.26a1.84 1.84 0 0 1-.04.36l-.03.1v.03l-.02.03v.03l-.13.3-.23.55-.42 1a71.03 71.03 0 0 1-1.4 3.16l-.05.15a221.45 221.45 0 0 0-3.3 14.03 33.04 33.04 0 0 1 3.7-2.8c.6-.4 1.01-.61 1.27-.71.26-.1.35-.09.33 0-.03.07-.18.21-.4.4-.23.17-.53.39-.88.6a36.28 36.28 0 0 0-3.95 2.93l-.19.17-.07.37-.52 2.83a7.15 7.15 0 0 0 1.43.2c.81.06 1.64.03 2.46-.03a31.08 31.08 0 0 0 8.71-2.13 20.82 20.82 0 0 0 2.63-1.31l.69-.47.17-.13.06-.03zm-16.33 3.86a109.64 109.64 0 0 1 .48-2.89 19.93 19.93 0 0 0-1.01 1.02c-.12.14-.24.28-.34.43-.1.14-.2.3-.28.46a.83.83 0 0 0-.06.24c0 .08.01.15.05.2 0 .02.02.03.03.04l.05.03.12.08.12.06.06.04.07.03c.22.1.46.2.71.26zm4.85-20.1a293.64 293.64 0 0 1 1-2.62c.04-.08.08-.17.1-.25.03-.04.04-.08.06-.13l.01-.04.02-.06.03-.25v-.12-.01-.02h-.02v.03a17.41 17.41 0 0 0-.57 1.48c-.22.63-.42 1.3-.63 2zM45.78 92.93l-2.09.17a172.64 172.64 0 0 1-3.81.25l-.78.03H38.89l-.28-.01a.87.87 0 0 1-.24-.05l-.1-.05-.02-.03v-.02-.06a.8.8 0 0 1 .06-.24l.1-.28.17-.4.32-.8.68-1.68L41 86.18c.48-1.23.95-2.49 1.39-3.75.21-.63.42-1.27.6-1.9a11.06 11.06 0 0 0 .28-1.38v-.1-.01-.01h-.02-.02c-.08 0-.17.04-.26.08a3.6 3.6 0 0 0-.56.3c-.38.25-.73.53-1.06.83a16.87 16.87 0 0 0-3.55 4.48c-.26.52-.38.92-.46 1.16l-.05.15a.51.51 0 0 1-.04.1c-.03.04-.05.05-.08.02-.04-.06-.08-.3-.04-.67.04-.37.17-.89.44-1.5.26-.6.65-1.29 1.2-2.02.53-.74 1.21-1.52 2.07-2.3.34-.29.7-.59 1.12-.86.21-.13.44-.27.7-.38.13-.05.27-.1.43-.13h.07l.04-.01h.14l.09.01h.04l.05.02.08.03.08.04.08.04.02.02.01.02c.02 0 .03.02.04.03l.06.08c.04.06.07.12.08.19l.03.1v.16l.01.03v.07c0 .18-.03.34-.05.5a9.4 9.4 0 0 1-.22.9 28 28 0 0 1-.59 1.8c-.43 1.18-.91 2.38-1.4 3.58-.5 1.2-1.02 2.37-1.52 3.52l-1.47 3.3-.06.12-.05.12-.02.05v.03l.02.01.12.02.12.01h.18l.4.01 1.51-.01c.96-.02 1.82-.04 2.53-.07 1.42-.04 2.27-.08 2.27-.08zM80.63 76.35l-.24-.07-1.35-.3-1.66-.33a139.08 139.08 0 0 0-15.03-1.85 237.3 237.3 0 0 0-1.18 11.6 365.1 365.1 0 0 0-.6 9.52c-.08 1.55-.14 2.91-.2 3.78-.02.27-.04.47-.09.51-.04.05-.11-.07-.18-.42-.06-.32-.1-.75-.12-1.18a54.68 54.68 0 0 1-.08-3.21 128.48 128.48 0 0 1 1-15.27c.21-1.8.45-3.6.71-5.35v-.02a53.2 53.2 0 0 0-3.9-.05c-1.22.03-2.3.13-3.15.27-.43.08-.8.16-1.1.26-.3.09-.53.18-.7.26-.33.16-.58.35-.74.54-.17.2-.23.4-.25.58-.02.16 0 .3 0 .38.02.09.02.13 0 .13s-.05-.05-.08-.14a1.1 1.1 0 0 1 .18-1.12c.18-.23.46-.43.79-.59.16-.08.4-.18.72-.28.32-.1.71-.19 1.16-.27.9-.15 2.05-.25 3.35-.28 1.16-.03 2.44 0 3.77.06a83.22 83.22 0 0 1 1.03-5.46 19.25 19.25 0 0 1 .45-1.53l.05-.12.05-.13.03-.08.04-.1.04-.08.05-.08c.05-.1.12-.2.18-.28a.8.8 0 0 1 .22-.17.53.53 0 0 1 .12-.04c.04-.01.09-.02.13 0 .1 0 .17.06.22.11.12.11.2.27.26.45l.07.26.01.06a1.13 1.13 0 0 1 .02.11v.04a4.63 4.63 0 0 1 .02 1.01c-.01.09-.05.02-.1-.15-.04-.18-.1-.45-.2-.77a3.54 3.54 0 0 0-.14-.41.54.54 0 0 0-.11-.17.14.14 0 0 0-.1-.04c-.03 0-.06.03-.1.05a.63.63 0 0 0-.11.18 1.7 1.7 0 0 0-.1.28l-.04.13a50.85 50.85 0 0 0-.7 3.26 108.37 108.37 0 0 0-.56 3.7 136.45 136.45 0 0 1 15.67 1.98l1.22.27a7.55 7.55 0 0 1 1.22.41l.16.12c.02.03 0 .04-.03.03z"/><path d="M74.24 89.2c-.07.5-.2.99-.38 1.45a5.31 5.31 0 0 1-1.17 1.76 3.18 3.18 0 0 1-1.02.61l-.12.04c-.02 0-.04 0-.06.02h-.06l-.12.03-.12.02h-.05l-.06.02-.12.01-.12.01h-.14a2.65 2.65 0 0 1-1.17-.28c-.2-.11-.4-.26-.56-.44a2.9 2.9 0 0 1-.66-1.36 5.35 5.35 0 0 1-.1-1.56 7.32 7.32 0 0 1 1.05-3.18l.3-.39c.18-.22.36-.37.48-.44.15-.1.3-.15.43-.19a.93.93 0 0 1 .36-.01c.2.03.28.12.27.17 0 .05-.09.07-.23.12-.14.04-.34.12-.59.34a5.06 5.06 0 0 0-.92 1.23 7.38 7.38 0 0 0-.77 2.45c-.06.46-.07.95 0 1.4.04.24.1.46.19.67.08.21.19.4.32.58a1.94 1.94 0 0 0 1 .68c.17.06.35.1.52.11l.25.02.23-.01c.28-.04.62-.15.95-.36.33-.22.64-.53.9-.9a5.75 5.75 0 0 0 .86-4.14 3.35 3.35 0 0 0-.4-1.12 2 2 0 0 0-.6-.64c-.2-.14-.38-.2-.48-.23-.26-.1-.48-.14-.64-.18l-.18-.06c-.05-.02-.07-.05-.08-.07 0-.03.01-.05.05-.08.05-.03.11-.06.2-.08a1.5 1.5 0 0 1 .61-.03 1.77 1.77 0 0 1 .42.11l.16.07.18.1.09.06.05.03.04.04c.13.1.25.22.37.37l.09.11.08.12.08.13.07.14c.18.37.3.81.35 1.28.06.46.04.96-.03 1.45zM92.26 86.44l-.2.1-.28.1-.38.14c-.58.21-1.44.52-2.55 1a27.96 27.96 0 0 0-3.19 1.67 12 12 0 0 1-1.53 3.41c-.14.2-.28.39-.45.57-.16.18-.34.34-.54.48-.1.07-.22.13-.34.17a.88.88 0 0 1-.4.06.62.62 0 0 1-.2-.07.57.57 0 0 1-.2-.2c0-.02-.02-.04-.03-.05l-.03-.1-.02-.1-.02-.1c-.01-.25.05-.48.13-.7a5.69 5.69 0 0 1 1.07-1.61c.28-.3.57-.57.87-.82.5-.42 1-.77 1.49-1.08l.03-.13a8.74 8.74 0 0 0 .24-2.23c-.02-.24-.05-.49-.12-.73s-.14-.47-.27-.67a1.9 1.9 0 0 0-1.1-.87c-.05-.02-.1-.04-.17-.05-.05-.01-.11-.03-.17-.03l-.09-.02h-.17l-.08.02c-.23.04-.45.12-.66.23-.2.11-.4.26-.57.4a5.8 5.8 0 0 0-.92 1.06c-.52.76-.92 1.57-1.26 2.35-.33.78-.6 1.54-.84 2.26a44.53 44.53 0 0 0-1.35 5.24 83.9 83.9 0 0 0-1.13 8.63c-.05.58-.11 1.52-.16 2.76a39.06 39.06 0 0 0 .05 3.29c.03.41.08.85.17 1.27l.03.12-.07.1a.57.57 0 0 1-.2.17.38.38 0 0 1-.15.04.37.37 0 0 1-.26-.12l-.03-.04a.9.9 0 0 1-.11-.26 5.56 5.56 0 0 1-.12-.81c-.03-.43-.04-.87-.05-1.31 0-.9.02-1.82.06-2.8a254.87 254.87 0 0 1 1.06-13.65c.27-2.56.59-5.25 1-8.05.27-1.63.52-3.01.78-4.16.12-.57.25-1.08.38-1.54.14-.46.27-.85.42-1.2a3.05 3.05 0 0 1 .32-.56l.04-.05.03-.02.02-.03a.42.42 0 0 1 .25-.12c.1 0 .17.03.23.08s.11.11.14.16c.06.1.09.2.12.27l.07.32c0 .06-.01.08-.03.05l-.11-.2a3.55 3.55 0 0 0-.1-.19l-.06-.1-.04-.05a.58.58 0 0 0-.04-.05c-.02-.02-.06-.05-.1-.06s-.07 0-.1.01l-.05.04-.03.02v.02l-.02.01-.1.16c-.12.23-.22.53-.31.86-.2.67-.37 1.5-.54 2.45-.18.96-.35 2.04-.52 3.23-.13.93-.37 2.61-.63 4.76a268.56 268.56 0 0 0-1.02 10.15c.2-1.18.4-2.21.55-2.98a48.4 48.4 0 0 1 1.43-5.68 28.66 28.66 0 0 1 1.36-3.48c.2-.4.42-.8.68-1.2.25-.38.53-.77.88-1.11a4 4 0 0 1 .56-.48c.2-.14.43-.27.67-.35l.19-.05.19-.04.1-.01.1-.01h.11l.1.02c.25.04.5.12.73.24.23.13.44.29.61.5.17.2.3.42.4.66.2.49.26 1 .26 1.51a7.7 7.7 0 0 1-.23 1.85 20.7 20.7 0 0 1 2.65-1.36c.63-.28 1.2-.5 1.68-.66.24-.1.46-.16.66-.23a94.38 94.38 0 0 1 1.27-.39.98.98 0 0 1 .26-.05zM85.04 90.61c.12-.32.23-.64.33-.97a13.25 13.25 0 0 0-2.11 1.74 7.26 7.26 0 0 0-.77 1.01c-.1.19-.2.38-.27.59-.06.2-.1.42-.07.62.02.1.06.19.13.24.03.03.07.04.11.06h.07l.04.01h.04c.1-.01.2-.05.3-.1a3.3 3.3 0 0 0 .78-.67c.3-.35.56-.76.8-1.19.23-.43.44-.88.62-1.34z"/></svg>