<svg version="1.2" baseProfile="tiny" xmlns="http://www.w3.org/2000/svg" viewBox="0 0 998.7 327"><g fill="#221F1F" stroke="#221F1F" stroke-width=".5" stroke-miterlimit="10"><path d="M102.7 186.9c0 .1-1.4.6-3.8 1.4-.3.1-.6.2-1 .3-.3.1-.7.2-1 .4-.7.3-1.5.5-2.3.8-1.7.6-3.5 1.3-5.5 2.1-1 .4-2 .8-3.1 1.3-.5.2-1.1.5-1.6.7-.6.2-1.1.5-1.7.7-1.1.5-2.3 1-3.4 1.6-.6.3-1.2.6-1.8.8l-1.8.9c-1.6.8-3.1 1.6-4.7 2.5.7 1.1 1.3 2.3 1.9 3.6 1 2.1 1.8 4.6 2.1 7.4.3 2.7.1 5.8-.7 8.7-.8 3-2.2 5.9-4 8.7-.9 1.4-1.9 2.8-2.9 4.1-1.1 1.3-2.2 2.6-3.4 3.9-2.3 2.5-4.8 5.1-7.3 7.6-5 5-10.4 9.9-16.2 14.3-2.9 2.2-6 4.3-9.4 6.2-1.7.9-3.5 1.8-5.3 2.5-.9.4-1.9.7-2.8 1-1 .3-2 .5-3 .6-1 .1-2 .2-3.1.2-1-.1-2.1-.3-3.1-.6-1-.4-1.9-.9-2.7-1.7-.4-.4-.7-.8-1.1-1.2a9.61 9.61 0 0 1-1.6-4.3c-.1-1 0-2 .1-2.9 0-.2.1-.5.2-.7l.1-.3.1-.3c.1-.4.3-.9.4-1.3.2-.4.4-.8.5-1.2l.3-.6.3-.6.3-.6c.1-.2.2-.4.3-.5.2-.4.4-.7.6-1.1.4-.7.9-1.4 1.3-2l1.3-1.9c.4-.6.9-1.2 1.3-1.8.4-.6.8-1.1 1.2-1.6.2-.3.4-.5.6-.8.2-.2.4-.5.6-.7.4-.5.8-.9 1.1-1.4.4-.4.7-.8 1.1-1.2.3-.4.7-.8 1-1.1.3-.3.6-.7.9-1 .5-.6 1-1.1 1.4-1.5.8-.8 1.2-1.3 1.2-1.3s.2-.3.7-.8c.5-.5 1.2-1.2 2-2.1l.7-.7.8-.8 1.8-1.8c1.3-1.2 2.7-2.6 4.3-4.1 3.2-2.9 7.1-6.2 11.5-9.6 4.3-3.3 9.1-6.7 14.1-9.7 3.1-2 6.4-3.8 9.5-5.5-.2-.3-.3-.6-.5-.8-1-1.5-2.5-3.5-4.3-5.6-1.9-2.1-4.1-4.4-6.6-6.7-5.1-4.7-11.3-9.7-17.4-14.6-3.1-2.5-6.1-4.9-9-7.3-2.9-2.4-5.5-4.8-7.9-7-2.4-2.2-4.5-4.3-6.2-6.1-1.7-1.8-3-3.3-3.9-4.4-.2-.3-.5-.6-.8-1-.3-.4-.7-.8-1.1-1.3-.8-1-1.7-2.3-2.8-3.7-1-1.5-2.1-3.2-3.2-5.1-.5-1-1.1-2-1.6-3.1s-1-2.2-1.5-3.4c-.5-1.2-.9-2.5-1.3-3.8-.4-1.3-.7-2.7-1-4-.3-1.4-.5-2.8-.6-4.3-.1-1.5-.2-2.9-.2-4.4 0-.8 0-1.5.1-2.3v-.6l.1-.6.1-.6v-.6l.3-2.3c.1-.7.3-1.5.4-2.2.6-3 1.3-6 2.2-8.9 1.8-5.8 4.2-11.4 6.9-16.3s5.8-9.1 8.7-12.4c2.9-3.3 5.5-5.9 7.4-7.5.5-.4.9-.8 1.3-1.1.4-.3.7-.6 1-.8.5-.4.8-.7.8-.7s.2-.1.5-.4c.2-.1.4-.3.6-.5.1-.1.3-.2.4-.3.1-.1.3-.2.5-.3 1.3-1 3.3-2.3 5.7-3.7 2.4-1.4 5.3-2.9 8.5-4.3 1.6-.7 3.3-1.3 5.1-1.8 1.7-.6 3.5-1 5.4-1.4 3.6-.8 7.3-1.2 10.8-1.2 1.7 0 3.4.1 5 .3.8.1 1.6.2 2.3.4.4.1.7.2 1.1.2.4.1.7.2 1 .3.2 0 .3.1.5.1.2.1.3.1.5.2l.9.3c.6.2 1.2.4 1.7.7.3.1.5.2.7.3.2.1.5.2.7.3l1.2.6.9.6c.2.2.5.3.6.5.3.3.5.4.4.4 0 0-.3-.1-.7-.3-.2-.1-.5-.2-.8-.4-.3-.2-.6-.3-1-.5-.8-.4-1.7-.7-2.8-1.1-1.1-.4-2.4-.7-3.8-1-2.8-.5-6.2-.8-9.8-.6-3.6.2-7.3.9-11 1.9-1.8.5-3.6 1.1-5.4 1.8-.9.3-1.7.7-2.6 1.1-.8.4-1.7.7-2.5 1.1-.8.4-1.6.8-2.3 1.2-.7.4-1.5.8-2.2 1.2-.4.2-.7.4-1 .6-.3.2-.7.4-1 .6-.2.1-.3.2-.5.3-.2.1-.3.2-.5.3l-.9.6c-2.4 1.6-4.2 3.1-5.5 4.1-.3.3-.6.5-.9.7-.2.2-.5.4-.6.5-.3.3-.5.4-.5.4s-.1 0-.2.1-.3.2-.5.4c-.4.4-1 .9-1.8 1.6-1.5 1.4-3.6 3.6-6 6.4-1.2 1.4-2.4 3-3.6 4.8-1.2 1.8-2.5 3.7-3.6 5.8-1.2 2.1-2.3 4.3-3.4 6.6s-2 4.8-2.9 7.3c-.8 2.5-1.6 5.2-2.2 7.8-.6 2.7-1.1 5.4-1.4 8.1l-.1 1c0 .3 0 .7-.1 1v2c0 1.3.1 2.7.2 4 .1.7.1 1.3.2 1.9l.3 1.9c.2 1.3.5 2.5.9 3.7 1.4 4.8 3.5 9 5.7 12.6 2.2 3.5 4.4 6.3 6.2 8.5 3.5 4.2 8 8.7 12.9 13.2s10.3 9 15.6 13.4c5.3 4.5 10.4 8.9 14.9 13.2 2.2 2.2 4.3 4.4 6 6.5 1.8 2.1 3.3 4.2 4.5 6.2.3.4.5.8.8 1.2 6.6-3.5 13.1-6.4 18.5-8.5 1-.4 2-.7 2.9-1.1.2-.1.5-.2.7-.3.2-.1.5-.2.7-.2.4-.1.9-.3 1.3-.4.8-.3 1.6-.5 2.3-.8.4-.1.7-.2 1-.3l1-.3c2.5-.4 3.9-.7 3.8-.6zm-32.2 13.7c-3.1 1.7-6.3 3.5-9.4 5.5-4.9 3-9.6 6.3-13.8 9.5-4.3 3.2-8.1 6.4-11.3 9.3-3.2 2.8-5.7 5.4-7.5 7.1-.9.9-1.6 1.6-2 2.1-.2.2-.4.4-.5.6l-.2.2s-.5.6-1.5 1.6c-.5.5-1 1.2-1.7 1.9-.6.8-1.4 1.6-2.1 2.6-1.5 1.9-3.3 4.3-5.1 7-.4.7-.9 1.4-1.3 2.1-.2.4-.4.7-.7 1.1l-.3.6-.3.6-.6 1.2-.6 1.2c-.4.8-.7 1.6-.9 2.5-.1.2-.1.4-.2.6 0 .2-.1.4-.1.6-.1.4-.1.9-.1 1.3 0 .9.1 1.8.3 2.6s.6 1.6 1.1 2.3c.3.3.6.7.9.9.3.3.7.5 1.1.7 1.5.8 3.3 1 5.1.9 1.8-.2 3.5-.6 5.2-1.2 3.3-1.2 6.3-2.9 8.9-4.5 2.6-1.6 4.8-3.3 6.6-4.6 3.6-2.7 7.9-6.3 12.5-10.6 2.3-2.1 4.7-4.4 7-6.8l3.6-3.6c1.2-1.2 2.4-2.5 3.5-3.8 2.2-2.6 4.2-5.4 5.6-8.4 1.5-3 2.4-6.1 2.6-9.2.1-1.5 0-3.1-.2-4.5-.2-1.5-.6-2.9-1-4.2-.9-1.8-1.7-3.6-2.6-5.2z"/><path d="M245.9 183.3s-.3.2-.9.7c-.6.4-1.4 1.1-2.5 1.8-1.1.8-2.5 1.7-4.1 2.8-1.6 1.1-3.6 2.2-5.8 3.4-2.2 1.2-4.7 2.4-7.6 3.2-.2 0-.4.1-.5.1-.2 0-.4.1-.6.1-.2 0-.4.1-.6.1-.2 0-.4.1-.6.1-.4.1-.8.1-1.2.1H220.2c-.8-.1-1.7-.3-2.4-.7-.8-.4-1.4-1.1-1.8-1.9-.4-.8-.7-1.6-.9-2.5-.2-.9-.3-1.8-.4-2.7-.1-1.8-.1-3.6-.3-5.5-.1-.9-.2-1.9-.4-2.8-.2-.9-.6-1.8-1.1-2.5-.3-.4-.6-.7-1-.9l-.6-.3c-.1 0-.2-.1-.3-.1-.1 0-.2 0-.3-.1-.4 0-.8.1-1.3.2-.4.2-.9.4-1.3.6-.8.5-1.6 1.1-2.4 1.8-.8.7-1.5 1.4-2.3 2.1-1.5 1.5-2.9 3-4.4 4.6-2.9 3.2-5.9 6.5-9 9.7-1.6 1.6-3.2 3.2-5 4.7-1.8 1.5-3.7 2.9-5.8 4-.5.3-1.1.5-1.7.7-.6.2-1.2.4-1.8.5-.3.1-.6.1-.9.1h-1c-.3 0-.6-.1-1-.1l-.9-.3-.2-.1h-.1l-.1-.1c-.1 0-.2-.1-.2-.1l-.2-.2c-.3-.2-.6-.5-.8-.8-.4-.6-.7-1.2-.9-1.8-.4-1.2-.5-2.5-.6-3.7-.1-1.2 0-2.4 0-3.6l.3-3.6c.3-2.4.7-4.7 1.2-7 1-4.6 2.2-9.2 3.4-13.7 2.6-9 5.6-17.7 8.7-26l3.9-10c-1.1 1.8-2.6 4.3-4.6 7.3a652 652 0 0 1-17.8 25.7c-3.8 5.1-7.9 10.6-12.3 16.2-2.2 2.8-4.5 5.6-6.9 8.5-2.4 2.8-4.9 5.7-7.6 8.4-1.3 1.4-2.7 2.7-4.2 4-.7.6-1.5 1.3-2.3 1.9-.8.6-1.6 1.2-2.5 1.6-.5.2-.9.5-1.5.6-.3.1-.5.1-.8.2-.3 0-.6 0-1-.1l-.2-.1-.2-.1c-.1-.1-.3-.1-.4-.2-.1-.1-.2-.1-.4-.2l-.3-.2c-.4-.3-.8-.7-1.2-1.1-.4-.4-.7-.8-.9-1.3-.3-.4-.5-.9-.7-1.4-.4-.9-.8-1.9-1-2.8-.5-1.9-.8-3.9-1-5.8-.2-1.9-.3-3.9-.4-5.8-.1-1.9-.1-3.8-.2-5.7-.1-.9-.1-1.9-.2-2.8-.1-.4-.1-.9-.2-1.3-.1-.2-.1-.4-.2-.5l-.1-.1v-.1h-.1c-.2.1-.4.2-.6.4-.4.3-.9.7-1.3 1.2-.8.9-1.6 1.8-2.3 2.7-1.5 1.9-3 3.8-4.4 5.7-1.2 1.5-2.4 3-3.8 4.3-.7.7-1.3 1.3-2.1 1.8-.4.3-.8.5-1.3.7-.2.1-.5.2-.8.2-.3 0-.6.1-.9 0-.3-.1-.6-.2-.9-.4-.3-.2-.5-.5-.6-.7-.1-.1-.1-.3-.2-.4 0-.1-.1-.3-.1-.4-.1-.3-.1-.5-.1-.7 0-.9.2-1.8.4-2.5.4-1.5 1-2.9 1.7-4.2 1.2-2.6 2.5-4.7 3.8-6.6.6-.9 1.3-1.8 1.9-2.6a20 20 0 0 1 1.9-2.2c.3-.3.7-.7 1.3-.8.3-.1.5-.1.8-.1.3 0 .5.1.7.2.4.2.7.5 1 .8.3.3.5.6.6.8.3.6.6 1.1.8 1.6.2.5.3.9.4 1.3.2.7.2 1.3.2 1.6.3-.4.6-.7 1-1.1.4-.5.9-.9 1.5-1.4.3-.2.6-.4 1-.6.1 0 .2-.1.3-.1.1 0 .3-.1.4-.1.2 0 .3 0 .5.1.2 0 .3.1.4.2l.2.2c.1.1.1.2.2.2.1.1.2.3.2.4.1.3.2.5.3.7.1.5.2.9.3 1.3.1.9.2 1.7.2 2.6.1 1.7.1 3.4.2 5.2.1 1.7.1 3.5.3 5.2.1 1.8.3 3.5.7 5.2.3 1.7.8 3.5 1.5 5a7.7 7.7 0 0 0 2.3 2.9c.2.1.3.2.5.3l.3.1h.7c.2 0 .4 0 .6-.1.4-.1.8-.3 1.2-.5.8-.4 1.5-.9 2.2-1.4 1.5-1.1 2.8-2.3 4.2-3.6 2.7-2.5 5.2-5.2 7.7-8 2.5-2.7 4.8-5.5 7.1-8.3a601.5 601.5 0 0 0 32.2-43.1c2.3-3.4 4.1-6.2 5.3-8.1.1-.1.1-.2.2-.3 1.6-3.9 3.2-7.4 4.6-10.6 2.6-5.7 4.9-10.3 6.9-13.7 1.9-3.4 3.5-5.7 4.6-7 .5-.7.9-1.1 1.2-1.3.2-.2.3-.2.2 0-.2.4-.9 1.6-2.1 3.6-1.1 2-2.6 4.9-4.4 8.6-3.5 7.4-8.2 18-13.2 31.5-2.5 6.7-5.2 14.2-7.7 22.3-1.2 4-2.4 8.2-3.5 12.5-.5 2.1-1 4.3-1.5 6.5-.4 2.2-.8 4.4-1.1 6.6l-.3 3.3c-.1 1.1 0 2.2.1 3.3.1 1.1.4 2.1.9 3 .2.4.5.7.9.9.1.1.2.1.3.1.1 0 .2.1.4.1l.4.1c.1 0 .2 0 .4.1.5.1 1 .1 1.5 0 .3 0 .5-.1.8-.1.1 0 .3-.1.4-.1.1 0 .3-.1.4-.1 1-.3 2-.8 3-1.3 1.9-1.1 3.7-2.5 5.4-4 1.7-1.5 3.3-3 4.9-4.6 1.6-1.6 3.1-3.2 4.7-4.8l4.5-4.8c1.5-1.6 3-3.1 4.6-4.6.8-.7 1.6-1.4 2.5-2.1.9-.6 1.8-1.2 2.8-1.6.5-.2 1.1-.3 1.7-.3.2 0 .3 0 .5.1.1.1.3.1.4.2.3.1.5.3.7.4.5.3.9.7 1.2 1.2.3.4.6.9.8 1.4.4 1 .6 2 .7 3 .1 1 .2 2 .2 2.9.1 1.9 0 3.8.3 5.6.1.9.3 1.8.6 2.5.3.8.8 1.5 1.4 2 .6.5 1.4.8 2.2.9.8.1 1.6.1 2.4 0 1.6-.2 3.1-.6 4.5-1.1 1.4-.5 2.7-1 4-1.6a92.21 92.21 0 0 0 11.2-6.5c1.3-.9 2.2-1.5 2.9-2 .4.1.7-.2.7-.2zm-134.3-1.1c.4-.5.8-1 1.3-1.5h-.1.1v-.1c0-.1 0-.2-.1-.4s-.1-.4-.2-.7c-.2-.6-.5-1.3-1-2.2-.3-.4-.6-.9-.9-1.3-.2-.2-.4-.4-.7-.5-.2-.1-.5-.2-.8-.2-.1 0-.3 0-.4.1-.1.1-.3.1-.4.2-.2.2-.5.5-.7.8-.5.6-1 1.3-1.5 2-1 1.5-2.1 3.2-3.1 5.1-.5.9-1 1.9-1.6 3-.5 1.1-1 2.2-1.4 3.3-.2.6-.4 1.2-.5 1.8-.1.6-.3 1.2-.2 1.8 0 .3.1.5.1.7 0 .1.1.2.1.2 0 .1.1.1.2.1.2.1.3.1.6 0 .2-.1.5-.2.8-.3.5-.3 1.1-.7 1.6-1.2l1.5-1.5c1-1.1 2-2.3 3-3.5 1.4-1.9 2.8-3.8 4.3-5.7z"/><path d="M355 169.2c0 .2-.1.3-.3.5-.3.3-.8.5-1.4.7-.6.2-1.3.3-2 .4-.8.1-2 .2-3.6.3-1.6.1-3.6.2-5.7.4-2.2.2-4.5.5-7 .9-.6.1-1.2.2-1.9.4-.6.1-1.3.3-1.9.4-1.2.3-2.3.9-3.3 1.7-1 .8-1.8 1.7-2.5 2.7-.7 1-1.3 2-1.9 3.1a35.7 35.7 0 0 0-2.4 6c-.6 1.8-1 3.4-1.3 4.5-.3 1.2-.4 1.9-.5 2.1-.1.9-.4 2.6-.7 4.6-.3 2-.6 4.3-.8 6.4 0 .3-.1.6-.1.9 0 .2-.1.4-.1.6 0 .2-.1.3-.1.5s-.1.4-.1.6l-.3 1.2c-.1.4-.2.8-.4 1.2-.1.3-.3.6-.5.7-.1.1-.2.2-.3.2-.1.1-.2.1-.3.2h-.3c-.1 0-.2 0-.2-.1-.1 0-.2-.1-.3-.2-.1 0-.1-.1-.2-.1l-.2-.2c-.1-.1-.1-.2-.2-.2l-.1-.1-.1-.2-.1-.2c0-.1-.1-.1-.1-.2s-.1-.3-.1-.4c0-.1 0-.1-.1-.2l-.1-.2c0-.2-.1-.3-.1-.5-.1-.3-.1-.7-.2-1-.1-.3-.1-.7-.2-1-.3-1.6-.4-3.4-.6-5.3-.3-3.8-.5-8.2-.6-13.1 0-4.9 0-10.2.5-15.9.2-2.4.5-4.3.8-5.9-.6 1.2-1.3 2.7-2.1 4.3-1.3 2.7-3.1 5.8-5.1 9.4-2.1 3.6-4.5 7.5-7.3 11.7a149.81 149.81 0 0 1-9.7 13c-1.9 2.2-3.9 4.4-6.3 6.3-1.2 1-2.4 1.9-3.8 2.7-.7.4-1.5.7-2.3.9-.8.2-1.7.3-2.6.2-.1 0-.2 0-.3-.1l-.3-.1c-.2-.1-.4-.2-.6-.2l-.6-.3-.6-.3c-.7-.5-1.3-1.1-1.9-1.8-1.1-1.3-1.8-2.9-2.3-4.4-.5-1.6-.9-3.2-1.2-4.8-.3-1.6-.5-3.2-.7-4.9a161 161 0 0 1-.6-9.8c-.1-1.6-.1-3.2-.3-4.8l-.3-2.3c-.1-.4-.2-.7-.3-1-.1-.2-.1-.3-.2-.4h-.1-.1s-.1 0-.1.1l-.1.1c-.1 0-.1.1-.2.1-.4.3-.9.7-1.3 1.1-.8.8-1.6 1.8-2.4 2.7-1.6 1.9-3.1 3.9-4.6 5.8-1.5 1.9-3 3.9-4.7 5.7-.8.9-1.7 1.8-2.6 2.7l-1.5 1.2c-.5.4-1.1.7-1.9 1-.3.1-.6.2-.9.2h-.5c-.2 0-.4 0-.5-.1-.2 0-.3-.1-.5-.2s-.3-.2-.5-.3c-.2-.1-.3-.2-.4-.4-.1-.1-.2-.3-.3-.4-.3-.6-.4-1.2-.4-1.7s0-1 .1-1.5c.1-.9.4-1.8.6-2.6.3-.8.6-1.6.9-2.3.6-1.5 1.3-2.8 2-4.1.7-1.3 1.4-2.5 2-3.6 1.4-2.2 2.7-4.2 4-5.9.7-.8 1.3-1.6 2-2.3.2-.2.4-.4.6-.5.2-.2.5-.3.8-.4.3-.1.6-.1.9-.1.3 0 .6.1.8.2.5.2.9.5 1.2.8.3.3.6.6.8.9.4.6.7 1.2.9 1.8.5 1.1.7 2 .8 2.7.1.4.1.7.1.9v.1c.5-.5 1-1.1 1.5-1.6s1-1 1.6-1.4c.2-.1.3-.2.5-.3l.3-.1c.1 0 .2-.1.3-.1.6-.2 1.3-.2 1.8.2l.2.2.2.2.2.2.1.2c.1.1.1.2.2.3 0 .1.1.2.1.3l.3 1.2.3 2.3c.1 1.5.2 3.1.2 4.6.1 3.1.2 6.1.4 9.2.2 3 .6 6.1 1.3 9 .4 1.4.9 2.9 1.6 4.1.7 1.3 1.6 2.4 2.7 3.1.1.1.3.2.4.2.2.1.3.2.5.2a4.71 4.71 0 0 0 2.9 0c.7-.2 1.3-.5 1.9-.8.6-.3 1.2-.7 1.8-1.1 2.4-1.7 4.5-3.7 6.5-5.8 2-2.1 3.8-4.3 5.5-6.4 1.7-2.2 3.3-4.3 4.8-6.4 3-4.2 5.6-8.2 7.9-11.9 2.3-3.7 4.1-6.9 5.7-9.7 1.1-2 2-3.8 2.7-5.2.2-1 .4-1.9.6-2.6.5-1.8 1-2.5 1.1-2.2.2.2.1 1.3 0 3.1s-.3 4.3-.4 7.3a255.7 255.7 0 0 0-.3 20.4c.1 4.3.3 8.7.7 12.2 0 .4.1.9.1 1.3 0 .2 0 .4.1.6 0 .2 0 .3.1.5v.4s.1-.1.1-.2v-.2c.1-.3.1-.6.2-1 .3-1.3.5-2.7.8-4 .5-2.6 1.1-5 1.4-6.5.1-.4.3-1.3.6-2.5s.7-2.9 1.3-4.7c.6-1.9 1.3-3.9 2.4-6.1.5-1.1 1.1-2.1 1.9-3.2.7-1 1.6-2 2.6-2.9a9.84 9.84 0 0 1 4.4-2.3c.3-.1.6-.1.9-.2.6-.1 1.2-.3 1.8-.4 2.4-.5 4.8-.8 7-1 2.2-.2 4.1-.3 5.8-.4 1.6-.1 2.9-.2 3.8-.2.9-.1 1.6-.1 2.2-.2.6-.1 1.1-.2 1.4-.4.3-.2.4-.4.4-.5 0-.2 0-.3.1-.3 0 0 .1.1.2.3.7-.3.7-.2.7 0zm-97.2 12.4c.2-.3.4-.5.7-.8-.1 0-.1-.1-.1-.1v-.1-.1h.1s.1.1.1 0v-.1c0-.2-.1-.4-.2-.7-.2-.5-.4-1.2-.9-2.1-.2-.4-.4-.9-.7-1.3-.3-.5-.6-1-1.1-1.4-.4-.4-.9-.8-1.4-.7-.1 0-.2 0-.4.1-.1 0-.2.1-.4.2-.3.2-.5.4-.8.7-.5.6-1.1 1.3-1.6 2s-1.1 1.5-1.6 2.4c-1.1 1.7-2.2 3.6-3.3 5.6-.5 1-1.1 2.1-1.6 3.2s-1 2.3-1.4 3.5c-.2.6-.4 1.2-.5 1.8-.1.6-.3 1.3-.3 1.8 0 .3 0 .6.1.8.1.2.1.3.2.4l.1.1H243.1c.1 0 .4 0 .6-.1.4-.1.8-.3 1.2-.6a24.96 24.96 0 0 0 3.5-3.3c1.5-1.7 3-3.6 4.6-5.5 1.6-1.7 3.2-3.7 4.8-5.7zm6.2-3.1zM534.9 159.2h-.2c-.1 0-.2-.1-.4-.1-.4-.1-1-.2-1.8-.3-1.5-.2-3.8-.2-6.6.1-2.8.3-6.2.9-9.9 1.7-3.8.8-7.9 1.9-12.4 3.1-.6.2-1.2.3-1.8.5-2.1 19.8-4.2 39.8-6.1 58.2-4.8 45.2-8.5 80.8-8.5 80.8s2.2-31.5 5.7-74.6c1.5-19.4 3.3-41.1 5.2-63.4-7.4 2.1-15.4 4.6-23.6 7.1-10.2 3.1-20.7 6.3-30.4 8.8-4.8 1.2-8.9 2.1-12.5 2.6-.1 8-.1 16.1.2 24.1.1 4.1.3 7.9.6 11.3.3 3.4.6 6.3.8 8.6.1.7.1 1.3.2 1.8v.9c-.1.1-.2 0-.3-.3-.2-.3-.4-.9-.7-1.8-.3-.8-.5-1.8-.7-2.8l-.3-1.6-.3-1.6c-.9-5.6-1.4-11.2-1.7-16.8-.3-5.7-.5-11.3-.6-17.1v-4.1c-2.4.3-4.5.4-6.2.4-2.3 0-3.9-.3-4.9-.6-.2-.1-.4-.2-.6-.2-.2-.1-.3-.2-.3-.2-.2-.1-.2-.2 0-.3.3-.1 1.1-.1 2.4-.2 1.3-.1 3.1-.3 5.4-.6 1.3-.2 2.7-.5 4.3-.8 0-9.3.2-18.6.7-28.1a1307.11 1307.11 0 0 1 8.8-97.8c.9-6.5 1.8-11.4 2.5-13.5.3-.8.1 1.6-.2 5.1-.3 3.5-.7 8.2-1 12-1 10.7-2.1 22.8-2.6 28.8-.6 6.7-1.2 13.3-1.7 20-1.3 16.6-2.2 33.2-2.9 49.8-.3 7.7-.5 15.4-.7 23.2 3.4-.7 7.3-1.7 11.7-2.8 7.9-2 17.5-4.7 27.5-7.4 9.2-2.5 18.6-5.2 27.4-7.3 2.3-26.8 4.8-54.4 7.4-79.7.6-5.8 1.2-11.3 1.7-16.3.6-5 1.1-9.6 1.6-13.7.5-4.2 1-7.9 1.5-11.3.2-1.7.5-3.3.7-4.7.2-1.5.4-2.9.7-4.2.2-1.3.4-2.5.6-3.6l.3-1.6c.1-.5.2-1 .3-1.4.4-1.8.7-3.3 1-4.4.6-2.2 1-2.9 1.2-2.3.2.6.2 2.5 0 5.6-.1 1.6-.2 3.4-.3 5.6-.1 2.2-.3 4.6-.5 7.3s-.5 5.7-.7 9c-.3 3.3-.6 6.8-.9 10.6-.3 3.8-.7 7.9-1.1 12.2-.4 4.3-.9 8.8-1.4 13.6-1 9.6-2.1 20.1-3.2 31.3-1.2 11.2-2.4 23-3.7 35.1l-1.2 11.8c8.9-2.1 16.9-3.6 22.9-4 3.1-.2 5.7-.2 7.4.1.9.1 1.5.3 2 .4.2.1.4.1.5.2-.4-.2-.3-.2-.3-.2zM575.6 194c-.2.2-1.6 1.8-3.8 3.9-2.2 2.1-5.1 4.6-8.3 6.9-3.1 2.3-6.5 4.2-9.1 5.3-1.3.6-2.4 1-3.2 1.3-.4.1-.7.2-.9.3-.2.1-.3.1-.3.1h-.1c-.1 0-.2.1-.4.1-.2.1-.4.1-.7.2-.3.1-.6.2-1 .3-.8.2-1.9.5-3.3.7-.7.1-1.5.2-2.4.2-.9 0-1.9 0-3-.2-1.1-.1-2.3-.4-3.7-.9-.3-.1-.7-.2-1-.4-.3-.1-.7-.3-1-.4-.2-.1-.3-.2-.5-.3-.1 0-.2-.1-.3-.1l-.3-.1c-.2-.1-.3-.2-.5-.3-.2-.1-.3-.2-.5-.3-1.4-.9-2.7-2.1-3.7-3.5-1.1-1.5-1.8-3.2-2.3-5-.4-1.8-.6-3.6-.5-5.4.1-1.8.4-3.5.8-5.2.9-3.3 2.2-6.1 3.6-8.3a13.01 13.01 0 0 1 2.9-3.3c.4-.3.8-.6 1.5-.8.1 0 .2-.1.3-.1H534.8c.4 0 .7.1 1 .4.1.1.3.2.4.3l.2.2.2.2c.1.1.2.2.2.3.1.1.2.2.2.3.1.1.2.3.3.4.2.3.2.6.3.9 0 .3 0 .6-.1.9 0 .2-.1.3-.2.4-.1.1-.2.2-.2.4-.2.2-.3.4-.4.5-.1.2-.3.3-.4.4-.3.2-.5.4-.8.6-.5.4-1 .7-1.5 1-.9.6-1.7 1.1-2.5 1.5-.9.5-1.6.9-2.3 1.2-.4 1-.8 2.2-1.2 3.5-.4 1.6-.7 3.4-.7 5.2 0 1.8.2 3.7.8 5.3.6 1.7 1.6 3.1 2.7 4.2a15.2 15.2 0 0 0 6.3 3.6c2.7.9 5.7 1.1 7.9.9 1.1-.1 2-.2 2.7-.3.6-.1 1-.2 1-.2s.1 0 .4-.1c.2-.1.6-.1 1-.3l3.6-1.2c1.4-.6 3.1-1.4 4.8-2.3 1.7-.9 3.5-2 5.2-3.2 3.4-2.3 6.6-5 8.8-7 2-1.6 3.3-3 3.1-2.7zm-44.3-9.2c-.1.2-.3.4-.4.7-.1.2-.3.4-.4.7.2-.2.5-.4.7-.6.7-.5 1.4-1.1 2.2-1.8.4-.3.8-.7 1.1-1 .2-.2.3-.4.4-.5v-.2l-.5-.5c-.1 0-.2.1-.3.1-.2.1-.4.3-.6.5l-.7.7c-.4.5-.9 1.1-1.3 1.7 0-.1-.1 0-.2.2z"/><path d="M665.7 193.3s-.5.6-1.5 1.7-2.4 2.7-4.4 4.6c-1.9 2-4.3 4.3-7.2 6.9-1.4 1.3-3 2.6-4.7 3.9-1.7 1.3-3.5 2.7-5.4 4.1-1.9 1.3-4 2.7-6.3 3.9-2.2 1.3-4.6 2.4-7.2 3.4-2.6 1-5.3 1.7-8.2 2.1-1.4.1-3 .1-4.4-.2-1.5-.3-2.9-1-4.1-1.9-1.2-.9-2.3-2.1-3.1-3.4-.8-1.3-1.5-2.7-2-4.2-1.1-2.9-1.7-6-2.1-9.1-.4-3.1-.6-6.3-.8-9.4l-.3-4.7c-.1-.8-.1-1.6-.3-2.3-.1-.4-.1-.7-.2-1.1 0-.1-.1-.2-.1-.2 0-.1-.1-.1-.1-.1l-.1-.1h-.1c-.1.1-.3.2-.4.3-.3.2-.5.5-.8.8-.5.6-1 1.3-1.5 2-1 1.4-1.9 2.8-2.8 4.2-1.8 2.8-3.6 5.7-5.5 8.5-.9 1.4-1.9 2.8-2.9 4.1-1 1.3-2.1 2.6-3.3 3.8-.6.6-1.2 1.2-1.9 1.7s-1.4 1-2.2 1.4c-.8.4-1.8.6-2.8.5-.5-.1-1-.2-1.4-.4-.1 0-.1-.1-.2-.1l-.2-.1c-.1-.1-.2-.1-.3-.2-.2-.1-.4-.3-.5-.4l-.6-.6c-.2-.2-.3-.4-.5-.6-.3-.4-.5-.9-.7-1.3-.4-.9-.7-1.8-.9-2.7-.4-1.8-.6-3.5-.7-5.1-.2-3.3.1-6.2.4-8.9.3-2.7.8-5.1 1.3-7.2.5-2.1 1.1-4 1.6-5.6 1.1-3.2 2.3-5.3 3.3-6.4.5-.6.8-.9 1-1.1.2-.2.3-.2.2 0-.2.3-.9 1.3-1.7 3-.8 1.8-1.8 4.4-2.6 7.7a69.56 69.56 0 0 0-1.8 12.3c-.1 2.4-.2 5 .1 7.7l.3 2c.1.7.3 1.3.5 2s.4 1.3.8 1.9c.3.6.7 1.2 1.2 1.6.4.4 1 .7 1.5.8.6.1 1.2 0 1.8-.2.6-.2 1.2-.6 1.8-1 .6-.4 1.2-.9 1.7-1.4 1.1-1 2.1-2.2 3.1-3.5 1-1.3 2-2.6 2.9-3.9 1.9-2.7 3.7-5.6 5.6-8.6 1-1.5 1.9-3 3-4.4.5-.7 1.1-1.5 1.7-2.2.3-.4.6-.7 1-1 .2-.2.4-.3.7-.5l.1-.1c.1 0 .1 0 .1-.1.1 0 .2-.1.3-.1h.6c.2 0 .3.1.4.2.1.1.2.2.3.4 0 0 0 .1.1.1 0 0 0 .1.1.1 0 .1.1.1.1.2s.1.2.1.3l.3 1.2c.1.8.2 1.5.2 2.3.1 1.5.2 3 .2 4.5.1 3 .3 6 .6 8.9.3 2.9.8 5.9 1.6 8.7.4 1.4.9 2.7 1.6 4s1.5 2.4 2.4 3.4c1 1 2.1 1.8 3.4 2.3 1.3.5 2.6.7 4 .8.7 0 1.4 0 2.1-.1l.5-.1.5-.1c.3-.1.7-.1 1-.2l.5-.1.5-.1c.3-.1.7-.2 1-.2l.5-.1c.2 0 .3-.1.5-.1a53.1 53.1 0 0 0 8.3-3.3c.6-.3 1.1-.6 1.7-.9.6-.3 1.1-.6 1.6-.9 1.1-.6 2.1-1.3 3.1-1.9.3-.2.5-.3.8-.5.2-.2.5-.3.7-.5.5-.3 1-.7 1.4-1 .5-.3.9-.7 1.4-1 .5-.3.9-.7 1.3-1 .9-.7 1.7-1.3 2.5-2s1.6-1.3 2.4-2c3-2.6 5.6-4.9 7.6-7 2.1-2 3.6-3.7 4.7-4.8 1.7-1.3 2.2-2 2.2-2z"/><path d="M802.6 186s-.4.3-1.1.9c-.7.6-1.7 1.5-3.1 2.6-1.4 1.1-3.1 2.5-5.1 4a235 235 0 0 1-7 5c-2.7 1.8-5.7 3.7-9.1 5.4-1.7.9-3.5 1.7-5.5 2.4-1.9.7-4 1.3-6.3 1.5-2.2.1-4.6-.2-6.8-1-.3-.1-.6-.2-.8-.3a3 3 0 0 1-.8-.4c-.1-.1-.3-.1-.4-.2l-.4-.2c-.3-.1-.5-.3-.8-.4-.3-.2-.5-.3-.8-.5-.1-.1-.3-.2-.4-.2l-.4-.2c-.3-.2-.5-.3-.8-.5-.2-.2-.5-.4-.7-.5-.1-.1-.3-.2-.4-.3l-.4-.3c-.2-.2-.5-.4-.7-.6-.5-.4-1-.8-1.4-1.2-.9-.8-1.8-1.7-2.7-2.6-1.8-1.8-3.5-3.7-5.2-5.7-1.7-2-3.5-4-5.4-5.8-1-.9-2-1.8-3.1-2.4l-.4-.2c-.1 0-.1-.1-.2-.1s-.1-.1-.2-.1-.3-.1-.4-.1h-.4c-.6 0-1.1.2-1.7.5-1.2.5-2.2 1.4-3.3 2.3-1 .9-2 1.9-2.9 2.9-1.9 2.1-3.7 4.3-5.5 6.5-1.8 2.2-3.6 4.5-5.6 6.8-1 1.1-2 2.2-3.1 3.3-.6.5-1.1 1-1.8 1.5-.6.5-1.3.9-2.2 1.2-.4.1-.9.2-1.5.2-.5-.1-1.1-.3-1.5-.6l-.2-.1-.1-.1c-.1-.1-.2-.2-.2-.3l-.2-.3c-.1-.1-.1-.2-.2-.3-.2-.4-.4-.8-.5-1.2-.2-.8-.3-1.7-.3-2.5s0-1.6.1-2.4c.1-1.6.4-3.1.7-4.6.3-1.5.6-3 1-4.5.7-3 1.4-5.9 2-8.8.6-2.9 1-5.9 1.1-8.8 0-1.5-.1-2.9-.4-4.2 0-.2-.1-.3-.1-.5v-.1-.1s0-.1-.1-.1c-.1-.2-.2-.3-.4-.4-.2-.1-.3-.2-.5-.2h-.3H703.4a7 7 0 0 0-1.7.9c-.6.4-1.1.9-1.6 1.4-1 1-2 2.1-2.9 3.3-1.8 2.3-3.4 4.8-5 7.3s-3.1 5.1-4.5 7.6c-1.5 2.5-2.9 5.1-4.4 7.6-1.5 2.5-2.9 5-4.5 7.4-.8 1.2-1.6 2.4-2.4 3.5-.8 1.1-1.7 2.2-2.6 3.2-.5.5-1 1-1.6 1.5-.6.4-1.2.9-2.1 1.1-.4.1-.9.2-1.4.1-.1 0-.2 0-.4-.1-.1 0-.3-.1-.4-.1-.1 0-.2-.1-.3-.1-.1 0-.1 0-.2-.1l-.1-.1c-.8-.5-1.3-1.1-1.7-1.8-.4-.6-.6-1.3-.8-1.9-.2-.6-.3-1.2-.4-1.9-.2-1.2-.3-2.4-.4-3.5-.1-2.3 0-4.5.2-6.5.4-4.1 1.1-7.7 1.9-11 .8-3.2 1.7-6 2.7-8.4 1-2.4 2-4.3 3.1-5.8s2.2-2.6 3.1-3.2c.2-.2.5-.3.7-.4.2-.1.4-.2.6-.2.2 0 .4-.1.5-.1h.4c.4 0 .5.1.2.2-.2.1-.8.2-1.5.7-.4.2-.7.6-1.2 1-.4.4-.8.9-1.2 1.5-.8 1.2-1.7 2.8-2.5 4.6-.8 1.9-1.6 4.1-2.2 6.6-.7 2.5-1.3 5.3-1.8 8.5-.5 3.1-.9 6.5-.9 10.1 0 .9 0 1.8.1 2.7l.3 2.8.1.3.1.3c0 .2.1.4.2.7.1.2.1.4.2.6l.3.6c.2.4.4.7.6 1l.2.2.1.1s.1 0 .1.1l.1.1H668.8c.2 0 .5 0 .8-.1.3-.2.7-.4 1.1-.7.7-.6 1.4-1.4 2.1-2.2 1.4-1.6 2.6-3.5 3.9-5.4 2.5-3.9 4.9-8.1 7.5-12.5 1.3-2.2 2.6-4.5 4-6.7 1.4-2.3 2.8-4.6 4.4-6.9.8-1.1 1.6-2.3 2.4-3.4.9-1.1 1.8-2.2 2.8-3.3 1-1 2.1-2.1 3.5-2.9.3-.2.7-.4 1.1-.5.2-.1.4-.1.6-.2.3-.1.5-.1.8-.1 1.1 0 2.1.5 2.8 1.3.1.1.2.2.2.3.1.1.1.2.2.4.1.1.1.2.1.4 0 .1.1.2.1.3.1.2.1.4.1.6 0 .2.1.4.1.6l.3 2.3c.1 1.5 0 3-.1 4.5-.3 3-.9 5.9-1.5 8.8-.6 2.9-1.4 5.7-2.1 8.6-.3 1.4-.7 2.9-.9 4.3-.3 1.4-.5 2.9-.5 4.3 0 .7 0 1.4.1 2 .1.6.3 1.2.6 1.6 0 .1.1.1.1.2l.1.1.1.1.1.1c.2.1.3.1.6.1.2 0 .5-.1.8-.2.3-.1.6-.3.8-.4.6-.3 1.1-.8 1.7-1.2s1.1-1 1.6-1.5c1-1 2-2.1 2.9-3.2 1.9-2.2 3.8-4.5 5.6-6.7 1.9-2.2 3.8-4.5 5.8-6.5 1-1 2.1-2 3.3-2.9.6-.4 1.2-.9 1.9-1.2.7-.3 1.4-.7 2.2-.8h1.2c.1 0 .2 0 .3.1.1 0 .2.1.3.1l.3.1s.1 0 .1.1l.1.1c.3.2.7.4 1 .6l.5.3c.1.1.3.2.4.3 1.1.9 2.2 1.9 3.1 2.9 1.9 2 3.7 4.1 5.4 6.1 1.7 2 3.5 4 5.3 5.7.9.9 1.8 1.7 2.8 2.5.2.2.5.4.7.6.2.2.5.4.7.6.5.4 1 .7 1.5 1.1.3.2.5.3.8.5l.4.2c.1.1.3.1.4.2.3.1.5.3.8.4.3.1.5.2.8.4.1.1.3.1.4.2l.4.2c.3.1.5.2.8.3.6.2 1.1.4 1.7.5 1.1.3 2.3.4 3.4.4s2.2-.1 3.3-.3c2.2-.4 4.2-1.1 6.1-1.9 1.9-.8 3.7-1.7 5.4-2.6 1.7-.9 3.3-1.8 4.8-2.8 3-1.8 5.6-3.7 7.9-5.3 2.3-1.6 4.2-3.1 5.8-4.3 1.6-1.2 2.7-2.2 3.5-2.8.8-1.1 1.3-1.4 1.3-1.4z"/><path d="M877.6 185.1c-.3.2-1.8.9-3.8 2.3-2.1 1.4-4.7 3.4-7.6 6.1-.4.4-.9.8-1.3 1.2.2.1.3.2.5.3a13.01 13.01 0 0 1 3.3 2.9c.3.4.5.8.8 1.2.2.4.4.9.5 1.3l.3 1.3c.1.9.1 1.7-.1 2.5-.2 1.5-.6 2.9-1.1 4.1-.4 1.2-.9 2.1-1.3 2.9-.4.8-.8 1.4-1 1.8-.1.2-.2.4-.3.5-.1.1-.1.2-.1.2s0 .1-.1.2-.2.4-.4.6c-.4.6-.9 1.4-1.6 2.3a47.3 47.3 0 0 1-12.3 11.3c-1 .6-2.1 1.2-3.3 1.7-.6.2-1.2.4-1.9.5-.3 0-.7.1-1.1 0l-.3-.1c-.1 0-.2-.1-.3-.1-.1 0-.2-.1-.3-.1-.1-.1-.2-.1-.3-.2l-.2-.2c-.1-.1-.1-.2-.2-.3l-.1-.2v-.4-.1c-.1-.4-.1-.7-.1-1.1 0-.7.1-1.4.2-2.1.1-.7.3-1.3.5-2s.4-1.3.7-1.9c1-2.5 2.3-5 3.6-7.3a97.17 97.17 0 0 1 14.7-18.6c-1.1-.5-2.2-1-3.5-1.4-.9-.3-1.9-.6-3-.9a41.43 41.43 0 0 1-5.1-1.7c-.4-.2-.7-.4-1.1-.6-.5.5-1 .9-1.6 1.4-4.2 3.8-8.6 7.4-13.2 10.6-4.6 3.2-9.3 6-14.2 7.7-2.4.8-4.9 1.4-7.4 1.5-1.2 0-2.5-.1-3.7-.4-.3-.1-.6-.1-.9-.2-.3-.1-.6-.2-.8-.3-.3-.1-.5-.2-.8-.3-.3-.1-.5-.2-.8-.3a15.42 15.42 0 0 1-8.7-10.9c-.5-2.2-.5-4.3-.3-6.2a28.8 28.8 0 0 1 3-10.2c.7-1.4 1.6-2.8 2.5-3.9.5-.6 1-1.1 1.5-1.6.3-.2.6-.5.9-.7.2-.1.3-.2.5-.3.2-.1.4-.2.6-.2.1 0 .1 0 .2-.1h.2c.1 0 .3 0 .4-.1h.4c.1 0 .3 0 .4.1.1 0 .2.1.4.1.1.1.2.1.3.2.1.1.2.2.3.2l.2.2c.2.2.5.5.7.8l.1.1.1.1c.1.1.1.2.2.3 0 .1.1.2.1.3v.4c.1.4-.1.9-.3 1.3-.2.4-.4.6-.6.8-.4.4-.8.7-1.2 1-.8.6-1.5 1-2.2 1.5-1.3.8-2.5 1.5-3.3 2-.3.2-.6.3-.8.4-.6 1.5-1.1 3.1-1.4 4.7-.3 1.5-.5 3.1-.5 4.7s.2 3.3.7 4.9c.5 1.6 1.4 3.1 2.5 4.4 1.2 1.3 2.7 2.4 4.4 3.2 0 0 .1.1.4.2.1.1.3.1.4.2.2.1.4.2.6.2.2.1.5.2.7.2.1 0 .3.1.4.1.1 0 .2 0 .2.1h.2c.7.1 1.4.2 2.3.2 1.8 0 3.9-.3 6.3-1.1s5-1.9 7.7-3.4c5.4-3 11-7.1 16.4-11.7l4.6-4c-.2-.3-.3-.7-.3-1-.1-.5-.1-.9 0-1.3s.2-.8.4-1.2c.3-.7.7-1.4 1.2-2 .4-.6.9-1.2 1.4-1.7 1-1.1 2.2-2.1 3.4-3 .3-.2.6-.4.9-.7.2-.1.3-.2.5-.3l.2-.2.1-.1c.1 0 .1-.1.2-.1 1.2-.7 2.4-1.2 3.4-1.4.5 0 .9 0 1.2.1.2.1.4.1.5.3.2.1.3.3.4.6.1.2.1.4.1.6v.4c0 .1 0 .2-.1.3v.1l-.1.2-.1.2s0 .1-.1.1l-.3.4c-.4.4-.8.9-1.3 1.4-.4.4-.7.8-1.1 1.1-.5.5-1 1-1.4 1.5-1 1-1.9 2-2.9 3s-2 2-3 2.9l.6.3c.6.3 1.2.5 1.7.7 3.4 1.2 7 2.1 10.2 3.9 1-1 2-1.9 3-2.7a49.68 49.68 0 0 1 7.5-5.4c1.7-.9 2.7-1.3 2.4-1.1zm-74.4-.1c.3-.2.6-.5 1-.8.5-.4 1-.8 1.6-1.2.6-.5 1.2-.9 1.9-1.5l.9-.9c.1-.1.1-.2.2-.2l.1-.1.1-.1.1-.1.1-.1v-.1-.3s0-.1-.1-.1l-.1-.1-.5-.5c-.1-.1-.1-.1-.2-.1h-.1-.1-.1-.1c-.1 0-.2.1-.3.1-.1.1-.2.1-.3.2-.4.3-.8.7-1.1 1.1-.8.9-1.4 1.9-2.1 3.1-.3.4-.6 1-.9 1.7zm63 12.7c-.8-.6-1.7-1.2-2.7-1.7-2.1 2.1-4.3 4.5-6.4 7.1-3 3.7-6 7.8-8.5 12.2-1.2 2.2-2.4 4.4-3.2 6.8-.4 1.2-.8 2.3-1 3.5-.1.6-.2 1.2-.2 1.8v.8c0 .3.1.6.2.8.1.2.3.4.6.5.2.1.5.1.8.2.6 0 1.1-.1 1.6-.3 1.1-.3 2-.8 3-1.3 1.9-1 3.5-2.2 4.9-3.4 2.9-2.3 5-4.6 6.4-6.2.7-.8 1.2-1.5 1.6-1.9.2-.2.3-.4.4-.5.1-.1.1-.2.1-.2l.7-1.1c.5-.8 1.3-2 2.2-4 .4-1 .9-2.1 1.3-3.5.2-.7.4-1.4.5-2.2.1-.8.2-1.6.2-2.5-.1-.9-.3-1.7-.7-2.6-.4-.9-1-1.7-1.8-2.3zm-15.8-9.8c.5-.5 1.1-1 1.6-1.5 1.3-1.2 2.5-2.4 3.7-3.6l1.8-1.8.8-.8.1-.2c0-.1.1-.1.1-.2s-.1-.1-.1-.1h-.2c-.1 0-.3.1-.4.2h-.1c-.1.1-.2.1-.3.2-.3.2-.5.3-.8.5-1 .7-2 1.4-2.8 2.2-.8.8-1.6 1.5-2.2 2.3-.6.8-1.1 1.6-1.2 2.3v.5z"/><path d="M909.8 182.8c.1.1-1.7.9-4.9 2.9-1.6 1-5.1 3.3-9.1 7-.2.2-.5.4-.7.7.2.1.4.3.6.4 1.1.8 2.1 1.8 2.8 3a8.1 8.1 0 0 1 1.2 3.6c.1 1.2 0 2.4-.2 3.4s-.5 1.9-.8 2.7l-.3.9c-.2.5-.4 1.1-.8 1.9-.5 1-1.2 2.1-1.9 3.2-1.5 2.1-3.3 3.9-3.8 4.4-.5.5-1.2 1-1.9 1.4-.1.1-.2.1-.2.2-2.2 1.8-4.3 3.2-5.8 4 0 0-.1 0-.1.1-.2.1-.4.2-.5.3-1.2.6-2.6 1.2-3.8 1.5h-.1H879.2h-.1-.6c-.3 0-.6 0-.9-.1-.3-.1-.6-.2-.9-.4-.3-.2-.5-.6-.6-.9-.1-.3-.1-.7-.1-1 .1-1.3.5-2.5 1-3.8.5-1.3 1.1-2.5 1.7-3.8.7-1.3 1.4-2.6 2.2-3.9.2-.3.4-.7.6-1 .2-.3.4-.6.6-1 .4-.6.8-1.3 1.3-1.9 3-4.4 6.5-8.6 9.9-12.1-.5-.3-1.1-.6-1.7-.9-2.3-1.1-5-1.9-7.9-2.8-1.4-.5-2.9-.9-4.4-1.5-.8-.3-1.5-.7-2.3-1.1-.4-.2-.8-.5-1.1-.8-.4-.3-.7-.7-1-1.3-.3-.5-.4-1.1-.3-1.7 0-.6.2-1.1.4-1.5.4-.9.9-1.7 1.5-2.4 1.2-1.4 2.5-2.6 3.9-3.6 2.1-1.6 4.1-2.7 5.8-3.5 1.7-.8 3.1-1.3 4.3-1.5.6-.1 1.1-.1 1.6 0 .2 0 .5.1.6.2.1.1.2.1.2.2.1.1.1.2.1.2.1.3 0 .5 0 .6l-.1.1c-.1-.1-.1-.6-.6-.6-.2 0-.6 0-1 .1s-.8.2-1.3.4c-1 .4-2.1 1-3.4 1.7-1.3.8-2.7 1.7-4.2 2.8-.7.5-1.7 1.3-2.9 2.5-.6.6-1.2 1.2-1.8 1.9-.3.4-.5.8-.7 1.2-.2.4-.4.8-.4 1.2v.7s0 .1.1.1c0 0 0 .1.1.1.2.3.6.6 1 .9.9.6 2 1 3.2 1.5 2.4.9 5 1.6 7.5 2.5 2.1.7 4.2 1.6 6.1 2.8l.2-.2c1.9-1.8 3.8-3.4 5.4-4.6l1.2-.9c.4-.3.7-.5 1.1-.7.7-.5 1.2-.8 1.7-1.1.2-.1.5-.3.7-.4.2-.1.4-.2.6-.4l1.2-.6c.7-.3 1.3-.6 1.8-.8.8-.4 1.3-.5 1.3-.5zm-16.1 12a86.1 86.1 0 0 0-9.7 11.6c-.9 1.3-1.7 2.6-2.5 3.9-.8 1.3-1.5 2.6-2.2 3.9-.7 1.3-1.3 2.5-1.8 3.8-.5 1.2-.9 2.4-1.1 3.5 0 .1 0 .3-.1.4v.4c0 .2.1.5.2.7l.1.1c.1.1.3.3.6.4.2 0 .4.1.7.1.3 0 .5 0 .8-.1 1.1-.2 2.4-.7 3.6-1.3h.1c.9-.5 2.7-1.6 4.6-3.2.6-.5 1.1-1 1.7-1.5.3-.3.6-.7.8-1 .4-.4 1.4-1.5 2.7-3.2 1.3-1.7 2.9-3.9 4.2-6.7.1-.2.2-.3.2-.5.3-.9.6-1.8.8-2.9.1-.4.1-.9.2-1.4 0-.5 0-.9-.1-1.4-.1-.9-.5-1.9-1-2.7a8.7 8.7 0 0 0-2.3-2.4c0-.1-.2-.3-.5-.5z"/><path d="M991.6 181.5c0 .2-.1.3-.3.5-.3.3-.8.5-1.3.6-.5.2-1.2.3-1.9.4-.7.1-1.9.2-3.4.3-1.5.1-3.4.2-5.4.4-2 .2-4.3.5-6.6.9l-1.8.3c-.6.1-1.2.2-1.8.4-1.1.3-2.2.8-3.1 1.6-.9.7-1.7 1.6-2.4 2.5-.7.9-1.3 1.9-1.8 2.9-1 2-1.7 3.9-2.3 5.6-.6 1.7-.9 3.2-1.2 4.3-.3 1.1-.4 1.8-.4 2-.1.8-.4 2.4-.7 4.3-.3 1.9-.5 4.1-.8 6 0 .2-.1.5-.1.9 0 .2-.1.4-.1.5 0 .2-.1.3-.1.5s-.1.4-.1.6c-.1.4-.1.8-.2 1.2-.1.4-.2.8-.3 1.1-.1.3-.3.5-.5.7-.1.1-.2.1-.3.2-.1.1-.2.1-.3.1h-.3c-.1 0-.1 0-.2-.1-.1 0-.2-.1-.3-.2-.1 0-.1-.1-.2-.1l-.2-.2c-.1-.1-.1-.1-.1-.2l-.1-.1-.1-.1c0-.1-.1-.2-.1-.3 0-.1-.1-.3-.1-.4 0-.1 0-.1-.1-.2l-.1-.2c0-.1-.1-.3-.1-.4-.1-.3-.1-.6-.2-1-.1-.3-.1-.6-.2-1-.2-1.5-.4-3.2-.6-5-.3-3.6-.5-7.8-.5-12.4 0-4.6 0-9.7.5-15 .2-1.8.4-3.4.6-4.7-1.4 2.6-4.2 7.7-7.5 12.5-1.1 1.6-2.2 3.2-3.4 4.7-1.1 1.4-2.2 2.8-3.2 3.8-1 1.1-1.8 2-2.4 2.6l-.7.7c-.2.2-.3.2-.3.2l-.4.4-.5.5-.8.8c-.6.6-1.5 1.3-2.6 2.2-.3.2-.6.4-.9.7-.3.2-.7.5-1.1.7-.8.5-1.7 1-2.7 1.4-1 .4-2.2.8-3.6 1.1-.2 0-.4.1-.5.1-.2 0-.4 0-.5.1-.4 0-.7.1-1.1.1-.8 0-1.6 0-2.4-.1-.4 0-.8-.1-1.2-.2-.2-.1-.4-.1-.6-.2l-.3-.1-.3-.1c-.8-.3-1.6-.6-2.4-1a12.71 12.71 0 0 1-6.8-8.4c-.4-1.8-.5-3.6-.4-5.3a24.02 24.02 0 0 1 3.9-11.2l.8-1.1c.3-.3.6-.7.9-1 .3-.3.6-.6 1-.9.4-.3.8-.5 1.4-.6h.6c.2 0 .3 0 .5.1s.3.1.4.2c.1 0 .1.1.2.1s.1.1.2.1c.3.3.6.5.8.9.1.2.3.5.3.8.1.3 0 .6 0 .9 0 .1-.1.3-.2.4l-.1.2-.1.1c-.1.1-.1.2-.2.2l-.2.2-.7.7c-.2.2-.5.4-.7.5-.9.6-1.8 1.1-2.5 1.6-1.1.6-2 1.1-2.6 1.5-.3.6-.5 1.4-.8 2.4-.4 1.3-.7 2.8-.8 4.5-.1 1.7 0 3.5.6 5.2.5 1.7 1.6 3.3 2.9 4.5 1.3 1.2 3 2.1 4.5 2.6.4.2.8.2 1.2.4.4.1.8.2 1.1.2.4.1.7.1 1.1.1h1c1.3 0 2.3-.2 3-.4l2.1-.6c.7-.3 1.3-.5 2-.8 1.3-.6 2.4-1.3 3.3-1.9.9-.6 1.7-1.2 2.2-1.6.5-.4.8-.6.8-.6l.3-.3c.2-.2.5-.4.8-.7.7-.6 1.6-1.6 2.7-2.7 2.2-2.3 4.8-5.6 7.3-9.1a129.58 129.58 0 0 0 7.6-12.4c.2-1.4.5-2.5.8-3.4.5-1.7.9-2.3 1.1-2.1.2.2.1 1.2 0 2.9s-.3 4-.4 6.9a227.73 227.73 0 0 0 .3 30.8c0 .4.1.8.1 1.2 0 .2 0 .4.1.6 0 .2 0 .3.1.5v.4l.1-.1v-.2c.1-.3.1-.6.2-.9.3-1.3.5-2.5.8-3.8.5-2.5 1-4.7 1.4-6.2l.6-2.4c.3-1.2.7-2.7 1.2-4.5.6-1.7 1.3-3.7 2.3-5.7.5-1 1.1-2 1.8-3s1.5-1.9 2.4-2.7c.9-.8 2-1.5 3.2-1.9l.9-.3c.3-.1.6-.1.9-.2a86.4 86.4 0 0 1 8.3-1.2c2-.2 3.9-.3 5.5-.4 1.5-.1 2.8-.1 3.6-.2.8 0 1.5-.1 2.1-.2.6-.1 1.1-.2 1.3-.4.3-.2.4-.3.4-.5s0-.3.1-.3l.2.2c.3-.1.3.1.2.2zm-81.5 6.1c.5-.4 1.2-.9 1.9-1.5.3-.3.7-.5 1.1-.8.4-.3.8-.6 1.1-.9l.5-.5c.1-.2.2-.3.2-.3l-.5-.5c-.1-.1-.1-.1-.2-.1h-.1s-.1 0-.1.1l-.1.1c-.4.3-.9.7-1.3 1.2-1.1.7-1.9 1.9-2.5 3.2z"/></g><g fill="#849995"><path d="M286.7 271c1.5.2 2.2.4 2.2.7v.8c-9 0-14.4 2.3-16.2 6.9-2.4 4.1-3.6 7.3-3.6 9.5v4.9c1.2 4.7 3.7 7 7.6 7 3.5-3.2 5.3-7 5.3-11.4v-1.3c0-1.9-1.8-3.2-5.3-3.9l-.5-.7c0-1.1 3-1.8 8.9-2 .8 0 1.5.4 2.2 1.2l-3.2 2 .9 3.2c-1.5 9.9-4.4 14.8-8.9 14.8-6.8-1.7-10.2-4.8-10.2-9.4v-1.9c0-6.9 3-12.8 9.1-17.6 3.8-1.9 7.6-2.8 11.7-2.8zM312.8 273.9h1.8c2.6 0 4 1.1 4 3.4-2.5 4.6-6.6 8-12.5 10.2v.8c5.5 8.8 9.5 13.7 12.1 14.6l1.8.2v1l-2.2 1c-1.8 0-4.8-3-8.9-8.9L304 290h-1.4v.2l.5 4.1c0 4.7-.8 7.1-2.3 7.1h-1.3c-.7 0-1.1-.4-1.4-1.2l1.4-2.4.9-17.5c-1.5 0-2.3-.3-2.3-1 1.2-1 1.8-1.7 1.8-2.2v-1.9l1.4-.7h.4l3.2.5 7.9-1.1zm-9.3 3.7l-.4 6.6v1.7l.9.5h.9c6.8-3.3 10.2-6.2 10.2-8.8v-1.2l-1.8-1h-.4c-3.4 0-6.5.8-9.4 2.2zM344.4 271.6c3.2 0 4.9 8.1 5 24.2l1.4 7.8-2.2.2h-.9l-1.3-.7v-9l-.5-3.6h-.4c-7.1.5-11 1.3-11.7 2.5-1.1 5.9-2 8.9-2.6 8.9h-1.8l-1.8-1c1.5-6.2 3.8-13 7.1-20.4 2.4-6.2 5.6-9.1 9.7-8.9zm-9.1 17.1l2.2.9c5.9-.7 8.9-1.3 8.9-1.7v-4.4l.4-3.2-1.1-2.4c-.8-1.9-1.7-2.9-2.6-2.9-2 .1-4.5 4.6-7.8 13.7zM365.5 271.5l1.8.7 5.8-.2c6.2.3 9.4 1.8 9.4 4.3 0 3-5.3 6.9-16 11.7-.6.8-.9 2.3-.9 4.4v5.6l.5 1.4c-.4 1-1.2 1.7-2.3 2.2l-1.3-.7h-.5l1.4-20.6v-3.2c0-.7-.6-1.4-1.8-1.9.9-.8 1.3-1.7 1.3-2.7l2.6-1zm.5 5.6v8.7h1.3c7.1-3.1 11.1-6 12-8.7 0-2.4-2.2-3.6-6.7-3.6-4.4 0-6.6 1.2-6.6 3.6zM395.2 271.6h.4l1.8 1v.5c-1.6 0-3.1 4.6-4.5 13.8l1.4.2c7.1-.3 10.7-.6 10.7-1 .7-8.7 1.6-13.1 2.7-13.1l1.3-.3c1.5.2 2.3.5 2.3.8-1.8 1.7-3 6.8-3.6 15.5-.4 8.9-1.4 13.3-3.1 13.3h-.5l-1.3-.7 1.3-7h-.5l.5-.2v-2.5l.5-3.6-.5-.3c-8 .3-12 1-12 2l-1.8 10.9v1.4l-1.8.8c-.9 0-1.3-.3-1.3-1h-.5l2.6-12.9-.9-1.5c1.4 0 2.5-3.8 3.1-11.4 1.5-3.1 2.7-4.7 3.7-4.7zM427.5 273c1.7-.5 2.2.4 1.6 2.8-.6 2.4-1.5 5.6-2.7 9.6a47 47 0 0 0-1.8 13.3l.9 1.5v.5l-2.2 1c-1.3 0-2.2-.6-2.7-1.7.6-.4 1.6-4.9 2.8-13.6 1.3-8.7 2.3-13 3.2-13h.9v-.4zM458.2 270.8c1.8.3 2.7.7 2.7 1v.5c0 .3-1.3.5-4 .5-5 1.4-8.5 3.8-10.3 7-3.4 3.7-5.1 7.8-5.1 12.3v.2c.6 4.8 2.7 7.3 6.2 7.3l1.4.2h2.6c1.7-.4 3.6-2.4 5.8-5.8h1.3v.3c-1.5 5-4.2 7.5-8 7.5-5 0-9-2-12.1-6.1l-.4-2.4c0-7 3.5-13.2 10.4-18.6 4-2.6 7.1-3.9 9.5-3.9zM517.3 270.2c2.1 1.6 4.2 2.4 6.2 2.4 5.9 1.8 8.9 4.4 8.9 8 .8 5.4-5.3 11.9-18.3 19.5-.5 1.6-1.3 2.4-2.6 2.4-1.2 0-1.8-.4-1.8-1.2h-.4l2.6-6.1c.6-5 1.2-11.4 1.8-19.3v-2.7c0-1.9 1.2-2.9 3.6-3zm-2.7 26.8h.4c5.1-1.7 9.6-5.5 13.4-11.5l.9-4.1v-1.5c-1.1-4-4.4-6-9.8-6-2.1 0-3.2 1.1-3.2 3.4l-1.7 19.7zM554.9 270.7c1.5.2 2.3.5 2.3.8v.7c0 .5-3.4 1.1-10.3 1.8l-.3 8.5v1.2c0 .3.4.5 1.3.5l8.5-.5.4.2v.2c0 .6-3.4 1.3-10.1 2l-1.8 10.7v.5c0 1.8 1.2 2.7 3.5 2.6l11.9-2.7.8 1.5c.4.2-4.3 1.3-14.1 3.1-2.9 0-4.8-1.6-5.7-4.9l2.2-10.4-1.3-1.2c1.2-1.2 1.8-2.2 1.8-2.9l-.5-6.1c0-1.6-.3-2.4-.9-2.4-.2-1.3 4-2.3 12.3-3.2zM589.6 270.3c1.1 0 2.8.6 5.3 1.7v1h-.9v.3c-2.4-.8-4.3-1.2-5.8-1.2h-2.3c-6 1.9-3.9 9.9 6.4 24.1l.5 1.2c0 3.2-3.4 5.9-10.2 8.1l-3.2.5c-4.4-.7-6.6-1.9-6.6-3.7.3-.8.8-1.2 1.3-1.2h.9c1 2.1 2 3.1 3.1 3.1 6.8 0 10.7-2.3 11.6-6.8v-1.2c-12.8-16-13.9-24.6-3.3-25.6l3.2-.3zM612.4 272.9c1.7-.5 2.2.4 1.6 2.8-.6 2.4-1.5 5.6-2.7 9.6a47 47 0 0 0-1.8 13.3l.9 1.5v.5l-2.2 1c-1.3 0-2.2-.6-2.7-1.7.6-.4 1.6-4.9 2.8-13.6 1.3-8.7 2.3-13 3.2-13h.9v-.4zM643.8 270.7c1.5.2 2.2.4 2.2.7v.8c-9 0-14.4 2.3-16.2 6.9-2.4 4.1-3.6 7.3-3.6 9.5v4.9c1.2 4.7 3.7 7 7.6 7 3.5-3.2 5.3-7 5.3-11.4v-1.3c0-1.9-1.8-3.2-5.3-3.9l-.5-.7c0-1.1 3-1.8 8.9-2 .8 0 1.5.4 2.2 1.2l-3.2 2 .9 3.2c-1.5 9.9-4.4 14.8-8.9 14.8-6.8-1.7-10.2-4.8-10.2-9.4v-1.9c0-6.9 3-12.8 9.1-17.6 3.8-1.9 7.6-2.8 11.7-2.8zM678.8 270.3c1.4 0 2.2.8 2.2 2.4l-.8 1.5.3 4 2.2 18.7-.4 1 .9 2.9c-.6.7-1.2 1.2-1.8 1.2h-1.3c-1.1 0-2.9-2.4-5.3-7.3-7.3-11-11.6-16.6-13-17-.8 0-1.4 2.7-1.8 8.2l.5 3.4-.4 2.2.9 7.5-1.3 1h-.5c-1.6 0-2.5-.2-2.7-.7l.9-7-.5-.2.4-1.2v-10.2c0-1.9.6-3.4 1.8-4.4v-.5l-1.8-1.2v-.7c.6-.6 1.5-1 2.6-1 1.3 0 3.8 2.6 7.6 7.8 1.8 1.9 4.5 6 8.1 12.4l3.6 3.9h.4v-2.7l-2.5-18.3.4-3.4-.4-1.2c.1-.6.7-.9 1.7-1.1zM707.5 270.6c1.5.2 2.3.5 2.3.8v.7c0 .5-3.4 1.1-10.3 1.8l-.3 8.5v1.2c0 .3.4.5 1.3.5l8.5-.5.4.2v.2c0 .6-3.4 1.3-10.1 2l-1.8 10.7v.5c0 1.8 1.2 2.7 3.5 2.6l11.9-2.7.8 1.5c.4.2-4.3 1.3-14.1 3.1-2.9 0-4.8-1.6-5.7-4.9l2.2-10.4-1.3-1.2c1.2-1.2 1.8-2.2 1.8-2.9l-.5-6.1c0-1.6-.3-2.4-.9-2.4-.2-1.3 4-2.4 12.3-3.2zM738.7 273.6h1.8c2.6 0 4 1.1 4 3.4-2.5 4.6-6.6 8-12.5 10.2v.8c5.5 8.8 9.5 13.7 12.1 14.6l1.8.2v1l-2.2 1c-1.8 0-4.8-3-8.9-8.9l-4.9-6.1h-1.4v.2l.5 4.1c0 4.7-.8 7.1-2.3 7.1h-1.3c-.7 0-1.1-.4-1.4-1.2l1.4-2.4.9-17.5c-1.5 0-2.3-.3-2.3-1 1.2-1 1.8-1.7 1.8-2.2V275l1.4-.7h.4l3.2.5 7.9-1.2zm-9.4 3.7l-.4 6.6v1.7l.9.5h.9c6.8-3.3 10.2-6.2 10.2-8.8v-1.2l-1.8-1h-.4c-3.4 0-6.5.7-9.4 2.2z"/></g></svg>