<svg version="1.2" baseProfile="tiny" xmlns="http://www.w3.org/2000/svg" viewBox="0 0 998.7 327"><g fill="#221F1F" stroke="#221F1F" stroke-miterlimit="10"><path d="M102.7 186.9a25 25 0 0 1-4.8 1.7l-1 .4-2.3.8-5.5 2.1-3.1 1.3-1.6.7-1.7.7-3.4 1.6-1.8.8-1.8.9a107 107 0 0 0-4.7 2.5 30.4 30.4 0 0 1 4 11c.3 2.7.1 5.8-.7 8.7a31 31 0 0 1-4 8.7l-2.9 4.1-3.4 3.9-7.3 7.6c-5 5-10.4 9.9-16.2 14.3a80.5 80.5 0 0 1-14.7 8.7l-2.8 1-3 .6-3.1.2a17 17 0 0 1-3.1-.6c-1-.4-1.9-.9-2.7-1.7l-1.1-1.2-.8-1.4a9.6 9.6 0 0 1-.5-6.5l.1-.3.1-.3.4-1.3.5-1.2.3-.6.3-.6.3-.6.3-.5.6-1.1 1.3-2 1.3-1.9 1.3-1.8 1.2-1.6.6-.8.6-.7 1.1-1.4 1.1-1.2 1-1.1.9-1 1.4-1.5 1.2-1.3.7-.8 2-2.1.7-.7.8-.8 1.8-1.8 4.3-4.1a193.5 193.5 0 0 1 25.6-19.3c3.1-2 6.4-3.8 9.5-5.5l-.5-.8a61.2 61.2 0 0 0-10.9-12.3 351 351 0 0 0-17.4-14.6l-9-7.3c-2.9-2.4-5.5-4.8-7.9-7a122 122 0 0 1-10.1-10.5l-.8-1-1.1-1.3-2.8-3.7-3.2-5.1-1.6-3.1-1.5-3.4-1.3-3.8-1-4c-.3-1.4-.5-2.8-.6-4.3l-.2-4.4.1-2.3v-.6l.1-.6.1-.6v-.6l.3-2.3.4-2.2a89 89 0 0 1 9.1-25.2A70.6 70.6 0 0 1 26.3 59l1.3-1.1 1-.8.8-.7.5-.4.6-.5.4-.3.5-.3a83.6 83.6 0 0 1 19.3-9.8 50.3 50.3 0 0 1 23.5-1.9l1.1.2 1 .3.5.1.5.2.9.3 1.7.7.7.3.7.3 1.2.6.9.6.6.5.4.4-.7-.3-.8-.4-1-.5-2.8-1.1a43 43 0 0 0-24.6.3 57 57 0 0 0-5.4 1.8l-2.6 1.1-2.5 1.1-2.3 1.2-2.2 1.2-1 .6-1 .6-.5.3-.5.3-.9.6c-2.4 1.6-4.2 3.1-5.5 4.1l-.9.7-.6.5-.5.4-.2.1-.5.4-1.8 1.6A83.6 83.6 0 0 0 16 73.5c-1.2 1.8-2.5 3.7-3.6 5.8-1.2 2.1-2.3 4.3-3.4 6.6s-2 4.8-2.9 7.3a99.7 99.7 0 0 0-3.6 15.9l-.1 1-.1 1v2l.2 4 .2 1.9.3 1.9a52.2 52.2 0 0 0 6.6 16.3c2.2 3.5 4.4 6.3 6.2 8.5 3.5 4.2 8 8.7 12.9 13.2a419 419 0 0 0 15.6 13.4c5.3 4.5 10.4 8.9 14.9 13.2a87 87 0 0 1 10.5 12.7l.8 1.2c6.6-3.5 13.1-6.4 18.5-8.5l2.9-1.1.7-.3.7-.2 1.3-.4 2.3-.8 1-.3 1-.3 3.8-.6zm-32.2 13.7A166.6 166.6 0 0 0 36 224.9c-3.2 2.8-5.7 5.4-7.5 7.1l-2 2.1-.5.6-.2.2-1.5 1.6-1.7 1.9-2.1 2.6c-1.5 1.9-3.3 4.3-5.1 7l-1.3 2.1-.7 1.1-.3.6-.3.6-.6 1.2-.6 1.2c-.4.8-.7 1.6-.9 2.5l-.2.6-.1.6-.1 1.3c0 .9.1 1.8.3 2.6s.6 1.6 1.1 2.3l.9.9 1.1.7c1.5.8 3.3 1 5.1.9 1.8-.2 3.5-.6 5.2-1.2 3.3-1.2 6.3-2.9 8.9-4.5 2.6-1.6 4.8-3.3 6.6-4.6A155.2 155.2 0 0 0 59 239.5l3.6-3.6a63 63 0 0 0 3.5-3.8c2.2-2.6 4.2-5.4 5.6-8.4a24 24 0 0 0 2.4-13.7c-.2-1.5-.6-2.9-1-4.2l-2.6-5.2z"/><path d="M245.9 183.3l-.9.7-2.5 1.8-4.1 2.8a69.1 69.1 0 0 1-13.4 6.6l-.5.1-.6.1-.6.1-.6.1-1.2.1H220.2c-.8-.1-1.7-.3-2.4-.7a4.1 4.1 0 0 1-1.8-1.9c-.4-.8-.7-1.6-.9-2.5l-.4-2.7-.3-5.5-.4-2.8a7 7 0 0 0-1.1-2.5c-.3-.4-.6-.7-1-.9l-.6-.3-.3-.1-.3-.1-1.3.2-1.3.6-2.4 1.8-2.3 2.1-4.4 4.6a398 398 0 0 1-9 9.7c-1.6 1.6-3.2 3.2-5 4.7a33.2 33.2 0 0 1-5.8 4l-1.7.7-1.8.5-.9.1h-1l-1-.1-.9-.3-.2-.1h-.1l-.1-.1-.2-.1-.2-.2a3 3 0 0 1-.8-.8l-.9-1.8c-.4-1.2-.5-2.5-.6-3.7v-3.6l.3-3.6c.3-2.4.7-4.7 1.2-7 1-4.6 2.2-9.2 3.4-13.7a360 360 0 0 1 8.7-26l3.9-10-4.6 7.3a652 652 0 0 1-37 50.4 147.8 147.8 0 0 1-11.8 12.4l-2.3 1.9c-.8.6-1.6 1.2-2.5 1.6-.5.2-.9.5-1.5.6l-.8.2-1-.1-.2-.1-.2-.1-.4-.2-.4-.2-.3-.2a12 12 0 0 1-1.2-1.1c-.4-.4-.7-.8-.9-1.3l-.7-1.4a39.1 39.1 0 0 1-2-8.6l-.4-5.8-.2-5.7-.2-2.8-.2-1.3-.2-.5-.1-.1v-.1h-.1a7.1 7.1 0 0 0-1.9 1.6l-2.3 2.7-4.4 5.7a39 39 0 0 1-3.8 4.3c-.7.7-1.3 1.3-2.1 1.8l-1.3.7-.8.2h-.9l-.9-.4-.6-.7-.2-.4-.1-.4-.1-.7c0-.9.2-1.8.4-2.5a44.3 44.3 0 0 1 5.5-10.8l1.9-2.6a20 20 0 0 1 1.9-2.2c.3-.3.7-.7 1.3-.8l.8-.1.7.2 1 .8.6.8.8 1.6.4 1.3c.2.7.2 1.3.2 1.6l1-1.1 1.5-1.4 1-.6.3-.1.4-.1.5.1.4.2.2.2.2.2.2.4.3.7.3 1.3.2 2.6.2 5.2c.1 1.7.1 3.5.3 5.2a29.6 29.6 0 0 0 2.2 10.2 7.7 7.7 0 0 0 2.3 2.9l.5.3.3.1h.7l.6-.1 1.2-.5 2.2-1.4a116.8 116.8 0 0 0 11.9-11.6 647.7 647.7 0 0 0 39.3-51.4l5.3-8.1.2-.3 4.6-10.6c2.6-5.7 4.9-10.3 6.9-13.7a46.5 46.5 0 0 1 5.8-8.3c.2-.2.3-.2.2 0a201.7 201.7 0 0 0-6.5 12.2 392 392 0 0 0-25.9 72.8l-1.1 6.6-.3 3.3c-.1 1.1 0 2.2.1 3.3.1 1.1.4 2.1.9 3 .2.4.5.7.9.9l.3.1.4.1.4.1.4.1h1.5l.8-.1.4-.1.4-.1c1-.3 2-.8 3-1.3 1.9-1.1 3.7-2.5 5.4-4l4.9-4.6 4.7-4.8 4.5-4.8 4.6-4.6 2.5-2.1c.9-.6 1.8-1.2 2.8-1.6.5-.2 1.1-.3 1.7-.3l.5.1.4.2.7.4c.5.3.9.7 1.2 1.2l.8 1.4c.4 1 .6 2 .7 3l.2 2.9c.1 1.9 0 3.8.3 5.6.1.9.3 1.8.6 2.5.3.8.8 1.5 1.4 2 .6.5 1.4.8 2.2.9h2.4a47.6 47.6 0 0 0 15-6.2l4.7-3 2.9-2c.4.1.7-.2.7-.2zm-134.3-1.1l1.3-1.5h-.1.1v-.1l-.1-.4-.2-.7-1-2.2-.9-1.3-.7-.5-.8-.2-.4.1-.4.2-.7.8-1.5 2a57 57 0 0 0-3.1 5.1l-1.6 3-1.4 3.3-.5 1.8c-.1.6-.3 1.2-.2 1.8l.1.7.1.2.2.1h.6l.8-.3c.5-.3 1.1-.7 1.6-1.2l1.5-1.5 3-3.5 4.3-5.7z"/><path d="M355 169.2c0 .2-.1.3-.3.5-.3.3-.8.5-1.4.7l-2 .4-3.6.3-5.7.4-7 .9-1.9.4-1.9.4c-1.2.3-2.3.9-3.3 1.7-1 .8-1.8 1.7-2.5 2.7a32 32 0 0 0-4.3 9.1l-1.3 4.5-.5 2.1-.7 4.6-.8 6.4-.1.9-.1.6-.1.5-.1.6-.3 1.2-.4 1.2c-.1.3-.3.6-.5.7l-.3.2-.3.2h-.3l-.2-.1-.3-.2-.2-.1-.2-.2-.2-.2-.1-.1-.1-.2-.1-.2-.1-.2-.1-.4-.1-.2-.1-.2-.1-.5-.2-1-.2-1c-.3-1.6-.4-3.4-.6-5.3-.3-3.8-.5-8.2-.6-13.1 0-4.9 0-10.2.5-15.9.2-2.4.5-4.3.8-5.9l-2.1 4.3c-1.3 2.7-3.1 5.8-5.1 9.4a229 229 0 0 1-11.8 18.1c-1.6 2.2-3.4 4.4-5.2 6.6a46.9 46.9 0 0 1-10.1 9c-.7.4-1.5.7-2.3.9-.8.2-1.7.3-2.6.2l-.3-.1-.3-.1-.6-.2-.6-.3-.6-.3c-.7-.5-1.3-1.1-1.9-1.8a13.3 13.3 0 0 1-2.3-4.4 42 42 0 0 1-1.9-9.7 161 161 0 0 1-.6-9.8l-.3-4.8-.3-2.3-.3-1-.2-.4h-.1-.1l-.1.1-.1.1-.2.1-1.3 1.1-2.4 2.7-4.6 5.8c-1.5 1.9-3 3.9-4.7 5.7l-2.6 2.7-1.5 1.2c-.5.4-1.1.7-1.9 1l-.9.2h-.5l-.5-.1-.5-.2-.5-.3a.8.8 0 0 1-.4-.4l-.3-.4c-.3-.6-.4-1.2-.4-1.7l.1-1.5c.1-.9.4-1.8.6-2.6l.9-2.3c.6-1.5 1.3-2.8 2-4.1l2-3.6c1.4-2.2 2.7-4.2 4-5.9l2-2.3.6-.5.8-.4.9-.1.8.2c.5.2.9.5 1.2.8a6.5 6.5 0 0 1 1.7 2.7c.5 1.1.7 2 .8 2.7l.1.9v.1l1.5-1.6 1.6-1.4.5-.3.3-.1.3-.1c.6-.2 1.3-.2 1.8.2l.2.2.2.2.2.2.1.2.2.3.1.3.3 1.2.3 2.3.2 4.6.4 9.2c.2 3 .6 6.1 1.3 9 .4 1.4.9 2.9 1.6 4.1a8.2 8.2 0 0 0 2.7 3.1l.4.2.5.2.9.2c.6.1 1.3 0 2-.2l1.9-.8 1.8-1.1c2.4-1.7 4.5-3.7 6.5-5.8a104.3 104.3 0 0 0 10.3-12.8c3-4.2 5.6-8.2 7.9-11.9 2.3-3.7 4.1-6.9 5.7-9.7l2.7-5.2.6-2.6c.5-1.8 1-2.5 1.1-2.2.2.2.1 1.3 0 3.1l-.4 7.3a248.2 248.2 0 0 0 .4 32.6l.1 1.3.1.6.1.5v.4l.1-.2v-.2l.2-1 .8-4 1.4-6.5.6-2.5 1.3-4.7a40.3 40.3 0 0 1 4.3-9.3c.7-1 1.6-2 2.6-2.9a9.8 9.8 0 0 1 4.4-2.3l.9-.2 1.8-.4a62 62 0 0 1 7-1l5.8-.4 3.8-.2 2.2-.2a4 4 0 0 0 1.4-.4c.3-.2.4-.4.4-.5l.1-.3.2.3c.7-.3.7-.2.7 0zm-97.2 12.4l.7-.8-.1-.1v-.1-.1h.1s.1.1.1 0v-.1l-.2-.7c-.2-.5-.4-1.2-.9-2.1l-.7-1.3c-.3-.5-.6-1-1.1-1.4-.4-.4-.9-.8-1.4-.7l-.4.1-.4.2-.8.7-1.6 2-1.6 2.4a92.4 92.4 0 0 0-3.3 5.6l-1.6 3.2-1.4 3.5-.5 1.8-.3 1.8.1.8.2.4.1.1H243.1l.6-.1 1.2-.6 1.2-1a25 25 0 0 0 2.3-2.3l4.6-5.5c1.6-1.7 3.2-3.7 4.8-5.7zm6.2-3.1zM534.9 159.2h-.2l-.4-.1-1.8-.3c-1.5-.2-3.8-.2-6.6.1-2.8.3-6.2.9-9.9 1.7-3.8.8-7.9 1.9-12.4 3.1l-1.8.5-6.1 58.2-8.5 80.8s2.2-31.5 5.7-74.6a8337 8337 0 0 1 5.2-63.4c-7.4 2.1-15.4 4.6-23.6 7.1-10.2 3.1-20.7 6.3-30.4 8.8-4.8 1.2-8.9 2.1-12.5 2.6a484.1 484.1 0 0 0 .8 35.4l.8 8.6.2 1.8v.9c-.1.1-.2 0-.3-.3l-.7-1.8-.7-2.8-.3-1.6-.3-1.6c-.9-5.6-1.4-11.2-1.7-16.8-.3-5.7-.5-11.3-.6-17.1v-4.1c-2.4.3-4.5.4-6.2.4-2.3 0-3.9-.3-4.9-.6l-.6-.2-.3-.2c-.2-.1-.2-.2 0-.3l2.4-.2 5.4-.6 4.3-.8c0-9.3.2-18.6.7-28.1a1307.1 1307.1 0 0 1 8.8-97.8c.9-6.5 1.8-11.4 2.5-13.5a1939.4 1939.4 0 0 0-1.2 17.1l-2.6 28.8-1.7 20a1385 1385 0 0 0-3.6 73c3.4-.7 7.3-1.7 11.7-2.8 7.9-2 17.5-4.7 27.5-7.4 9.2-2.5 18.6-5.2 27.4-7.3 2.3-26.8 4.8-54.4 7.4-79.7l1.7-16.3 1.6-13.7 1.5-11.3.7-4.7.7-4.2.6-3.6.3-1.6.3-1.4 1-4.4c.6-2.2 1-2.9 1.2-2.3.2.6.2 2.5 0 5.6l-.3 5.6-.5 7.3-.7 9-.9 10.6-1.1 12.2-1.4 13.6-3.2 31.3-3.7 35.1-1.2 11.8c8.9-2.1 16.9-3.6 22.9-4 3.1-.2 5.7-.2 7.4.1l2 .4.5.2-.3-.2zM575.6 194c-.2.2-1.6 1.8-3.8 3.9a79.8 79.8 0 0 1-8.3 6.9 47 47 0 0 1-9.1 5.3l-3.2 1.3-.9.3-.3.1h-.1l-.4.1-.7.2-1 .3-3.3.7-2.4.2c-.9 0-1.9 0-3-.2-1.1-.1-2.3-.4-3.7-.9l-1-.4-1-.4-.5-.3-.3-.1-.3-.1-.5-.3-.5-.3a13.7 13.7 0 0 1-6-8.5c-.4-1.8-.6-3.6-.5-5.4a29.7 29.7 0 0 1 4.4-13.5 13 13 0 0 1 2.9-3.3c.4-.3.8-.6 1.5-.8l.3-.1H534.8c.4 0 .7.1 1 .4l.4.3.2.2.2.2.2.3.2.3.3.4.3.9-.1.9-.2.4-.2.4-.4.5-.4.4-.8.6-1.5 1-2.5 1.5-2.3 1.2-1.2 3.5c-.4 1.6-.7 3.4-.7 5.2 0 1.8.2 3.7.8 5.3.6 1.7 1.6 3.1 2.7 4.2a15.2 15.2 0 0 0 6.3 3.6c2.7.9 5.7 1.1 7.9.9l2.7-.3 1-.2.4-.1 1-.3 3.6-1.2a66.8 66.8 0 0 0 18.8-12.5c2-1.6 3.3-3 3.1-2.7zm-44.3-9.2l-.4.7-.4.7.7-.6 2.2-1.8 1.1-1 .4-.5v-.2l-.5-.5-.3.1-.6.5-.7.7-1.3 1.7-.2.2z"/><path d="M665.7 193.3l-1.5 1.7c-1 1.1-2.4 2.7-4.4 4.6a127.2 127.2 0 0 1-11.9 10.8l-5.4 4.1a62 62 0 0 1-13.5 7.3c-2.6 1-5.3 1.7-8.2 2.1-1.4.1-3 .1-4.4-.2-1.5-.3-2.9-1-4.1-1.9-1.2-.9-2.3-2.1-3.1-3.4a40.1 40.1 0 0 1-4.1-13.3c-.4-3.1-.6-6.3-.8-9.4l-.3-4.7c-.1-.8-.1-1.6-.3-2.3l-.2-1.1-.1-.2-.1-.1-.1-.1h-.1l-.4.3-.8.8-1.5 2a102 102 0 0 0-2.8 4.2l-5.5 8.5a60.3 60.3 0 0 1-6.2 7.9l-1.9 1.7-2.2 1.4c-.8.4-1.8.6-2.8.5l-1.4-.4-.2-.1-.2-.1-.3-.2-.5-.4-.6-.6-.5-.6-.7-1.3-.9-2.7a50.2 50.2 0 0 1 1-21.2l1.6-5.6c1.1-3.2 2.3-5.3 3.3-6.4l1-1.1c.2-.2.3-.2.2 0-.2.3-.9 1.3-1.7 3a45.2 45.2 0 0 0-3.7 13.3 65.7 65.7 0 0 0-.6 14.4l.3 2 .5 2c.2.7.4 1.3.8 1.9.3.6.7 1.2 1.2 1.6.4.4 1 .7 1.5.8.6.1 1.2 0 1.8-.2.6-.2 1.2-.6 1.8-1l1.7-1.4c1.1-1 2.1-2.2 3.1-3.5l2.9-3.9c1.9-2.7 3.7-5.6 5.6-8.6 1-1.5 1.9-3 3-4.4a32.6 32.6 0 0 1 2.7-3.2l.7-.5.1-.1.1-.1.3-.1h.6l.4.2.3.4.1.1.1.1.1.2.1.3.3 1.2.2 2.3.2 4.5c.1 3 .3 6 .6 8.9.3 2.9.8 5.9 1.6 8.7a19.7 19.7 0 0 0 4 7.4c1 1 2.1 1.8 3.4 2.3 1.3.5 2.6.7 4 .8l2.1-.1.5-.1.5-.1 1-.2.5-.1.5-.1 1-.2.5-.1.5-.1 1-.3a53 53 0 0 0 7.3-3l1.7-.9 1.6-.9 3.1-1.9.8-.5.7-.5 1.4-1 1.4-1 1.3-1 2.5-2 2.4-2c3-2.6 5.6-4.9 7.6-7 2.1-2 3.6-3.7 4.7-4.8 1.7-1.3 2.2-2 2.2-2z"/><path d="M802.6 186l-1.1.9-3.1 2.6-5.1 4a235 235 0 0 1-7 5 84.2 84.2 0 0 1-14.6 7.8c-1.9.7-4 1.3-6.3 1.5-2.2.1-4.6-.2-6.8-1l-.8-.3a3 3 0 0 1-.8-.4l-.4-.2-.4-.2-.8-.4-.8-.5a.8.8 0 0 0-.4-.2l-.4-.2-.8-.5a3 3 0 0 0-.7-.5l-.4-.3-.4-.3-.7-.6-1.4-1.2-2.7-2.6a95.1 95.1 0 0 1-5.2-5.7c-1.7-2-3.5-4-5.4-5.8-1-.9-2-1.8-3.1-2.4l-.4-.2-.2-.1-.2-.1-.4-.1h-.4c-.6 0-1.1.2-1.7.5-1.2.5-2.2 1.4-3.3 2.3l-2.9 2.9-5.5 6.5-5.6 6.8-3.1 3.3-1.8 1.5c-.6.5-1.3.9-2.2 1.2a6 6 0 0 1-1.5.2 4 4 0 0 1-1.5-.6l-.2-.1-.1-.1-.2-.3-.2-.3-.2-.3-.5-1.2c-.2-.8-.3-1.7-.3-2.5l.1-2.4c.1-1.6.4-3.1.7-4.6l1-4.5 2-8.8a53 53 0 0 0 1.1-8.8c0-1.5-.1-2.9-.4-4.2l-.1-.5v-.1-.1l-.1-.1a.8.8 0 0 0-.4-.4l-.5-.2h-.3H703.4a7 7 0 0 0-1.7.9l-1.6 1.4a94 94 0 0 0-12.4 18.2l-4.4 7.6c-1.5 2.5-2.9 5-4.5 7.4l-2.4 3.5-2.6 3.2-1.6 1.5c-.6.4-1.2.9-2.1 1.1-.4.1-.9.2-1.4.1l-.4-.1-.4-.1-.3-.1-.2-.1-.1-.1a4.8 4.8 0 0 1-1.7-1.8c-.4-.6-.6-1.3-.8-1.9l-.4-1.9-.4-3.5a78.2 78.2 0 0 1 4.8-25.9c1-2.4 2-4.3 3.1-5.8s2.2-2.6 3.1-3.2l.7-.4.6-.2.5-.1h.4c.4 0 .5.1.2.2-.2.1-.8.2-1.5.7-.4.2-.7.6-1.2 1l-1.2 1.5a31.8 31.8 0 0 0-4.7 11.2 73.7 73.7 0 0 0-2.6 21.3l.3 2.8.1.3.1.3.2.7.2.6.3.6.6 1 .2.2.1.1.1.1.1.1H668.8l.8-.1 1.1-.7 2.1-2.2c1.4-1.6 2.6-3.5 3.9-5.4 2.5-3.9 4.9-8.1 7.5-12.5l4-6.7c1.4-2.3 2.8-4.6 4.4-6.9l2.4-3.4 2.8-3.3c1-1 2.1-2.1 3.5-2.9l1.1-.5.6-.2.8-.1c1.1 0 2.1.5 2.8 1.3l.2.3.2.4.1.4.1.3.1.6.1.6.3 2.3c.1 1.5 0 3-.1 4.5-.3 3-.9 5.9-1.5 8.8-.6 2.9-1.4 5.7-2.1 8.6l-.9 4.3a21 21 0 0 0-.4 6.3c.1.6.3 1.2.6 1.6l.1.2.1.1.1.1.1.1.6.1.8-.2.8-.4c.6-.3 1.1-.8 1.7-1.2s1.1-1 1.6-1.5l2.9-3.2 5.6-6.7c1.9-2.2 3.8-4.5 5.8-6.5 1-1 2.1-2 3.3-2.9.6-.4 1.2-.9 1.9-1.2.7-.3 1.4-.7 2.2-.8h1.2l.3.1.3.1.3.1.1.1.1.1 1 .6.5.3.4.3a147.7 147.7 0 0 1 8.5 9 72.8 72.8 0 0 0 8.1 8.2l.7.6.7.6 1.5 1.1.8.5.4.2.4.2.8.4.8.4.4.2.4.2.8.3 1.7.5a18.4 18.4 0 0 0 6.7.1 29 29 0 0 0 6.1-1.9 67.7 67.7 0 0 0 10.2-5.4c3-1.8 5.6-3.7 7.9-5.3l5.8-4.3 3.5-2.8a5.4 5.4 0 0 1 1.3-1.4z"/><path d="M877.6 185.1c-.3.2-1.8.9-3.8 2.3a61 61 0 0 0-7.6 6.1l-1.3 1.2.5.3a13 13 0 0 1 3.3 2.9l.8 1.2.5 1.3.3 1.3a16.4 16.4 0 0 1-1.2 6.6c-.4 1.2-.9 2.1-1.3 2.9l-1 1.8-.3.5-.1.2-.1.2-.4.6-1.6 2.3a54.1 54.1 0 0 1-12.3 11.3c-1 .6-2.1 1.2-3.3 1.7l-1.9.5h-1.1l-.3-.1-.3-.1-.3-.1-.3-.2-.2-.2-.2-.3-.1-.2v-.4-.1l-.1-1.1.2-2.1.5-2 .7-1.9c1-2.5 2.3-5 3.6-7.3a97.2 97.2 0 0 1 14.7-18.6c-1.1-.5-2.2-1-3.5-1.4a56.8 56.8 0 0 0-6.3-1.9l-1.8-.7-1.1-.6-1.6 1.4c-4.2 3.8-8.6 7.4-13.2 10.6-4.6 3.2-9.3 6-14.2 7.7a27 27 0 0 1-7.4 1.5c-1.2 0-2.5-.1-3.7-.4l-.9-.2-.8-.3-.8-.3-.8-.3a15.4 15.4 0 0 1-8.7-10.9c-.5-2.2-.5-4.3-.3-6.2a29.7 29.7 0 0 1 3-10.2 21.7 21.7 0 0 1 4-5.5l.9-.7.5-.3.6-.2.2-.1h.2l.4-.1h.4l.4.1.4.1.3.2.3.2.2.2.7.8.1.1.1.1.2.3.1.3v.4c.1.4-.1.9-.3 1.3l-.6.8-1.2 1-2.2 1.5-3.3 2-.8.4a25.4 25.4 0 0 0-1.9 9.4c0 1.6.2 3.3.7 4.9.5 1.6 1.4 3.1 2.5 4.4a14.3 14.3 0 0 0 4.8 3.4l.4.2.6.2.7.2.4.1.2.1h.2l2.3.2c1.8 0 3.9-.3 6.3-1.1s5-1.9 7.7-3.4c5.4-3 11-7.1 16.4-11.7l4.6-4a2 2 0 0 1-.3-1v-1.3l.4-1.2c.3-.7.7-1.4 1.2-2l1.4-1.7a24.3 24.3 0 0 1 4.3-3.7l.5-.3.2-.2.1-.1.2-.1c1.2-.7 2.4-1.2 3.4-1.4l1.2.1c.2.1.4.1.5.3.2.1.3.3.4.6l.1.6v.4l-.1.3v.1l-.1.2-.1.2-.1.1-.3.4-1.3 1.4-1.1 1.1-1.4 1.5-2.9 3-3 2.9.6.3 1.7.7c3.4 1.2 7 2.1 10.2 3.9l3-2.7a49.7 49.7 0 0 1 9.9-6.5zm-74.4-.1l1-.8 1.6-1.2 1.9-1.5.9-.9.2-.2.1-.1.1-.1.1-.1.1-.1v-.1-.3l-.1-.1-.1-.1-.5-.5-.2-.1h-.1-.1-.1-.1l-.3.1-.3.2-1.1 1.1a18.6 18.6 0 0 0-3 4.8zm63 12.7c-.8-.6-1.7-1.2-2.7-1.7a91 91 0 0 0-14.9 19.3c-1.2 2.2-2.4 4.4-3.2 6.8-.4 1.2-.8 2.3-1 3.5l-.2 1.8v.8l.2.8c.1.2.3.4.6.5l.8.2c.6 0 1.1-.1 1.6-.3 1.1-.3 2-.8 3-1.3a48.2 48.2 0 0 0 11.3-9.6l1.6-1.9.4-.5.1-.2.7-1.1c.5-.8 1.3-2 2.2-4 .4-1 .9-2.1 1.3-3.5l.5-2.2.2-2.5c-.1-.9-.3-1.7-.7-2.6-.4-.9-1-1.7-1.8-2.3zm-15.8-9.8l1.6-1.5 3.7-3.6 1.8-1.8.8-.8.1-.2.1-.2-.1-.1h-.2l-.4.2h-.1l-.3.2-.8.5c-1 .7-2 1.4-2.8 2.2-.8.8-1.6 1.5-2.2 2.3-.6.8-1.1 1.6-1.2 2.3v.5z"/><path d="M909.8 182.8c.1.1-1.7.9-4.9 2.9-1.6 1-5.1 3.3-9.1 7l-.7.7.6.4a10 10 0 0 1 2.8 3 8.1 8.1 0 0 1 1.2 3.6 12.5 12.5 0 0 1-1 6.1l-.3.9-.8 1.9-1.9 3.2c-1.5 2.1-3.3 3.9-3.8 4.4-.5.5-1.2 1-1.9 1.4l-.2.2a38.4 38.4 0 0 1-5.8 4l-.1.1-.5.3a20 20 0 0 1-3.8 1.5h-.1H879.2h-.1-.6l-.9-.1-.9-.4c-.3-.2-.5-.6-.6-.9l-.1-1c.1-1.3.5-2.5 1-3.8l1.7-3.8 2.2-3.9.6-1 .6-1 1.3-1.9c3-4.4 6.5-8.6 9.9-12.1l-1.7-.9c-2.3-1.1-5-1.9-7.9-2.8l-4.4-1.5-2.3-1.1-1.1-.8c-.4-.3-.7-.7-1-1.3-.3-.5-.4-1.1-.3-1.7 0-.6.2-1.1.4-1.5.4-.9.9-1.7 1.5-2.4a31.8 31.8 0 0 1 14-8.6c.6-.1 1.1-.1 1.6 0l.6.2.2.2.1.2v.6l-.1.1c-.1-.1-.1-.6-.6-.6l-1 .1-1.3.4-3.4 1.7a61.1 61.1 0 0 0-7.1 5.3l-1.8 1.9-.7 1.2c-.2.4-.4.8-.4 1.2v.7l.1.1.1.1 1 .9c.9.6 2 1 3.2 1.5l7.5 2.5a28 28 0 0 1 6.1 2.8l.2-.2c1.9-1.8 3.8-3.4 5.4-4.6l1.2-.9 1.1-.7 1.7-1.1.7-.4.6-.4 1.2-.6 1.8-.8 1.3-.5zm-16.1 12a80.5 80.5 0 0 0-9.7 11.6l-2.5 3.9-2.2 3.9a32.6 32.6 0 0 0-2.9 7.3l-.1.4v.4l.2.7.1.1.6.4.7.1.8-.1c1.1-.2 2.4-.7 3.6-1.3h.1c.9-.5 2.7-1.6 4.6-3.2l1.7-1.5.8-1a35.5 35.5 0 0 0 6.9-9.9l.2-.5.8-2.9.2-1.4-.1-1.4c-.1-.9-.5-1.9-1-2.7a8.7 8.7 0 0 0-2.3-2.4l-.5-.5z"/><path d="M991.6 181.5c0 .2-.1.3-.3.5-.3.3-.8.5-1.3.6l-1.9.4-3.4.3-5.4.4-6.6.9-1.8.3-1.8.4c-1.1.3-2.2.8-3.1 1.6a17.5 17.5 0 0 0-4.2 5.4c-1 2-1.7 3.9-2.3 5.6-.6 1.7-.9 3.2-1.2 4.3l-.4 2-.7 4.3-.8 6-.1.9-.1.5-.1.5-.1.6-.2 1.2-.3 1.1-.5.7-.3.2-.3.1h-.3l-.2-.1-.3-.2-.2-.1-.2-.2-.1-.2-.1-.1-.1-.1-.1-.3-.1-.4-.1-.2-.1-.2-.1-.4-.2-1-.2-1a150.5 150.5 0 0 1-1.1-17.4c0-4.6 0-9.7.5-15l.6-4.7a139.4 139.4 0 0 1-10.9 17.2c-1.1 1.4-2.2 2.8-3.2 3.8l-2.4 2.6-.7.7-.3.2-.4.4-.5.5-.8.8-2.6 2.2-.9.7-1.1.7a17 17 0 0 1-6.3 2.5l-.5.1-.5.1-1.1.1-2.4-.1a5 5 0 0 1-1.2-.2l-.6-.2-.3-.1-.3-.1-2.4-1a12.7 12.7 0 0 1-6.8-8.4c-.4-1.8-.5-3.6-.4-5.3a24 24 0 0 1 3.9-11.2l.8-1.1.9-1 1-.9a3 3 0 0 1 1.4-.6h.6l.5.1.4.2.2.1.2.1c.3.3.6.5.8.9.1.2.3.5.3.8v.9l-.2.4-.1.2-.1.1-.2.2-.2.2-.7.7a3 3 0 0 1-.7.5l-2.5 1.6-2.6 1.5-.8 2.4a19 19 0 0 0-.8 4.5c-.1 1.7 0 3.5.6 5.2.5 1.7 1.6 3.3 2.9 4.5 1.3 1.2 3 2.1 4.5 2.6l1.2.4 1.1.2 1.1.1h1c1.3 0 2.3-.2 3-.4l2.1-.6 2-.8a24.1 24.1 0 0 0 5.5-3.5l.8-.6.3-.3.8-.7 2.7-2.7a87.4 87.4 0 0 0 13.4-18.8l1.5-2.7c.2-1.4.5-2.5.8-3.4.5-1.7.9-2.3 1.1-2.1.2.2.1 1.2 0 2.9l-.4 6.9a222.9 222.9 0 0 0 .3 30.8l.1 1.2.1.6.1.5v.4l.1-.1v-.2l.2-.9.8-3.8 1.4-6.2.6-2.4 1.2-4.5c.6-1.7 1.3-3.7 2.3-5.7l1.8-3c.7-1 1.5-1.9 2.4-2.7.9-.8 2-1.5 3.2-1.9l.9-.3.9-.2a86.4 86.4 0 0 1 8.3-1.2l5.5-.4 3.6-.2 2.1-.2c.6-.1 1.1-.2 1.3-.4.3-.2.4-.3.4-.5l.1-.3.2.2c.3-.1.3.1.2.2zm-81.5 6.1l1.9-1.5 1.1-.8 1.1-.9.5-.5.2-.3-.5-.5-.2-.1h-.1l-.1.1-.1.1-1.3 1.2a7.3 7.3 0 0 0-2.5 3.2z"/></g><g fill="#849995" stroke="#849995" stroke-miterlimit="10"><path d="M281.7 298.2a23.6 23.6 0 0 1-2.4-12.1l.1-3.1a13.5 13.5 0 0 1 1.7-5.3c.3-.5.8-1 1.3-1.5 1-1 2.4-1.6 4.2-2l3-.3c1.3 0 2 .2 2 .6 0 .3-.3.4-1 .4l-.9-.1-.9-.1c-1.5 0-2.7.3-3.8 1a8 8 0 0 0-2.2 2.5c-.5 1-.8 2-1 3.2l-.4 3.2-.1 2.4v2c0 2.3.3 4.4.9 6.4.4 1.2 1 2.2 1.6 3 .6.8 1.4 1.4 2.4 1.9 1.1.6 2.3.8 3.6.8 2.3 0 4.2-.6 5.6-1.8l-.3-2.6-.5-1.5c-.3-.4-.6-.6-.9-.6l-1.3.1-1.4.1c-1 0-1.5-.2-1.5-.6a20 20 0 0 1 4.9-.8c.7 0 1.2.1 1.5.4.3.3.5.6.5 1.1 0 .5.2 1.6.7 3.2.4 1.3.7 2.4.7 3.2 0 .4-.3.6-.9.6-1.1 0-1.6-.3-1.6-.8l.1-.1v-.1c-2.5.8-4.7 1.2-6.7 1.2a8 8 0 0 1-7-3.9zM322.3 301.1l-.8-1.6a53.9 53.9 0 0 1-2.7-5.6l-1.3-3.5-1.7-4.2-.7.2-.9.2.1 13.8v.5c0 .5-.4.7-1.2.7l-.9-.2c-.2-.1-.3-.3-.3-.4v-.5l.1-7.3.1-3.5.3-10.7v-4.6c0-.2.4-.3 1.2-.3 1.1 0 2.2.2 3.2.5s1.8.8 2.3 1.4a5.4 5.4 0 0 1 1.8 3.8c0 1.1-.4 2.3-1.3 3.6l-1 1.2c-.4.4-.7.8-1.1 1l4 8.5 3.1 6.5.1.4-.2.6c-.2.2-.4.2-.7.2-.7 0-1.2-.2-1.5-.7zm-6.3-16.4c.8-.5 1.4-.8 1.8-1.2.3-.3.6-.8.8-1.5l.3-1.8c0-1-.3-2-.9-3a4 4 0 0 0-3.4-2.1h-.1-.2v10.1c.3.2.9 0 1.7-.5zM350.3 301.3l-.4-.4v-4.7c0-.3-1.1-.6-3.4-.8-2.2-.2-4.1-.4-5.5-.4l-.4.5-.4.8-1.7 4-.3.8c-.1.2-.3.3-.7.3l-1-.2c-.3-.1-.4-.3-.4-.4l.1-.1.7-1.8 1.4-3.3 1-2.4c.4-.8 1.1-2.8 2.1-5.9l.4-1.2c1.1-3.7 1.9-6 2.4-7l1.2-2.6c.2-.5.5-1 .9-1.4.4-.4.7-.6 1-.6.7 0 1.2.1 1.5.4A74 74 0 0 1 351 285l.9 6c0 1 .1 2.6.4 4.7.3 2.1.4 3.7.4 4.7v.1l-.2.7c-.2.2-.6.3-1.3.3l-.9-.2zm-.5-7.2a84.3 84.3 0 0 0-2-15.7l-.3-1.4-.1-.4-.1-.4c-.4.5-.7 1.3-1 2.2l-1 3.3-2.7 8.1-.6 1.2a6 6 0 0 0-1 2.7v.2c1.9.3 4.2.5 6.7.5h.9c.8.1 1.2 0 1.2-.3zM369.4 300.4l-.1-3.2-.1-3.2v-2.9l-.1-2.9c0-3.2-.1-6.2-.3-8.9l-.1-1.3-.2-3.5.2-.1.3-.2.3-.1h.5c1.5 0 2.9.2 4.2.6 1.3.4 2.3.9 3.1 1.6a5.9 5.9 0 0 1 2.3 4.5 6 6 0 0 1-1 3.3c-.6 1.1-1.6 2.1-2.9 3.1a8 8 0 0 1-4.4 1.7l.1 4 .1 1.9.3 5.9c0 .4-.1.7-.3.8-.2.2-.6.3-1.2.3-.5-.2-.7-.6-.7-1.4zm2.3-13.1l.6-.3.5-.3.5-.3c2.9-1.6 4.3-3.5 4.3-5.9 0-1.3-.5-2.6-1.5-3.7a4.8 4.8 0 0 0-2.3-1.4c-1-.3-2.2-.5-3.6-.5 0 1.4.1 3.4.4 6.1.3 2.7.4 4.8.4 6.1l.1.1.6.1zM404.9 301.6l-.2-.4v-.4l.1-.4c0-3.3-.2-7.4-.7-12.5H401l-4.6.1c0 1.8.2 3.9.5 6.5.4 2.9.6 5.1.6 6.5 0 .4-.2.5-.7.5-.7 0-1-.2-1-.5l-.3-4.9-.4-5.3a119 119 0 0 1-1.3-16.4c0-.2.3-.4.9-.4l.6.1c.2.1.2.2.2.3v2.7l.3 3.7.1 1.2.1 2.4v1.8c0 .6.1.9.3.9l2.5-.1 1.3-.1 3.8-.1.1-.1-.3-6.1-.3-6.1c0-.3.3-.4.9-.4l.8.1.3.3c0 4.7.2 9.8.5 15.4l.5 10.4v.5l-.2.5a1 1 0 0 1-.6.2c-.3.3-.6.2-.7.1zM424 301.2l-.8-.2-.4-.4c0-.3.4-.5 1.1-.5h2.6c0-2.8-.2-6.2-.5-10.4l-.5-7.9.1-1.8v-2.4l-.1-2.3h-2.3c-.4 0-.7-.2-.7-.5 0-.2.2-.4.5-.5l2.4-.1h4.3l.9.1c.3.1.3.2.3.4l-.2.4-.6.2h-2.3l-.8.1-.1.1c0 1.9.3 5.6.9 11.3.5 5.3.8 9 .8 11.3v1l-.1 1h2.4c1 0 1.5.2 1.5.5l-.3.4-.6.2H424zM453.1 301.1a6.6 6.6 0 0 1-2.9-1.8 43.3 43.3 0 0 1-2.4-13.3v-1.9l-.1-1.8c0-1.2.1-2.5.4-3.7.2-.6.4-1.1.7-1.5l1.2-1.3c1-.8 2.4-1.4 4.4-1.6l3.4-.2c.8 0 1.7.1 2.5.4.9.3 1.3.6 1.3.9 0 .3-.4.4-1.1.4l-1.5-.3-1.8-.3c-1.2 0-2.3.1-3.3.4-1 .3-1.8.6-2.3 1.1-.5.4-.9.9-1.3 1.6-.4.7-.6 1.3-.7 2l-.2 2.2.1 2 .1 1.9a42.7 42.7 0 0 0 2.7 12.9c.5.5 1.3.8 2.3 1 1 .2 2.1.4 3.3.4 2 0 3.6-.3 4.6-1a2 2 0 0 1 1.3-.4c.4 0 .6.2.6.5 0 .4-.2.8-.7 1.1-.5.3-1.1.6-2 .7-1.4.3-2.9.5-4.6.5-1.3-.1-2.6-.3-4-.9zM515.8 301.2c-.5-.1-.8-.3-.8-.5l.5-.7c.4-.3.5-.6.5-.7l-.2-3.2-.5-9.8-.1-4.4c0-2.7-.2-4.3-.3-5l-.5-.9-.5-1c0-.6 1.7-.9 5-.9h.3c2.2 0 4.2.4 5.8 1.3a9 9 0 0 1 3.4 3.1c.7 1.1 1.2 2.3 1.6 3.7l.5 3.3v1.1a16.2 16.2 0 0 1-10.9 14.1c-1.1.4-1.9.7-2.3.7l-1.5-.2zm2.6-1.7a16 16 0 0 0 4.4-2c1.3-.9 2.3-1.8 3-2.9.7-.9 1.2-1.9 1.6-3l.9-3.2.2-2.5c0-7-3.5-10.5-10.6-10.5-.9 0-1.4.1-1.4.4l.3 3 .3 3 .5 6.9c.3 2.8.5 5.1.5 6.8v4h.3zM547.4 301.3c-.4-.1-.6-.3-.6-.6v-.7l-.1-.6v-.1l.1-5.3-.1-14.9-.1-4c0-.3.1-.5.3-.7.2-.2.5-.3.9-.3h4.1l1.4.1c.4.1.7.3.7.6 0 .2-.1.3-.4.5l-.9.2H549.4l-.6.1-.2.3.1 3.1v7.6l.1.1h.2l3.6-.1c.7 0 1.1.2 1.1.5l-.2.5-.8.1h-3.8c-.2 0-.3.1-.3.2l.1 5.3.1 5.7v1.3H555c.8 0 1.2.2 1.2.5 0 .4-.2.6-.6.7l-3.2.1h-2.8l-2.2-.2zM571.5 302l-1.4-.2c-.5-.1-.9-.3-1.2-.6 0-.3.2-.4.7-.4l1.8.3 1.8.3a5.2 5.2 0 0 0 4.6-2.3 6.9 6.9 0 0 0 1.3-3.6 8 8 0 0 0-.9-3.6 15 15 0 0 0-2.4-3.4 115.2 115.2 0 0 1-3.6-4c-.6-.7-1.1-1.4-1.5-2.2a7 7 0 0 1-.9-3.5c0-.8.2-1.6.7-2.3s1.2-1.4 2.2-1.9a7.5 7.5 0 0 1 5.6-.5c.7.2 1.1.4 1.1.7 0 .2-.1.3-.4.3l-1.1-.2-1.1-.2a6 6 0 0 0-2.7.6c-.8.4-1.3.9-1.7 1.5-.3.5-.5 1.1-.5 1.7 0 .9.2 1.9.7 2.9.4 1 1 1.9 1.8 2.8l2.3 2.6.7.8 2.1 2.6 1.3 2.3c.5 1.1.7 2.2.7 3.2 0 1.4-.7 2.8-2 4.2a7 7 0 0 1-2.6 1.7c-1.1.4-2.3.6-3.6.6l-1.8-.2zM598.4 301.1l-.8-.2-.4-.4c0-.3.4-.5 1.1-.5h2.6c0-2.8-.2-6.2-.5-10.4l-.5-7.9.1-1.8v-2.4l-.1-2.3h-2.3c-.4 0-.7-.2-.7-.5 0-.2.2-.4.5-.5l2.4-.1h4.3l.9.1c.2.1.3.2.3.4l-.2.4-.6.2h-2.3l-.8.1-.1.1c0 1.9.3 5.6.9 11.3.5 5.3.8 9 .8 11.3v1l-.1 1h2.4c1 0 1.5.2 1.5.5l-.3.4-.6.2h-7.5zM624.4 297.9a23.6 23.6 0 0 1-2.4-12.1l.1-3.1a13.5 13.5 0 0 1 1.7-5.3c.3-.5.8-1 1.3-1.5 1-1 2.4-1.6 4.2-2l3-.3c1.3 0 2 .2 2 .6 0 .3-.3.4-1 .4l-.9-.1-.9-.1c-1.5 0-2.7.3-3.8 1a8 8 0 0 0-2.2 2.5c-.5 1-.8 2-1 3.2l-.4 3.2-.1 2.4v2c0 2.3.3 4.4.9 6.4.4 1.2 1 2.2 1.6 3 .6.8 1.4 1.4 2.4 1.9 1.1.6 2.3.8 3.6.8 2.3 0 4.2-.6 5.6-1.8l-.3-2.6-.5-1.5c-.3-.4-.6-.6-.9-.6l-1.3.1-1.4.1c-1 0-1.5-.2-1.5-.6a20 20 0 0 1 4.9-.8c.7 0 1.2.1 1.5.4.3.3.5.6.5 1.1 0 .5.2 1.6.7 3.2.4 1.3.7 2.4.7 3.2 0 .4-.3.6-.9.6-1.1 0-1.6-.3-1.6-.8l.1-.1v-.1c-2.5.8-4.7 1.2-6.7 1.2a8 8 0 0 1-7-3.9zM667.7 301.3c-.3-.2-.4-.4-.5-.6l-.2-.7-.2-.5-8.1-16.2-2.7-7.2-.1 1.5v13l.1 5.1.1 5.1-.4.3h-1.5l-.2-.3.1-1.4-.1-6.3V278.9l-.1-3.4-.1-.4v-.4c0-.3.1-.5.4-.6l1.4-.2.9.2c.3.1.5.3.6.5l1.4 3.5a335 335 0 0 0 9.8 20.4c.3-.4.4-.9.4-1.7l.1-6.3.1-6.3.1-2.8v-2.8l-.1-5.1c.2-.3.7-.5 1.4-.5.4 0 .5.3.5 1l-.1.8v2.9l-.1 8.5-.1 8.5-.2 2.8-.1 2.8c0 .7-.6 1-1.7 1-.2.3-.5.2-.8 0zM688.2 301.2c-.4-.1-.6-.3-.6-.6v-.7l-.1-.6v-.1l.1-5.3-.1-14.9-.1-4c0-.3.1-.5.3-.7.2-.2.5-.3.9-.3h4.1l1.4.1c.4.1.7.3.7.6 0 .2-.1.3-.4.5l-.9.2H690.2l-.6.1-.2.3.1 3.1v7.6l.1.1h.2l3.6-.1c.7 0 1.1.2 1.1.5l-.2.5-.8.1h-3.8c-.2 0-.3.1-.3.2l.1 5.3.1 5.7v1.3H695.8c.8 0 1.2.2 1.2.5 0 .4-.2.6-.6.7l-3.2.1h-2.8l-2.2-.2zM721 300.8l-.8-1.6a53.9 53.9 0 0 1-2.7-5.6l-1.3-3.5-1.7-4.2-.7.2-.9.2.1 13.8v.5c0 .5-.4.7-1.2.7l-.9-.2c-.2-.1-.3-.3-.3-.4v-.5l.1-7.3.1-3.5.3-10.7v-4.6c0-.2.4-.3 1.2-.3 1.1 0 2.2.2 3.2.5s1.8.8 2.3 1.4a5.4 5.4 0 0 1 1.8 3.8c0 1.1-.4 2.3-1.3 3.6l-1 1.2c-.4.5-.7.8-1.1 1l4 8.5 3.1 6.5.1.4-.2.6c-.2.2-.4.2-.7.2-.7 0-1.2-.2-1.5-.7zm-6.3-16.4c.8-.5 1.4-.8 1.8-1.2.3-.3.6-.8.8-1.5l.3-1.8c0-1-.3-2-.9-3a4 4 0 0 0-3.4-2.1h-.1-.2v10.1c.3.2.9 0 1.7-.5z"/></g></svg>