<svg id="Layer_1" xmlns="http://www.w3.org/2000/svg" viewBox="0 0 753.1 217.4"><style>.st0{fill:#191919;stroke:#191919;stroke-width:.1;stroke-miterlimit:10}</style><path class="st0" d="M77.9 126.8c0 .1-1.1.5-2.9 1.1-.2.1-.5.2-.7.2l-.8.3-1.8.6c-1.3.4-2.6 1-4.2 1.6-.8.3-1.5.6-2.4 1l-1.2.5c-.4.2-.8.4-1.3.6l-2.6 1.2c-.4.2-.9.4-1.3.7l-1.4.7c-1.2.6-2.4 1.2-3.6 1.9.5.8 1 1.8 1.5 2.8.7 1.6 1.3 3.5 1.6 5.6.2 2.1.1 4.4-.5 6.6-.7 2.4-1.7 4.6-3 6.6-.7 1.1-1.4 2.1-2.2 3.1-.8 1-1.7 2-2.6 3-1.8 1.9-3.6 3.8-5.5 5.7-3.8 3.9-7.9 7.5-12.3 10.8-2.2 1.6-4.5 3.3-7.1 4.7-1.3.7-2.6 1.4-4 1.9-.7.3-1.4.5-2.1.7-.7.2-1.5.4-2.2.5-.8.1-1.5.2-2.3.1-.8 0-1.6-.2-2.3-.5-.8-.3-1.5-.7-2.1-1.3-.6-.6-1.1-1.2-1.4-1.9-.3-.7-.5-1.5-.6-2.2-.1-.7 0-1.5.1-2.2 0-.2.1-.4.1-.5l.1-.3.1-.3c.1-.3.2-.7.3-1 .1-.3.3-.6.4-.9.1-.2.1-.3.2-.4l.2-.4.2-.4.2-.4.5-.8c.3-.5.7-1 1-1.5.3-.5.7-1 1-1.4l1-1.3.9-1.2c.2-.2.3-.4.5-.6l.5-.6.9-1 .8-.9.7-.8.7-.7c.4-.5.8-.8 1.1-1.2l.9-1 .5-.6c.3-.4.9-.9 1.5-1.6l.5-.6.6-.6 1.3-1.3c1-.9 2.1-2 3.3-3.1 6-5.4 12.5-10.4 19.4-14.6 2.4-1.5 4.8-2.9 7.2-4.2-.1-.2-.3-.4-.4-.6-1-1.5-2.1-2.9-3.3-4.2-1.6-1.8-3.3-3.5-5-5.1-3.9-3.6-8.6-7.4-13.2-11.1-2.3-1.9-4.6-3.7-6.8-5.6s-4.2-3.6-6-5.3c-1.8-1.7-3.4-3.3-4.7-4.6l-3-3.3L10 96c-.2-.3-.5-.6-.8-1-.6-.8-1.3-1.7-2.1-2.8-1.4-2-2.6-4.1-3.6-6.3-.4-.9-.8-1.7-1.1-2.6-1.2-2.9-1.9-6-2.2-9.2-.1-1.1-.1-2.3-.1-3.4 0-.6 0-1.1.1-1.7v-1.6l.3-1.7.3-1.7c.4-2.3 1-4.5 1.7-6.8 1.3-4.3 3-8.4 5.2-12.3 3.2-5.9 7.4-11 12.3-15.3l1-.8c.3-.2.5-.4.7-.6l.6-.5.4-.3.5-.4.3-.2.4-.3c1-.7 2.5-1.7 4.3-2.8 1.8-1.1 4-2.2 6.5-3.2 1.2-.5 2.5-1 3.8-1.4 1.3-.4 2.7-.8 4.1-1.1 2.7-.6 5.5-.9 8.2-.9 1.3 0 2.6.1 3.8.3.6.1 1.2.2 1.7.3l.8.2c.3.1.5.1.8.2l.4.1.4.1c.2.1.5.1.7.2.5.2.9.3 1.3.5l.6.3.5.3c.3.2.6.3.9.5.3.1.5.3.7.4.2.1.4.2.5.3.1.1.2.2.1.2-.2-.1-.4-.1-.5-.2l-.6-.3c-.9-.5-1.9-.9-2.9-1.2-.9-.3-1.9-.6-2.9-.8-2.4-.5-4.9-.6-7.4-.4-2.8.2-5.6.7-8.4 1.5-1.4.4-2.8.9-4.1 1.4-.7.3-1.3.5-2 .8-.6.3-1.3.6-1.9.9l-1.8.9c-.6.3-1.1.6-1.7.9l-.8.5-.8.5-.2.1-.4.2-.6.5c-1.9 1.2-3.6 2.6-5.3 4.1l-.4.3-.1.1c-.1.1-.2.2-.4.3-.3.3-.8.7-1.3 1.2-2.7 2.6-5.2 5.4-7.3 8.5-.9 1.3-1.9 2.8-2.8 4.4-1.9 3.4-3.5 6.9-4.7 10.6-1.3 3.9-2.2 8-2.8 12.1l-.1.8V71.1c0 1 0 2 .1 3 0 .5.1 1 .2 1.5s.1 1 .2 1.4c.2 1 .4 1.9.7 2.8 1 3.7 2.7 6.9 4.3 9.5C9 92 10.6 94.1 12 95.7c2.7 3.2 6 6.6 9.8 10 3.7 3.4 7.8 6.8 11.8 10.2 4 3.4 7.9 6.7 11.3 10.1 1.7 1.7 3.2 3.3 4.6 4.9 1.3 1.5 2.4 3 3.4 4.7l.6.9c4.5-2.4 9.3-4.6 14.1-6.4.8-.3 1.5-.6 2.2-.8l.5-.2c.2-.1.3-.1.5-.2 1.2-.4 2.4-.8 3.5-1.2.3-.1.5-.1.7-.2 1.9-.6 2.9-.8 2.9-.7zm-24.5 10.4c-6.2 3.3-12.1 7.1-17.7 11.4-3 2.2-5.8 4.6-8.6 7.1-2.4 2.2-4.4 4.1-5.7 5.4-.6.7-1.3 1.3-1.9 2l-.1.1-1.1 1.2c-.4.4-.8.9-1.3 1.5s-1 1.2-1.6 2c-1.2 1.5-2.5 3.3-3.9 5.3-.3.5-.7 1-1 1.6l-.5.8-.3.4c-.1.1-.2.3-.2.4-.2.3-.3.6-.5.9-.1.3-.3.6-.4.9-.3.6-.5 1.2-.7 1.9-.1.2-.1.3-.1.5s-.1.3-.1.5c-.2 1-.1 2 .1 3 .3 1 .8 1.8 1.5 2.5.3.2.5.4.8.6 1.2.6 2.5.8 3.9.7 1.4-.1 2.7-.5 3.9-.9 2.4-.9 4.6-2.1 6.7-3.4 1.7-1.1 3.4-2.3 5-3.5 3.3-2.5 6.5-5.2 9.5-8 1.7-1.6 3.5-3.3 5.3-5.1.9-.9 1.8-1.8 2.7-2.8.9-.9 1.8-1.9 2.6-2.9 1.7-2 3.2-4.1 4.3-6.4 1.1-2.2 1.8-4.6 2-7 .1-1.1 0-2.3-.1-3.4-.2-1.1-.4-2.1-.7-3.2-.5-1.5-1.1-2.8-1.8-4.1z"/><path class="st0" d="M186.6 124.1l-.7.5c-.4.3-1.1.8-1.9 1.4-.8.6-1.9 1.3-3.1 2.1-1.4.9-2.9 1.8-4.4 2.6-1.8 1-3.8 1.8-5.8 2.4-.1 0-.3.1-.4.1l-.4.1c-.1 0-.3.1-.4.1l-.4.1c-.3.1-.6.1-.9.1h-.9c-.6 0-1.3-.2-1.8-.5-.6-.3-1.1-.8-1.4-1.4-.3-.6-.6-1.2-.7-1.9-.1-.7-.2-1.3-.3-2-.1-1.4-.1-2.8-.2-4.2 0-.7-.2-1.4-.3-2.1-.1-.7-.4-1.3-.8-1.9-.3-.4-.7-.7-1.2-.9-.1 0-.1 0-.2-.1h-.2c-.3 0-.7 0-1 .2-.3.1-.7.3-1 .5-.6.4-1.2.9-1.8 1.4-.6.5-1.2 1-1.7 1.6-1.1 1.1-2.2 2.3-3.3 3.5-2.2 2.4-4.5 4.9-6.9 7.4-1.2 1.2-2.5 2.4-3.8 3.6-1.3 1.2-2.8 2.2-4.4 3-.4.2-.8.4-1.3.6-.4.2-.9.3-1.4.4-.2.1-.5.1-.7.1h-.7c-.3 0-.5-.1-.7-.1-.2-.1-.5-.1-.7-.2l-.2-.1h-.2l-.2-.1-.2-.1-.6-.6c-.3-.4-.6-.9-.7-1.4-.3-.9-.4-1.8-.5-2.8v-2.8l.3-2.7c.2-1.8.6-3.6.9-5.3.7-3.5 1.6-7 2.6-10.4 1.9-6.7 4.2-13.3 6.6-19.8 1-2.7 2-5.2 3-7.6-1.1 1.9-2.3 3.7-3.5 5.6-4.3 6.6-8.8 13.2-13.5 19.5-3 4.2-6.2 8.3-9.4 12.3-1.7 2.1-3.4 4.3-5.3 6.4-1.8 2.2-3.8 4.3-5.7 6.4-1 1-2.1 2.1-3.2 3-.6.5-1.1 1-1.7 1.4-.6.5-1.2.9-1.9 1.2-.4.2-.7.3-1.1.5-.2.1-.4.1-.6.1-.2 0-.5 0-.7-.1l-.2-.1-.1-.1c-.1 0-.2-.1-.3-.1-.1-.1-.2-.1-.3-.2l-.3-.2c-.3-.2-.6-.5-.9-.8-.3-.3-.5-.6-.7-1-.2-.3-.4-.7-.6-1-.3-.7-.6-1.4-.8-2.2-.4-1.5-.6-2.9-.8-4.4-.2-1.5-.3-2.9-.3-4.4-.1-1.5-.1-2.9-.2-4.3 0-.7-.1-1.4-.2-2.1 0-.3-.1-.7-.2-1 0-.1-.1-.3-.1-.4v-.2c-.2.1-.3.2-.5.3-.3.3-.7.6-1 .9l-1.8 2.1c-1.1 1.4-2.2 2.9-3.4 4.3-.9 1.1-1.8 2.2-2.9 3.3-.5.5-1 1-1.6 1.4-.3.2-.6.4-1 .6-.2.1-.4.1-.6.2-.5.1-1 0-1.4-.3-.3-.2-.5-.5-.6-.9-.1-.3-.1-.6-.1-.9 0-.7.1-1.3.3-1.9.3-1.2.8-2.2 1.3-3.2 1.2-2.5 2.6-4.8 4.3-7 .5-.6.9-1.2 1.4-1.7.3-.3.6-.5 1-.6.4-.1.8-.1 1.1.1.3.2.6.4.7.6.2.2.3.4.5.6.4.7.7 1.4.9 2.1.1.6.2 1 .1 1.2.2-.3.5-.5.7-.8.3-.4.7-.7 1.1-1 .2-.2.5-.3.8-.5.1 0 .2-.1.3-.1.2-.1.5-.1.7 0 .1 0 .2.1.3.2l.2.1.2.2c.1.1.1.2.2.3.1.2.2.4.2.5.1.3.2.7.2 1 .1.7.1 1.3.2 2 .1 1.3.1 2.6.2 3.9 0 1.3.1 2.6.2 4 .1 1.3.3 2.7.5 4 .2 1.3.6 2.6 1.2 3.8.3.6.6 1.1 1.1 1.6.2.2.4.4.7.6.1.1.3.2.4.2l.2.1H95.9c.1 0 .3 0 .4-.1.3-.1.6-.2.9-.4.6-.3 1.2-.7 1.7-1.1 1.1-.8 2.2-1.7 3.2-2.7 2-1.9 4-4 5.8-6.1l5.4-6.3c8.6-10.6 16.8-21.5 24.4-32.8 1.8-2.6 3.1-4.7 4-6.2l.2-.2c1.2-3 2.4-5.6 3.5-8.1 1.6-3.5 3.3-7 5.2-10.4 1.5-2.6 2.7-4.3 3.5-5.4.4-.5.7-.8.9-1 .2-.2.2-.2.2 0-.1.3-.7 1.2-1.6 2.7-.9 1.5-2 3.7-3.4 6.5-2.7 5.6-6.2 13.7-10.1 23.9-2.1 5.6-4.1 11.2-5.8 16.9-1 3.1-1.9 6.3-2.7 9.5-.4 1.6-.8 3.3-1.1 4.9-.3 1.7-.6 3.3-.8 5-.1.8-.2 1.7-.2 2.5s0 1.7.1 2.5.3 1.6.7 2.2c.2.3.4.5.7.7.1 0 .2.1.2.1.1 0 .2.1.3.1l.3.1.3.1c.4.1.8.1 1.2 0 .2 0 .4-.1.6-.1.1 0 .2 0 .3-.1.1 0 .2 0 .3-.1.8-.2 1.5-.6 2.3-1 1.5-.9 2.8-1.9 4.1-3 1.3-1.1 2.5-2.3 3.7-3.5s2.4-2.4 3.5-3.7c1.2-1.2 2.3-2.5 3.5-3.7 1.2-1.2 2.3-2.4 3.5-3.5.6-.5 1.2-1.1 1.9-1.6s1.4-.9 2.2-1.2c.4-.2.9-.2 1.3-.2.1 0 .2 0 .3.1.1 0 .2.1.3.1.6.3 1.1.7 1.5 1.2.2.3.4.7.6 1.1.3.8.4 1.5.5 2.3.1.8.1 1.5.1 2.2 0 1.5 0 2.9.2 4.2.1.7.2 1.3.5 1.9.2.6.6 1.1 1.1 1.5.5.4 1.1.6 1.7.7.6.1 1.2.1 1.8 0 1.2-.1 2.3-.4 3.4-.8s2.1-.8 3-1.2c1.9-.9 3.5-1.8 4.9-2.7 1.4-.9 2.6-1.6 3.6-2.3 1-.6 1.7-1.2 2.2-1.5l.4.1zm-102-.9c.3-.4.6-.8 1-1.2 0-.1 0-.2-.1-.3-.2-.8-.5-1.5-.9-2.2-.2-.4-.4-.7-.7-1-.1-.2-.3-.3-.5-.4-.2-.1-.4-.2-.6-.1-.1 0-.2 0-.3.1-.1.1-.2.1-.3.2l-.6.6-1.2 1.5c-1.3 2-2.5 4-3.6 6.1-.4.8-.8 1.7-1.1 2.5-.2.4-.3.9-.4 1.4-.1.5-.2.9-.2 1.4 0 .2 0 .4.1.5 0 .1.1.1.1.2l.1.1c.1.1.3.1.4 0 .2 0 .4-.1.6-.2.4-.2.8-.6 1.2-.9l1.2-1.2c.8-.8 1.5-1.7 2.3-2.7 1.3-1.5 2.4-3 3.5-4.4z"/><path class="st0" d="M269.4 113.3c0 .1-.1.3-.2.4-.3.2-.7.4-1.1.5l-1.5.3c-.6.1-1.5.2-2.7.2s-2.7.2-4.3.3c-2.3.2-4.5.5-6.7 1-.5.1-1 .2-1.4.3-.9.2-1.8.7-2.5 1.3-.7.6-1.4 1.3-1.9 2s-1 1.5-1.4 2.3c-.7 1.5-1.3 3-1.8 4.5-.5 1.7-1 3.3-1.3 5.1-.1.7-.3 2-.5 3.5s-.4 3.3-.6 4.8l-.1.7-.1.4c0 .1 0 .3-.1.4l-.1.4c-.1.3-.1.6-.2.9l-.3.9c-.1.2-.2.4-.4.6-.1.1-.3.2-.5.3h-.4c-.1 0-.2-.1-.3-.1l-.1-.1-.1-.1-.1-.2-.1-.1-.1-.1-.1-.1s0-.1-.1-.1c0-.1-.1-.2-.1-.3l-.1-.2v-.2c0-.1-.1-.2-.1-.4-.1-.3-.1-.5-.2-.8l-.1-.8c-.2-1.3-.4-2.7-.5-4-.3-3.3-.4-6.6-.4-10 0-3.7 0-7.8.4-12.1.2-1.8.4-3.3.6-4.5-.4.9-1 2-1.6 3.3-2.8 5.5-6 10.9-9.5 16.1-1.1 1.6-2.2 3.2-3.4 4.9-1.2 1.7-2.5 3.4-4 5-1.5 1.7-3.1 3.3-4.8 4.8-.9.8-1.9 1.5-2.9 2-.6.3-1.1.5-1.7.7-.7.2-1.5.2-2.2.1l-.3-.1c-.2 0-.3-.1-.5-.2s-.3-.2-.4-.2c-.1-.1-.3-.2-.4-.3-.5-.4-1-.8-1.4-1.4-.8-1-1.4-2.2-1.7-3.4-.4-1.2-.7-2.4-.9-3.6-.2-1.2-.4-2.5-.5-3.7-.2-2.5-.3-5-.5-7.4-.1-1.2-.1-2.5-.2-3.7 0-.6-.1-1.2-.2-1.8 0-.3-.1-.5-.2-.8 0-.1-.1-.2-.1-.3h-.2s-.1 0-.1.1l-.1.1s-.1 0-.1.1c-.3.3-.7.5-1 .8-.6.6-1.2 1.4-1.8 2.1-1.2 1.4-2.3 2.9-3.5 4.4-1.1 1.5-2.3 2.9-3.5 4.3-.6.7-1.3 1.4-2 2-.4.3-.7.6-1.1.9-.4.3-.9.6-1.4.7-.2.1-.5.1-.7.2h-.4c-.1 0-.3 0-.4-.1-.1 0-.3-.1-.4-.1-.1-.1-.3-.1-.4-.2l-.3-.3c-.1-.1-.2-.2-.2-.3-.2-.4-.3-.9-.3-1.3s0-.8.1-1.1c.1-.7.3-1.4.5-2s.4-1.2.7-1.8c.5-1.1 1-2.2 1.5-3.1s1-1.9 1.6-2.7c1-1.7 2.1-3.2 3.1-4.5l1.5-1.8c.3-.3.7-.5 1.1-.7.4-.1.9-.1 1.3 0 .3.1.7.3.9.6.2.2.4.5.6.7.7 1 1.1 2.2 1.3 3.4 0 .2.1.5.1.7.4-.4.7-.8 1.1-1.2.4-.4.8-.7 1.2-1.1.1-.1.3-.2.4-.2l.2-.1.3-.1c.5-.2 1-.1 1.4.1l.2.1.1.1s.1.1.1.2l.1.2c.1.1.1.2.1.3 0 .1.1.2.1.3.1.3.2.6.2.9.1.6.2 1.2.2 1.8.1 1.2.1 2.3.2 3.5.1 2.3.1 4.6.3 7 .2 2.3.4 4.6 1 6.8.3 1.1.7 2.2 1.2 3.1.5 1 1.2 1.8 2.1 2.4l.3.2c.1.1.2.1.4.2s.5.1.7.2c.5 0 1 0 1.5-.2l1.5-.6c.5-.3.9-.6 1.4-.9 1.8-1.3 3.4-2.8 4.9-4.4 1.5-1.6 2.9-3.2 4.2-4.9 1.3-1.6 2.5-3.3 3.7-4.9 2.3-3.2 4.3-6.3 6-9 1.7-2.8 3.2-5.3 4.3-7.4.9-1.6 1.5-2.9 2.1-4 .2-.8.3-1.4.5-2 .4-1.4.8-1.9.9-1.7.1.2.1 1 0 2.3-.1 1.4-.2 3.2-.3 5.6 0 1.1-.2 3.3-.2 6.1-.1 3.1-.1 6.3 0 9.4.1 3.3.3 6.6.5 9.2.1.6.1 1.2.2 1.8v.2l.1-.1v-.2l.2-.7.6-3c.4-2 .8-3.8 1.1-5 .1-.3.2-1 .4-1.9.2-.9.5-2.2 1-3.6.4-1.4 1-3 1.8-4.6.4-.8.9-1.6 1.4-2.4.6-.8 1.2-1.5 1.9-2.2 1-.8 2.1-1.4 3.3-1.7l.7-.2c.5-.1.9-.2 1.4-.3 1.8-.3 3.6-.6 5.3-.7 1.6-.2 3.1-.3 4.4-.3 1.2-.1 2.2-.1 2.9-.2.7 0 1.2-.1 1.7-.2.4 0 .7-.1 1.1-.3.2-.1.3-.3.3-.4 0-.1 0-.2.1-.2 0 0 .1 0 .1.2-.2.5-.2.6-.3.7zm-73.7 9.4l.5-.6c-.1 0-.1-.1-.1-.1v-.1-.1h.2v-.1c0-.2-.1-.3-.1-.5-.3-.9-.7-1.8-1.2-2.6-.2-.4-.5-.7-.8-1-.3-.3-.7-.6-1.1-.6-.1 0-.2 0-.3.1-.1 0-.2.1-.3.1-.2.2-.4.3-.6.6-.4.5-.8 1-1.2 1.6l-1.2 1.8c-.8 1.3-1.7 2.7-2.5 4.3-.4.8-.8 1.6-1.2 2.5-.4.9-.8 1.7-1.1 2.7-.2.5-.3.9-.4 1.4-.1.5-.2 1-.2 1.4 0 .2 0 .4.1.6 0 .1.1.2.2.3H184.7c.1 0 .3 0 .5-.1.3-.1.6-.3.9-.5.3-.2.6-.5.9-.7.6-.5 1.2-1.1 1.8-1.8 1.2-1.3 2.3-2.7 3.5-4.2.9-1.3 2.1-2.8 3.4-4.4zm4.7-2.3zm205.7-14.7h-.1c-.1 0-.2-.1-.3-.1-.4-.1-.9-.2-1.3-.3-1.7-.2-3.4-.1-5 .1-2.1.2-4.7.7-7.5 1.3-3.2.7-6.3 1.5-9.4 2.4-.5.1-.9.3-1.4.4l-4.6 44.2-6.5 61.4s1.7-23.9 4.3-56.7c1.2-14.7 2.5-31.2 4-48.1-5.6 1.6-11.7 3.5-17.9 5.4-7.8 2.4-15.7 4.8-23.1 6.7-3.6.9-6.8 1.6-9.5 2-.1 6.1 0 12.2.2 18.3.1 3.1.3 6 .5 8.6.2 2.6.4 4.8.6 6.5.1.5.1 1 .2 1.4v.7c0 .1-.1 0-.3-.2-.2-.5-.4-.9-.5-1.4-.2-.7-.4-1.4-.5-2.1l-.2-1.2c-.1-.4-.1-.8-.2-1.3-.6-4.2-1.1-8.5-1.3-12.8-.3-4.3-.4-8.6-.5-13v-3.1c-1.8.2-3.4.3-4.7.3-1.7 0-3-.2-3.7-.5-.2 0-.3-.1-.5-.2-.1 0-.2-.1-.3-.2-.1-.1-.1-.2 0-.2.2-.1.8-.1 1.8-.2s2.4-.2 4.1-.5c1-.2 2.1-.4 3.3-.6 0-7 .2-14.2.5-21.4.8-14.4 1.8-29 3.2-43.1.4-4.7.9-9.4 1.4-13.9.7-6.2 1.4-12.3 2-17.2.7-4.9 1.4-8.7 1.9-10.2.2-.6.1 1.2-.2 3.9-.2 2.7-.6 6.2-.8 9.1-.7 7.3-1.4 14.6-2 21.9-1.6 17.6-2.8 35.3-3.5 53-.2 5.9-.4 11.7-.5 17.6 3-.7 5.9-1.4 8.9-2.1 6-1.5 13.3-3.5 20.9-5.6 7-1.9 14.1-3.9 20.8-5.6 1.8-20.4 3.7-41.3 5.6-60.5.4-4.4.9-8.6 1.3-12.3.4-3.8.8-7.3 1.2-10.4.4-3.2.8-6 1.1-8.6.2-1.3.4-2.5.5-3.6l.5-3.2c.2-1 .3-1.9.5-2.7l.2-1.2c.3-1.5.6-2.9 1-4.4.4-1.7.7-2.2.9-1.8.2.4.2 1.9 0 4.2l-.3 4.2c-.1 1.9-.3 3.7-.4 5.6l-.6 6.9c-.2 2.7-.5 5.4-.7 8.1-.3 2.9-.5 6-.9 9.2l-1 10.3-2.4 23.8-2.9 26.5-.9 9c6.7-1.6 12.8-2.7 17.4-3.1 2.4-.2 4.3-.1 5.6.1.7.1 1.2.2 1.5.3.2.1.3.1.4.1l.1.1zm30.9 26.4c-.9 1-1.8 2-2.9 3-1.7 1.6-3.9 3.5-6.3 5.2-2.4 1.7-4.9 3.2-6.9 4-.8.4-1.6.7-2.4 1-.3.1-.5.2-.7.2l-.3.1h-.1c-.1 0-.2.1-.3.1-.4.2-.9.3-1.3.4-.8.2-1.7.4-2.5.5-.6.1-1.2.1-1.9.1-1.7 0-3.4-.2-5.1-.8-.3-.1-.5-.2-.8-.3-.3-.1-.5-.2-.8-.3-.1-.1-.3-.1-.4-.2-.1 0-.1-.1-.2-.1l-.2-.1c-.1-.1-.3-.1-.4-.2-.1-.1-.3-.2-.4-.3-1.1-.7-2.1-1.6-2.8-2.7-.8-1.1-1.4-2.4-1.7-3.8s-.4-2.8-.4-4.1.3-2.7.6-3.9c.6-2.2 1.5-4.4 2.8-6.3.4-.6.8-1.2 1.4-1.7.2-.3.5-.5.8-.7.3-.3.7-.5 1.1-.6.1 0 .2-.1.2-.1H405.7c.3 0 .5.1.8.3l.3.3.2.2.2.2.2.2.2.2c.1.1.1.2.2.3.2.4.3 1 .1 1.4 0 .1-.1.2-.1.3-.1.1-.1.2-.2.3-.1.1-.2.3-.3.4l-.3.3c-.2.2-.4.3-.6.5-.4.3-.7.5-1.1.8l-3.6 2.1c-.4.9-.6 1.8-.9 2.7-.3 1.3-.5 2.6-.5 3.9 0 1.4.2 2.8.6 4 .5 1.3 1.2 2.4 2 3.2.9.9 1.8 1.5 2.7 1.9.9.4 1.6.7 2.1.9 2.1.7 4.3.8 6 .7.9-.1 1.9-.2 2.8-.4l.3-.1c.2 0 .4-.1.8-.2l2.7-.9c1.1-.4 2.4-1 3.6-1.7 1.3-.7 2.6-1.5 3.9-2.4 2.3-1.6 4.6-3.4 6.7-5.3 1.7-1.6 2.7-2.6 2.5-2.5zm-34-6.4c-.1.2-.2.3-.3.5.2-.1.4-.3.5-.4.5-.4 1.1-.9 1.7-1.4.3-.2.6-.5.9-.8.1-.1.2-.2.3-.4l-.4-.4c-.1 0-.1.1-.2.1-.4.3-.7.5-1 .9-.4.4-.7.8-1 1.3l-.1.2c-.1 0-.2.2-.4.4z"/><path class="st0" d="M505.4 131.7s-.4.4-1.1 1.3c-.7.8-1.8 2-3.3 3.5-2.8 2.9-5.8 5.6-9 8.2-1.3 1-2.6 2.1-4.1 3.1s-3.1 2-4.7 3c-1.7 1-3.6 1.8-5.4 2.6-1.9.7-4 1.3-6.2 1.6-1.1.1-2.2.1-3.4-.2-1.1-.3-2.2-.7-3.2-1.4-.9-.7-1.7-1.6-2.4-2.6-.6-1-1.2-2.1-1.5-3.2-.8-2.2-1.3-4.6-1.6-6.9-.3-2.4-.5-4.8-.6-7.1-.1-1.2-.1-2.4-.2-3.6-.1-.6-.1-1.2-.2-1.7 0-.3-.1-.7-.2-1v-.1h-.1-.1c-.1.1-.2.1-.3.2l-.6.6c-.4.5-.8 1-1.1 1.5-.7 1-1.4 2.1-2.1 3.2-1.4 2.2-2.7 4.3-4.2 6.4-.7 1-1.4 2.1-2.2 3.1-.8 1-1.6 2-2.5 2.9-.5.4-.9.9-1.4 1.3-.5.4-1.1.8-1.7 1-.7.3-1.4.4-2.1.4-.4-.1-.8-.2-1.2-.4l-.1-.1c-.1-.1-.2-.1-.2-.2-.1-.1-.3-.2-.4-.3-.2-.1-.3-.3-.4-.4-.1-.2-.3-.3-.4-.5-.2-.3-.4-.6-.6-1-.3-.7-.5-1.3-.7-2-.3-1.3-.5-2.6-.5-3.9-.1-2.3 0-4.5.3-6.8.2-2 .6-3.9 1-5.5s.8-3 1.2-4.2c.9-2.4 1.8-4 2.5-4.9.3-.4.6-.7.8-.8.2-.1.2-.1.2 0-.1.2-.7 1-1.3 2.3-.8 1.9-1.5 3.9-2 5.9-.3 1.3-.6 2.7-.9 4.3-.3 1.6-.5 3.3-.6 5.1s-.1 3.8.1 5.8c.1.5.1 1 .2 1.5s.2 1 .4 1.5.3 1 .6 1.5c.2.5.5.9.9 1.2.3.3.7.5 1.2.6.4.1.9 0 1.3-.1.5-.2.9-.4 1.4-.7.5-.3.9-.7 1.3-1.1.8-.8 1.6-1.7 2.4-2.6.8-1 1.5-1.9 2.2-3 1.4-2.1 2.8-4.3 4.3-6.5.7-1.1 1.5-2.3 2.2-3.4.4-.6.8-1.1 1.3-1.7.2-.3.5-.5.8-.8.2-.1.3-.3.5-.4h.2c.1 0 .1-.1.2-.1h.5c.1 0 .2.1.3.2l.3.3.1.1.1.1s0 .1.1.1c0 .1.1.2.1.3.1.3.2.6.2.9.1.6.2 1.2.2 1.7.1 1.1.1 2.3.2 3.4.1 2.3.2 4.5.4 6.8.3 2.2.6 4.5 1.3 6.6.3 1.1.7 2.1 1.2 3.1s1.1 1.9 1.9 2.6c.7.7 1.6 1.3 2.6 1.7 1 .4 2 .6 3.1.6.5 0 1 0 1.6-.1l.4-.1.4-.1.8-.1.4-.1.4-.1.8-.2.4-.1c.1 0 .2-.1.4-.1l.7-.2c1.9-.6 3.8-1.4 5.5-2.3.4-.2.9-.4 1.3-.7l1.2-.7 2.4-1.5.6-.4c.2-.1.4-.3.6-.4.4-.3.7-.5 1.1-.8l1.1-.8c.4-.3.7-.5 1-.8.7-.5 1.3-1 1.9-1.5l1.8-1.5c2.3-1.9 4.2-3.8 5.8-5.3 1.6-1.5 2.8-2.8 3.6-3.6.1-.9.5-1.4.5-1.4z"/><path class="st0" d="M609.4 126.1l-.8.7c-.5.5-1.3 1.1-2.4 2-1 .8-2.3 1.9-3.9 3s-3.3 2.4-5.3 3.8-4.3 2.8-6.9 4.1c-1.3.7-2.7 1.3-4.2 1.8-1.5.6-3.1 1-4.8 1.1-1.7.1-3.5-.1-5.1-.7-.2-.1-.4-.1-.6-.2l-.6-.3c-.1 0-.2-.1-.3-.1l-.3-.2-.6-.3-.6-.3c-.1-.1-.2-.1-.3-.2l-.3-.2c-.2-.1-.4-.3-.6-.4-.2-.1-.4-.3-.6-.4-.1-.1-.2-.1-.3-.2l-.3-.2-.6-.4c-.4-.3-.7-.6-1.1-.9-.7-.6-1.4-1.3-2.1-2-1.4-1.4-2.7-2.9-4-4.3-1.3-1.5-2.6-3-4.1-4.4-.7-.7-1.5-1.3-2.4-1.8l-.3-.2-.1-.1s-.1 0-.1-.1c-.1 0-.2-.1-.3-.1h-.4c-.5 0-.9.1-1.3.4-.9.4-1.7 1-2.5 1.7s-1.5 1.4-2.2 2.2c-1.4 1.6-2.8 3.3-4.2 5-1.4 1.7-2.8 3.5-4.3 5.2-.7.9-1.5 1.7-2.4 2.5-.4.4-.9.8-1.4 1.1s-1 .7-1.7.9c-.4.1-.7.2-1.1.1-.4 0-.8-.2-1.1-.5l-.1-.1-.1-.1-.2-.2-.2-.2-.1-.2c-.2-.3-.3-.6-.4-.9-.2-.6-.3-1.2-.3-1.9 0-.6 0-1.2.1-1.8.1-1.2.3-2.3.5-3.5.2-1.1.5-2.3.7-3.4.5-2.2 1.1-4.5 1.5-6.7.4-2.2.8-4.5.8-6.7 0-1.1-.1-2.2-.3-3.2l-.1-.4v-.1-.1-.1l-.3-.3c-.2-.1-.4-.2-.6-.2h-.2c-.4.2-.9.4-1.3.7-.4.3-.8.7-1.2 1-.8.8-1.5 1.6-2.2 2.5-1.4 1.8-2.6 3.7-3.8 5.6-1.2 1.9-2.3 3.8-3.5 5.8l-3.3 5.8c-1.1 1.9-2.2 3.8-3.4 5.6l-1.8 2.7c-.6.9-1.3 1.7-2 2.5-.4.4-.8.8-1.2 1.1-.5.4-1 .7-1.6.9-.3.1-.7.1-1.1.1-.1 0-.2 0-.3-.1-.1 0-.2 0-.3-.1l-.2-.1-.1-.1-.1-.1c-.6-.4-1-.9-1.3-1.3-.3-.5-.5-1-.6-1.4-.1-.5-.2-.9-.3-1.4-.2-.9-.2-1.8-.3-2.7 0-1.7 0-3.3.2-5 .3-3.1.8-5.9 1.4-8.3.6-2.4 1.3-4.6 2.1-6.4s1.5-3.3 2.4-4.4c.8-1.1 1.6-2 2.4-2.4.2-.1.4-.2.5-.3.2-.1.3-.1.5-.2.1 0 .3-.1.4-.1h.3c.3 0 .4.1.2.2s-.6.2-1.2.6c-.3.2-.6.4-.9.7-.3.3-.6.7-.9 1.2-.7 1.1-1.4 2.3-1.9 3.5-.6 1.4-1.2 3.1-1.7 5s-1 4.1-1.4 6.4c-.4 2.4-.7 4.9-.7 7.7 0 .7 0 1.4.1 2.1.1.7.1 1.4.3 2.1l.1.3.1.3c0 .2.1.3.1.5s.1.3.2.5.1.3.2.5c.1.3.3.6.5.7 0 .1.1.1.1.1l.1.1h.5c.1 0 .4 0 .6-.1.3-.1.5-.3.8-.5.6-.5 1.1-1 1.6-1.6 1-1.2 2-2.6 2.9-4.1 1.9-2.9 3.7-6.2 5.7-9.5l3-5.1c1-1.7 2.1-3.5 3.3-5.2.6-.9 1.2-1.7 1.8-2.6s1.3-1.7 2.1-2.5 1.6-1.6 2.6-2.2c.4-.2.9-.4 1.3-.6 1-.3 2.1.1 2.7.9.1.1.1.2.2.3.1.1.1.2.1.3.1.2.1.3.2.5 0 .1.1.3.1.4.2.7.3 1.4.3 2.2.1 1.1 0 2.3-.1 3.4-.2 2.2-.7 4.5-1.1 6.6-.5 2.2-1 4.4-1.6 6.5-.3 1.1-.5 2.2-.7 3.3-.2 1.1-.3 2.1-.4 3.2 0 .5 0 1 .1 1.5.1.4.2.9.5 1.2l.1.1.1.1.1.1s.1 0 .1.1c.1.1.3.1.4.1.2 0 .4-.1.6-.2l.6-.3c.4-.3.8-.6 1.3-.9.4-.3.8-.7 1.2-1.1.8-.8 1.5-1.6 2.2-2.4 1.4-1.7 2.9-3.4 4.3-5.1 1.4-1.7 2.9-3.4 4.4-5 .8-.8 1.6-1.5 2.5-2.2.4-.3.9-.7 1.4-.9.5-.3 1.1-.5 1.7-.6H555.6c.1 0 .2 0 .2.1s.2 0 .2.1l.2.1s.1 0 .1.1l.1.1c.2.1.5.3.7.4l.3.2.3.3c.9.7 1.6 1.4 2.4 2.2 1.5 1.5 2.8 3.1 4.1 4.6 1.3 1.5 2.6 3 4 4.4.7.7 1.4 1.3 2.1 1.9l.5.4c.2.2.4.3.6.4.4.3.8.5 1.1.8.2.1.4.2.6.4l.3.2.3.2.6.3.6.3.3.1.3.1c.2.1.4.2.6.2.4.1.8.3 1.3.3.9.2 1.7.3 2.6.3.8 0 1.7-.1 2.5-.3 1.6-.3 3.1-.8 4.6-1.4 1.4-.6 2.8-1.3 4.1-2 1.3-.7 2.5-1.4 3.6-2.1 2.3-1.4 4.3-2.8 6-4 2.4-1.7 4.8-3.5 7.1-5.4l1.5-.8z"/><path class="st0" d="M666.3 125.4c-.3.1-1.4.7-2.9 1.7-2.4 1.6-4.7 3.5-6.8 5.5l.4.2c.6.4 1.2.8 1.8 1.4.5.5 1 1.1 1.3 1.8.3.6.5 1.3.6 2 .1.7 0 1.3 0 1.9-.2 1.1-.4 2.1-.8 3.1-.3.8-.6 1.5-1 2.2-.3.6-.6 1-.8 1.4-.1.1-.1.2-.2.3l-.1.1-.1.2c-.1.1-.2.3-.3.5l-1.2 1.8c-1.1 1.5-2.9 3.5-5.3 5.6-1.3 1.1-2.7 2.1-4.1 3-.8.5-1.6.9-2.5 1.3-.5.2-1 .3-1.5.4-.3 0-.6.1-.8 0h-.2c-.1 0-.2 0-.2-.1-.1 0-.2-.1-.2-.1l-.2-.2-.2-.2c0-.1-.1-.1-.1-.2l-.1-.1V158.6c0-.3-.1-.5-.1-.8 0-.5 0-1 .1-1.6.2-1 .5-2 .9-3 .7-1.9 1.7-3.8 2.8-5.6 2.1-3.5 4.5-6.7 7.1-9.8 1.3-1.6 2.7-3 4-4.3-.9-.4-1.7-.8-2.6-1-.8-.3-1.5-.5-2.3-.7-.8-.2-1.6-.5-2.5-.8-.5-.2-.9-.3-1.3-.5-.3-.1-.6-.3-.8-.4l-1.2 1.1c-3.2 2.9-6.5 5.6-10 8.1-3.5 2.4-7 4.5-10.8 5.8-1.8.7-3.7 1-5.6 1.1-.9 0-1.9-.1-2.8-.3-.2-.1-.4-.1-.7-.2l-.7-.2-.6-.3-.6-.3c-1.7-.8-3.2-2-4.4-3.5-1.1-1.4-1.8-3-2.2-4.8-.3-1.6-.4-3.2-.2-4.7s.5-2.9.9-4.2c.4-1.3.9-2.5 1.5-3.6.5-1.1 1.2-2.1 1.9-3 .4-.4.7-.9 1.1-1.2.2-.2.4-.4.7-.5.1-.1.3-.2.4-.2.1-.1.3-.1.4-.2H614.1c.1 0 .2 0 .3.1.1 0 .2.1.3.1.1 0 .2.1.2.2l.2.2.1.1c.2.2.4.4.6.7l.1.1c0 .1.1.1.1.2s.1.2.1.2v.2c0 .3-.1.7-.2 1-.2.3-.3.5-.5.6-.3.3-.6.6-.9.8-.6.4-1.2.8-1.7 1.1-1 .6-1.9 1.1-2.5 1.5l-.6.3c-.4 1.1-.8 2.3-1.1 3.6-.2 1.2-.4 2.4-.4 3.6 0 1.2.2 2.5.6 3.7.4 1.2 1 2.4 1.9 3.4 1 1.1 2.3 2 3.6 2.6.1 0 .2.1.3.1s.3.1.5.2l.6.2.3.1h.2c.6.1 1.3.2 1.9.2 1.3 0 3-.3 4.8-.8 2-.7 4-1.5 5.8-2.6 4.1-2.2 8.3-5.4 12.5-8.9 1.2-1 2.3-2 3.5-3.1-.1-.2-.2-.5-.3-.8-.1-.3 0-.7 0-1l.3-.9c.2-.6.5-1 .9-1.5.3-.5.7-.9 1.1-1.3.8-.8 1.6-1.6 2.6-2.2.2-.2.5-.3.7-.5.1-.1.3-.2.4-.2l.2-.1.1-.1.2-.1c.9-.5 1.8-.9 2.6-1 .3 0 .6 0 .9.1.5.1.8.6.8 1.1v.4c0 .1 0 .1-.1.2v.1l-.1.1-.1.2v.1l-.2.3-1 1-.8.9-1.1 1.1-2.2 2.2c-.8.7-1.5 1.5-2.3 2.2l.4.2c.5.2.9.4 1.3.5 2.6.9 5.3 1.6 7.7 2.9.8-.7 1.6-1.4 2.3-2.1 1-.9 2.1-1.7 3.2-2.5 1-.7 1.8-1.2 2.5-1.6 1.2-.8 1.9-1.1 1.6-1zm-56.4-.1l.8-.6 1.2-.9c.4-.3.9-.7 1.4-1.1.3-.2.5-.4.7-.7l.2-.2.1-.1.1-.1s0-.1.1-.1v-.1-.1-.2s0-.1-.1-.1l-.1-.1c-.1-.1-.3-.2-.4-.4l-.1-.1h-.1-.1-.1c-.1 0-.1.1-.2.1l-.2.2c-.3.2-.6.5-.9.8-.6.7-1.1 1.5-1.6 2.3-.3.5-.5 1-.7 1.5zm45.8 8.3c-1.6 1.6-3.3 3.4-4.9 5.4-2.4 2.9-4.5 6-6.4 9.3-1 1.6-1.8 3.4-2.4 5.1-.3.9-.6 1.8-.7 2.7-.1.4-.1.9-.1 1.3v.6c0 .2.1.4.1.6.1.2.2.3.4.4.2.1.4.1.6.1.4 0 .8-.1 1.2-.2.8-.3 1.6-.6 2.3-1 1.4-.8 2.7-1.7 3.8-2.6 2.2-1.8 3.8-3.5 4.9-4.7.5-.6.9-1.1 1.2-1.5l.3-.4.1-.1s.2-.3.5-.8c.4-.6 1-1.6 1.6-3 .3-.7.7-1.6 1-2.6.2-.5.3-1.1.4-1.7.1-.6.2-1.2.1-1.9 0-.7-.2-1.3-.5-2-.3-.6-.8-1.2-1.4-1.7-.7-.5-1.4-.9-2.1-1.3zm-10-6l1.2-1.2c1-.9 1.9-1.8 2.8-2.7l1.3-1.4.6-.6.1-.1.1-.1c0-.1 0-.1-.1-.1h-.1c-.1 0-.2.1-.3.1h-.1l-.2.1c-1 .6-1.9 1.3-2.7 2-.6.5-1.2 1.1-1.7 1.8-.4.5-.7 1.1-.9 1.7v.5z"/><path class="st0" d="M690.9 123.7c.1.1-1.3.7-3.7 2.2-2.5 1.6-4.8 3.3-6.9 5.3l-.6.5c.2.1.3.2.4.3.8.6 1.6 1.4 2.1 2.3.5.9.8 1.8.9 2.8.1.9 0 1.8-.2 2.6-.2.9-.5 1.8-.9 2.7-.2.5-.4 1-.6 1.4-1.1 2.1-2.6 4.1-4.4 5.7-.4.4-.9.7-1.4 1.1-.1 0-.1.1-.2.1-1.4 1.2-2.9 2.2-4.5 3.1-.1.1-.3.2-.4.2-1 .5-2 .9-3 1.1h-.4c-.4.1-.7.1-1.1 0-.3-.1-.5-.2-.7-.3-.2-.2-.4-.4-.4-.7-.1-.3-.1-.5-.1-.8.1-1 .4-1.9.8-2.9s.8-2 1.3-2.9c.6-1.3 1.3-2.5 2.1-3.7.2-.2.3-.5.5-.7.3-.5.6-1 1-1.5 2.3-3.4 4.9-6.6 7.5-9.2-.4-.3-.9-.5-1.3-.7-1.8-.8-3.8-1.5-6-2.2-1.1-.3-2.2-.7-3.3-1.2-.6-.2-1.2-.5-1.7-.8-.3-.2-.6-.4-.8-.6-.3-.3-.5-.6-.7-1-.2-.4-.3-.9-.2-1.3s.1-.8.3-1.1c.3-.7.7-1.3 1.1-1.8.9-1 1.9-1.9 3-2.8 1.6-1.2 3.1-2 4.4-2.6 1.3-.6 2.4-1 3.3-1.1.4-.1.8-.1 1.2 0 .2 0 .3.1.5.2.1 0 .1.1.2.2 0 .1.1.1.1.2.1.3 0 .4 0 .5 0 .1-.1.1-.1 0-.1-.1-.1-.4-.5-.5-.2 0-.5 0-.7.1-.3.1-.7.2-1 .3-.9.4-1.8.8-2.6 1.3-1.1.6-2.2 1.3-3.2 2.1-.5.4-1.3 1-2.2 1.9-.5.5-.9.9-1.3 1.5l-.6.9c-.2.3-.3.6-.3.9v.6s0 .1.1.1c0 0 0 .1.1.1.2.3.5.5.8.7.7.4 1.5.8 2.4 1.1 1.8.7 3.8 1.2 5.7 1.9 1.6.6 3.2 1.2 4.6 2.1l.1-.1c1.6-1.5 3.3-2.9 5-4.1l.8-.5c.5-.3.9-.6 1.3-.8.2-.1.3-.2.5-.3l.5-.3c.3-.2.6-.3.9-.5.6-.3 1-.5 1.4-.6.6-.4 1-.5 1.1-.5zm-12.3 9.1c-1 1-2 2-2.9 3.2-1.5 1.8-3 3.7-4.4 5.6-.7 1-1.3 2-1.9 3-.6 1-1.2 2-1.7 2.9-.5.9-.9 1.9-1.3 2.9-.4.9-.7 1.8-.8 2.7v.6c0 .2.1.3.1.5 0 0 0 .1.1.1.1.1.3.2.5.3.2 0 .3.1.5.1s.4 0 .6-.1c.8-.1 1.8-.5 2.7-1h.1c1.2-.7 2.4-1.5 3.5-2.4.4-.3.9-.7 1.3-1.1.2-.3.4-.5.6-.8.3-.3 1-1.2 2.1-2.4 1-1.3 2.2-2.9 3.2-5.1.1-.1.1-.2.2-.3.3-.7.5-1.4.6-2.2.1-.3.1-.7.1-1 0-.4 0-.7-.1-1.1-.1-.7-.4-1.5-.8-2.1-.5-.7-1.1-1.3-1.7-1.8l-.6-.5zm74.4-10.1c0 .1-.1.3-.2.3-.3.2-.6.4-1 .5-.4.1-.9.2-1.4.3-.6.1-1.4.1-2.6.2-1.1.1-2.6.2-4.1.3-2.1.2-4.3.5-6.4.9-.4.1-.9.2-1.3.3-.9.2-1.7.6-2.4 1.2s-1.3 1.2-1.8 1.9-1 1.5-1.3 2.2c-.8 1.5-1.3 3-1.7 4.3-.4 1.3-.7 2.4-.9 3.2l-.3 1.5c-.1.6-.3 1.9-.5 3.3-.2 1.5-.4 3.1-.6 4.6 0 .2-.1.4-.1.7l-.1.4-.1.4c0 .1 0 .3-.1.4-.1.3-.1.6-.2.9-.1.3-.1.6-.3.8-.1.2-.2.4-.3.5l-.2.2c-.1.1-.3.1-.5.1h-.2c-.1 0-.3-.1-.4-.2l-.1-.1c0-.1-.1-.1-.1-.2 0 0 0-.1-.1-.1l-.1-.1c0-.1-.1-.1-.1-.2s-.1-.2-.1-.3v-.4c0-.1-.1-.2-.1-.3-.1-.2-.1-.5-.2-.7l-.6-4.5c-.3-3.1-.4-6.3-.4-9.4 0-3.5 0-7.3.3-11.4.1-1.4.3-2.6.5-3.6-1 2-3.2 5.8-5.7 9.5-.8 1.2-1.7 2.4-2.6 3.5-.8 1.1-1.7 2.1-2.4 2.9-.8.9-1.7 1.8-2.5 2.6l-.3.3-.4.4-.6.6c-.8.8-1.8 1.5-2.7 2.2-.3.2-.5.4-.8.5-.7.4-1.3.8-2 1.1-.8.3-1.7.6-2.8.8l-.4.1c-.1 0-.3 0-.4.1-.9.1-1.8.1-2.7-.1-.3 0-.6-.1-.9-.2l-.5-.1-.2-.1-.2-.1c-.6-.2-1.2-.5-1.8-.8-1.2-.6-2.4-1.5-3.2-2.6-.9-1.1-1.5-2.4-1.9-3.8-.3-1.3-.4-2.7-.3-4 .1-1.2.3-2.5.7-3.6.3-1.1.7-2.1 1.2-3 .5-.9 1-1.8 1.6-2.7.2-.3.4-.5.7-.8.2-.2.5-.5.8-.7.3-.2.7-.4 1.1-.5h.4c.1 0 .3 0 .4.1.1.1.3.1.3.2l.1.1.1.1c.2.2.4.4.6.7l.3.6c.1.3 0 .7-.1 1l-.1.1-.1.1c0 .1-.1.1-.1.2s-.1.1-.1.2c-.2.2-.4.4-.6.5s-.4.3-.5.4c-.7.5-1.3.9-1.9 1.2-.8.5-1.5.9-2 1.1-.2.5-.4 1.1-.6 1.8-.3 1-.5 2.1-.6 3.4-.1 1.3 0 2.7.5 4 .4 1.3 1.2 2.5 2.2 3.5 1 .9 2.3 1.6 3.5 2l.9.3c.3.1.6.1.9.2.3 0 .6.1.8.1h.8c1 0 1.8-.1 2.3-.3 1.1-.3 2.1-.6 3.1-1.1 1-.5 1.8-1 2.5-1.5.8-.5 1.6-1.1 2.3-1.7l.2-.2c.1-.1.4-.3.6-.6l2.1-2.1c1.7-1.8 3.7-4.3 5.5-6.9 1.8-2.6 3.5-5.3 4.7-7.3l1.2-2c.2-1.1.4-1.9.6-2.6.4-1.3.7-1.8.8-1.6.1.2.1.9 0 2.2-.1 1.3-.2 3.1-.3 5.2 0 1-.2 3.1-.2 5.8-.1 2.6-.1 5.8 0 8.9.1 3.1.2 6.2.5 8.7 0 .3.1.6.1.9l.1.4.1.4v.2s0-.1.1-.1v-.1c.1-.2.1-.5.1-.7.2-1 .4-1.9.6-2.9.4-1.9.8-3.6 1-4.7.1-.3.2-.9.4-1.8s.5-2.1.9-3.4c.4-1.3 1-2.8 1.7-4.4.4-.8.8-1.5 1.3-2.3.5-.8 1.1-1.5 1.8-2.1.9-.8 2-1.4 3.2-1.6l.7-.1c2.1-.5 4.2-.8 6.3-1 1.6-.2 3-.2 4.1-.3 1.2-.1 2.1-.1 2.7-.1.6 0 1.2-.1 1.6-.2.4 0 .7-.1 1-.3.2-.1.3-.3.3-.4 0-.1 0-.2.1-.2 0 0 .1 0 .1.2v.4zm-62 4.6c.4-.3.9-.7 1.4-1.1.6-.4 1.1-.9 1.7-1.4l.4-.4c.1-.1.2-.3.1-.3-.1-.1-.2-.3-.4-.4l-.1-.1h-.1l-.1.1s-.1 0-.1.1c-.4.3-.7.6-1 .9-.8.8-1.3 1.7-1.8 2.6z"/><g><path d="M200.6 188.3c1.2.2 1.9.4 1.9.6v.6c-7.5 0-12 1.9-13.5 5.7-2 3.5-3 6.1-3 7.9v4.1c1 3.9 3.1 5.8 6.4 5.8 3-2.7 4.4-5.9 4.4-9.5v-1c0-1.6-1.5-2.6-4.4-3.2l-.4-.6c0-1 2.5-1.5 7.4-1.6.7 0 1.3.3 1.9 1l-2.6 1.6.8 2.6c-1.2 8.2-3.7 12.4-7.4 12.4-5.7-1.4-8.5-4-8.5-7.9v-1.6c0-5.8 2.5-10.7 7.6-14.7 2.8-1.4 6.1-2.2 9.4-2.2zm21.8 2.5h1.5c2.2 0 3.3.9 3.3 2.9-2.1 3.9-5.5 6.7-10.4 8.5v.6c4.6 7.4 7.9 11.4 10.1 12.2l1.5.2v.8l-1.9.8c-1.5 0-4-2.5-7.5-7.5l-4.1-5.1h-1.2v.2l.4 3.4c0 3.9-.6 5.9-1.9 5.9h-1c-.6 0-1-.3-1.2-1l1.2-2 .7-14.6c-1.3 0-1.9-.3-1.9-.8 1-.8 1.5-1.4 1.5-1.8v-1.6l1.2-.6h.3l2.6.4 6.8-.9zm-7.8 3.1l-.3 5.5v1.4l.7.4h.8c5.7-2.7 8.5-5.2 8.5-7.3v-1l-1.5-.8h-.3c-2.8-.1-5.5.6-7.9 1.8zm34.2-5.1c2.7 0 4.1 6.8 4.2 20.2l1.2 6.5-1.9.2h-.8l-1.1-.6v-7.5l-.4-3h-.3c-5.9.4-9.2 1.1-9.7 2.1-.9 4.9-1.7 7.4-2.1 7.5h-1.5l-1.5-.8c1.2-5.1 3.2-10.8 6-17 1.8-5.3 4.5-7.8 7.9-7.6zm-7.6 14.3l1.8.8c4.9-.6 7.4-1.1 7.4-1.4v-3.7l.4-2.6-.9-2c-.7-1.6-1.4-2.4-2.2-2.4-1.6 0-3.8 3.8-6.5 11.3zm25.2-14.3l1.5.6 4.8-.2c5.2.3 7.8 1.5 7.8 3.6 0 2.5-4.5 5.8-13.4 9.7-.5.7-.8 1.9-.8 3.7v4.6l.4 1.2c-.3.8-1 1.5-1.9 1.8l-1.1-.6h-.4l1.1-17.2v-2.6c0-.6-.5-1.1-1.5-1.6.7-.7 1.1-1.4 1.1-2.2l2.4-.8zm.4 4.7v7.3h1.1c5.9-2.6 9.3-5 10.1-7.3 0-2-1.9-3-5.6-3-3.7-.1-5.6.9-5.6 3zm24.5-4.7h.3l1.5.8v.4c-1.3 0-2.6 3.8-3.8 11.5l1.2.2c6-.3 8.9-.5 8.9-.8.6-7.3 1.3-10.9 2.3-10.9l1.1-.2c1.3.2 1.9.4 1.9.6-1.5 1.4-2.5 5.7-3 12.9-.3 7.4-1.2 11.2-2.6 11.2h-.4l-1.1-.6 1.1-5.9h-.4l.4-.2v-2.1l.4-3-.4-.2c-6.7.3-10 .8-10 1.6l-1.5 9.1v1.2l-1.5.6c-.7 0-1.1-.3-1.1-.8h-.4l2.2-10.8-.7-1.2c1.2 0 2.1-3.2 2.6-9.5 1.1-2.5 2.1-3.9 3-3.9zm27 1.2c1.4-.4 1.9.3 1.4 2.3s-1.2 4.7-2.3 8.1c-1 3.6-1.5 7.3-1.5 11.1l.7 1.2v.4l-1.8.8c-1 0-1.9-.5-2.3-1.4.5-.3 1.3-4.1 2.3-11.4 1-7.3 1.9-10.9 2.6-10.9h.8l.1-.2zm25.6-1.8c1.5.3 2.3.5 2.3.8v.4c0 .3-1.1.4-3.4.4-4.2 1.2-7.1 3.2-8.6 5.9-2.8 3.1-4.2 6.5-4.2 10.3v.2c.5 4.1 2.2 6.1 5.2 6.1l1.2.2h2.2c1.4-.3 3-2 4.8-4.9h1.1v.2c-1.3 4.2-3.5 6.3-6.7 6.3-4.2 0-7.6-1.7-10.1-5.1l-.3-2c0-5.8 2.9-11 8.7-15.6 3.2-2.2 5.8-3.2 7.8-3.2zm49.3-.5c1.8 1.4 3.5 2 5.2 2 4.9 1.5 7.4 3.7 7.4 6.7.7 4.5-4.4 10-15.3 16.3-.4 1.3-1.1 2-2.2 2-1 0-1.5-.3-1.5-1h-.3l2.2-5.1c.5-4.1 1-9.5 1.5-16.1v-2.2c.1-1.7 1.1-2.6 3-2.6zm-2.2 22.4h.3c4.3-1.4 8-4.6 11.2-9.6l.8-3.5v-1.2c-1-3.4-3.7-5-8.2-5-1.8 0-2.7.9-2.7 2.8l-1.4 16.5zm33.6-22c1.3.2 1.9.4 1.9.6v.6c0 .4-2.9.9-8.6 1.5l-.3 7.1v1c0 .3.4.4 1 .4l7.1-.4.3.2v.2c0 .5-2.8 1.1-8.5 1.6l-1.5 8.9v.4c0 1.5 1 2.2 3 2.2l10-2.2.6 1.2c.3.2-3.6 1.1-11.8 2.6-2.4 0-4-1.4-4.8-4.1l1.8-8.7-1.1-1c1-1 1.5-1.8 1.5-2.4l-.4-5.1c0-1.4-.3-2-.8-2 .2-1 3.7-1.9 10.6-2.6zm29-.3c.9 0 2.4.5 4.5 1.4v.8h-.7v.2c-2-.7-3.6-1-4.8-1h-1.9c-5.1 1.5-3.3 8.3 5.4 20.1l.4 1c0 2.7-2.8 4.9-8.5 6.7l-2.7.4c-3.7-.6-5.5-1.6-5.5-3.1.3-.7.6-1 1.1-1h.8c.8 1.7 1.7 2.6 2.6 2.6 5.7 0 8.9-1.9 9.7-5.7v-1c-10.7-13.4-11.6-20.5-2.8-21.4h2.4zm19.1 2.1c1.4-.4 1.9.3 1.4 2.3s-1.2 4.7-2.3 8.1c-1 3.6-1.5 7.3-1.5 11.1l.7 1.2v.4l-1.8.8c-1 0-1.9-.5-2.3-1.4.5-.3 1.3-4.1 2.3-11.4 1-7.3 1.9-10.9 2.6-10.9h.8l.1-.2zm26.3-1.8c1.2.2 1.9.4 1.9.6v.6c-7.5 0-12 1.9-13.5 5.7-2 3.5-3 6.1-3 7.9v4.1c1 3.9 3.1 5.8 6.4 5.8 3-2.7 4.4-5.9 4.4-9.5v-1c0-1.6-1.5-2.6-4.4-3.2l-.4-.6c0-1 2.5-1.5 7.4-1.6.7 0 1.3.3 1.9 1l-2.6 1.6.8 2.6c-1.2 8.2-3.7 12.4-7.4 12.4-5.7-1.4-8.5-4.1-8.5-7.9V205c0-5.8 2.5-10.7 7.6-14.7 2.7-1.4 6-2.2 9.4-2.2zm29.1-.3c1.2 0 1.8.7 1.8 2l-.7 1.2.2 3.3 1.9 15.6-.4.8.7 2.4c-.5.6-1 1-1.5 1H529c-.9 0-2.4-2-4.4-6.1-6.1-9.2-9.7-13.9-10.8-14.2-.7 0-1.2 2.3-1.5 6.9l.4 2.8-.4 1.8.8 6.3-1.1.8h-.4c-1.3 0-2.1-.2-2.3-.6l.8-5.9-.4-.2.4-1v-8.5c0-1.6.5-2.8 1.5-3.7v-.4l-1.5-1v-.6c.5-.5 1.2-.8 2.2-.8 1.1 0 3.2 2.2 6.3 6.5 1.5 1.6 3.8 5 6.7 10.3l3 3.2h.3v-2.2l-2.1-15.3.3-2.8-.4-1c.4-.2.9-.5 1.7-.6zm24 .2c1.3.2 1.9.4 1.9.6v.6c0 .4-2.9.9-8.6 1.5l-.3 7.1v1c0 .3.4.4 1 .4l7.1-.4.3.2v.2c0 .5-2.8 1.1-8.5 1.6l-1.5 8.9v.4c0 1.5 1 2.2 3 2.2l10-2.2.6 1.2c.3.2-3.6 1.1-11.8 2.6-2.4 0-4-1.4-4.8-4.1l1.8-8.7-1.1-1c1-1 1.5-1.8 1.5-2.4l-.4-5.1c0-1.4-.3-2-.8-2 .2-1 3.7-1.9 10.6-2.6zm26.1 2.5h1.5c2.2 0 3.3.9 3.3 2.9-2.1 3.9-5.5 6.7-10.4 8.5v.6c4.6 7.4 7.9 11.4 10.1 12.2l1.5.2v.8l-1.9.8c-1.5 0-4-2.5-7.5-7.5l-4.1-5.1h-1.2v.2l.4 3.4c0 3.9-.6 5.9-1.9 5.9h-1c-.6 0-1-.3-1.2-1l1.2-2 .7-14.6c-1.3 0-1.9-.3-1.9-.8 1-.8 1.5-1.4 1.5-1.8v-1.6l1.2-.6h.3l2.6.4 6.8-.9zm-7.8 3.1l-.3 5.5v1.4l.7.4h.8c5.7-2.7 8.5-5.2 8.5-7.3v-1l-1.5-.8h-.3c-2.8 0-5.5.6-7.9 1.8z" fill="#77968a"/></g></svg>