<svg version="1.2" baseProfile="tiny" xmlns="http://www.w3.org/2000/svg" viewBox="0 0 2309.7 348.4"><path fill="#052D49" d="M952.5 0h25.6v348.4h-25.6z"/><g fill="#052D49"><path d="M0 116.1h46.2c24.5 0 40.2 18.5 40.2 39.9s-15.8 39.9-40.2 39.9H25.6v30.6H0V116.1zM60.7 156c0-10.3-6.9-19.1-17.7-19.1H25.6v38.2h17.5c10.7 0 17.6-8.8 17.6-19.1zM184.3 226.6l-4.3-13.4h-39.3l-4.3 13.4h-27.3l39.4-110.4H172l40 110.4h-27.7zm-23.8-78.9l-13.6 45.4h26.8l-13.2-45.4zM255 138.2h-25v-22.1h75.6v22.1h-25.1v88.4H255v-88.4zM345.4 116.1h46.4A39 39 0 0 1 432 156c0 15.5-8.2 29.2-21.9 35.7l22.1 34.9h-29.7L382.9 196h-12v30.6h-25.6V116.1zm60.7 39.9c0-10.3-6.9-19.1-17.7-19.1h-17.5v38.2h17.5c10.8 0 17.7-8.8 17.7-19.1zM500.9 136.6v25.1h41.8v20h-41.8V206h41.8v20.5h-67.4V116.1h67.4v20.5h-41.8zM584.2 171.3a56.7 56.7 0 0 1 58.5-58.1c36.6 0 58.4 27.8 58.4 58.1s-21.8 58.1-58.4 58.1a56.7 56.7 0 0 1-58.5-58.1zm90.9 0c0-18.1-12.3-35-32.3-35-20.2 0-32.3 16.9-32.3 35s12.1 35 32.3 35c20 .1 32.3-16.8 32.3-35zM810.2 188.1v-71.9h25.4v110.4h-26.7l-39.8-71v71h-25.6V116.1h26.7l40 72z"/></g><g fill="#052D49"><path d="M1171.7 200c0-6.1-2.1-10.9-6.4-14.5a67 67 0 0 0-23.5-10.1 82.8 82.8 0 0 1-25-10.5 24.6 24.6 0 0 1-11.2-21c0-8.4 3.5-15.3 10.4-20.5a42.5 42.5 0 0 1 26.6-7.9c7.3 0 13.9 1.4 19.6 4.2a31.6 31.6 0 0 1 18.2 28.7h-9.4c0-7.5-2.6-13.6-7.7-18.2s-12.1-6.9-20.7-6.9a33 33 0 0 0-20.1 5.6c-5 3.8-7.5 8.7-7.5 14.7 0 5.6 2.2 10.2 6.7 13.7a63.2 63.2 0 0 0 21.6 9.4c9.9 2.7 17.4 5.5 22.5 8.4 5.1 2.9 8.9 6.4 11.5 10.4 2.6 4 3.9 8.8 3.9 14.3a25 25 0 0 1-10.4 20.9 44.6 44.6 0 0 1-27.4 7.9c-7.8 0-14.9-1.4-21.4-4.2s-11.4-6.7-14.8-11.7c-3.4-5-5-10.7-5-17.2h9.3a22 22 0 0 0 8.7 18.4 36.8 36.8 0 0 0 23.2 6.7c8.6 0 15.5-1.9 20.7-5.7 5-3.6 7.6-8.6 7.6-14.9zM1250.7 227.1c-.9-2.6-1.5-6.4-1.7-11.4a32.7 32.7 0 0 1-12.1 9.6 37.7 37.7 0 0 1-15.6 3.4c-7.9 0-14.2-2.2-19.1-6.6a21.3 21.3 0 0 1-7.3-16.7c0-8 3.3-14.3 10-18.9a48 48 0 0 1 27.7-7h16.4v-9.3c0-5.9-1.8-10.5-5.4-13.8-3.6-3.4-8.9-5-15.8-5a25 25 0 0 0-15.7 4.8 14.4 14.4 0 0 0-6.2 11.7l-9.1-.1c0-6.5 3-12.1 9.1-16.9a34.9 34.9 0 0 1 22.3-7.2c9.1 0 16.3 2.3 21.6 6.8 5.3 4.6 8 10.9 8.1 19.1v38.8c0 7.9.8 13.9 2.5 17.8v.9h-9.7zm-28.5-6.5c6.1 0 11.5-1.5 16.2-4.4 4.8-2.9 8.2-6.8 10.4-11.7v-18h-16.2c-9 .1-16.1 1.8-21.2 5a14.8 14.8 0 0 0-7.6 13.2c0 4.6 1.7 8.4 5.1 11.4 3.5 3 7.9 4.5 13.3 4.5zM1291 159.1c3-4.9 6.8-8.7 11.4-11.4 4.6-2.7 9.7-4 15.2-4 8.8 0 15.3 2.5 19.6 7.4 4.3 4.9 6.5 12.4 6.5 22.3v53.7h-9v-53.8c-.1-7.3-1.6-12.8-4.7-16.3-3.1-3.6-7.9-5.4-14.6-5.4a23 23 0 0 0-14.9 5.3 31 31 0 0 0-9.6 14.2v56.1h-9V110.9h9v48.2zM1418.8 227.1c-.9-2.6-1.5-6.4-1.7-11.4a32.7 32.7 0 0 1-12.1 9.6 37.7 37.7 0 0 1-15.6 3.4c-7.9 0-14.2-2.2-19.1-6.6a21.3 21.3 0 0 1-7.3-16.7c0-8 3.3-14.3 10-18.9a48 48 0 0 1 27.7-7h16.4v-9.3c0-5.9-1.8-10.5-5.4-13.8-3.6-3.4-8.9-5-15.8-5a25 25 0 0 0-15.7 4.8 14.4 14.4 0 0 0-6.2 11.7l-9.1-.1c0-6.5 3-12.1 9.1-16.9a34.9 34.9 0 0 1 22.3-7.2c9.1 0 16.3 2.3 21.6 6.8 5.3 4.6 8 10.9 8.1 19.1v38.8c0 7.9.8 13.9 2.5 17.8v.9h-9.7zm-28.5-6.5c6.1 0 11.5-1.5 16.2-4.4 4.8-2.9 8.2-6.8 10.4-11.7v-18h-16.2c-9 .1-16.1 1.8-21.2 5a14.8 14.8 0 0 0-7.6 13.2c0 4.6 1.7 8.4 5.1 11.4 3.5 3 7.9 4.5 13.3 4.5zM1488 152.9c-1.9-.4-4-.5-6.1-.5-5.7 0-10.4 1.6-14.3 4.7a26.3 26.3 0 0 0-8.4 13.7V227h-9v-81.9h8.9l.2 13a24 24 0 0 1 23.1-14.5c2.5 0 4.5.3 6 1l-.4 8.3zM1623.7 227.1h-9.4v-52.8h-63v52.8h-9.3V116.9h9.3v49.5h63v-49.5h9.4v110.2zM1681.3 228.6a34.9 34.9 0 0 1-32-19.4 45 45 0 0 1-4.7-20.6v-3.3c0-7.9 1.5-15 4.6-21.3a36.6 36.6 0 0 1 12.8-14.9 31.5 31.5 0 0 1 17.7-5.4c9.9 0 17.8 3.4 23.7 10.2a41.5 41.5 0 0 1 8.7 27.8v5.1h-58.4v1.7c0 9.3 2.7 17 8 23.2 5.3 6.2 12 9.3 20.1 9.3 4.8 0 9.1-.9 12.8-2.6 3.7-1.8 7.1-4.6 10.1-8.5l5.7 4.3a33.3 33.3 0 0 1-29.1 14.4zm-1.6-77.2c-6.8 0-12.6 2.5-17.2 7.5s-7.5 11.7-8.5 20.1h49.1v-1a30.3 30.3 0 0 0-6.7-19.2 21.3 21.3 0 0 0-16.7-7.4zM1782.4 216.7c-5.4 7.9-14.2 11.9-26.1 11.9-8.7 0-15.4-2.5-19.9-7.6-4.5-5.1-6.9-12.6-7-22.5v-53.3h9v52.1c0 15.6 6.3 23.4 18.9 23.4 13.1 0 21.4-5.4 24.9-16.3v-59.3h9.1V227h-8.8l-.1-10.3zM1823.1 145.2l.3 13.3a29.5 29.5 0 0 1 26.5-14.8c12.9 0 21.1 5.3 24.6 15.9a30.8 30.8 0 0 1 27.9-15.9c17.6 0 26.5 9.6 26.9 28.8v54.6h-9.1v-54c-.1-7.3-1.6-12.7-4.7-16.3-3.1-3.5-8.2-5.3-15.2-5.3-6.5.1-12 2.2-16.5 6.3s-7 9.1-7.5 15V227h-9.1v-54.6c-.1-7-1.7-12.2-5-15.7s-8.3-5.2-15-5.2c-5.7 0-10.6 1.6-14.7 4.9a29 29 0 0 0-9.1 14.5v56.2h-9.1v-81.9h8.8zM1983.9 228.6a34.9 34.9 0 0 1-32-19.4 45 45 0 0 1-4.7-20.6v-3.3c0-7.9 1.5-15 4.6-21.3a36.6 36.6 0 0 1 12.8-14.9 31.5 31.5 0 0 1 17.7-5.4c9.9 0 17.8 3.4 23.7 10.2a41.5 41.5 0 0 1 8.7 27.8v5.1h-58.4v1.7c0 9.3 2.7 17 8 23.2 5.3 6.2 12 9.3 20.1 9.3 4.8 0 9.1-.9 12.8-2.6 3.7-1.8 7.1-4.6 10.1-8.5l5.7 4.3a33.4 33.4 0 0 1-29.1 14.4zm-1.7-77.2c-6.8 0-12.6 2.5-17.2 7.5s-7.5 11.7-8.5 20.1h49.1v-1a30.3 30.3 0 0 0-6.7-19.2 21 21 0 0 0-16.7-7.4zM2081.3 206.3c0-4.5-1.8-8.1-5.4-10.8-3.6-2.7-9-4.9-16.3-6.4a70.5 70.5 0 0 1-16.9-5.3c-4-2-7-4.4-8.9-7.3s-2.9-6.4-2.9-10.4c0-6.5 2.7-11.8 8.1-16a32.7 32.7 0 0 1 20.7-6.3c9.1 0 16.5 2.3 22 6.8a21.8 21.8 0 0 1 8.3 17.7h-9.1c0-4.8-2-8.8-6-12-4-3.2-9.1-4.8-15.2-4.8-6 0-10.7 1.3-14.3 4a12.2 12.2 0 0 0-5.4 10.3c0 4.1 1.5 7.3 4.5 9.5s8.5 4.3 16.4 6.2c7.9 1.9 13.9 3.9 17.9 6s6.9 4.7 8.8 7.6c1.9 3 2.9 6.6 2.9 10.8 0 6.9-2.8 12.4-8.4 16.6a36 36 0 0 1-21.8 6.2c-9.5 0-17.3-2.3-23.2-6.9a21.4 21.4 0 0 1-8.9-17.5h9.1a16 16 0 0 0 6.7 12.4c4.1 3 9.5 4.4 16.3 4.4 6.3 0 11.4-1.4 15.3-4.2a13 13 0 0 0 5.7-10.6zM2159.8 206.3c0-4.5-1.8-8.1-5.4-10.8-3.6-2.7-9-4.9-16.3-6.4a70.5 70.5 0 0 1-16.9-5.3c-4-2-7-4.4-8.9-7.3s-2.9-6.4-2.9-10.4c0-6.5 2.7-11.8 8.1-16a32.7 32.7 0 0 1 20.7-6.3c9.1 0 16.5 2.3 22 6.8a21.8 21.8 0 0 1 8.3 17.7h-9.1c0-4.8-2-8.8-6-12-4-3.2-9.1-4.8-15.2-4.8-6 0-10.7 1.3-14.3 4a12.2 12.2 0 0 0-5.4 10.3c0 4.1 1.5 7.3 4.5 9.5s8.5 4.3 16.4 6.2c7.9 1.9 13.9 3.9 17.9 6s6.9 4.7 8.8 7.6c1.9 3 2.9 6.6 2.9 10.8 0 6.9-2.8 12.4-8.4 16.6a36 36 0 0 1-21.8 6.2c-9.5 0-17.3-2.3-23.2-6.9a21.4 21.4 0 0 1-8.9-17.5h9.1a16 16 0 0 0 6.7 12.4c4.1 3 9.5 4.4 16.3 4.4 6.3 0 11.4-1.4 15.3-4.2a13 13 0 0 0 5.7-10.6zM2221 228.6a34.9 34.9 0 0 1-32-19.4 45 45 0 0 1-4.7-20.6v-3.3c0-7.9 1.5-15 4.6-21.3a36.6 36.6 0 0 1 12.8-14.9 31.5 31.5 0 0 1 17.7-5.4c9.9 0 17.8 3.4 23.7 10.2a41.5 41.5 0 0 1 8.7 27.8v5.1h-58.4v1.7c0 9.3 2.7 17 8 23.2 5.3 6.2 12 9.3 20.1 9.3 4.8 0 9.1-.9 12.8-2.6 3.7-1.8 7.1-4.6 10.1-8.5l5.7 4.3a33.5 33.5 0 0 1-29.1 14.4zm-1.7-77.2c-6.8 0-12.6 2.5-17.2 7.5s-7.5 11.7-8.5 20.1h49.1v-1a30.3 30.3 0 0 0-6.7-19.2 21.1 21.1 0 0 0-16.7-7.4zM2307.2 152.9c-1.9-.4-4-.5-6.1-.5-5.7 0-10.4 1.6-14.3 4.7a26.3 26.3 0 0 0-8.4 13.7V227h-9v-81.9h8.9l.2 13a24 24 0 0 1 23.1-14.5c2.5 0 4.5.3 6 1l-.4 8.3z"/></g></svg>