<?xml version="1.0" encoding="utf-8"?>
<!-- Generator: Adobe Illustrator 19.0.0, SVG Export Plug-In . SVG Version: 6.00 Build 0)  -->
<svg version="1.2" baseProfile="tiny" id="Business_Card_Logo"
	 xmlns="http://www.w3.org/2000/svg" xmlns:xlink="http://www.w3.org/1999/xlink" x="0px" y="0px" viewBox="0 0 671.8 475.1"
	 xml:space="preserve">
<g id="XMLID_1567_">
	<path id="XMLID_1590_" fill="#00586F" d="M301,190.7c0.6-1.4-0.1-3-1.5-3.6c-1.4-0.6-3,0.1-3.6,1.5c-1.9,4.5-8.4,7.5-14.1,6.4
		c-1.5-0.3-2.9,0.7-3.2,2.2c-0.3,1.5,0.7,2.9,2.2,3.2c1.2,0.2,2.4,0.3,3.6,0.3C291.5,200.7,298.5,196.6,301,190.7z"/>
	<path id="XMLID_1589_" fill="#00586F" d="M304.9,178.7c0.7,1.3,2.4,1.8,3.7,1.1c1.3-0.7,1.8-2.4,1.1-3.7
		c-7-13.2-18.8-16.8-28.3-14.7c-2.3-2.8-3.7-7.5-2-12.1c2.2-6.3,9.1-10.1,19.4-10.7c1.5-0.1,2.7-1.4,2.6-2.9
		c-0.1-1.5-1.2-2.7-2.9-2.6c-17,1-22.5,9.4-24.2,14.3c-1.9,5.3-1.1,11.3,1.8,15.9c-9.3,4.6-13.5,14.5-10.2,24.4
		c0.4,1.2,1.5,1.9,2.6,1.9c0.3,0,0.6,0,0.9-0.1c1.4-0.5,2.2-2,1.7-3.5c-2.9-8.9,2-15.6,8.3-18.2
		C287.2,164.5,298.5,166.5,304.9,178.7z"/>
	<path id="XMLID_1586_" fill="#00586F" d="M298.5,235.4c13.4-2.3,21-16.5,21.3-39.9c0.1-8.9-0.1-17.8-0.2-26.5
		c-0.1-6.4-0.3-12.8-0.3-19.2c-0.1-30.6,0.2-61.8,0.5-91l0.1-6.4c0.1-8.5,0.2-17,0.2-25.5c0-1.3,0.1-2.6,0.1-3.9
		c0.1-3.4,0.3-7-0.3-10.4c-0.1-0.8-0.6-1.4-1.2-1.8C307.4-0.1,295.9-0.8,288.2,0.5c-11,1.9-19.5,8.8-23.4,15.1
		c-17.2-3.2-28.7,6-33.5,15.3c-4.8,9.3-4,19.4,1.9,27c-10.4,2.9-18.3,10-22.5,20.3c-5.3,12.9-3.5,28.4,4.6,39.5
		c0.1,0.2,0.2,0.3,0.4,0.4c-11.9,16.1-1.8,33.2,6.7,41.6c0,0.1,0,0.1,0,0.2c0,0.2,0.1,0.4,0.2,0.5c-3.5,12.9,1.2,27.9,12.5,39.7
		c6,6.2,14.3,11.9,24.4,15.2c0.1,0.2,0.2,0.3,0.4,0.5c12.9,13.4,24.3,20,34.6,20C295.8,235.7,297.2,235.6,298.5,235.4z M297.7,211.9
		c-0.4-1.4-2-2.3-3.4-1.8c-23.8,7.4-44.2-2.4-55.3-13.9c-10.2-10.6-14.3-23.8-11.1-34.9c24.4-5.6,33-16.7,40.6-26.5
		c7.6-9.8,13.6-17.5,34.5-17.5c0.2,0,0.5,0,0.7,0c1.5,0,2.7-1.2,2.7-2.7c0-1.5-1.2-2.7-2.7-2.8c-0.2,0-0.5,0-0.7,0
		c-23.6,0-31,9.5-38.8,19.6c-7.4,9.5-15,19.4-37.6,24.5c-4.2-4.1-19-20.6-5.4-36.2c22.7-19.4,30.2-27.3,22.2-49.9
		c-0.5-1.4-2.1-2.2-3.5-1.7c-1.4,0.5-2.2,2.1-1.7,3.5c6.3,18,2.8,23.7-18.8,42.4c-6.8-9.5-8.3-22.8-3.7-33.9
		c4-9.7,11.8-16,22.2-17.8c0.3-0.1,0.7-0.2,0.9-0.3c0.6-0.1,1.1-0.4,1.6-0.9c1-1.1,0.9-2.9-0.3-3.9c-6.9-6-8.4-15.4-4-23.9
		c4-7.7,13.8-15.3,28.4-12.2c0.1,0.1,0.2,0.1,0.3,0.2c0.7,0.3,1.5,0.4,2.1,0.1c1-0.2,1.8-1,2-2c0-0.1,0.1-0.3,0.1-0.4
		c3.2-5.5,10.8-11.4,20-13c6.4-1.1,15.9-0.5,25.5,8.6c0.3,2.6,0.2,5.5,0.1,8.3c-0.1,1.4-0.1,2.8-0.1,4.1c0,7.9-0.1,15.7-0.2,23.6
		c-12-0.7-23.1,4-30.4,12.9c-6.7,8.2-9.2,18.9-6.6,27.9c0.4,1.5,1.9,2.3,3.4,1.9c1.5-0.4,2.3-1.9,1.9-3.4c-2.1-7.4,0.1-16.2,5.6-23
		c6.2-7.6,15.7-11.5,26.1-10.8l0,2.7c-0.3,29.3-0.6,60.4-0.5,91.1c0,6.4,0.1,12.8,0.3,19.3c0.2,8.6,0.4,17.6,0.2,26.3
		c-0.2,11.9-2.6,32.1-16.8,34.6c-8.1,1.4-17.3-2.7-28-12.4c8.1,1.1,17,0.7,26.3-2.2C297.3,214.9,298.1,213.4,297.7,211.9z"/>
	<path id="XMLID_1585_" fill="#00586F" d="M353.8,293.7h-56.9c-1.5,0-2.7,1.2-2.7,2.7c0,1.5,1.2,2.7,2.7,2.7h56.9
		c1.5,0,2.7-1.2,2.7-2.7C356.5,295,355.3,293.7,353.8,293.7z"/>
	<path id="XMLID_1584_" fill="#00586F" d="M346,309.3h-41.4c-1.5,0-2.7,1.2-2.7,2.7c0,1.5,1.2,2.7,2.7,2.7H346
		c1.5,0,2.7-1.2,2.7-2.7C348.7,310.5,347.5,309.3,346,309.3z"/>
	<path id="XMLID_1583_" fill="#00586F" d="M252.1,107.2c-1.5,0.2-2.5,1.6-2.3,3.1c1.4,9.2-6.2,19.4-16.7,22.4
		c-1.5,0.4-2.3,1.9-1.9,3.4c0.3,1.2,1.4,2,2.6,2c0.2,0,0.5,0,0.7-0.1c13.3-3.7,22.6-16.5,20.7-28.5C255,108,253.6,107,252.1,107.2z"
		/>
	<path id="XMLID_1582_" fill="#00586F" d="M252.6,54.2c0.3,0.1,0.6,0.1,0.9,0.1c1.1,0,2.2-0.7,2.6-1.9c5.3-15.7,25.9-26.8,45-24.1
		c1.5,0.2,2.9-0.8,3.1-2.3s-0.8-2.9-2.3-3.1c-21.9-3-44.8,9.4-51,27.8C250.4,52.2,251.2,53.7,252.6,54.2z"/>
	<path id="XMLID_1581_" fill="#00586F" d="M258.7,156.2c-1.1-1-2.8-1-3.9,0.2c-10.8,11.9-11.1,31.1-0.6,42.1c0.5,0.6,1.3,0.8,2,0.8
		c0.7,0,1.4-0.3,1.9-0.8c1.1-1,1.1-2.8,0.1-3.9c-8.6-8.9-8.3-24.8,0.7-34.6C259.9,159,259.8,157.3,258.7,156.2z"/>
	<path id="XMLID_1580_" fill="#00586F" d="M299.1,85.2c-1.4-0.4-3,0.4-3.4,1.8c-3.3,10.7-8.3,16.4-14.9,16.9
		c-3.4,0.3-7.2-0.9-10.7-3.2c-6.2-4.1-8.4-10.9-9.2-15.9c-1.2-7.7-0.1-15.1,3.3-21.3c6.3-11.7,19.9-17.6,30.2-20.5
		c1.5-0.4,2.3-1.9,1.9-3.4c-0.4-1.5-2-2.3-3.4-1.9c-16.2,4.6-27.8,12.6-33.5,23.2c-3.9,7.3-5.3,15.8-3.9,24.8
		c1,6,3.7,14.3,11.5,19.5c2.9,2,7.4,4.2,12.7,4.2c0.5,0,1,0,1.5-0.1c6.3-0.5,14.7-4.6,19.7-20.8C301.4,87.2,300.6,85.7,299.1,85.2z"
		/>
	<path id="XMLID_1579_" fill="#00586F" d="M391.6,52.5c0.4,1.1,1.5,1.9,2.6,1.9c0.3,0,0.6,0,0.9-0.1c1.4-0.5,2.2-2,1.7-3.5
		c-6.2-18.4-29.1-30.9-51-27.8c-1.5,0.2-2.5,1.6-2.3,3.1c0.2,1.5,1.6,2.6,3.1,2.3C365.8,25.7,386.3,36.7,391.6,52.5z"/>
	<path id="XMLID_1578_" fill="#00586F" d="M365.5,278.2H285c-1.5,0-2.7,1.2-2.7,2.7c0,1.5,1.2,2.7,2.7,2.7h80.5
		c1.5,0,2.7-1.2,2.7-2.7C368.3,279.4,367.1,278.2,365.5,278.2z"/>
	<path id="XMLID_1577_" fill="#00586F" d="M414.6,132.7c-10.5-2.9-18.2-13.2-16.8-22.4c0.2-1.5-0.8-2.9-2.3-3.1
		c-1.5-0.2-2.9,0.8-3.1,2.3c-1.9,12,7.4,24.8,20.7,28.5c0.2,0.1,0.5,0.1,0.7,0.1c1.2,0,2.3-0.8,2.6-2
		C416.9,134.6,416,133.1,414.6,132.7z"/>
	<path id="XMLID_1576_" fill="#00586F" d="M388.4,61c-5.7-10.6-17.3-18.6-33.5-23.2c-1.4-0.4-3,0.4-3.4,1.9c-0.4,1.5,0.4,3,1.9,3.4
		c10.3,2.9,23.8,8.8,30.2,20.5c3.4,6.2,4.5,13.6,3.3,21.3c-0.8,4.9-3,11.7-9.2,15.8c-3.5,2.4-7.3,3.5-10.7,3.2
		c-6.6-0.6-11.7-6.3-14.9-16.9c-0.4-1.4-2-2.3-3.4-1.8c-1.4,0.4-2.3,2-1.8,3.4c5,16.2,13.5,20.3,19.7,20.8c0.5,0,1,0.1,1.5,0.1
		c5.3,0,9.8-2.2,12.7-4.2c7.8-5.2,10.6-13.5,11.5-19.5C393.6,76.8,392.3,68.2,388.4,61z"/>
	<path id="XMLID_1573_" fill="#00586F" d="M432.4,117.5c8.1-11,9.9-26.5,4.6-39.5c-4.2-10.3-12.1-17.4-22.5-20.3
		c5.9-7.6,6.7-17.7,1.9-27c-4.8-9.2-16.3-18.4-33.4-15.3c-4-6.3-12.5-13.1-23.4-15.1c-7.7-1.3-19.2-0.6-30.5,10.3
		c-0.6,0.4-1.1,1-1.2,1.8c-0.6,3.4-0.5,7-0.3,10.4c0.1,1.3,0.1,2.6,0.1,3.9c0,9.1,0.1,18.2,0.2,27.3l0,4.5c0.3,30.7,0.5,60.8,0.5,91
		c0,6.4-0.1,12.7-0.3,19.1c-0.2,8.7-0.4,17.7-0.2,26.6c0.4,23.4,7.9,37.6,21.3,39.9c1.3,0.2,2.7,0.4,4.1,0.4
		c10.4,0,21.8-6.6,34.6-20c0.1-0.1,0.3-0.3,0.4-0.5c10.1-3.3,18.4-9,24.4-15.2c11.4-11.9,16-26.9,12.5-39.7c0.1-0.2,0.1-0.4,0.2-0.6
		c0-0.1,0-0.1,0-0.2c2.2-2.2,6-6.6,8.8-12.3c5-10.3,4.3-20.3-2.2-29.1C432.1,117.9,432.3,117.7,432.4,117.5z M421.1,156
		c-22.6-5.2-30.2-15-37.6-24.5c-7.9-10.2-15.2-20-39.6-19.6c-1.5,0-2.7,1.2-2.7,2.8c0,1.5,1.2,2.7,2.7,2.7c0,0,0,0,0,0
		c21.5,0.1,27.5,7.6,35.2,17.5c7.6,9.8,16.2,20.9,40.6,26.5c3.2,11.1-0.9,24.3-11.1,34.9c-11.1,11.5-31.4,21.3-55.3,14
		c-1.5-0.5-3,0.4-3.4,1.8c-0.4,1.4,0.4,3,1.8,3.4c9.3,2.9,18.2,3.4,26.3,2.2c-10.7,9.7-20,13.8-28,12.4
		c-14.2-2.5-16.6-22.7-16.8-34.6c-0.1-8.8,0-17.7,0.2-26.4c0.1-6.4,0.3-12.8,0.3-19.2c0.1-30.3-0.2-60.4-0.5-91.1l0-2.7
		c10.3-0.7,19.9,3.3,26.1,10.8c5.6,6.8,7.7,15.6,5.6,23c-0.4,1.5,0.4,3,1.9,3.4c1.5,0.4,3-0.4,3.4-1.9c2.6-9.1,0-19.8-6.6-27.9
		c-7.3-8.9-18.3-13.5-30.4-12.9c-0.1-7.9-0.2-15.7-0.2-23.6c0-1.3-0.1-2.7-0.1-4.1c-0.1-2.8-0.2-5.7,0.1-8.3
		c9.6-9.1,19.2-9.7,25.5-8.6c9.2,1.6,16.8,7.6,20,13c0,0.1,0,0.3,0.1,0.4c0.3,1,1,1.8,2,2c0.7,0.3,1.5,0.2,2.2-0.1
		c0.1,0,0.2-0.1,0.3-0.2c14.7-3.1,24.5,4.6,28.4,12.2c4.4,8.5,2.9,17.9-4,23.9c-1.1,1-1.2,2.7-0.3,3.9c0.4,0.5,1,0.8,1.6,0.9
		c0.3,0.2,0.6,0.3,0.9,0.3c10.4,1.7,18.3,8.1,22.2,17.8c4.5,11.1,3,24.3-3.7,33.9c-21.6-18.6-25.2-24.3-18.8-42.3
		c0.5-1.4-0.2-3-1.7-3.5c-1.4-0.5-3,0.2-3.5,1.7c-8,22.6-0.5,30.5,22,49.6C440.1,135.4,425.3,151.8,421.1,156z"/>
	<path id="XMLID_1572_" fill="#00586F" d="M339,179.9c1.3,0.7,3,0.2,3.7-1.1c6.5-12.2,17.8-14.2,25.5-10.9
		c6.2,2.7,11.2,9.3,8.3,18.2c-0.5,1.4,0.3,3,1.7,3.5c0.3,0.1,0.6,0.1,0.9,0.1c1.1,0,2.2-0.7,2.6-1.9c3.3-10-0.9-19.9-10.2-24.4
		c2.9-4.5,3.7-10.6,1.8-15.9c-1.8-4.9-7.2-13.2-24.2-14.3c-1.6-0.1-2.8,1.1-2.9,2.6c-0.1,1.5,1.1,2.8,2.6,2.9
		c10.3,0.6,17.1,4.4,19.4,10.7c1.7,4.6,0.3,9.3-2,12.1c-9.5-2-21.2,1.5-28.3,14.7C337.2,177.5,337.7,179.2,339,179.9z"/>
	<path id="XMLID_1571_" fill="#00586F" d="M365.5,247H285c-1.5,0-2.7,1.2-2.7,2.7c0,1.5,1.2,2.7,2.7,2.7h80.5c1.5,0,2.7-1.2,2.7-2.7
		C368.3,248.3,367.1,247,365.5,247z"/>
	<path id="XMLID_1570_" fill="#00586F" d="M365.5,262.6H285c-1.5,0-2.7,1.2-2.7,2.7s1.2,2.7,2.7,2.7h80.5c1.5,0,2.7-1.2,2.7-2.7
		S367.1,262.6,365.5,262.6z"/>
	<path id="XMLID_1569_" fill="#00586F" d="M389.5,194.7c-1,1.1-1,2.8,0.1,3.9c0.5,0.5,1.2,0.8,1.9,0.8c0.7,0,1.4-0.3,2-0.8
		c10.5-10.9,10.3-30.2-0.6-42.1c-1-1.1-2.8-1.2-3.9-0.2c-1.1,1-1.2,2.8-0.2,3.9C397.8,169.9,398.1,185.7,389.5,194.7z"/>
	<path id="XMLID_1568_" fill="#00586F" d="M365.8,195c-5.7,1.1-12.2-1.9-14.1-6.4c-0.6-1.4-2.2-2.1-3.6-1.5
		c-1.4,0.6-2.1,2.2-1.5,3.6c2.5,6,9.5,10,16.7,10c1.2,0,2.4-0.1,3.6-0.3c1.5-0.3,2.4-1.7,2.2-3.2C368.8,195.6,367.3,194.7,365.8,195
		z"/>
</g>
<g id="XMLID_1508_">
	<path id="XMLID_1564_" fill="#FFBF3B" d="M583.8,355.8c18.5,0,20.5-10.9,20.5-15.5c0-3.8-1.2-6.8-3.5-9c-5.4-5.3-16-4.9-24.4-4.6
		l-2.4,0.1c-3.6,0-6.4-0.1-8.9-0.4l-1.2-0.1v2.9l1,0.1c4.2,0.2,5.3,0.5,5.3,6.2v32.2c0,6.1-0.4,6.1-5.3,6.3l-1,0v2.7l1.1,0
		c0.8,0,1.8-0.1,2.9-0.2c1.8-0.2,4.1-0.4,6.7-0.4c2.5,0,4.4,0.2,6.2,0.4c1.2,0.1,2.2,0.2,3.2,0.3l1.1,0V374l-1-0.1
		c-4.4-0.2-5.4-0.8-5.4-6.3v-12.1L583.8,355.8z M592.6,332c1.7,1.8,2.5,4.6,2.4,8.6c-0.3,8.4-4,12.2-12,12.2h-4.3v-17.3
		c0-5.5,1-6.1,5.6-6.1C588.2,329.4,590.9,330.3,592.6,332z"/>
	<path id="XMLID_1561_" fill="#FFBF3B" d="M555.3,374c-1.6-0.2-2.9-1.6-4.5-4.8l-18.4-43.3h-2.3l-17.5,40.9
		c-2.2,5.6-4.3,6.7-6.4,7.4l-0.7,0.3l0.1,2.7l1.3-0.2c1.6-0.3,4-0.6,6.8-0.6c2.1,0,3.7,0.2,4.9,0.3c0.6,0.1,1.1,0.1,1.7,0.1l1.1,0.1
		v-2.7l-1-0.1c-4.6-0.6-5.1-2.7-5.1-4.2c0-1.2,0.4-2.7,1.3-4.9l2.6-5.7h18l3.8,8.9c0.8,1.6,1.1,2.7,1.1,3.6c0,1.4-1.5,2.1-4.5,2.3
		l-1,0v2.7l1.1,0c0.7,0,1.5-0.1,2.4-0.1c1.9-0.1,4.2-0.3,7.1-0.3c2.3,0,3.9,0.1,5.4,0.2c0.9,0.1,1.6,0.1,2.5,0.2l1.1,0v-2.7
		L555.3,374z M520.4,356.4l7.1-16.3c0.3-0.6,0.6-1.2,0.9-1.6c0.3,0.4,0.6,1.1,0.9,2c0,0.1,0.1,0.3,0.2,0.5c0.3,0.7,1.7,3.6,6.8,15.4
		H520.4z"/>
	<path id="XMLID_1558_" fill="#FFBF3B" d="M19.9,355.8c18.5,0,20.5-10.9,20.5-15.5c0-3.8-1.2-6.8-3.5-9c-5.4-5.3-16-4.9-24.4-4.6
		l-2.4,0.1c-3.6,0-6.4-0.1-8.9-0.4L0,326.3v2.9l1,0.1c4.2,0.2,5.3,0.5,5.3,6.2v32.2c0,6.1-0.4,6.1-5.3,6.3l-1,0v2.7l1.1,0
		c0.8,0,1.8-0.1,2.9-0.2c1.8-0.2,4.1-0.4,6.7-0.4c2.5,0,4.4,0.2,6.2,0.4c1.2,0.1,2.2,0.2,3.2,0.3l1.1,0V374l-1-0.1
		c-4.4-0.2-5.4-0.8-5.4-6.3v-12.1L19.9,355.8z M14.8,335.5c0-5.5,1-6.1,5.6-6.1c3.8,0,6.5,0.9,8.2,2.6c1.7,1.8,2.5,4.6,2.4,8.6
		c-0.3,8.4-4,12.2-12,12.2h-4.3V335.5z"/>
	<path id="XMLID_1557_" fill="#FFBF3B" d="M74.5,351.8c-2.2-1.7-4.8-2.8-7.3-3.9l-1.3-0.6c-10.4-4.7-12.4-5.8-12.9-10.4
		c0.3-8.2,8.5-8.9,11-8.9c5,0.1,8.7,1.8,11.1,5c0.4,1,0.2,1.3-0.8,2.2c-0.8,0.8-1.9,1.8-2,3.6c-0.2,1.4,0.2,2.6,1,3.5
		c0.8,0.9,2,1.4,3.5,1.4c1.8,0,3.5-1,4.5-2.5c1-1.5,1.2-3.4,0.4-5.1c-2.8-7.1-9.7-11.3-18.4-11.3c-4.6,0-10,2.4-13.5,6
		c-2.7,2.8-4.1,6.1-4,9.4c0.1,3.7,1.4,6.6,4,8.7c1.8,1.6,4.4,3.2,7.8,4.8l2.5,1.2c8.3,3.7,12.8,5.8,13,11.2c0,6.9-5.4,9.3-10.5,9.3
		c-6.6,0-9.9-3.6-11.2-5.6c-0.4-1-0.1-1.4,0.9-2.4c0.8-0.8,1.9-1.9,2.1-3.6c0.2-1.4-0.2-2.7-1-3.6c-0.8-0.9-2-1.4-3.5-1.4
		c0,0,0,0,0,0c-1.7,0-3.2,0.8-4.2,2.1c-1.1,1.5-1.4,3.5-0.8,5.5c2.7,9,11.5,12.2,18.3,12.2c5.2,0,10.8-2.3,14.2-6
		c2.6-2.7,3.9-6.1,3.8-9.7C81,359.9,80,355.4,74.5,351.8z"/>
	<path id="XMLID_1556_" fill="#FFBF3B" d="M175.4,357l0,1.1c0.1,4-1.6,8.2-4.7,11.5c-3.1,3.3-7.3,5.2-11.4,5.3
		c-3.9,0.2-7.3-1.3-10.1-3.9c-4.1-4-6.3-10.7-6.3-19c0-15.3,8.9-23.6,17.3-23.6c4.5,0,9.1,2.3,10.7,4.2c0.1,0.2,0,0.4-0.7,1.3
		c-0.7,0.9-1.7,2.2-1.9,4.2c-0.1,1.4,0.4,2.7,1.3,3.6c0.9,0.9,2.1,1.4,3.4,1.4c2.8,0,5.1-2.4,5.1-5.3c0-0.8-0.2-1.6-0.6-2.4
		c-2.4-5.5-11.3-10-17-10c-7.4-0.1-14.2,2.4-19.1,7.2c-4.9,4.9-7.7,11.8-7.7,19.4c0,8.3,2.5,15.1,7.2,19.7
		c4.3,4.2,10.3,6.4,17.5,6.4c0.3,0,0.7,0,1,0c10.3-0.2,19.1-9.2,19.5-20l0.1-1.2L175.4,357z"/>
	<path id="XMLID_1555_" fill="#FFBF3B" d="M238.5,329.2l1,0v-2.9l-1.2,0.1c-2.9,0.3-6,0.5-9.4,0.5c-4.3,0-7-0.3-9.3-0.5l-1.2-0.1
		v2.9l1,0.1c4.2,0.2,5.2,0.5,5.2,6.2v13.9h-24.5v-13.9c0-6,0.4-6,5.4-6.2l1,0v-2.9l-2.2,0.2c-2.2,0.2-5,0.5-8.3,0.5
		c-3.9,0-6.5-0.3-8.5-0.5l-2.2-0.2v2.9l1,0.1c4.2,0.2,5.4,0.5,5.4,6.2v32.2c0,6.1-0.4,6.1-5.4,6.3l-1,0v2.7l1.1,0
		c0.6,0,1.3-0.1,2-0.1c2-0.1,4.5-0.2,7.5-0.2c2.8,0,5,0.1,6.9,0.2c0.9,0,1.7,0.1,2.6,0.1l1.1,0V374l-1-0.1c-4.4-0.2-5.4-0.8-5.4-6.3
		v-15.5h24.5v15.5c0,6.1-0.3,6.1-5.2,6.3l-1,0v2.7l1.1,0c0.7,0,1.4-0.1,2.2-0.1c2-0.1,4.4-0.2,7.2-0.2c3.2,0,5.6,0.1,7.5,0.2
		c0.7,0,1.4,0.1,2,0.1l1.1,0V374l-1-0.1c-4.3-0.2-5.3-0.8-5.3-6.3v-32.2C233.2,329.5,233.5,329.4,238.5,329.2z"/>
	<path id="XMLID_1552_" fill="#FFBF3B" d="M269.9,325.2c-15.2,0-25.8,11-25.8,26.8c0,16,9.8,25.9,25.7,25.9c15.3,0,26-11,26-26.7
		C295.7,335.1,285.8,325.2,269.9,325.2z M269.9,328c9.7,0,16.8,9.8,16.8,23.4c0,13.9-6.9,23.6-16.8,23.6c-10,0-16.9-9.6-16.9-23.3
		C253,337.7,259.9,328,269.9,328z"/>
	<path id="XMLID_1551_" fill="#FFBF3B" d="M405,329.2l1,0v-2.9l-1.2,0.1c-2.9,0.3-6,0.5-9.4,0.5c-4.3,0-7-0.3-9.3-0.5l-1.2-0.1v2.9
		l1,0.1c4.2,0.2,5.2,0.5,5.2,6.2v13.9h-24.5v-13.9c0-6,0.4-6,5.4-6.2l1,0v-2.9l-2.2,0.2c-2.2,0.2-5,0.5-8.3,0.5
		c-3.9,0-6.5-0.3-8.5-0.5l-2.2-0.2v2.9l1,0.1c4.2,0.2,5.4,0.5,5.4,6.2v32.2c0,6.1-0.4,6.1-5.4,6.3l-1,0v2.7l1.1,0
		c0.6,0,1.3-0.1,2-0.1c2-0.1,4.5-0.2,7.5-0.2c2.8,0,5,0.1,6.9,0.2c0.9,0,1.7,0.1,2.6,0.1l1.1,0V374l-1-0.1c-4.4-0.2-5.4-0.8-5.4-6.3
		v-15.5h24.5v15.5c0,6.1-0.3,6.1-5.2,6.3l-1,0v2.7l1.1,0c0.7,0,1.4-0.1,2.2-0.1c2-0.1,4.4-0.2,7.2-0.2c3.2,0,5.6,0.1,7.5,0.2
		c0.7,0,1.4,0.1,2,0.1l1.1,0V374l-1-0.1c-4.3-0.2-5.3-0.8-5.3-6.3v-32.2C399.7,329.5,400,329.4,405,329.2z"/>
	<path id="XMLID_1550_" fill="#FFBF3B" d="M450.5,375.6c-0.4-3.6-0.4-6.6-0.4-8.9l0-1.4c0-1.8,0-3.8,0.1-4.7l0.3-1.3h-3.3l-0.1,1
		c-0.7,11.6-3.6,13.4-10.5,13.4h-5.7c-5.8,0-7.2-0.6-7.2-6.1v-14.9l8.9,0.1c4.3,0,4.6,1.9,5.1,6.4l0.3,1.9h3l-0.1-1.2
		c-0.3-3.2-0.3-5.5-0.2-7.4l0-1c0-5.3,0.1-6.4,0.3-8.4l0.1-1.2h-3l-0.2,0.9c-0.1,0.6-0.2,1.2-0.3,1.8c-0.6,3.5-0.9,5.5-5,5.7
		l-8.9-0.1v-14.6c0-5.5,1.5-6.1,7.2-6.1h5.7c7,0,8,3,8.9,11.7l0.1,1h3.3l-0.3-1.3c-0.2-0.8-0.1-2.1-0.1-3.4c0-0.6,0-1.1,0-1.7
		c0-3,0.1-5.5,0.4-8.1l0.1-1.3l-1.3,0.1c-2.5,0.2-6.2,0.2-10.9,0.2l-4.1,0c-8.3,0-16.8-0.1-22.8-0.2l-1.1,0v2.8l1,0.1
		c4.2,0.2,5.3,0.5,5.3,6.2v32.2c0,6.1-0.4,6.1-5.3,6.3l-1,0v2.8l1.1-0.1c3.9-0.2,10.1-0.2,17.2-0.2l5.6,0l4.5,0
		c5.4,0,9.3,0,11.9,0.2l1.3,0.1L450.5,375.6z"/>
	<path id="XMLID_1547_" fill="#FFBF3B" d="M501.3,369.4l-0.6,1.4c-0.3,0.8-1,2.2-2,2.2c-1.7,0-2.6-1.9-6.6-10.6l-1-2.1
		c-2.1-4.4-4.2-6.6-6.4-7.7c6.4-2.3,9.7-6.9,10.1-11.4c0.4-3.5-0.7-6.7-3.1-9.3c-3.1-3.4-8.3-5.3-14.2-5.3c-0.2,0-0.4,0-0.6,0
		l-0.6,0c-1.2,0-3.1-0.1-11.2,0.3c-3.7,0-6.3-0.1-9-0.4l-1.2-0.1v2.9l1,0.1c4.2,0.2,5.4,0.5,5.4,6.2v32.2c0,6.1-0.4,6.1-5.4,6.3
		l-1,0v2.7l1.1,0c0.9,0,1.9-0.1,3-0.2c1.9-0.2,4-0.4,6.6-0.4c2.5,0,4.6,0.2,6.4,0.4c1.1,0.1,2.1,0.2,3.1,0.3l1.1,0V374l-1-0.1
		c-4.3-0.2-5.3-0.8-5.3-6.3v-13.6l1.7,0c1.3,0.1,2.6,0.1,3.8,0.1c3.2,1.2,5.7,3,7.4,6.7c5,12.4,8.1,16,13.7,16c4.5,0,6-2.3,6.9-4.8
		l0.3-0.7L501.3,369.4z M469.9,335.5c0-5.6,0.7-6.1,5.2-6.1c3.7,0,6.5,1,8.2,2.9c1.9,2,2.7,5.1,2.4,9.1c-0.3,4.7-2,10-12.1,10h-3.7
		V335.5z"/>
	<path id="XMLID_1546_" fill="#FFBF3B" d="M624.5,329.2l1,0v-2.9l-1.2,0.1c-1.8,0.2-4.2,0.2-7,0.2l-2.3,0l-2.7,0
		c-2.9,0-5.1,0-6.8-0.2l-1.2-0.1v2.9l1,0.1c4.3,0.2,5.4,0.5,5.4,6.2v32.2c0,6.1-0.4,6.1-5.4,6.3l-1,0v2.7l1.1,0
		c2.3-0.1,5.3-0.1,9.5-0.1c0,0,0.1,0,0.1,0c4.2,0,6.9,0,9.4,0.1l1.1,0V374l-1-0.1c-4.4-0.2-5.3-0.8-5.3-6.3v-32.2
		C619.2,329.5,619.5,329.4,624.5,329.2z"/>
	<path id="XMLID_1545_" fill="#FFBF3B" d="M671.7,375.6c-0.4-3.6-0.4-6.6-0.4-8.9l0-1.4c0-1.8,0-3.8,0.1-4.7l0.3-1.3h-3.3l-0.1,1
		c-0.7,11.6-3.6,13.4-10.5,13.4h-5.7c-5.8,0-7.2-0.6-7.2-6.1v-14.9l8.9,0.1c4.3,0,4.6,1.9,5.1,6.4l0.3,1.9h3l-0.1-1.2
		c-0.3-3.2-0.3-5.5-0.2-7.4l0-1c0-5.3,0.1-6.4,0.3-8.4l0.1-1.2h-3l-0.2,0.9c-0.1,0.6-0.2,1.2-0.3,1.8c-0.6,3.5-0.9,5.5-5,5.7
		l-8.9-0.1v-14.6c0-5.5,1.5-6.1,7.2-6.1h5.7c7,0,8,3,8.9,11.7l0.1,1h3.3l-0.3-1.3c-0.2-0.8-0.1-2.1-0.1-3.4c0-0.6,0-1.1,0-1.7
		c0-3,0.1-5.5,0.4-8.1l0.1-1.3l-1.3,0.1c-2.5,0.2-6.2,0.2-10.9,0.2l-4.1,0c-8.3,0-16.8-0.1-22.8-0.2l-1.1,0v2.8l1,0.1
		c4.2,0.2,5.3,0.5,5.3,6.2v32.2c0,6.1-0.4,6.1-5.3,6.3l-1,0v2.8l1.1-0.1c3.9-0.2,10.1-0.2,17.2-0.2l5.6,0l4.5,0
		c5.4,0,9.3,0,11.9,0.2l1.3,0.1L671.7,375.6z"/>
	<g id="XMLID_1538_">
		<g id="XMLID_1543_">
			
				<rect id="XMLID_1544_" x="117.9" y="374.3" transform="matrix(-0.5328 0.8463 -0.8463 -0.5328 504.8687 473.2309)" fill="#FFFFFF" width="7.8" height="3.4"/>
		</g>
		<g id="XMLID_1539_">
			<path id="XMLID_1540_" fill="#FFFFFF" d="M122.7,372.7l1.7,1.1l-3.4,5.4l-1.7-1.1L122.7,372.7 M122.2,370.8l-4.9,7.8l4,2.5
				l4.9-7.8L122.2,370.8L122.2,370.8z"/>
		</g>
	</g>
	<path id="XMLID_1537_" fill="#FFBF3B" d="M347.9,336.4c0-2.5,0.2-5.5,0.5-8.6l0.1-1.4h-1.2c-1.8,0-4.4,0-7.6,0.1
		c-4.7,0-10.5,0.1-16.4,0.1c-9,0-17.5-0.1-22.8-0.2l-1.2,0l0.1,1.2c0.3,2.7,0.4,5.5,0.4,8.8c0,2.6,0,4.5-0.1,6.1l-0.1,1.1h3l0.1-1
		c0.9-10.8,2.9-13.3,10.6-13.3h5.7v37.3c-0.2,6.9-0.4,6.9-6.9,7.2l-1,0.1v2.7l1.1,0c0.9,0,2-0.1,3.2-0.2c2.1-0.2,4.8-0.4,7.9-0.4
		c3.2,0,7.1,0.2,10.2,0.4c1.6,0.1,3,0.2,4,0.2l1.1,0V374l-1-0.1c-6.9-0.4-9.9-0.9-10.1-7.2v-37.4h7c7.7,0,9.7,2.5,10.6,13.3l0.1,1
		h3.2l-0.2-1.3C347.9,341.2,347.9,338.7,347.9,336.4z"/>
	<path id="XMLID_1536_" fill="#FFBF3B" d="M134.6,328.4c-0.2-1.3-1-2.4-2.1-3.1c-1.1-0.7-2.6-0.9-3.9-0.6c-1.1,0.2-2,0.8-2.6,1.8
		c-0.7,1.1-0.8,2.5-0.4,3.8c0.4,1.7,1.6,2.8,2.6,3.6c0.3,0.3,0.8,0.7,0.9,0.7c0,0,0,0,0,0c-0.2,0.5-0.6,1.1-1,1.6
		c-0.2,0.4-0.5,0.8-0.7,1.1l-11.8,18.1l-11.2-20.7c-1.1-1.8-1.3-2.9-1.3-3.6c0-0.7,0-1.7,4.4-1.7h1.1v-3l-1.2,0.1
		c-1.1,0.1-2.2,0.2-3.2,0.3c-2.3,0.2-4.4,0.4-7,0.4c-2.1-0.2-3.5-0.4-6.8-0.7l-1.2-0.1v2.7l0.7,0.3c1,0.4,2.4,0.9,4.3,4.2l14.9,27.1
		v7.1c0,6.1-0.4,6.1-5.3,6.3l-1,0v2.8l1.1,0c0.6,0,1.3-0.1,2.1-0.1c1.9-0.1,4.4-0.3,7.3-0.3c2.7,0,4.8,0.1,6.7,0.3
		c1,0.1,1.8,0.1,2.6,0.2l1.1,0V374l-1-0.1c-4.3-0.2-5.3-0.8-5.3-6.3v-9.4l12.3-19.1l0.2-0.2c0.7-0.9,1.4-1.8,2-2.7
		c1.4-2.2,2.2-4,2.6-5.7L134.6,328.4z"/>
	<g id="XMLID_1521_">
		<path id="XMLID_1523_" fill="#00586F" d="M646.1,406.1L646,406c-3-1.1-6.5-1.4-9.9-1.6c-0.9-0.1-1.9-0.1-2.8-0.2
			c-5.8-0.5-27.4-0.3-34.9,0c5.1-5.8,8.5-9.8,11-14.1c0.7-1.1,1.8-2.9,0.9-4.6l-0.1-0.1c-0.2-0.2-0.7-0.7-1.4-0.5
			c-4.6,1.4-12.1,9.1-19.6,20.1c-0.6,0-2.2,0.1-6.3,0.6c-2.4,0.3-5.5,0.2-8.2,0.2c-5.1-0.1-7,0-7.4,0.8l-0.1,0.2l0.1,0.2
			c0.1,0.3,0.2,0.6,0.5,0.8c1.5,1.4,7.4,0.9,14.3,0.3l5.4-0.6c-5.1,7.9-10,17.1-12.4,25.1c0,0-0.1,0.1-0.1,0.1l-0.2,0.2
			c-1.8,2.7-5,5.6-7.3,7.5c-8.3,7.7-20.5,7.9-29.6,0.3l-1.8-1.5c4.2-0.6,10.6-2.2,15.4-6.1c1.5-1.2,4.9-4.4,4.5-7.4
			c-0.2-1.4-1.3-2.5-3.1-3.2c-3.1-1-8,1.2-10.6,2.7c-5,2.6-9.7,6.2-14.4,11.1c0.2-0.4,0.4-0.8,0.6-1.2l1.5-3.2l0,0
			c2.4-1.6,5-3.4,7.7-5.4c2.9-2.1,5.8-4.4,8.6-6.7c2.9-2.4,5.7-4.9,8.4-7.4c2.8-2.6,5.4-5.3,7.9-7.8c2.6-2.8,4.9-5.4,7-8.1
			c2.2-2.8,4.1-5.5,5.8-8.2c0.3-0.5,7.6-11.7,6-18c-0.4-1.5-1.3-2.6-2.6-3.3c-6.2-2.9-14.9,5.2-17.5,7.7
			c-14.8,14.4-25.1,33.7-31.6,46.9c-0.9,1.9-1.7,3.5-2.3,4.9c-0.6-1.5-1.5-2.6-2.8-3.2c-2.7-1.3-6.5,0-9.8,1.5
			c-7.4,3.5-14.1,8.5-19.1,12.4c-1.6,1.4-3.2,2.8-4.8,4.3c0.1-0.2,0.2-0.3,0.3-0.5c1-2,2.2-3.9,3.4-5.8c0.6-1,1.3-1.9,2-2.6
			c0.6-0.6,1.2-1.1,1.8-1.6c0.6-0.4,1.2-0.9,1.8-1.3c1.9-1.4,3.8-2.8,5.6-4.3l0.3-0.2c2.1-1.8,5.3-4.6,5.3-7.9
			c0-0.6-0.2-1.4-0.9-1.9l-0.2-0.1c-2.5-1-5.8,0.6-9.9,5c-1.4,1.5-4.2,4.9-7.1,8.7c-9.1,8.1-17.1,11.8-29.1,13.8
			c-4,0.5-6.8-0.3-8.5-2.3c-2.7-3.3-2.5-9.9,0.6-19.8c0.1-0.9-0.6-1.7-2-2.3c-1.4-0.6-4-1.2-5.1,0c-0.4,0.6-0.9,1.2-1.3,1.8
			l-0.1-0.2c-1.8-3.2-4-4.8-6.3-4.9c0,0,0,0-0.1,0c-3.3,0-7,3.3-11,10c-2.8,4.4-3.3,9.2-2.3,12.3c-4.3,2.3-9,4.3-12.2,4.1
			c-4.2-0.2-4.3-2.7-4.4-5.6c-0.1-2.4-0.3-5.1-3.5-5.3c-4.2-0.3-9.4,3.4-12.8,5.9l-0.9,0.7c-3.8,2.8-5.1,3-5.5,2.8
			c-0.9-0.5-0.5-4-0.1-8l0.2-1.6c0.3-3.4-0.4-5.4-2-6.1c-4.4-1.8-13.7,8.8-14.1,9.2l-10.4,10.5c-6.8,6.8-9.7,8.6-10.3,8.6
			c0,0,0,0,0,0c-0.3-0.2,0.2-1.9,0.5-2.8c0.1-0.3,0.2-0.6,0.3-0.9c1.4-4.1,3.5-8.5,6.7-13.8c5.7-4.9,16.1-14.1,22.3-20.8
			c0.1-0.1,8.2-8.6,6.4-12.3c-0.6-0.8-2.2-1-2.8-0.9c-3.2,0.4-5.9,3-8.2,5.2c-0.6,0.6-1.2,1.1-1.8,1.6c-7.8,7.4-14.5,15.6-19.8,24.5
			c-2.3,1.8-4.7,3.4-7,4.6c-12.5,7-22.8,10-32.3,2c-1.6-1.3-2.5-3.2-3.5-4.9c-1.6-3.2-3.3-6.4-8.7-7c-5.9-0.3-15.7,6.2-23.5,11.4
			c-2.7,1.8-5.1,3.4-7,4.5c0.3-2.6,1-5.7,2.3-9.4c16.5-9.5,59.6-38.5,64.8-61.5c1.4-5.1-0.2-7.6-1.7-8.8c-2.9-2.3-8.4-1.8-13.8,1.2
			c-23.7,12.3-39.9,35.5-49.4,52.8c-1.9,4-5.1,10.7-7.1,16.9c-1.2,0.6-2.4,1.2-3.5,1.9c-6.2,3.3-12.6,6.7-19.3,6.4
			c-2.2,0-3.7-0.8-4.4-2.3c-1.4-3.2,0.9-9.1,4-12.6c1.9-2.1,3.7-3.1,5.2-2.7c1.1,0.3,1.5,0.7,2.3,1.4l0.2,0.1c0.4,0.4,1,0.6,1.5,0.5
			c0.5-0.1,1-0.5,1.1-1c0.2-0.5,0-1.1-0.3-1.5c-1.2-1.4-2.3-2.5-4.3-3c-3.9-0.9-8.2,0.9-11.4,4.9c-1.7,2.1-2.9,4.5-3.5,6.8
			c-3.4,2.5-10.5,5.3-15.8,7.4c-1.8,0.7-3.3,1.3-4.6,1.8c0-0.1,0-0.1,0-0.2l-0.1-0.9c-0.4-1.4-1.1-2.7-1.8-4.1
			c-0.7-1.3-1.4-2.6-1.8-4c3-2,8.5-7.9,9.1-11.6c0.1-0.9,0-1.7-0.6-2.3c-1-1-2.3-1.5-3.7-1.3c-3,0.3-6.3,3.3-8.2,6.1
			c-0.7,1.1-1.2,2.3-1.4,3.4c-7.7,6.9-18.6,15-28.8,16.7c-3.2,0.4-5.4-0.2-6.7-1.8c-2-2.5-1.8-7.7,0.6-15.3c0.1-0.5-0.1-1.3-1.6-2.1
			c-1.2-0.6-3.6-1.1-4.5,0.1c-0.3,0.4-0.5,0.7-0.8,1.1c-1.5-2.5-3.3-3.8-5.2-3.8c0,0,0,0-0.1,0c-2.8,0-5.8,2.6-9.2,8
			c-3.1,4.8-2.8,10-0.6,11.9c0.8,0.7,3,1.9,6.5-1.3c1.9-1.6,3.7-3.3,5.5-5c0.8-0.8,1.6-1.6,2.5-2.4c-0.5,7,1.1,11.6,4.6,13.7
			c1.4,0.8,3.1,1.2,5.1,1.2c5.8,0,13.9-3.5,24.4-10.4c1.2-0.9,2.5-1.7,3.7-2.5c1.6-1.1,3.2-2.2,4.8-3.4c0.5,1.9,1.4,3.8,2.2,5.6
			c1,2.1,1.9,4.1,2.3,6l-1.1,0.5c-6.7,2.7-13,5.3-17.1,10.8c-1.4,1.8-1.8,3.7-1.1,5.2c0.6,1.3,1.8,2.2,3.5,2.4
			c0.4,0.1,0.9,0.1,1.3,0.1c4.3,0,8.2-2.7,9.8-4c3.6-3.1,8.6-7.3,8.8-13.9l0.9-0.4c2.5-1.1,5-2.1,7.5-3c3.7-1.4,7.5-2.9,11.3-4.8
			c0,1.5,0.2,2.9,0.8,4.1c1,2.1,3.4,4.6,8.9,4.6c0,0,0,0,0,0c0.4,0.1,0.8,0.1,1.3,0.1c5.3,0,13.4-3.9,20.9-8
			c-1.2,4.5-1.4,8.2,0.4,9.5c0.6,0.5,1.2,0.7,1.7,0.7c0.2,0,0.4,0,0.6-0.1c4.5-1,9.5-4.4,14.7-7.9c6.3-4.2,12.9-8.6,18.7-8.9
			c1.9,0.2,2.6,1.6,3.9,4.3c1.3,2.8,2.9,6.3,7.2,8.9c11.8,7.1,24.7,1.4,36-4.4l0.5-0.3c0.1-0.1,0.3-0.1,0.4-0.2
			c-0.2,0.3-0.3,0.6-0.5,1c-0.1,0.2-0.2,0.5-0.4,0.8c-1.6,3.4-5.4,11.3-1.1,14.6c0.6,0.5,1.3,0.7,2,0.7c2.8,0,6.4-3,8.1-4.5
			c0.2-0.2,0.4-0.3,0.6-0.5c1-1,2.3-2.4,3.9-4c6.3-6.5,16.8-17.4,21.4-19.6c0.1,0.4,0.1,1.4-0.2,2.9l-0.1,0.8
			c-0.5,3.1-1.6,9.6,1.8,11c4.6,2,9.2-1.5,13.3-4.6c2.4-1.8,4.6-3.5,6.7-4c0.1,0,0.3-0.1,0.4,0c0.4,0.3,0.4,1.8,0.5,2.8
			c0.1,2.3,0.2,5.2,2.3,6.5c5.5,3.3,12.8,0.4,19.1-3.1c0,0,0,0.1,0.1,0.1c0.9,0.8,3.5,2.1,7.5-1.7c2.4-2,4.6-4.2,6.8-6.4
			c1.2-1.2,2.4-2.4,3.6-3.6v0.3c-0.7,9.2,1.2,15.2,5.7,17.7c1.7,1,3.6,1.4,6,1.4c7,0,17-4.4,29.9-13.1c0,0,0,0,0,0
			c-3.3,4.9-6,9.9-6,12.8c0.2,0.6,0.5,1.1,0.9,1.4c0.1,0.2,0.3,0.4,0.6,0.6c0.3,0.3,0.8,0.5,1.2,0.6l0.2,0c2.9,0,6.5-3.5,9-6
			c0.7-0.7,1.2-1.2,1.7-1.6c1.2-1,2.4-2,3.6-3c4.1-3.5,8.1-6.9,13.3-9.8c0.4-0.2,0.9-0.5,1.5-0.8c2.3-1.2,5.8-3.1,7.8-2.4
			c0.6,0.2,1,0.6,1.3,1.2l0.5,0.5c0.5,0.5,0.9,0.9,1.4,0.9c-1.1,2.5-2,4.5-3,7c-0.9,2.2-2,4.9-3.6,8.7c-0.2,0.5-0.4,1-0.6,1.5
			c-0.9,2-1.8,4.3-1.8,6.7c0.1,0.9,0.8,1.8,1.9,2.2c0.3,0.1,0.7,0.2,1,0.2c0.6,0,1.2-0.2,1.6-0.6c0.4-0.4,0.4-0.7,0.4-1.1
			c1-3.9,4.9-9.4,9.4-14.2c0.1,0.1,0.2,0.2,0.3,0.4c5,6.1,11.2,9.6,18,10.2c6.8,0.6,13.7-1.8,19.5-6.9c0.7-0.7,1.5-1.3,2.3-2.1
			c0.7-0.6,1.4-1.2,2.1-1.9c-0.5,3.9-0.2,7.1,1.5,9.4c1.2,1.5,3,2.1,5,2.1c5.2,0,12.1-3.7,14.7-5.2c4.5-2.7,8.2-5.9,11.8-9l0.1-0.1
			l0-0.2c0.1-0.7,0.2-1.3-0.2-1.6c-0.4-0.3-1,0-1.7,0.5c-5,4.4-11.2,9.4-19.3,12c-4,1.4-6.7,1.5-8.2,0.3c-1.3-1.1-1.7-3.5-1.2-6.9
			c1.7-6.2,3-8.7,4.2-11.1l0.1-0.2c1.3-2.7,2.8-5.7,4.2-8.6c1.2-1.3,3-3.5,4.6-5.4c1.2-1.4,2.4-2.8,2.9-3.5l0,0l3.9-4.5
			c7.7-0.6,33.2-0.6,40.6,1.1c0.5,0.1,0.9,0.2,1.3,0.3c2,0.5,3.5,0.8,5.7,1.8c1.4,0.3,2.5-0.4,2.8-1.1
			C647.3,407.9,647,406.8,646.1,406.1z M561.4,381.2c3.8-4.3,12.2-11.6,15.3-11.6c0.2,0,0.4,0,0.6,0.1c0.6,0.3,0.9,0.7,1.1,1.4
			c1,3.4-2.8,10.8-5.1,14.7c-9.9,15.4-27.1,30.7-40.7,40.4C540.8,409.2,551,393.3,561.4,381.2z M502.8,421.2c2.4-2.7,4.2-3.8,4.9-4
			c-0.2,0.9-1.9,3.7-4.6,6.4c-2.1,2.2-3.4,2.8-3.8,2.9C499.3,425.9,500.3,423.9,502.8,421.2z M382.8,405.9c0.8-0.8,2.2-1.8,2.7-1.9
			l0.1,0.1c-0.1,0.1-0.2,0.2-0.3,0.4c-3,5-8.4,10.6-12.4,14.3c-0.8,0.8-1.6,1.6-2.5,2.4c-1.6,1.6-3.3,3.3-5.1,4.9
			C372.1,416.9,379.6,409.2,382.8,405.9z M315.7,377.5c3.5-3.4,14.2-12.2,19.3-12.2c0.3,0,0.6,0,0.9,0.1c0.6,0.2,1.1,0.5,1.3,1.1
			c1.1,2.3-0.7,7.5-1.7,9.4c-9.2,17.6-37,40.8-57.3,51.8C286,409.8,302.7,389.2,315.7,377.5z M155.6,436.5c-0.6,0.4-0.9,0.5-1.1,0.5
			c0.1-1.2,2.3-5.1,3.9-6.8c1.4-2,2.7-2.9,4-2.9c0.2,0,0.4,0,0.6,0.1c0.1,0,0.2,0.2,0.3,0.2c0.2,0.2,0.4,0.4,0.8,0.5
			c-1.2,1.3-2.4,2.6-3.6,3.9L155.6,436.5z M212,429.9c0-0.5,0.1-0.9,0.2-1.4c0.6-2.8,2.5-6.2,4.9-7.1c0.8-0.3,1.2-0.4,1.5-0.4
			c0.2,0,0.3,0,0.3,0.1c0.1,0.1,0.1,0.8-1.1,2.6C216.3,425.8,214.3,428,212,429.9z M212.2,447.7c-1.8,4.8-6.7,8.8-10.6,10.6
			c-0.4,0.2-3.7,1.6-5.5,0.3c0,0,0-0.1,0-0.2c0-1.2,2-4,3-4.7c4.4-3.9,8.9-5.8,13.6-7.7C212.6,446.6,212.4,447.2,212.2,447.7z
			 M441.4,427.5l-5.4,5.2l-0.4,0.2c-0.5,0.3-1.1,0.7-1.8,1.1c-0.2,0-0.2,0-0.2,0c-0.5-0.9,2.5-6.7,4.8-9.3c1.8-2.6,3.5-3.8,5.2-3.8
			c0.3,0,0.6,0,0.9,0.1c0.1,0.1,0.3,0.2,0.5,0.4c0.3,0.3,0.7,0.8,1.4,0.7C444.8,423.9,443.2,425.6,441.4,427.5z M533.6,436.6
			c2.9-2.9,5.9-5.4,8.4-6.9c6.2-4.3,9.5-4.9,10.4-4.2c0.4,0.4,0.5,0.8,0.4,1.3c-0.6,2.7-7.3,6.8-9.3,7.4c-3.6,1.2-5.4,1.5-7,1.9
			c-0.9,0.2-1.7,0.3-2.8,0.6L533.6,436.6z M589.2,411.9c1-1.7,2-3.3,3.1-4.9l1.2-0.1L589.2,411.9z M595.5,404.4l-1.5,0.2l1.2-1.8
			c3.6-4.8,7.7-10.3,12.2-14.2c0.1-0.1,0.2-0.2,0.2-0.3c-0.9,1.9-2.2,3.8-3.6,5.6C601.6,397.1,598.7,400.6,595.5,404.4z"/>
		<path id="XMLID_1522_" fill="#00586F" d="M139.7,440.1c2.2-5.2,4.8-10.3,7.4-15.3c3.2-6.1,6.4-12.4,8.9-18.9
			c1.6-3.7,3.4-9,1.6-12.2c-0.8-1.4-2.1-2.2-4.1-2.5c-4.9-0.7-13.7,5.2-16.2,7c-15.9,10.2-28.8,24.3-41.3,38.1l-2.7,3
			c-4.4,4.8-8.6,9.9-12.6,14.8c-1.7,2-3.3,4-5,6l-6.4,7.7c-1.9,2.2-2.8,2.9-3.1,3.1c0-0.1,0-0.2-0.1-0.3c-0.8-8.9,8-22,15.7-33.5
			l2.2-3.3c5.2-7.9,10.6-14.8,16.3-22.2c6.2-8.1,12.6-16.4,19.5-26.7c0.6-0.8,1.2-1.7,1.8-2.5c4.4-6.2,9.3-13.2,8.4-21.1
			c-1.2-4.8-6.4-6.9-14.4-6c-3.7,0.3-7.3,1.1-10.7,2.4c-2.7,1-5.4,2.2-8.1,3.8c-13.3,7.7-21.4,19.8-25.9,28.7
			c-1.9,3.7-3.1,6.8-3.8,9.9c-0.3,1.3-0.7,3.1-0.4,4.8c0.2,1.3,1.1,2.6,2.3,2.6c0,0,0.1,0,0.1,0l0.2,0c1.3-0.2,1.7-1.7,1.9-2.3
			c0.3-0.8,0.5-1.7,0.8-2.5c0.9-2.9,1.9-6,3.1-8.8c2.5-6.1,5.8-13,11-18.8c3.9-4.4,8.9-8.3,14.9-11.6c4.3-2.4,9.5-4.9,14.8-5.1
			c4.7-0.1,7.6,0.8,8.7,2.6c1.2,2.2,0.2,5.9-3,11.1c-5.1,8.2-9.2,14.4-13.9,20.4c-1.9,2.5-4.3,5.4-6.8,8.6
			c-15.5,19.2-38.8,48.1-39.2,68.3c0,1.4,0,2.4,0.4,3.4c0.7,1.7,1.6,2.6,2.8,2.7c0.1,0,0.2,0,0.4,0c3.2,0,7.3-5.4,11.9-11.6
			c2-2.6,4-5.3,5.9-7.5c14.7-17.7,29.3-34.8,46.2-48.2c4.6-3.7,16.9-13.5,24.1-13.5c0.8,0,1.1,0.3,1.2,0.6c1.2,2-1.1,8.1-2.1,10
			c-1.6,3.2-3.2,6.3-4.8,9.5c-2.1,4.1-4.3,8.4-6.4,12.6c-1.8,3.7-3.7,7.7-5.1,11.9c-1.2,3.6-2.9,8.5-1.4,12.3c0.8,2,3,3.7,5.3,3.1
			c1.5-0.4,2.6-1.6,3.5-2.7c2.1-2.7,4-5.2,5.7-7.7l2.8-4.2c0.3-0.4,0.6-0.9,0.9-1.3c0.7-0.9,1.4-1.9,1.9-2.9l-1.1-0.6
			c-0.1,0-0.3,0-0.5-0.1c-0.5-0.1-1.3-0.4-1.9,0.3c-0.4,0.5-0.7,1.5-1,2.6c-0.2,0.8-0.5,1.7-0.7,2c-1.1,1.4-2.1,2.9-3.1,4.4
			c-1.3,2-2.7,4-4.4,5.8c-0.8,0.9-1.8,1.4-2.6,1.3c-0.5-0.1-0.9-0.3-1.2-0.9c-0.9-1.4-0.6-3.2-0.3-5.1
			C138.4,443.6,138.9,441.9,139.7,440.1z"/>
	</g>
	<g id="XMLID_1518_">
		<path id="XMLID_1520_" fill="#FFBF3B" d="M122.5,375.6l0-0.8c-2.1-0.1-6.5-0.3-8-0.6l0,0.9L122.5,375.6z"/>
		<path id="XMLID_1519_" fill="#FFBF3B" d="M123.6,376.7l-10.2-0.6v-3.3l1.3,0.3c1.1,0.2,4.2,0.4,6.2,0.5l2.6,0.1V376.7z"/>
	</g>
	<g id="XMLID_1512_">
		<g id="XMLID_1515_">
			<path id="XMLID_1516_" fill="#FFBF3B" d="M584.3,376.8c-3.2-0.3-4.4-0.5-8.9-0.7l0.3-4.8c3.4,2.4,5.2,1.9,8.6,3.3L584.3,376.8z"
				/>
		</g>
		<g id="XMLID_1513_">
			<path id="XMLID_1514_" fill="#FFBF3B" d="M575.6,371.2l-0.3,4.8c4.5,0.2,5.7,0.5,8.9,0.7l0-2.2
				C580.9,373.1,579,373.6,575.6,371.2L575.6,371.2z"/>
		</g>
	</g>
	<g id="XMLID_1509_">
		<path id="XMLID_1511_" fill="#FFBF3B" d="M337.5,375.7v-0.8c-2.1-0.1-6.5-0.3-8-0.6l0,0.9L337.5,375.7z"/>
		<path id="XMLID_1510_" fill="#FFBF3B" d="M338.6,376.8l-10.2-0.6v-3.3l1.3,0.3c1.1,0.2,4.2,0.4,6.2,0.5l2.6,0.1V376.8z"/>
	</g>
</g>
</svg>
