<?xml version="1.0" encoding="iso-8859-1"?>
<!-- Generator: Adobe Illustrator 19.0.0, SVG Export Plug-In . SVG Version: 6.00 Build 0)  -->
<svg version="1.2" baseProfile="tiny" xmlns="http://www.w3.org/2000/svg" xmlns:xlink="http://www.w3.org/1999/xlink" x="0px"
	 y="0px" viewBox="0 0 200 200" xml:space="preserve">
<g id="Guides" display="none">
</g>
<g id="Color_Palette" display="none">
	<g display="inline">
		<circle fill="#839894" cx="-895.901" cy="222.593" r="36.597"/>
		<circle fill="#B7CCC8" cx="-807.559" cy="222.593" r="36.596"/>
		<circle fill="#E5E5E4" cx="-542.282" cy="222.593" r="36.596"/>
		<circle fill="none" stroke="#CCCBCB" stroke-miterlimit="10" cx="-719.217" cy="222.593" r="36.596"/>
		<circle fill="#4D4E4E" cx="-453.94" cy="222.593" r="36.596"/>
		<circle fill="#053653" cx="-630.875" cy="222.593" r="36.596"/>
	</g>
	<g display="inline">
		<circle fill="#839894" cx="1155.279" cy="783.535" r="33.613"/>
		<circle fill="#B7CCC8" cx="1155.279" cy="702.397" r="33.612"/>
		<circle fill="#E5E5E4" cx="1155.279" cy="458.751" r="33.612"/>
		<circle fill="none" stroke="#CCCBCB" stroke-miterlimit="10" cx="1155.279" cy="621.258" r="33.612"/>
		<circle fill="#4D4E4E" cx="1155.279" cy="377.612" r="33.612"/>
		<circle fill="#053653" cx="1155.279" cy="540.119" r="33.612"/>
	</g>
</g>
<g id="Ligh_Sage" display="none">
	<g id="Circle_-_Light_Sage_1_" display="inline">
		<circle fill="none" stroke="#B8CDC9" stroke-width="2" stroke-miterlimit="10" cx="797.043" cy="383" r="82.392"/>
		<circle fill="none" stroke="#B8CDC9" stroke-width="2" stroke-miterlimit="10" cx="1002.043" cy="383" r="82.392"/>
		<circle fill="none" stroke="#B8CDC9" stroke-width="2" stroke-miterlimit="10" cx="592.043" cy="383" r="82.392"/>
		<circle fill="none" stroke="#B8CDC9" stroke-width="2" stroke-miterlimit="10" cx="-637.957" cy="383" r="82.392"/>
		<circle fill="none" stroke="#B8CDC9" stroke-width="2" stroke-miterlimit="10" cx="-432.957" cy="383" r="82.392"/>
		<circle fill="none" stroke="#B8CDC9" stroke-width="2" stroke-miterlimit="10" cx="-227.957" cy="383" r="82.392"/>
		<circle fill="none" stroke="#B8CDC9" stroke-width="2" stroke-miterlimit="10" cx="-22.957" cy="383" r="82.392"/>
		<circle fill="none" stroke="#B8CDC9" stroke-width="2" stroke-miterlimit="10" cx="387.043" cy="383" r="82.392"/>
		<circle fill="none" stroke="#B8CDC9" stroke-width="2" stroke-miterlimit="10" cx="182.043" cy="383" r="82.392"/>
		<circle fill="none" stroke="#B8CDC9" stroke-width="2" stroke-miterlimit="10" cx="-842.957" cy="383" r="82.392"/>
	</g>
	<g id="Square_-_Light_Sage">
		<g display="inline">
			<rect x="-900.949" y="325.186" fill="none" stroke="#F7931E" stroke-miterlimit="10" width="115.725" height="115.725"/>
			<rect x="-695.949" y="325.186" fill="none" stroke="#F7931E" stroke-miterlimit="10" width="115.725" height="115.725"/>
			<rect x="-490.949" y="325.186" fill="none" stroke="#F7931E" stroke-miterlimit="10" width="115.725" height="115.725"/>
			<rect x="-285.949" y="325.186" fill="none" stroke="#F7931E" stroke-miterlimit="10" width="115.725" height="115.725"/>
			<rect x="-80.949" y="325.186" fill="none" stroke="#F7931E" stroke-miterlimit="10" width="115.725" height="115.725"/>
			<rect x="124.051" y="325.186" fill="none" stroke="#F7931E" stroke-miterlimit="10" width="115.725" height="115.725"/>
			<rect x="329.051" y="325.186" fill="none" stroke="#F7931E" stroke-miterlimit="10" width="115.725" height="115.725"/>
			<rect x="739.051" y="325.186" fill="none" stroke="#F7931E" stroke-miterlimit="10" width="115.725" height="115.725"/>
			<rect x="944.051" y="325.186" fill="none" stroke="#F7931E" stroke-miterlimit="10" width="115.725" height="115.725"/>
			<rect x="542.014" y="333.149" fill="none" stroke="#F7931E" stroke-miterlimit="10" width="99.799" height="99.799"/>
		</g>
	</g>
	<g id="Social_Icons_-__Light_Sage" display="inline">
		<g>
			<path fill-rule="evenodd" fill="#B8CDC9" d="M-600.749,382.999c0-20.575-16.675-37.249-37.249-37.249
				c-20.578,0-37.251,16.674-37.251,37.249c0,20.576,16.673,37.25,37.251,37.25C-617.424,420.25-600.749,403.575-600.749,382.999
				L-600.749,382.999z M-601.455,340.69c-3.326,0-5.996,2.693-5.996,5.993c0,3.324,2.669,5.993,5.996,5.993
				c3.299,0,5.992-2.669,5.992-5.993C-595.463,343.383-598.156,340.69-601.455,340.69L-601.455,340.69z M-668.446,332.075h60.897
				c11.28,0,20.475,9.219,20.475,20.476v60.897c0,11.284-9.195,20.475-20.475,20.475h-60.897c-11.259,0-20.48-9.192-20.48-20.475
				V352.55C-688.926,341.294-679.705,332.075-668.446,332.075L-668.446,332.075z M-607.549,325.252h-60.897
				c-15.011,0-27.304,12.287-27.304,27.299v60.897c0,15.037,12.293,27.301,27.304,27.301h60.897
				c15.034,0,27.299-12.264,27.299-27.301V352.55C-580.25,337.539-592.515,325.252-607.549,325.252L-607.549,325.252z
				 M-667.515,382.999c0-16.296,13.222-29.517,29.517-29.517c16.292,0,29.514,13.221,29.514,29.517
				c0,16.296-13.222,29.517-29.514,29.517C-654.293,412.517-667.515,399.295-667.515,382.999L-667.515,382.999z"/>
		</g>
		<path id="XMLID_5_" fill="#B8CDC9" d="M-374.351,347.192c-4.311,1.888-8.947,3.156-13.82,3.729
			c4.975-2.93,8.783-7.569,10.586-13.108c-4.648,2.718-9.807,4.691-15.285,5.752c-4.386-4.602-10.642-7.481-17.561-7.481
			c-13.287,0-24.063,10.611-24.063,23.691c0,1.859,0.219,3.656,0.618,5.396c-19.993-0.988-37.73-10.42-49.592-24.751
			c-2.07,3.497-3.263,7.567-3.263,11.91c0,8.215,4.256,15.462,10.707,19.713c-3.941-0.122-7.655-1.187-10.901-2.962
			c0,0.1,0,0.2,0,0.299c0,3.03,0.592,5.92,1.649,8.584c2.94,7.429,9.553,13.04,17.658,14.65c-2.025,0.533-4.145,0.831-6.346,0.831
			c-1.547,0-3.053-0.149-4.526-0.43c3.067,9.409,11.952,16.261,22.48,16.451c-8.241,6.357-18.61,10.143-29.889,10.143
			c-1.944,0-3.857-0.114-5.747-0.333c10.659,6.721,23.315,10.644,36.89,10.644c37.62,0,60.737-26.061,66.835-53.099
			c1.081-4.779,1.637-9.589,1.637-14.3c0-1.02-0.021-2.047-0.064-3.063C-381.654,356.118-377.568,351.946-374.351,347.192z"/>
		<g>
			<path fill="#B8CDC9" d="M-271.41,386.589h18.041c3.998,0,10.863,1.737,10.863,9.422c0,3.996-3.175,8.707-7.172,8.707h-21.732
				V386.589z M-213.497,350.422h32.494v10.861h-32.494V350.422z M-185.311,386.589h-23.884c0.826-6.455,5.641-10.756,11.995-10.756
				C-190.946,375.833-186.337,380.24-185.311,386.589L-185.311,386.589z M-209.908,393.864h39.771c0-0.617,0-1.23,0-1.847
				c0-14.958-10.765-27.045-27.063-27.045c-16.399,0-27.166,12.086-27.166,27.045c0,15.063,10.767,27.147,27.166,27.147
				c16.298,0,24.089-9.321,26.545-21.713h-14.656c-1.333,6.35-5.126,10.861-11.89,10.861
				C-204.068,408.311-209.397,401.956-209.908,393.864L-209.908,393.864z M-227.947,397.451c0-7.89-5.231-14.651-12.304-17.111
				c5.125-3.178,8.61-8.913,8.61-15.368c0-10.039-8.095-18.135-18.04-18.135h-36.182v72.328h36.184
				C-237.788,419.164-227.947,409.434-227.947,397.451L-227.947,397.451z M-253.369,375.833h-18.041v-14.55h18.041
				c3.998,0,7.281,3.277,7.281,7.271C-246.088,372.549-249.372,375.833-253.369,375.833L-253.369,375.833z"/>
		</g>
		<path id="XMLID_4_" fill="#B8CDC9" d="M-20.223,325.553c-32.392,0.002-48.735,22.482-48.735,41.226
			c0,3.462,0.419,6.807,1.266,9.895c1.923,7.024,6.086,12.698,12.692,15.32c1.573,0.613,2.971,0.024,3.421-1.658
			c0.314-1.159,1.059-4.073,1.397-5.302c0.447-1.656,0.281-2.229-0.98-3.673c-1.656-1.881-2.935-4.105-3.706-6.817
			c-0.513-1.811-0.805-3.827-0.805-6.123c0-16.679,12.905-31.613,33.58-31.613c18.31,0,28.377,10.831,28.377,25.291
			c0,4.256-0.436,8.366-1.259,12.183c-2.85,13.228-10.332,22.906-20.352,22.906c-7.143,0-12.486-5.707-10.774-12.71
			c0.979-3.986,2.391-8.114,3.6-12.005c1.333-4.274,2.423-8.255,2.423-11.415c0-5.399-2.998-9.902-9.194-9.902
			c-7.301,0-13.163,7.299-13.163,17.075c0,1.843,0.2,3.504,0.463,4.934c0.643,3.417,1.719,5.518,1.719,5.518
			s-7.466,30.59-8.773,35.957c-2.601,10.677-0.394,23.76-0.203,25.078c0.109,0.784,1.154,0.97,1.625,0.382
			c0.673-0.846,9.359-11.23,12.312-21.598c0.836-2.94,4.795-18.137,4.795-18.137c2.369,4.376,9.297,8.221,16.659,8.221
			c17.854,0,31.032-12.834,35.306-31.583c0.98-4.271,1.491-8.845,1.491-13.647C22.958,343.781,5.821,325.553-20.223,325.553z"/>
		<g>
			<path fill="#B8CDC9" d="M359.397,358.662h12.012v-6.11c0-6.914,0.755-12.039,2.168-15.378c1.48-3.432,4.161-6.066,8.109-8.23
				c3.882-2.164,8.843-3.196,14.884-3.196c6.137,0,12.11,0.892,18.032,2.726l-2.915,15.049c-3.455-0.8-6.773-1.222-9.923-1.222
				c-3.15,0-5.358,0.752-6.7,2.257c-1.409,1.41-2.045,4.231-2.045,8.371v5.734h16.154v17.025H393.02v64.565h-21.61v-64.565h-12.012
				V358.662z"/>
		</g>
		<g>
			<path fill="#B8CDC9" d="M131.584,344.092l50.794,51.706l50.275-51.686c0.188-0.192,0.429-0.28,0.637-0.435
				c-2.366-1.964-5.3-3.177-8.536-3.177h-85.505c-3.182,0-6.083,1.173-8.427,3.079C131.078,343.759,131.364,343.857,131.584,344.092
				z"/>
			<path fill="#B8CDC9" d="M236.32,415.22c0.491,0.247,0.944,0.588,1.336,0.999c0.643-1.692,1.016-3.536,1.016-5.472v-55.497
				c0-0.882-0.102-1.737-0.242-2.577l-30.88,31.739C220.008,398.246,233.417,412.725,236.32,415.22z"/>
			<path fill="#B8CDC9" d="M200.499,391.664l-14.684,15.097c-0.954,0.985-2.186,1.47-3.42,1.47c-1.229,0-2.451-0.484-3.4-1.452
				l-15.099-15.372l-30.896,32.456c1.888,1.01,3.99,1.637,6.249,1.637h85.505c2.242,0,4.328-0.617,6.207-1.616
				C226.911,420.878,219.151,412.429,200.499,391.664z"/>
			<path fill="#B8CDC9" d="M125.594,352.425c-0.166,0.916-0.266,1.856-0.266,2.826v55.497c0,1.931,0.374,3.77,1.009,5.46
				l30.473-32.01L125.594,352.425z"/>
		</g>
		<path fill="#B8CDC9" d="M-786.137,365.453c-1.392-22.053-18.907-26.954-18.907-26.954c-22.451-6.164-37.948,11.987-37.948,11.987
			s-15.528-18.151-37.978-11.987c0,0-17.503,4.901-18.893,26.954c-1.518,24.059,41.768,65.39,56.871,75.324
			C-827.896,430.843-784.619,389.512-786.137,365.453z"/>
		<path fill="#B8CDC9" d="M853.509,380.887c-0.118-3.124-0.475-6.237-1.098-9.27c-0.742-3.637-1.85-7.219-3.298-10.635
			c-1.42-3.357-3.177-6.587-5.219-9.607c-2.021-2.993-4.341-5.812-6.9-8.37c-2.558-2.558-5.374-4.881-8.365-6.905
			c-3.025-2.045-6.261-3.794-9.612-5.217c-3.418-1.441-6.995-2.556-10.632-3.295c-3.72-0.759-7.551-1.151-11.383-1.151
			c-3.832,0-7.666,0.392-11.391,1.154c-3.636,0.739-7.211,1.855-10.624,3.297c-3.356,1.42-6.587,3.169-9.61,5.217
			c-2.999,2.021-5.812,4.344-8.375,6.905c-2.55,2.557-4.873,5.375-6.899,8.37c-2.045,3.02-3.8,6.251-5.21,9.607
			c-1.447,3.417-2.563,6.993-3.306,10.63c-0.587,2.867-0.945,5.804-1.082,8.752c-0.04,0.878-0.064,1.752-0.064,2.628
			c0,3.839,0.385,7.669,1.146,11.398c0.743,3.634,1.859,7.207,3.306,10.621c1.41,3.356,3.166,6.593,5.21,9.615
			c2.026,2.991,4.349,5.805,6.899,8.368c2.563,2.553,5.375,4.875,8.375,6.899c3.023,2.042,6.254,3.8,9.61,5.218
			c3.414,1.447,6.992,2.552,10.624,3.298c3.719,0.766,7.559,1.148,11.391,1.148c3.835,0,7.663-0.379,11.383-1.148
			c3.637-0.747,7.214-1.851,10.632-3.298c3.351-1.418,6.587-3.177,9.612-5.218c2.991-2.024,5.807-4.346,8.365-6.899
			c2.56-2.563,4.88-5.377,6.9-8.368c2.042-3.022,3.799-6.259,5.219-9.615c1.449-3.413,2.557-6.987,3.298-10.621
			c0.763-3.728,1.151-7.564,1.151-11.398C853.561,382.294,853.534,381.589,853.509,380.887z M797.001,334.696
			c12.229,0,23.389,4.558,31.905,12.05c-0.12,0.19-6.999,10.662-25.234,17.494c-8.255-15.171-17.329-27.224-18.058-28.184
			C789.266,335.176,793.074,334.696,797.001,334.696z M785.432,336.1c-0.003,0.005-0.011,0.008-0.011,0.008
			s-0.057,0.018-0.149,0.035C785.326,336.126,785.382,336.118,785.432,336.1z M776.389,339.311
			c0.641,0.865,9.578,12.973,17.939,27.835c-23.191,6.165-43.321,5.924-44.6,5.901C752.866,358.084,762.911,345.677,776.389,339.311
			z M761.074,415.287c-7.695-8.563-12.378-19.875-12.378-32.289c0-0.513,0.019-1.023,0.04-1.524
			c0.852,0.019,24.719,0.558,49.588-6.883c1.385,2.713,2.711,5.461,3.919,8.21c-0.638,0.182-1.271,0.373-1.904,0.577
			c-26.065,8.424-39.289,31.88-39.289,31.88S761.068,415.279,761.074,415.287z M797.001,431.308c-11.201,0-21.483-3.843-29.68-10.24
			l-0.005,0.018c0,0-0.448-0.334-1.086-0.847c0.353,0.291,0.726,0.547,1.091,0.83c0.089-0.187,9.385-20.226,37.899-30.158
			c0.107-0.042,0.216-0.074,0.321-0.102c6.8,17.659,9.605,32.452,10.319,36.675C810.063,429.94,803.685,431.308,797.001,431.308z
			 M823.993,423.067c-0.496-2.918-3.065-17.093-9.406-34.504c15.599-2.491,29.114,1.786,30.104,2.107
			C842.542,404.132,834.833,415.746,823.993,423.067z M811.644,380.938c-0.344-0.83-0.687-1.655-1.042-2.496
			c-0.726-1.703-1.501-3.393-2.293-5.067c-0.302-0.647-0.604-1.298-0.916-1.935c19.078-7.784,26.818-18.989,26.916-19.118
			c6.005,7.295,9.901,16.394,10.784,26.351c0.112,1.271,0.182,2.553,0.197,3.847C844.591,382.368,828.243,378.85,811.644,380.938z"
			/>
		<g>
			<polygon id="XMLID_3_" fill="#B8CDC9" points="544.187,382.022 544.187,430.812 567.435,430.812 567.435,378.099 
				567.435,364.397 544.187,364.397 			"/>
			<path id="XMLID_2_" fill="#B8CDC9" d="M555.813,331.188c-6.421,0-11.626,5.206-11.626,11.625c0,6.418,5.205,11.622,11.626,11.622
				c6.419,0,11.622-5.204,11.622-11.622C567.435,336.394,562.232,331.188,555.813,331.188z"/>
			<path id="XMLID_1_" fill="#B8CDC9" d="M643.303,384.79c-1.574-12.52-7.326-20.393-24.248-20.393
				c-10.039,0-16.781,3.729-19.534,8.963h-0.287v-8.963h-18.517v12.743v53.672h19.354v-32.918c0-8.682,1.639-17.084,12.378-17.084
				c10.58,0,11.43,9.924,11.43,17.645v32.357h19.93v-36.497h0.004C643.813,390.909,643.669,387.723,643.303,384.79z"/>
		</g>
		<g>
			<g>
				<g>
					<path fill="#B8CDC9" d="M1010.572,384.58c8.852-1.836,16.195-9.831,16.195-21.54c0-12.524-9.138-23.906-27.006-23.906h-49.443
						v93.827h50.993c18.031,0,27.332-11.259,27.332-25.456C1028.604,395.839,1020.73,386.13,1010.572,384.58z M970.308,356.717
						h25.048c6.772,0,10.974,4.079,10.974,9.831c0,6.038-4.243,9.831-10.974,9.831h-25.048V356.717z M996.213,415.38h-25.905
						v-21.376h25.905c7.751,0,11.953,4.773,11.953,10.688C1008.206,411.422,1003.678,415.38,996.213,415.38z M1053.244,339.298
						c-6.038,0-11.137,5.059-11.137,11.096c0,6.038,4.243,10.117,9.587,10.117c1.142,0,2.244-0.122,2.692-0.408
						c-1.142,5.059-6.323,10.974-10.851,13.381l7.751,6.323c8.689-6.16,14.482-15.584,14.482-26.149
						C1065.767,344.519,1059.852,339.298,1053.244,339.298z"/>
				</g>
			</g>
		</g>
	</g>
</g>
<g id="Dark_Sage" display="none">
	<g id="Circle_-_Dark_Sage" display="inline">
		<g>
			<circle fill="none" stroke="#849995" stroke-width="2" stroke-miterlimit="10" cx="1002.043" cy="588" r="82.392"/>
			<circle fill="none" stroke="#849995" stroke-width="2" stroke-miterlimit="10" cx="797.043" cy="588" r="82.392"/>
			<circle fill="none" stroke="#849995" stroke-width="2" stroke-miterlimit="10" cx="-637.957" cy="588" r="82.392"/>
			<circle fill="none" stroke="#849995" stroke-width="2" stroke-miterlimit="10" cx="-432.957" cy="588" r="82.392"/>
			<circle fill="none" stroke="#849995" stroke-width="2" stroke-miterlimit="10" cx="-227.957" cy="588" r="82.392"/>
			<circle fill="none" stroke="#849995" stroke-width="2" stroke-miterlimit="10" cx="-22.957" cy="588" r="82.392"/>
			<circle fill="none" stroke="#849995" stroke-width="2" stroke-miterlimit="10" cx="592.043" cy="588" r="82.392"/>
			<circle fill="none" stroke="#849995" stroke-width="2" stroke-miterlimit="10" cx="387.043" cy="588" r="82.392"/>
			<circle fill="none" stroke="#849995" stroke-width="2" stroke-miterlimit="10" cx="182.043" cy="588" r="82.392"/>
			<circle fill="none" stroke="#849995" stroke-width="2" stroke-miterlimit="10" cx="-842.957" cy="588" r="82.392"/>
		</g>
	</g>
	<g id="Square_-_Dark_sage">
		<g display="inline">
			<rect x="-900.949" y="530.186" fill="none" stroke="#F7931E" stroke-miterlimit="10" width="115.725" height="115.725"/>
			<rect x="-695.949" y="530.186" fill="none" stroke="#F7931E" stroke-miterlimit="10" width="115.725" height="115.725"/>
			<rect x="-490.949" y="530.186" fill="none" stroke="#F7931E" stroke-miterlimit="10" width="115.725" height="115.725"/>
			<rect x="-285.949" y="530.186" fill="none" stroke="#F7931E" stroke-miterlimit="10" width="115.725" height="115.725"/>
			<rect x="-80.949" y="530.186" fill="none" stroke="#F7931E" stroke-miterlimit="10" width="115.725" height="115.725"/>
			<rect x="124.051" y="530.186" fill="none" stroke="#F7931E" stroke-miterlimit="10" width="115.725" height="115.725"/>
			<rect x="329.051" y="530.186" fill="none" stroke="#F7931E" stroke-miterlimit="10" width="115.725" height="115.725"/>
			<rect x="739.051" y="530.186" fill="none" stroke="#F7931E" stroke-miterlimit="10" width="115.725" height="115.725"/>
			<rect x="944.051" y="530.186" fill="none" stroke="#F7931E" stroke-miterlimit="10" width="115.725" height="115.725"/>
			<rect x="542.014" y="538.149" fill="none" stroke="#F7931E" stroke-miterlimit="10" width="99.799" height="99.799"/>
		</g>
	</g>
	<g id="Social_Icons_-_Dark_Sage" display="inline">
		<g>
			<path fill-rule="evenodd" fill="#849995" d="M-600.749,587.999c0-20.575-16.675-37.249-37.249-37.249
				c-20.578,0-37.251,16.674-37.251,37.249c0,20.576,16.673,37.25,37.251,37.25C-617.424,625.25-600.749,608.575-600.749,587.999
				L-600.749,587.999z M-601.455,545.69c-3.326,0-5.996,2.693-5.996,5.993c0,3.324,2.669,5.993,5.996,5.993
				c3.299,0,5.992-2.669,5.992-5.993C-595.463,548.383-598.156,545.69-601.455,545.69L-601.455,545.69z M-668.446,537.075h60.897
				c11.28,0,20.475,9.219,20.475,20.476v60.897c0,11.284-9.195,20.476-20.475,20.476h-60.897c-11.259,0-20.48-9.192-20.48-20.476
				V557.55C-688.926,546.294-679.705,537.075-668.446,537.075L-668.446,537.075z M-607.549,530.252h-60.897
				c-15.011,0-27.304,12.287-27.304,27.299v60.897c0,15.037,12.293,27.301,27.304,27.301h60.897
				c15.034,0,27.299-12.264,27.299-27.301V557.55C-580.25,542.539-592.515,530.252-607.549,530.252L-607.549,530.252z
				 M-667.515,587.999c0-16.296,13.222-29.517,29.517-29.517c16.292,0,29.514,13.221,29.514,29.517
				c0,16.296-13.222,29.518-29.514,29.518C-654.293,617.517-667.515,604.295-667.515,587.999L-667.515,587.999z"/>
		</g>
		<path id="XMLID_15_" fill="#849995" d="M-374.351,552.192c-4.311,1.888-8.947,3.156-13.82,3.729
			c4.975-2.93,8.783-7.569,10.586-13.108c-4.648,2.718-9.807,4.691-15.285,5.752c-4.386-4.602-10.642-7.481-17.561-7.481
			c-13.287,0-24.063,10.611-24.063,23.691c0,1.859,0.219,3.656,0.618,5.396c-19.993-0.988-37.73-10.42-49.592-24.751
			c-2.07,3.497-3.263,7.567-3.263,11.91c0,8.215,4.256,15.462,10.707,19.713c-3.941-0.122-7.655-1.187-10.901-2.962
			c0,0.1,0,0.2,0,0.299c0,3.03,0.592,5.92,1.649,8.584c2.94,7.43,9.553,13.04,17.658,14.65c-2.025,0.533-4.145,0.831-6.346,0.831
			c-1.547,0-3.053-0.149-4.526-0.43c3.067,9.409,11.952,16.261,22.48,16.451c-8.241,6.357-18.61,10.143-29.889,10.143
			c-1.944,0-3.857-0.114-5.747-0.333c10.659,6.721,23.315,10.644,36.89,10.644c37.62,0,60.737-26.061,66.835-53.099
			c1.081-4.779,1.637-9.589,1.637-14.3c0-1.02-0.021-2.047-0.064-3.063C-381.654,561.118-377.568,556.946-374.351,552.192z"/>
		<g>
			<path fill="#849995" d="M-271.41,591.589h18.041c3.998,0,10.863,1.737,10.863,9.422c0,3.996-3.175,8.707-7.172,8.707h-21.732
				V591.589z M-213.497,555.422h32.494v10.861h-32.494V555.422z M-185.311,591.589h-23.884c0.826-6.455,5.641-10.756,11.995-10.756
				C-190.946,580.833-186.337,585.24-185.311,591.589L-185.311,591.589z M-209.908,598.864h39.771c0-0.617,0-1.23,0-1.847
				c0-14.958-10.765-27.045-27.063-27.045c-16.399,0-27.166,12.086-27.166,27.045c0,15.063,10.767,27.147,27.166,27.147
				c16.298,0,24.089-9.321,26.545-21.713h-14.656c-1.333,6.35-5.126,10.861-11.89,10.861
				C-204.068,613.311-209.397,606.956-209.908,598.864L-209.908,598.864z M-227.947,602.451c0-7.89-5.231-14.651-12.304-17.111
				c5.125-3.178,8.61-8.913,8.61-15.368c0-10.039-8.095-18.135-18.04-18.135h-36.182v72.328h36.184
				C-237.788,624.164-227.947,614.434-227.947,602.451L-227.947,602.451z M-253.369,580.833h-18.041v-14.55h18.041
				c3.998,0,7.281,3.277,7.281,7.271C-246.088,577.549-249.372,580.833-253.369,580.833L-253.369,580.833z"/>
		</g>
		<path id="XMLID_14_" fill="#849995" d="M-20.223,530.553c-32.392,0.002-48.735,22.482-48.735,41.226
			c0,3.462,0.419,6.807,1.266,9.895c1.923,7.024,6.086,12.698,12.692,15.32c1.573,0.613,2.971,0.024,3.421-1.658
			c0.314-1.159,1.059-4.073,1.397-5.302c0.447-1.656,0.281-2.229-0.98-3.673c-1.656-1.881-2.935-4.105-3.706-6.817
			c-0.513-1.811-0.805-3.827-0.805-6.123c0-16.679,12.905-31.613,33.58-31.613c18.31,0,28.377,10.831,28.377,25.291
			c0,4.256-0.436,8.366-1.259,12.183c-2.85,13.228-10.332,22.906-20.352,22.906c-7.143,0-12.486-5.707-10.774-12.71
			c0.979-3.986,2.391-8.114,3.6-12.005c1.333-4.274,2.423-8.255,2.423-11.415c0-5.399-2.998-9.902-9.194-9.902
			c-7.301,0-13.163,7.299-13.163,17.075c0,1.843,0.2,3.504,0.463,4.934c0.643,3.417,1.719,5.518,1.719,5.518
			s-7.466,30.59-8.773,35.957c-2.601,10.677-0.394,23.76-0.203,25.078c0.109,0.784,1.154,0.97,1.625,0.382
			c0.673-0.846,9.359-11.23,12.312-21.598c0.836-2.94,4.795-18.137,4.795-18.137c2.369,4.376,9.297,8.221,16.659,8.221
			c17.854,0,31.032-12.833,35.306-31.583c0.98-4.271,1.491-8.845,1.491-13.647C22.958,548.781,5.821,530.553-20.223,530.553z"/>
		<g>
			<polygon id="XMLID_13_" fill="#849995" points="544.187,587.022 544.187,635.812 567.435,635.812 567.435,583.099 
				567.435,569.397 544.187,569.397 			"/>
			<path id="XMLID_12_" fill="#849995" d="M555.813,536.188c-6.421,0-11.626,5.206-11.626,11.625
				c0,6.418,5.205,11.622,11.626,11.622c6.419,0,11.622-5.204,11.622-11.622C567.435,541.394,562.232,536.188,555.813,536.188z"/>
			<path id="XMLID_11_" fill="#849995" d="M643.303,589.79c-1.574-12.52-7.326-20.393-24.248-20.393
				c-10.039,0-16.781,3.729-19.534,8.963h-0.287v-8.963h-18.517v12.743v53.672h19.354v-32.918c0-8.682,1.639-17.084,12.378-17.084
				c10.58,0,11.43,9.924,11.43,17.645v32.357h19.93v-36.497h0.004C643.813,595.909,643.669,592.723,643.303,589.79z"/>
		</g>
		<g>
			<path fill="#849995" d="M359.397,563.662h12.012v-6.11c0-6.914,0.755-12.039,2.168-15.378c1.48-3.432,4.161-6.066,8.109-8.23
				c3.882-2.164,8.843-3.196,14.884-3.196c6.137,0,12.11,0.892,18.032,2.726l-2.915,15.049c-3.455-0.8-6.773-1.222-9.923-1.222
				c-3.15,0-5.358,0.752-6.7,2.257c-1.409,1.41-2.045,4.231-2.045,8.371v5.734h16.154v17.025H393.02v64.565h-21.61v-64.565h-12.012
				V563.662z"/>
		</g>
		<g>
			<path fill="#849995" d="M131.584,549.092l50.794,51.706l50.275-51.686c0.188-0.192,0.429-0.28,0.637-0.435
				c-2.366-1.964-5.3-3.177-8.536-3.177h-85.505c-3.182,0-6.083,1.173-8.427,3.079C131.078,548.759,131.364,548.857,131.584,549.092
				z"/>
			<path fill="#849995" d="M236.32,620.22c0.491,0.247,0.944,0.588,1.336,0.999c0.643-1.692,1.016-3.536,1.016-5.472v-55.497
				c0-0.882-0.102-1.737-0.242-2.576l-30.88,31.739C220.008,603.246,233.417,617.725,236.32,620.22z"/>
			<path fill="#849995" d="M200.499,596.664l-14.684,15.097c-0.954,0.985-2.186,1.47-3.42,1.47c-1.229,0-2.451-0.484-3.4-1.452
				l-15.099-15.372l-30.896,32.456c1.888,1.01,3.99,1.637,6.249,1.637h85.505c2.242,0,4.328-0.617,6.207-1.616
				C226.911,625.878,219.151,617.429,200.499,596.664z"/>
			<path fill="#849995" d="M125.594,557.425c-0.166,0.916-0.266,1.856-0.266,2.826v55.497c0,1.931,0.374,3.77,1.009,5.46
				l30.473-32.01L125.594,557.425z"/>
		</g>
		<path fill="#849995" d="M-786.137,570.453c-1.392-22.053-18.907-26.954-18.907-26.954c-22.451-6.164-37.948,11.987-37.948,11.987
			s-15.528-18.151-37.978-11.987c0,0-17.503,4.901-18.893,26.954c-1.518,24.059,41.768,65.39,56.871,75.324
			C-827.896,635.843-784.619,594.512-786.137,570.453z"/>
		<path fill="#849995" d="M853.509,585.887c-0.118-3.124-0.475-6.237-1.098-9.27c-0.742-3.637-1.85-7.219-3.298-10.635
			c-1.42-3.358-3.177-6.587-5.218-9.607c-2.021-2.993-4.341-5.812-6.9-8.37c-2.558-2.558-5.374-4.881-8.365-6.905
			c-3.025-2.045-6.261-3.794-9.612-5.217c-3.418-1.441-6.995-2.556-10.632-3.295c-3.72-0.759-7.551-1.151-11.383-1.151
			c-3.832,0-7.666,0.392-11.391,1.154c-3.636,0.739-7.211,1.855-10.624,3.297c-3.356,1.42-6.587,3.169-9.61,5.217
			c-2.999,2.021-5.812,4.344-8.375,6.905c-2.55,2.557-4.873,5.375-6.899,8.37c-2.045,3.02-3.8,6.251-5.21,9.607
			c-1.447,3.417-2.563,6.993-3.306,10.63c-0.587,2.867-0.945,5.804-1.082,8.752c-0.04,0.878-0.064,1.752-0.064,2.628
			c0,3.839,0.385,7.669,1.146,11.398c0.743,3.634,1.859,7.207,3.306,10.621c1.41,3.356,3.166,6.593,5.21,9.615
			c2.026,2.991,4.349,5.805,6.899,8.368c2.563,2.553,5.375,4.875,8.375,6.899c3.023,2.042,6.255,3.8,9.61,5.218
			c3.414,1.447,6.992,2.552,10.624,3.298c3.719,0.766,7.559,1.148,11.391,1.148c3.835,0,7.663-0.379,11.383-1.148
			c3.637-0.747,7.214-1.851,10.632-3.298c3.351-1.418,6.587-3.177,9.612-5.218c2.991-2.024,5.807-4.346,8.365-6.899
			c2.56-2.563,4.88-5.377,6.9-8.368c2.042-3.022,3.799-6.259,5.218-9.615c1.449-3.413,2.557-6.987,3.298-10.621
			c0.763-3.728,1.151-7.564,1.151-11.398C853.561,587.294,853.534,586.589,853.509,585.887z M797.001,539.696
			c12.229,0,23.389,4.558,31.905,12.05c-0.12,0.19-6.999,10.662-25.234,17.494c-8.255-15.171-17.329-27.224-18.058-28.184
			C789.266,540.176,793.074,539.696,797.001,539.696z M785.432,541.1c-0.003,0.005-0.011,0.008-0.011,0.008
			s-0.057,0.018-0.149,0.035C785.326,541.126,785.382,541.118,785.432,541.1z M776.389,544.311
			c0.641,0.865,9.578,12.973,17.939,27.835c-23.191,6.165-43.321,5.924-44.6,5.901C752.866,563.084,762.911,550.677,776.389,544.311
			z M761.074,620.287c-7.695-8.563-12.378-19.875-12.378-32.289c0-0.513,0.019-1.023,0.04-1.524
			c0.852,0.019,24.719,0.558,49.588-6.883c1.385,2.713,2.711,5.461,3.919,8.21c-0.638,0.182-1.271,0.373-1.904,0.577
			c-26.065,8.424-39.289,31.88-39.289,31.88S761.068,620.279,761.074,620.287z M797.001,636.308c-11.201,0-21.483-3.843-29.68-10.24
			l-0.005,0.018c0,0-0.448-0.334-1.086-0.847c0.353,0.291,0.726,0.547,1.091,0.83c0.089-0.187,9.385-20.226,37.899-30.158
			c0.107-0.042,0.216-0.074,0.321-0.102c6.8,17.659,9.605,32.452,10.319,36.675C810.063,634.94,803.685,636.308,797.001,636.308z
			 M823.993,628.067c-0.496-2.918-3.065-17.093-9.406-34.504c15.599-2.491,29.114,1.786,30.104,2.107
			C842.542,609.132,834.833,620.746,823.993,628.067z M811.644,585.938c-0.344-0.83-0.687-1.655-1.042-2.496
			c-0.726-1.703-1.501-3.393-2.293-5.067c-0.302-0.648-0.604-1.298-0.916-1.935c19.078-7.784,26.818-18.989,26.916-19.118
			c6.005,7.295,9.901,16.394,10.784,26.351c0.112,1.271,0.182,2.553,0.197,3.847C844.591,587.368,828.243,583.85,811.644,585.938z"
			/>
		<g>
			<g>
				<g>
					<path fill="#849995" d="M1010.796,589.177c8.852-1.836,16.195-9.831,16.195-21.539c0-12.524-9.138-23.906-27.006-23.906
						h-49.443v93.828h50.993c18.031,0,27.332-11.259,27.332-25.456C1028.827,600.437,1020.953,590.728,1010.796,589.177z
						 M970.531,561.315h25.048c6.772,0,10.974,4.079,10.974,9.831c0,6.038-4.243,9.831-10.974,9.831h-25.048V561.315z
						 M996.436,619.977h-25.905v-21.376h25.905c7.751,0,11.953,4.773,11.953,10.688
						C1008.429,616.02,1003.901,619.977,996.436,619.977z M1053.467,543.895c-6.038,0-11.137,5.059-11.137,11.096
						c0,6.038,4.243,10.117,9.587,10.117c1.142,0,2.244-0.122,2.693-0.408c-1.142,5.059-6.323,10.974-10.851,13.381l7.751,6.323
						c8.689-6.16,14.482-15.583,14.482-26.149C1065.991,549.117,1060.075,543.895,1053.467,543.895z"/>
				</g>
			</g>
		</g>
	</g>
</g>
<g id="Square_Icon" display="none">
	<g id="Square_1_" display="inline">
		<g>
			<rect x="937.033" y="727.489" fill="none" stroke="#999999" stroke-miterlimit="10" width="130.467" height="130.467"/>
			<rect x="731.586" y="727.266" fill="none" stroke="#999999" stroke-miterlimit="10" width="130.914" height="130.914"/>
			<rect x="526" y="726.723" fill="none" stroke="#999999" stroke-miterlimit="10" width="132" height="132"/>
			<rect x="321.523" y="727.203" fill="none" stroke="#999999" stroke-miterlimit="10" width="131.04" height="131.04"/>
			<rect x="116.46" y="727.203" fill="none" stroke="#999999" stroke-miterlimit="10" width="131.04" height="131.04"/>
			<rect x="-88.414" y="727.266" fill="none" stroke="#999999" stroke-miterlimit="10" width="130.914" height="130.914"/>
			<rect x="-293.394" y="727.276" fill="none" stroke="#999999" stroke-miterlimit="10" width="130.894" height="130.894"/>
			<rect x="-498.5" y="727.223" fill="none" stroke="#999999" stroke-miterlimit="10" width="131" height="131"/>
			<rect x="-703.414" y="727.266" fill="none" stroke="#999999" stroke-miterlimit="10" width="130.914" height="130.914"/>
			<rect x="-908.414" y="727.266" fill="none" stroke="#999999" stroke-miterlimit="10" width="130.914" height="130.914"/>
		</g>
	</g>
	<g id="Circle" display="inline">
		<circle fill="none" stroke="#849995" stroke-miterlimit="10" cx="1002.043" cy="793" r="82.392"/>
		<circle fill="none" stroke="#849995" stroke-miterlimit="10" cx="797.043" cy="793" r="82.392"/>
		<circle fill="none" stroke="#849995" stroke-miterlimit="10" cx="-637.957" cy="793" r="82.392"/>
		<circle fill="none" stroke="#849995" stroke-miterlimit="10" cx="-432.957" cy="793" r="82.392"/>
		<circle fill="none" stroke="#849995" stroke-miterlimit="10" cx="-227.957" cy="793" r="82.392"/>
		<circle fill="none" stroke="#849995" stroke-miterlimit="10" cx="-22.957" cy="793" r="82.392"/>
		<circle fill="none" stroke="#849995" stroke-miterlimit="10" cx="592.043" cy="793" r="82.392"/>
		<circle fill="none" stroke="#849995" stroke-miterlimit="10" cx="387.043" cy="793" r="82.392"/>
		<circle fill="none" stroke="#849995" stroke-miterlimit="10" cx="182.043" cy="793" r="82.392"/>
		<circle fill="none" stroke="#849995" stroke-miterlimit="10" cx="-842.957" cy="793" r="82.392"/>
	</g>
	<g id="Icons" display="inline">
		<g>
			<path fill-rule="evenodd" fill="#CCCCCC" d="M-600.749,792.999c0-20.575-16.675-37.249-37.249-37.249
				c-20.578,0-37.251,16.674-37.251,37.249c0,20.576,16.673,37.25,37.251,37.25C-617.424,830.25-600.749,813.575-600.749,792.999
				L-600.749,792.999z M-601.455,750.69c-3.326,0-5.996,2.693-5.996,5.993c0,3.324,2.669,5.993,5.996,5.993
				c3.299,0,5.992-2.669,5.992-5.993C-595.463,753.383-598.156,750.69-601.455,750.69L-601.455,750.69z M-668.446,742.075h60.897
				c11.28,0,20.475,9.219,20.475,20.476v60.897c0,11.284-9.195,20.476-20.475,20.476h-60.897c-11.259,0-20.48-9.192-20.48-20.476
				V762.55C-688.926,751.294-679.705,742.075-668.446,742.075L-668.446,742.075z M-607.549,735.252h-60.897
				c-15.011,0-27.304,12.287-27.304,27.299v60.897c0,15.037,12.293,27.301,27.304,27.301h60.897
				c15.034,0,27.299-12.264,27.299-27.301V762.55C-580.25,747.539-592.515,735.252-607.549,735.252L-607.549,735.252z
				 M-667.515,792.999c0-16.296,13.222-29.517,29.517-29.517c16.292,0,29.514,13.221,29.514,29.517
				c0,16.296-13.222,29.518-29.514,29.518C-654.293,822.517-667.515,809.295-667.515,792.999L-667.515,792.999z"/>
		</g>
		<path id="XMLID_39_" fill="#CCCCCC" d="M-374.351,757.192c-4.311,1.888-8.947,3.156-13.82,3.729
			c4.975-2.93,8.783-7.569,10.586-13.108c-4.648,2.718-9.807,4.691-15.285,5.752c-4.386-4.602-10.642-7.481-17.561-7.481
			c-13.287,0-24.063,10.611-24.063,23.691c0,1.859,0.219,3.656,0.618,5.396c-19.993-0.988-37.73-10.42-49.592-24.751
			c-2.07,3.497-3.263,7.567-3.263,11.91c0,8.215,4.256,15.462,10.707,19.713c-3.941-0.122-7.655-1.187-10.901-2.962
			c0,0.1,0,0.2,0,0.299c0,3.03,0.592,5.92,1.649,8.584c2.94,7.43,9.553,13.04,17.658,14.65c-2.025,0.533-4.145,0.831-6.346,0.831
			c-1.547,0-3.053-0.149-4.526-0.43c3.067,9.409,11.952,16.261,22.48,16.451c-8.241,6.357-18.61,10.143-29.889,10.143
			c-1.944,0-3.857-0.114-5.747-0.333c10.659,6.721,23.315,10.644,36.89,10.644c37.62,0,60.737-26.061,66.835-53.099
			c1.081-4.779,1.637-9.589,1.637-14.3c0-1.02-0.021-2.047-0.064-3.063C-381.654,766.118-377.568,761.946-374.351,757.192z"/>
		<path fill="#CCCCCC" d="M-271.41,796.589h18.041c3.998,0,10.863,1.737,10.863,9.422c0,3.996-3.175,8.707-7.172,8.707h-21.732
			V796.589z M-213.497,760.422h32.494v10.861h-32.494V760.422z M-185.311,796.589h-23.884c0.826-6.455,5.641-10.756,11.995-10.756
			C-190.946,785.833-186.337,790.24-185.311,796.589L-185.311,796.589z M-209.908,803.864h39.771c0-0.617,0-1.23,0-1.847
			c0-14.958-10.765-27.045-27.063-27.045c-16.399,0-27.166,12.086-27.166,27.045c0,15.063,10.767,27.147,27.166,27.147
			c16.298,0,24.089-9.321,26.545-21.713h-14.656c-1.333,6.35-5.126,10.861-11.89,10.861
			C-204.068,818.311-209.397,811.956-209.908,803.864L-209.908,803.864z M-227.947,807.451c0-7.89-5.231-14.651-12.304-17.111
			c5.125-3.178,8.61-8.913,8.61-15.368c0-10.039-8.095-18.135-18.04-18.135h-36.182v72.328h36.184
			C-237.788,829.164-227.947,819.434-227.947,807.451L-227.947,807.451z M-253.369,785.833h-18.041v-14.55h18.041
			c3.998,0,7.281,3.277,7.281,7.271C-246.088,782.549-249.372,785.833-253.369,785.833L-253.369,785.833z"/>
		<path id="XMLID_38_" fill="#CCCCCC" d="M-20.223,735.553c-32.392,0.002-48.735,22.482-48.735,41.226
			c0,3.462,0.419,6.807,1.266,9.895c1.923,7.024,6.086,12.698,12.692,15.32c1.573,0.613,2.971,0.024,3.421-1.658
			c0.314-1.159,1.059-4.073,1.397-5.302c0.447-1.656,0.281-2.229-0.98-3.673c-1.656-1.881-2.935-4.105-3.706-6.817
			c-0.513-1.811-0.805-3.827-0.805-6.123c0-16.679,12.905-31.613,33.58-31.613c18.31,0,28.377,10.831,28.377,25.291
			c0,4.256-0.436,8.366-1.259,12.183c-2.85,13.228-10.332,22.906-20.352,22.906c-7.143,0-12.486-5.707-10.774-12.71
			c0.979-3.986,2.391-8.114,3.6-12.005c1.333-4.274,2.423-8.255,2.423-11.415c0-5.399-2.998-9.902-9.194-9.902
			c-7.301,0-13.163,7.299-13.163,17.075c0,1.843,0.2,3.504,0.463,4.934c0.643,3.417,1.719,5.518,1.719,5.518
			s-7.466,30.59-8.773,35.957c-2.601,10.677-0.394,23.76-0.203,25.078c0.109,0.784,1.154,0.97,1.625,0.382
			c0.673-0.846,9.359-11.23,12.312-21.598c0.836-2.94,4.795-18.137,4.795-18.137c2.369,4.376,9.297,8.221,16.659,8.221
			c17.854,0,31.032-12.833,35.306-31.583c0.98-4.271,1.491-8.845,1.491-13.647C22.958,753.781,5.821,735.553-20.223,735.553z"/>
		<g>
			<polygon id="XMLID_37_" fill="#CCCCCC" points="544.187,792.022 544.187,840.812 567.435,840.812 567.435,788.099 
				567.435,774.397 544.187,774.397 			"/>
			<path id="XMLID_36_" fill="#CCCCCC" d="M555.813,741.188c-6.421,0-11.626,5.206-11.626,11.625
				c0,6.418,5.205,11.622,11.626,11.622c6.419,0,11.622-5.204,11.622-11.622C567.435,746.394,562.232,741.188,555.813,741.188z"/>
			<path id="XMLID_35_" fill="#CCCCCC" d="M643.303,794.79c-1.574-12.52-7.326-20.393-24.248-20.393
				c-10.039,0-16.781,3.729-19.534,8.963h-0.287v-8.963h-18.517v12.743v53.672h19.354v-32.918c0-8.682,1.639-17.084,12.378-17.084
				c10.58,0,11.43,9.924,11.43,17.645v32.357h19.93v-36.497h0.004C643.813,800.909,643.669,797.723,643.303,794.79z"/>
		</g>
		<g>
			<path fill="#CCCCCC" d="M359.397,768.662h12.012v-6.11c0-6.914,0.755-12.039,2.168-15.378c1.48-3.432,4.161-6.066,8.109-8.23
				c3.882-2.164,8.843-3.196,14.884-3.196c6.137,0,12.11,0.892,18.032,2.726l-2.915,15.049c-3.455-0.8-6.773-1.222-9.923-1.222
				c-3.15,0-5.358,0.752-6.7,2.257c-1.409,1.41-2.045,4.231-2.045,8.371v5.734h16.154v17.025H393.02v64.565h-21.61v-64.565h-12.012
				V768.662z"/>
		</g>
		<g>
			<path fill="#CCCCCC" d="M131.584,754.092l50.794,51.706l50.275-51.686c0.188-0.192,0.429-0.28,0.637-0.435
				c-2.366-1.964-5.3-3.177-8.536-3.177h-85.505c-3.182,0-6.083,1.173-8.427,3.079C131.078,753.759,131.364,753.857,131.584,754.092
				z"/>
			<path fill="#CCCCCC" d="M236.32,825.22c0.491,0.247,0.944,0.588,1.336,0.999c0.643-1.692,1.016-3.536,1.016-5.472v-55.497
				c0-0.882-0.102-1.737-0.242-2.576l-30.88,31.739C220.008,808.246,233.417,822.725,236.32,825.22z"/>
			<path fill="#CCCCCC" d="M200.499,801.664l-14.684,15.097c-0.954,0.985-2.186,1.47-3.42,1.47c-1.229,0-2.451-0.484-3.4-1.452
				l-15.099-15.372l-30.896,32.456c1.888,1.01,3.99,1.637,6.249,1.637h85.505c2.242,0,4.328-0.617,6.207-1.616
				C226.911,830.878,219.151,822.429,200.499,801.664z"/>
			<path fill="#CCCCCC" d="M125.594,762.425c-0.166,0.916-0.266,1.856-0.266,2.826v55.497c0,1.931,0.374,3.77,1.009,5.46
				l30.473-32.01L125.594,762.425z"/>
		</g>
		<path fill="#CCCCCC" d="M-786.137,775.453c-1.392-22.053-18.907-26.954-18.907-26.954c-22.451-6.164-37.948,11.987-37.948,11.987
			s-15.528-18.151-37.978-11.987c0,0-17.503,4.901-18.893,26.954c-1.518,24.059,41.768,65.39,56.871,75.324
			C-827.896,840.843-784.619,799.512-786.137,775.453z"/>
		<path fill="#CCCCCC" d="M853.509,790.887c-0.118-3.124-0.475-6.237-1.098-9.27c-0.742-3.637-1.85-7.219-3.298-10.635
			c-1.42-3.358-3.177-6.587-5.218-9.607c-2.021-2.993-4.341-5.812-6.9-8.37c-2.558-2.558-5.374-4.881-8.365-6.905
			c-3.025-2.045-6.261-3.794-9.612-5.217c-3.418-1.441-6.995-2.556-10.632-3.295c-3.72-0.759-7.551-1.151-11.383-1.151
			c-3.832,0-7.666,0.392-11.391,1.154c-3.636,0.739-7.211,1.855-10.624,3.297c-3.356,1.42-6.587,3.169-9.61,5.217
			c-2.999,2.021-5.812,4.344-8.375,6.905c-2.55,2.557-4.873,5.375-6.899,8.37c-2.045,3.02-3.8,6.251-5.21,9.607
			c-1.447,3.417-2.563,6.993-3.306,10.63c-0.587,2.867-0.945,5.804-1.082,8.752c-0.04,0.878-0.064,1.752-0.064,2.628
			c0,3.839,0.385,7.669,1.146,11.398c0.743,3.634,1.859,7.207,3.306,10.621c1.41,3.356,3.166,6.593,5.21,9.615
			c2.026,2.991,4.349,5.805,6.899,8.368c2.563,2.553,5.375,4.875,8.375,6.899c3.023,2.042,6.255,3.8,9.61,5.218
			c3.414,1.447,6.992,2.552,10.624,3.298c3.719,0.766,7.559,1.148,11.391,1.148c3.835,0,7.663-0.379,11.383-1.148
			c3.637-0.747,7.214-1.851,10.632-3.298c3.351-1.418,6.587-3.177,9.612-5.218c2.991-2.024,5.807-4.346,8.365-6.899
			c2.56-2.563,4.88-5.377,6.9-8.368c2.042-3.022,3.799-6.259,5.218-9.615c1.449-3.413,2.557-6.987,3.298-10.621
			c0.763-3.728,1.151-7.564,1.151-11.398C853.561,792.294,853.534,791.589,853.509,790.887z M797.001,744.696
			c12.229,0,23.389,4.558,31.905,12.05c-0.12,0.19-6.999,10.662-25.234,17.494c-8.255-15.171-17.329-27.224-18.058-28.184
			C789.266,745.176,793.074,744.696,797.001,744.696z M785.432,746.1c-0.003,0.005-0.011,0.008-0.011,0.008
			s-0.057,0.018-0.149,0.035C785.326,746.126,785.382,746.118,785.432,746.1z M776.389,749.311
			c0.641,0.865,9.578,12.973,17.939,27.835c-23.191,6.165-43.321,5.924-44.6,5.901C752.866,768.084,762.911,755.677,776.389,749.311
			z M761.074,825.287c-7.695-8.563-12.378-19.875-12.378-32.289c0-0.513,0.019-1.023,0.04-1.524
			c0.852,0.019,24.719,0.558,49.588-6.883c1.385,2.713,2.711,5.461,3.919,8.21c-0.638,0.182-1.271,0.373-1.904,0.577
			c-26.065,8.424-39.289,31.88-39.289,31.88S761.068,825.279,761.074,825.287z M797.001,841.308c-11.201,0-21.483-3.843-29.68-10.24
			l-0.005,0.018c0,0-0.448-0.334-1.086-0.847c0.353,0.291,0.726,0.547,1.091,0.83c0.089-0.187,9.385-20.226,37.899-30.158
			c0.107-0.042,0.216-0.074,0.321-0.102c6.8,17.659,9.605,32.452,10.319,36.675C810.063,839.94,803.685,841.308,797.001,841.308z
			 M823.993,833.067c-0.496-2.918-3.065-17.093-9.406-34.504c15.599-2.491,29.114,1.786,30.104,2.107
			C842.542,814.132,834.833,825.746,823.993,833.067z M811.644,790.938c-0.344-0.83-0.687-1.655-1.042-2.496
			c-0.726-1.703-1.501-3.393-2.293-5.067c-0.302-0.648-0.604-1.298-0.916-1.935c19.078-7.784,26.818-18.989,26.916-19.118
			c6.005,7.295,9.901,16.394,10.784,26.351c0.112,1.271,0.182,2.553,0.197,3.847C844.591,792.368,828.243,788.85,811.644,790.938z"
			/>
		<g>
			<g>
				<g>
					<path fill="#CCCCCC" d="M1010.572,794.531c8.852-1.836,16.195-9.831,16.195-21.539c0-12.524-9.138-23.906-27.006-23.906
						h-49.443v93.828h50.993c18.031,0,27.332-11.259,27.332-25.456C1028.604,805.791,1020.73,796.082,1010.572,794.531z
						 M970.308,766.669h25.048c6.772,0,10.974,4.079,10.974,9.831c0,6.038-4.243,9.831-10.974,9.831h-25.048V766.669z
						 M996.213,825.331h-25.905v-21.376h25.905c7.751,0,11.953,4.773,11.953,10.688
						C1008.206,821.374,1003.678,825.331,996.213,825.331z M1053.244,749.249c-6.038,0-11.137,5.059-11.137,11.096
						c0,6.038,4.243,10.117,9.587,10.117c1.142,0,2.244-0.122,2.692-0.408c-1.142,5.059-6.323,10.974-10.851,13.381l7.751,6.323
						c8.689-6.16,14.482-15.583,14.482-26.149C1065.767,754.471,1059.852,749.249,1053.244,749.249z"/>
				</g>
			</g>
		</g>
	</g>
</g>
<g id="SVG-Light_Gray" display="none">
	<g id="INSTAGRAM">
		<circle display="inline" fill="none" stroke="#CCCCCC" stroke-miterlimit="10" cx="100" cy="100" r="82.392"/>
		<g display="inline">
			<path fill-rule="evenodd" fill="#CCCCCC" d="M137.251,99.999c0-20.575-16.675-37.249-37.249-37.249
				c-20.578,0-37.251,16.674-37.251,37.249c0,20.576,16.673,37.25,37.251,37.25C120.576,137.25,137.251,120.575,137.251,99.999
				L137.251,99.999z M136.545,57.69c-3.326,0-5.996,2.693-5.996,5.993c0,3.324,2.669,5.993,5.996,5.993
				c3.299,0,5.992-2.669,5.992-5.993C142.537,60.383,139.844,57.69,136.545,57.69L136.545,57.69z M69.554,49.075h60.897
				c11.28,0,20.475,9.219,20.475,20.476v60.897c0,11.284-9.195,20.476-20.475,20.476H69.554c-11.259,0-20.48-9.192-20.48-20.476
				V69.55C49.074,58.294,58.295,49.075,69.554,49.075L69.554,49.075z M130.451,42.252H69.554c-15.011,0-27.304,12.287-27.304,27.299
				v60.897c0,15.037,12.293,27.301,27.304,27.301h60.897c15.034,0,27.299-12.264,27.299-27.301V69.55
				C157.75,54.539,145.485,42.252,130.451,42.252L130.451,42.252z M70.485,99.999c0-16.296,13.222-29.517,29.517-29.517
				c16.292,0,29.514,13.221,29.514,29.517s-13.222,29.517-29.514,29.517C83.707,129.517,70.485,116.295,70.485,99.999L70.485,99.999
				z"/>
		</g>
	</g>
	<g id="Tweeter">
		<circle display="inline" fill="none" stroke="#CCCCCC" stroke-miterlimit="10" cx="100" cy="100" r="82.392"/>
		<path id="XMLID_63_" display="inline" fill="#CCCCCC" d="M158.649,64.192c-4.311,1.888-8.947,3.156-13.82,3.729
			c4.975-2.93,8.783-7.569,10.586-13.108c-4.648,2.718-9.807,4.691-15.285,5.752c-4.386-4.602-10.642-7.481-17.561-7.481
			c-13.287,0-24.063,10.611-24.063,23.691c0,1.859,0.219,3.656,0.618,5.396c-19.993-0.988-37.73-10.42-49.592-24.751
			c-2.07,3.497-3.263,7.567-3.263,11.91c0,8.215,4.256,15.462,10.707,19.713c-3.941-0.122-7.655-1.187-10.901-2.962
			c0,0.1,0,0.2,0,0.299c0,3.03,0.592,5.92,1.649,8.584c2.94,7.429,9.553,13.04,17.658,14.65c-2.025,0.533-4.145,0.831-6.346,0.831
			c-1.547,0-3.053-0.149-4.526-0.43c3.067,9.409,11.952,16.261,22.48,16.451c-8.241,6.357-18.61,10.143-29.889,10.143
			c-1.944,0-3.857-0.114-5.747-0.333c10.659,6.721,23.315,10.644,36.89,10.644c37.62,0,60.737-26.061,66.835-53.099
			c1.081-4.778,1.637-9.589,1.637-14.3c0-1.02-0.021-2.047-0.064-3.063C151.346,73.118,155.432,68.946,158.649,64.192z"/>
	</g>
	<g id="Behance">
		<circle display="inline" fill="none" stroke="#CCCCCC" stroke-miterlimit="10" cx="100" cy="100" r="82.392"/>
		<g display="inline">
			<path fill="#CCCCCC" d="M56.59,103.589h18.041c3.998,0,10.863,1.737,10.863,9.422c0,3.996-3.175,8.707-7.172,8.707H56.59V103.589
				z M114.503,67.422h32.494v10.861h-32.494V67.422z M142.689,103.589h-23.884c0.826-6.455,5.641-10.756,11.995-10.756
				C137.054,92.833,141.663,97.24,142.689,103.589L142.689,103.589z M118.092,110.864h39.771c0-0.617,0-1.23,0-1.847
				c0-14.958-10.765-27.045-27.063-27.045c-16.399,0-27.166,12.086-27.166,27.045c0,15.063,10.767,27.147,27.166,27.147
				c16.298,0,24.089-9.321,26.545-21.713h-14.656c-1.333,6.35-5.126,10.861-11.89,10.861
				C123.932,125.311,118.603,118.956,118.092,110.864L118.092,110.864z M100.053,114.451c0-7.89-5.231-14.651-12.304-17.111
				c5.125-3.178,8.61-8.913,8.61-15.368c0-10.039-8.095-18.135-18.04-18.135H42.137v72.328h36.184
				C90.212,136.164,100.053,126.434,100.053,114.451L100.053,114.451z M74.631,92.833H56.59v-14.55h18.041
				c3.998,0,7.281,3.277,7.281,7.271C81.912,89.549,78.628,92.833,74.631,92.833L74.631,92.833z"/>
		</g>
	</g>
	<g id="Pinterest">
		<circle display="inline" fill="none" stroke="#CCCCCC" stroke-miterlimit="10" cx="100" cy="100" r="82.392"/>
		<path id="XMLID_62_" display="inline" fill="#CCCCCC" d="M102.777,42.553c-32.392,0.002-48.735,22.482-48.735,41.226
			c0,3.462,0.419,6.807,1.266,9.895c1.923,7.024,6.086,12.698,12.692,15.32c1.573,0.613,2.971,0.024,3.421-1.658
			c0.314-1.159,1.059-4.073,1.397-5.302c0.447-1.656,0.281-2.229-0.98-3.673c-1.656-1.881-2.935-4.105-3.706-6.817
			c-0.513-1.811-0.805-3.827-0.805-6.123c0-16.679,12.905-31.613,33.58-31.613c18.31,0,28.377,10.831,28.377,25.291
			c0,4.256-0.436,8.366-1.259,12.183c-2.85,13.228-10.332,22.906-20.352,22.906c-7.143,0-12.486-5.707-10.774-12.71
			c0.979-3.986,2.391-8.114,3.6-12.005c1.333-4.274,2.423-8.255,2.423-11.415c0-5.399-2.998-9.902-9.194-9.902
			c-7.301,0-13.163,7.299-13.163,17.075c0,1.843,0.2,3.504,0.463,4.934c0.643,3.417,1.719,5.518,1.719,5.518
			s-7.466,30.59-8.773,35.957c-2.601,10.677-0.394,23.76-0.203,25.078c0.109,0.784,1.154,0.97,1.625,0.382
			c0.673-0.846,9.359-11.23,12.312-21.598c0.836-2.94,4.795-18.137,4.795-18.137c2.369,4.376,9.297,8.221,16.659,8.221
			c17.854,0,31.032-12.834,35.306-31.583c0.98-4.271,1.491-8.845,1.491-13.647C145.958,60.781,128.821,42.553,102.777,42.553z"/>
	</g>
	<g id="E-Mail">
		<circle display="inline" fill="none" stroke="#CCCCCC" stroke-miterlimit="10" cx="100" cy="100" r="82.392"/>
		<g display="inline">
			<path fill="#CCCCCC" d="M49.584,61.092l50.794,51.706l50.275-51.686c0.188-0.192,0.429-0.28,0.637-0.435
				c-2.366-1.964-5.3-3.177-8.536-3.177H57.248c-3.182,0-6.083,1.173-8.427,3.079C49.078,60.759,49.364,60.857,49.584,61.092z"/>
			<path fill="#CCCCCC" d="M154.32,132.22c0.491,0.247,0.944,0.588,1.336,0.999c0.643-1.692,1.016-3.536,1.016-5.472V72.251
				c0-0.882-0.102-1.737-0.242-2.577l-30.88,31.739C138.008,115.246,151.417,129.725,154.32,132.22z"/>
			<path fill="#CCCCCC" d="M118.499,108.664l-14.684,15.097c-0.954,0.985-2.186,1.47-3.42,1.47c-1.229,0-2.451-0.484-3.4-1.452
				l-15.099-15.372l-30.896,32.456c1.888,1.01,3.99,1.637,6.249,1.637h85.505c2.242,0,4.328-0.617,6.208-1.616
				C144.91,137.878,137.151,129.429,118.499,108.664z"/>
			<path fill="#CCCCCC" d="M43.594,69.425c-0.166,0.916-0.266,1.856-0.266,2.826v55.497c0,1.931,0.374,3.77,1.009,5.46l30.473-32.01
				L43.594,69.425z"/>
		</g>
	</g>
	<g id="Facebook">
		<circle display="inline" fill="none" stroke="#CCCCCC" stroke-miterlimit="10" cx="100" cy="100" r="82.392"/>
		<g display="inline">
			<path fill="#CCCCCC" d="M72.397,75.662h12.012v-6.11c0-6.914,0.755-12.039,2.168-15.378c1.48-3.432,4.161-6.066,8.109-8.23
				c3.882-2.164,8.843-3.196,14.884-3.196c6.137,0,12.11,0.892,18.032,2.726l-2.915,15.049c-3.455-0.8-6.773-1.222-9.923-1.222
				c-3.15,0-5.358,0.752-6.7,2.257c-1.409,1.41-2.045,4.231-2.045,8.371v5.734h16.154v17.025h-16.154v64.565h-21.61V92.688H72.397
				V75.662z"/>
		</g>
	</g>
	<g id="Linked-in">
		<circle display="inline" fill="none" stroke="#CCCCCC" stroke-miterlimit="10" cx="100.043" cy="100" r="82.392"/>
		<g display="inline">
			<polygon id="XMLID_50_" fill="#CCCCCC" points="50.187,101.022 50.187,149.812 73.435,149.812 73.435,97.099 73.435,83.397 
				50.187,83.397 			"/>
			<path id="XMLID_49_" fill="#CCCCCC" d="M61.813,50.188c-6.421,0-11.626,5.206-11.626,11.625c0,6.418,5.205,11.622,11.626,11.622
				c6.419,0,11.622-5.204,11.622-11.622C73.435,55.394,68.232,50.188,61.813,50.188z"/>
			<path id="XMLID_48_" fill="#CCCCCC" d="M149.303,103.79c-1.574-12.52-7.326-20.393-24.248-20.393
				c-10.039,0-16.781,3.729-19.534,8.963h-0.287v-8.963H86.717V96.14v53.672h19.354v-32.918c0-8.682,1.639-17.084,12.378-17.084
				c10.58,0,11.43,9.924,11.43,17.645v32.357h19.93v-36.497h0.004C149.813,109.909,149.669,106.723,149.303,103.79z"/>
		</g>
	</g>
	<g id="Dribble">
		<circle display="inline" fill="none" stroke="#CCCCCC" stroke-miterlimit="10" cx="100.043" cy="100" r="82.392"/>
		<path display="inline" fill="#CCCCCC" d="M156.509,97.887c-0.118-3.124-0.475-6.237-1.098-9.27
			c-0.742-3.637-1.85-7.219-3.298-10.635c-1.42-3.358-3.177-6.587-5.218-9.607c-2.021-2.993-4.341-5.812-6.9-8.37
			c-2.558-2.558-5.374-4.881-8.365-6.905c-3.025-2.045-6.261-3.794-9.612-5.217c-3.418-1.441-6.995-2.556-10.632-3.295
			c-3.72-0.759-7.551-1.151-11.383-1.151c-3.832,0-7.666,0.392-11.391,1.154c-3.636,0.739-7.211,1.855-10.624,3.297
			c-3.356,1.42-6.587,3.169-9.61,5.217c-2.999,2.021-5.812,4.344-8.375,6.905c-2.55,2.557-4.873,5.375-6.899,8.37
			c-2.045,3.02-3.8,6.251-5.21,9.607c-1.447,3.417-2.563,6.993-3.306,10.63c-0.587,2.867-0.945,5.804-1.082,8.752
			c-0.04,0.878-0.064,1.752-0.064,2.628c0,3.839,0.385,7.669,1.146,11.398c0.743,3.634,1.859,7.207,3.306,10.621
			c1.41,3.356,3.166,6.593,5.21,9.615c2.026,2.991,4.349,5.805,6.899,8.368c2.563,2.553,5.375,4.875,8.375,6.899
			c3.023,2.042,6.254,3.8,9.61,5.218c3.413,1.447,6.992,2.552,10.624,3.298c3.719,0.766,7.559,1.148,11.391,1.148
			c3.835,0,7.663-0.379,11.383-1.148c3.637-0.747,7.214-1.851,10.632-3.298c3.351-1.418,6.587-3.177,9.612-5.218
			c2.991-2.024,5.807-4.346,8.365-6.899c2.56-2.563,4.88-5.377,6.9-8.368c2.042-3.022,3.799-6.259,5.218-9.615
			c1.449-3.413,2.557-6.987,3.298-10.621c0.763-3.728,1.151-7.564,1.151-11.398C156.561,99.294,156.534,98.589,156.509,97.887z
			 M100.001,51.696c12.229,0,23.389,4.558,31.905,12.05c-0.12,0.19-6.999,10.662-25.234,17.494
			C98.418,66.07,89.343,54.016,88.614,53.057C92.266,52.176,96.074,51.696,100.001,51.696z M88.432,53.1
			c-0.003,0.005-0.011,0.008-0.011,0.008s-0.057,0.018-0.149,0.035C88.326,53.126,88.382,53.118,88.432,53.1z M79.389,56.311
			c0.641,0.865,9.578,12.973,17.939,27.835c-23.191,6.165-43.321,5.924-44.6,5.901C55.866,75.084,65.911,62.677,79.389,56.311z
			 M64.074,132.287c-7.695-8.563-12.378-19.875-12.378-32.289c0-0.513,0.019-1.023,0.04-1.524
			c0.852,0.019,24.719,0.558,49.588-6.883c1.385,2.713,2.711,5.461,3.919,8.21c-0.638,0.182-1.271,0.373-1.904,0.577
			c-26.065,8.424-39.289,31.88-39.289,31.88S64.068,132.279,64.074,132.287z M100.001,148.308c-11.201,0-21.483-3.843-29.68-10.24
			l-0.005,0.018c0,0-0.448-0.334-1.086-0.847c0.353,0.291,0.726,0.547,1.091,0.83c0.089-0.187,9.385-20.226,37.899-30.158
			c0.107-0.042,0.216-0.074,0.321-0.102c6.8,17.659,9.605,32.452,10.319,36.675C113.063,146.94,106.685,148.308,100.001,148.308z
			 M126.993,140.067c-0.496-2.918-3.065-17.093-9.406-34.504c15.599-2.491,29.114,1.786,30.104,2.107
			C145.542,121.132,137.833,132.746,126.993,140.067z M114.644,97.938c-0.344-0.83-0.687-1.655-1.042-2.496
			c-0.726-1.703-1.501-3.393-2.293-5.067c-0.302-0.647-0.604-1.298-0.916-1.935c19.078-7.784,26.818-18.989,26.916-19.118
			c6.005,7.295,9.901,16.394,10.784,26.351c0.112,1.271,0.182,2.553,0.197,3.847C147.591,99.368,131.243,95.85,114.644,97.938z"/>
	</g>
	<g id="Bloglovein" display="inline">
		<circle fill="none" stroke="#CCCCCC" stroke-miterlimit="10" cx="100.043" cy="100" r="82.392"/>
		<g>
			<g>
				<g>
					<path fill="#CCCCCC" d="M102.529,98.531c8.852-1.836,16.195-9.831,16.195-21.54c0-12.524-9.138-23.906-27.006-23.906H42.276
						v93.827h50.993c18.031,0,27.332-11.259,27.332-25.456C120.56,109.791,112.687,100.082,102.529,98.531z M62.265,70.669h25.048
						c6.772,0,10.974,4.079,10.974,9.831c0,6.038-4.243,9.831-10.974,9.831H62.265V70.669z M88.17,129.331H62.265v-21.376H88.17
						c7.751,0,11.953,4.773,11.953,10.688C100.163,125.374,95.635,129.331,88.17,129.331z M145.2,53.249
						c-6.038,0-11.137,5.059-11.137,11.096c0,6.038,4.243,10.117,9.587,10.117c1.142,0,2.244-0.122,2.692-0.408
						c-1.142,5.059-6.323,10.974-10.851,13.381l7.751,6.323c8.689-6.16,14.482-15.584,14.482-26.149
						C157.724,58.471,151.809,53.249,145.2,53.249z"/>
				</g>
			</g>
		</g>
	</g>
</g>
<g id="SVG-Light_Sage_copy" display="none">
	<g id="INSTAGRAM_copy_2" display="inline">
		<circle fill="none" stroke="#B8CDC9" stroke-width="2" stroke-miterlimit="10" cx="100" cy="100" r="82.392"/>
		<g>
			<path fill-rule="evenodd" fill="#B8CDC9" d="M137.251,99.999c0-20.575-16.675-37.249-37.249-37.249
				c-20.578,0-37.251,16.674-37.251,37.249c0,20.576,16.673,37.25,37.251,37.25C120.576,137.25,137.251,120.575,137.251,99.999
				L137.251,99.999z M136.545,57.69c-3.326,0-5.996,2.693-5.996,5.993c0,3.324,2.669,5.993,5.996,5.993
				c3.299,0,5.992-2.669,5.992-5.993C142.537,60.383,139.844,57.69,136.545,57.69L136.545,57.69z M69.554,49.075h60.897
				c11.28,0,20.475,9.219,20.475,20.476v60.897c0,11.284-9.195,20.476-20.475,20.476H69.554c-11.259,0-20.48-9.192-20.48-20.476
				V69.55C49.074,58.294,58.295,49.075,69.554,49.075L69.554,49.075z M130.451,42.252H69.554c-15.011,0-27.304,12.287-27.304,27.299
				v60.897c0,15.037,12.293,27.301,27.304,27.301h60.897c15.034,0,27.299-12.264,27.299-27.301V69.55
				C157.75,54.539,145.485,42.252,130.451,42.252L130.451,42.252z M70.485,99.999c0-16.296,13.222-29.517,29.517-29.517
				c16.292,0,29.514,13.221,29.514,29.517s-13.222,29.517-29.514,29.517C83.707,129.517,70.485,116.295,70.485,99.999L70.485,99.999
				z"/>
		</g>
	</g>
	<g id="Tweeter_copy_2" display="inline">
		<circle fill="none" stroke="#B8CDC9" stroke-width="2" stroke-miterlimit="10" cx="100" cy="100" r="82.392"/>
		<path id="XMLID_78_" fill="#B8CDC9" d="M158.649,64.192c-4.311,1.888-8.947,3.156-13.82,3.729
			c4.975-2.93,8.783-7.569,10.586-13.108c-4.648,2.718-9.807,4.691-15.285,5.752c-4.386-4.602-10.642-7.481-17.561-7.481
			c-13.287,0-24.063,10.611-24.063,23.691c0,1.859,0.219,3.656,0.618,5.396c-19.993-0.988-37.73-10.42-49.592-24.751
			c-2.07,3.497-3.263,7.567-3.263,11.91c0,8.215,4.256,15.462,10.707,19.713c-3.941-0.122-7.655-1.187-10.901-2.962
			c0,0.1,0,0.2,0,0.299c0,3.03,0.592,5.92,1.649,8.584c2.94,7.429,9.553,13.04,17.658,14.65c-2.025,0.533-4.145,0.831-6.346,0.831
			c-1.547,0-3.053-0.149-4.526-0.43c3.067,9.409,11.952,16.261,22.48,16.451c-8.241,6.357-18.61,10.143-29.889,10.143
			c-1.944,0-3.857-0.114-5.747-0.333c10.659,6.721,23.315,10.644,36.89,10.644c37.62,0,60.737-26.061,66.835-53.099
			c1.081-4.778,1.637-9.589,1.637-14.3c0-1.02-0.021-2.047-0.064-3.063C151.346,73.118,155.432,68.946,158.649,64.192z"/>
	</g>
	<g id="Behance_copy_2" display="inline">
		<circle fill="none" stroke="#B8CDC9" stroke-width="2" stroke-miterlimit="10" cx="100" cy="100" r="82.392"/>
		<g>
			<path fill="#B8CDC9" d="M56.59,103.589h18.041c3.998,0,10.863,1.737,10.863,9.422c0,3.996-3.175,8.707-7.172,8.707H56.59V103.589
				z M114.503,67.422h32.494v10.861h-32.494V67.422z M142.689,103.589h-23.884c0.826-6.455,5.641-10.756,11.995-10.756
				C137.054,92.833,141.663,97.24,142.689,103.589L142.689,103.589z M118.092,110.864h39.771c0-0.617,0-1.23,0-1.847
				c0-14.958-10.765-27.045-27.063-27.045c-16.399,0-27.166,12.086-27.166,27.045c0,15.063,10.767,27.147,27.166,27.147
				c16.298,0,24.089-9.321,26.545-21.713h-14.656c-1.333,6.35-5.126,10.861-11.89,10.861
				C123.932,125.311,118.603,118.956,118.092,110.864L118.092,110.864z M100.053,114.451c0-7.89-5.231-14.651-12.304-17.111
				c5.125-3.178,8.61-8.913,8.61-15.368c0-10.039-8.095-18.135-18.04-18.135H42.137v72.328h36.184
				C90.212,136.164,100.053,126.434,100.053,114.451L100.053,114.451z M74.631,92.833H56.59v-14.55h18.041
				c3.998,0,7.281,3.277,7.281,7.271C81.912,89.549,78.628,92.833,74.631,92.833L74.631,92.833z"/>
		</g>
	</g>
	<g id="Pinterest_copy_2" display="inline">
		<circle fill="none" stroke="#B8CDC9" stroke-width="2" stroke-miterlimit="10" cx="100" cy="100" r="82.392"/>
		<path id="XMLID_77_" fill="#B8CDC9" d="M102.777,42.553c-32.392,0.002-48.735,22.482-48.735,41.226
			c0,3.462,0.419,6.807,1.266,9.895c1.923,7.024,6.086,12.698,12.692,15.32c1.573,0.613,2.971,0.024,3.421-1.658
			c0.314-1.159,1.059-4.073,1.397-5.302c0.447-1.656,0.281-2.229-0.98-3.673c-1.656-1.881-2.935-4.105-3.706-6.817
			c-0.513-1.811-0.805-3.827-0.805-6.123c0-16.679,12.905-31.613,33.58-31.613c18.31,0,28.377,10.831,28.377,25.291
			c0,4.256-0.436,8.366-1.259,12.183c-2.85,13.228-10.332,22.906-20.352,22.906c-7.143,0-12.486-5.707-10.774-12.71
			c0.979-3.986,2.391-8.114,3.6-12.005c1.333-4.274,2.423-8.255,2.423-11.415c0-5.399-2.998-9.902-9.194-9.902
			c-7.301,0-13.163,7.299-13.163,17.075c0,1.843,0.2,3.504,0.463,4.934c0.643,3.417,1.719,5.518,1.719,5.518
			s-7.466,30.59-8.773,35.957c-2.601,10.677-0.394,23.76-0.203,25.078c0.109,0.784,1.154,0.97,1.625,0.382
			c0.673-0.846,9.359-11.23,12.312-21.598c0.836-2.94,4.795-18.137,4.795-18.137c2.369,4.376,9.297,8.221,16.659,8.221
			c17.854,0,31.032-12.834,35.306-31.583c0.98-4.271,1.491-8.845,1.491-13.647C145.958,60.781,128.821,42.553,102.777,42.553z"/>
	</g>
	<g id="E-Mail_copy_2" display="inline">
		<circle fill="none" stroke="#B8CDC9" stroke-width="2" stroke-miterlimit="10" cx="100" cy="100" r="82.392"/>
		<g>
			<path fill="#B8CDC9" d="M49.584,61.092l50.794,51.706l50.275-51.686c0.188-0.192,0.429-0.28,0.637-0.435
				c-2.366-1.964-5.3-3.177-8.536-3.177H57.248c-3.182,0-6.083,1.173-8.427,3.079C49.078,60.759,49.364,60.857,49.584,61.092z"/>
			<path fill="#B8CDC9" d="M154.32,132.22c0.491,0.247,0.944,0.588,1.336,0.999c0.643-1.692,1.016-3.536,1.016-5.472V72.251
				c0-0.882-0.102-1.737-0.242-2.577l-30.88,31.739C138.008,115.246,151.417,129.725,154.32,132.22z"/>
			<path fill="#B8CDC9" d="M118.499,108.664l-14.684,15.097c-0.954,0.985-2.186,1.47-3.42,1.47c-1.229,0-2.451-0.484-3.4-1.452
				l-15.099-15.372l-30.896,32.456c1.888,1.01,3.99,1.637,6.249,1.637h85.505c2.242,0,4.328-0.617,6.208-1.616
				C144.91,137.878,137.151,129.429,118.499,108.664z"/>
			<path fill="#B8CDC9" d="M43.594,69.425c-0.166,0.916-0.266,1.856-0.266,2.826v55.497c0,1.931,0.374,3.77,1.009,5.46l30.473-32.01
				L43.594,69.425z"/>
		</g>
	</g>
	<g id="Facebook_copy_2" display="inline">
		<circle fill="none" stroke="#B8CDC9" stroke-width="2" stroke-miterlimit="10" cx="100" cy="100" r="82.392"/>
		<g>
			<path fill="#B8CDC9" d="M72.397,75.662h12.012v-6.11c0-6.914,0.755-12.039,2.168-15.378c1.48-3.432,4.161-6.066,8.109-8.23
				c3.882-2.164,8.843-3.196,14.884-3.196c6.137,0,12.11,0.892,18.032,2.726l-2.915,15.049c-3.455-0.8-6.773-1.222-9.923-1.222
				c-3.15,0-5.358,0.752-6.7,2.257c-1.409,1.41-2.045,4.231-2.045,8.371v5.734h16.154v17.025h-16.154v64.565h-21.61V92.688H72.397
				V75.662z"/>
		</g>
	</g>
	<g id="Linked-in_copy_2" display="inline">
		<circle fill="none" stroke="#B8CDC9" stroke-width="2" stroke-miterlimit="10" cx="100.043" cy="100" r="82.392"/>
		<g>
			<polygon id="XMLID_76_" fill="#B8CDC9" points="50.187,101.022 50.187,149.812 73.435,149.812 73.435,97.099 73.435,83.397 
				50.187,83.397 			"/>
			<path id="XMLID_75_" fill="#B8CDC9" d="M61.813,50.188c-6.421,0-11.626,5.206-11.626,11.625c0,6.418,5.205,11.622,11.626,11.622
				c6.419,0,11.622-5.204,11.622-11.622C73.435,55.394,68.232,50.188,61.813,50.188z"/>
			<path id="XMLID_74_" fill="#B8CDC9" d="M149.303,103.79c-1.574-12.52-7.326-20.393-24.248-20.393
				c-10.039,0-16.781,3.729-19.534,8.963h-0.287v-8.963H86.717V96.14v53.672h19.354v-32.918c0-8.682,1.639-17.084,12.378-17.084
				c10.58,0,11.43,9.924,11.43,17.645v32.357h19.93v-36.497h0.004C149.813,109.909,149.669,106.723,149.303,103.79z"/>
		</g>
	</g>
	<g id="Dribble_copy_2" display="inline">
		<circle fill="none" stroke="#B8CDC9" stroke-width="2" stroke-miterlimit="10" cx="100.043" cy="100" r="82.392"/>
		<path fill="#B8CDC9" d="M156.509,97.887c-0.118-3.124-0.475-6.237-1.098-9.27c-0.742-3.637-1.85-7.219-3.298-10.635
			c-1.42-3.358-3.177-6.587-5.218-9.607c-2.021-2.993-4.341-5.812-6.9-8.37c-2.558-2.558-5.374-4.881-8.365-6.905
			c-3.025-2.045-6.261-3.794-9.612-5.217c-3.418-1.441-6.995-2.556-10.632-3.295c-3.72-0.759-7.551-1.151-11.383-1.151
			c-3.832,0-7.666,0.392-11.391,1.154c-3.636,0.739-7.211,1.855-10.624,3.297c-3.356,1.42-6.587,3.169-9.61,5.217
			c-2.999,2.021-5.812,4.344-8.375,6.905c-2.55,2.557-4.873,5.375-6.899,8.37c-2.045,3.02-3.8,6.251-5.21,9.607
			c-1.447,3.417-2.563,6.993-3.306,10.63c-0.587,2.867-0.945,5.804-1.082,8.752c-0.04,0.878-0.064,1.752-0.064,2.628
			c0,3.839,0.385,7.669,1.146,11.398c0.743,3.634,1.859,7.207,3.306,10.621c1.41,3.356,3.166,6.593,5.21,9.615
			c2.026,2.991,4.349,5.805,6.899,8.368c2.563,2.553,5.375,4.875,8.375,6.899c3.023,2.042,6.254,3.8,9.61,5.218
			c3.413,1.447,6.992,2.552,10.624,3.298c3.719,0.766,7.559,1.148,11.391,1.148c3.835,0,7.663-0.379,11.383-1.148
			c3.637-0.747,7.214-1.851,10.632-3.298c3.351-1.418,6.587-3.177,9.612-5.218c2.991-2.024,5.807-4.346,8.365-6.899
			c2.56-2.563,4.88-5.377,6.9-8.368c2.042-3.022,3.799-6.259,5.218-9.615c1.449-3.413,2.557-6.987,3.298-10.621
			c0.763-3.728,1.151-7.564,1.151-11.398C156.561,99.294,156.534,98.589,156.509,97.887z M100.001,51.696
			c12.229,0,23.389,4.558,31.905,12.05c-0.12,0.19-6.999,10.662-25.234,17.494C98.418,66.07,89.343,54.016,88.614,53.057
			C92.266,52.176,96.074,51.696,100.001,51.696z M88.432,53.1c-0.003,0.005-0.011,0.008-0.011,0.008s-0.057,0.018-0.149,0.035
			C88.326,53.126,88.382,53.118,88.432,53.1z M79.389,56.311c0.641,0.865,9.578,12.973,17.939,27.835
			c-23.191,6.165-43.321,5.924-44.6,5.901C55.866,75.084,65.911,62.677,79.389,56.311z M64.074,132.287
			c-7.695-8.563-12.378-19.875-12.378-32.289c0-0.513,0.019-1.023,0.04-1.524c0.852,0.019,24.719,0.558,49.588-6.883
			c1.385,2.713,2.711,5.461,3.919,8.21c-0.638,0.182-1.271,0.373-1.904,0.577c-26.065,8.424-39.289,31.88-39.289,31.88
			S64.068,132.279,64.074,132.287z M100.001,148.308c-11.201,0-21.483-3.843-29.68-10.24l-0.005,0.018c0,0-0.448-0.334-1.086-0.847
			c0.353,0.291,0.726,0.547,1.091,0.83c0.089-0.187,9.385-20.226,37.899-30.158c0.107-0.042,0.216-0.074,0.321-0.102
			c6.8,17.659,9.605,32.452,10.319,36.675C113.063,146.94,106.685,148.308,100.001,148.308z M126.993,140.067
			c-0.496-2.918-3.065-17.093-9.406-34.504c15.599-2.491,29.114,1.786,30.104,2.107
			C145.542,121.132,137.833,132.746,126.993,140.067z M114.644,97.938c-0.344-0.83-0.687-1.655-1.042-2.496
			c-0.726-1.703-1.501-3.393-2.293-5.067c-0.302-0.647-0.604-1.298-0.916-1.935c19.078-7.784,26.818-18.989,26.916-19.118
			c6.005,7.295,9.901,16.394,10.784,26.351c0.112,1.271,0.182,2.553,0.197,3.847C147.591,99.368,131.243,95.85,114.644,97.938z"/>
	</g>
	<g id="Bloglovein_copy_2" display="inline">
		<circle fill="none" stroke="#B8CDC9" stroke-width="2" stroke-miterlimit="10" cx="100.043" cy="100" r="82.392"/>
		<g>
			<g>
				<g>
					<path fill="#B8CDC9" d="M102.529,98.531c8.852-1.836,16.195-9.831,16.195-21.54c0-12.524-9.138-23.906-27.006-23.906H42.276
						v93.827h50.993c18.031,0,27.332-11.259,27.332-25.456C120.56,109.791,112.687,100.082,102.529,98.531z M62.265,70.669h25.048
						c6.772,0,10.974,4.079,10.974,9.831c0,6.038-4.243,9.831-10.974,9.831H62.265V70.669z M88.17,129.331H62.265v-21.376H88.17
						c7.751,0,11.953,4.773,11.953,10.688C100.163,125.374,95.635,129.331,88.17,129.331z M145.2,53.249
						c-6.038,0-11.137,5.059-11.137,11.096c0,6.038,4.243,10.117,9.587,10.117c1.142,0,2.244-0.122,2.692-0.408
						c-1.142,5.059-6.323,10.974-10.851,13.381l7.751,6.323c8.689-6.16,14.482-15.584,14.482-26.149
						C157.724,58.471,151.809,53.249,145.2,53.249z"/>
				</g>
			</g>
		</g>
	</g>
</g>
<g id="SVG-Dark_Sage">
	<g id="INSTAGRAM_copy" display="none">
		<circle display="inline" fill="none" stroke="#849995" stroke-miterlimit="10" cx="100" cy="100" r="82.392"/>
		<g display="inline">
			<path fill-rule="evenodd" fill="#849995" d="M137.251,99.999c0-20.575-16.675-37.249-37.249-37.249
				c-20.578,0-37.251,16.674-37.251,37.249c0,20.576,16.673,37.25,37.251,37.25C120.576,137.25,137.251,120.575,137.251,99.999
				L137.251,99.999z M136.545,57.69c-3.326,0-5.996,2.693-5.996,5.993c0,3.324,2.669,5.993,5.996,5.993
				c3.299,0,5.992-2.669,5.992-5.993C142.537,60.383,139.844,57.69,136.545,57.69L136.545,57.69z M69.554,49.075h60.897
				c11.28,0,20.475,9.219,20.475,20.476v60.897c0,11.284-9.195,20.476-20.475,20.476H69.554c-11.259,0-20.48-9.192-20.48-20.476
				V69.55C49.074,58.294,58.295,49.075,69.554,49.075L69.554,49.075z M130.451,42.252H69.554c-15.011,0-27.304,12.287-27.304,27.299
				v60.897c0,15.037,12.293,27.301,27.304,27.301h60.897c15.034,0,27.299-12.264,27.299-27.301V69.55
				C157.75,54.539,145.485,42.252,130.451,42.252L130.451,42.252z M70.485,99.999c0-16.296,13.222-29.517,29.517-29.517
				c16.292,0,29.514,13.221,29.514,29.517s-13.222,29.517-29.514,29.517C83.707,129.517,70.485,116.295,70.485,99.999L70.485,99.999
				z"/>
		</g>
	</g>
	<g id="Tweeter_copy" display="none">
		<circle display="inline" fill="none" stroke="#849995" stroke-miterlimit="10" cx="100" cy="100" r="82.392"/>
		<path id="XMLID_65_" display="inline" fill="#849995" d="M158.649,64.192c-4.311,1.888-8.947,3.156-13.82,3.729
			c4.975-2.93,8.783-7.569,10.586-13.108c-4.648,2.718-9.807,4.691-15.285,5.752c-4.386-4.602-10.642-7.481-17.561-7.481
			c-13.287,0-24.063,10.611-24.063,23.691c0,1.859,0.219,3.656,0.618,5.396c-19.993-0.988-37.73-10.42-49.592-24.751
			c-2.07,3.497-3.263,7.567-3.263,11.91c0,8.215,4.256,15.462,10.707,19.713c-3.941-0.122-7.655-1.187-10.901-2.962
			c0,0.1,0,0.2,0,0.299c0,3.03,0.592,5.92,1.649,8.584c2.94,7.429,9.553,13.04,17.658,14.65c-2.025,0.533-4.145,0.831-6.346,0.831
			c-1.547,0-3.053-0.149-4.526-0.43c3.067,9.409,11.952,16.261,22.48,16.451c-8.241,6.357-18.61,10.143-29.889,10.143
			c-1.944,0-3.857-0.114-5.747-0.333c10.659,6.721,23.315,10.644,36.89,10.644c37.62,0,60.737-26.061,66.835-53.099
			c1.081-4.778,1.637-9.589,1.637-14.3c0-1.02-0.021-2.047-0.064-3.063C151.346,73.118,155.432,68.946,158.649,64.192z"/>
	</g>
	<g id="Behance_copy" display="none">
		<circle display="inline" fill="none" stroke="#849995" stroke-miterlimit="10" cx="100" cy="100" r="82.392"/>
		<g display="inline">
			<path fill="#849995" d="M56.59,103.589h18.041c3.998,0,10.863,1.737,10.863,9.422c0,3.996-3.175,8.707-7.172,8.707H56.59V103.589
				z M114.503,67.422h32.494v10.861h-32.494V67.422z M142.689,103.589h-23.884c0.826-6.455,5.641-10.756,11.995-10.756
				C137.054,92.833,141.663,97.24,142.689,103.589L142.689,103.589z M118.092,110.864h39.771c0-0.617,0-1.23,0-1.847
				c0-14.958-10.765-27.045-27.063-27.045c-16.399,0-27.166,12.086-27.166,27.045c0,15.063,10.767,27.147,27.166,27.147
				c16.298,0,24.089-9.321,26.545-21.713h-14.656c-1.333,6.35-5.126,10.861-11.89,10.861
				C123.932,125.311,118.603,118.956,118.092,110.864L118.092,110.864z M100.053,114.451c0-7.89-5.231-14.651-12.304-17.111
				c5.125-3.178,8.61-8.913,8.61-15.368c0-10.039-8.095-18.135-18.04-18.135H42.137v72.328h36.184
				C90.212,136.164,100.053,126.434,100.053,114.451L100.053,114.451z M74.631,92.833H56.59v-14.55h18.041
				c3.998,0,7.281,3.277,7.281,7.271C81.912,89.549,78.628,92.833,74.631,92.833L74.631,92.833z"/>
		</g>
	</g>
	<g id="Pinterest_copy" display="none">
		<circle display="inline" fill="none" stroke="#849995" stroke-miterlimit="10" cx="100" cy="100" r="82.392"/>
		<path id="XMLID_64_" display="inline" fill="#849995" d="M102.777,42.553c-32.392,0.002-48.735,22.482-48.735,41.226
			c0,3.462,0.419,6.807,1.266,9.895c1.923,7.024,6.086,12.698,12.692,15.32c1.573,0.613,2.971,0.024,3.421-1.658
			c0.314-1.159,1.059-4.073,1.397-5.302c0.447-1.656,0.281-2.229-0.98-3.673c-1.656-1.881-2.935-4.105-3.706-6.817
			c-0.513-1.811-0.805-3.827-0.805-6.123c0-16.679,12.905-31.613,33.58-31.613c18.31,0,28.377,10.831,28.377,25.291
			c0,4.256-0.436,8.366-1.259,12.183c-2.85,13.228-10.332,22.906-20.352,22.906c-7.143,0-12.486-5.707-10.774-12.71
			c0.979-3.986,2.391-8.114,3.6-12.005c1.333-4.274,2.423-8.255,2.423-11.415c0-5.399-2.998-9.902-9.194-9.902
			c-7.301,0-13.163,7.299-13.163,17.075c0,1.843,0.2,3.504,0.463,4.934c0.643,3.417,1.719,5.518,1.719,5.518
			s-7.466,30.59-8.773,35.957c-2.601,10.677-0.394,23.76-0.203,25.078c0.109,0.784,1.154,0.97,1.625,0.382
			c0.673-0.846,9.359-11.23,12.312-21.598c0.836-2.94,4.795-18.137,4.795-18.137c2.369,4.376,9.297,8.221,16.659,8.221
			c17.854,0,31.032-12.834,35.306-31.583c0.98-4.271,1.491-8.845,1.491-13.647C145.958,60.781,128.821,42.553,102.777,42.553z"/>
	</g>
	<g id="E-Mail_copy" display="none">
		<circle display="inline" fill="none" stroke="#849995" stroke-miterlimit="10" cx="100" cy="100" r="82.392"/>
		<g display="inline">
			<path fill="#849995" d="M49.584,61.092l50.794,51.706l50.275-51.686c0.188-0.192,0.429-0.28,0.637-0.435
				c-2.366-1.964-5.3-3.177-8.536-3.177H57.248c-3.182,0-6.083,1.173-8.427,3.079C49.078,60.759,49.364,60.857,49.584,61.092z"/>
			<path fill="#849995" d="M154.32,132.22c0.491,0.247,0.944,0.588,1.336,0.999c0.643-1.692,1.016-3.536,1.016-5.472V72.251
				c0-0.882-0.102-1.737-0.242-2.577l-30.88,31.739C138.008,115.246,151.417,129.725,154.32,132.22z"/>
			<path fill="#849995" d="M118.499,108.664l-14.684,15.097c-0.954,0.985-2.186,1.47-3.42,1.47c-1.229,0-2.451-0.484-3.4-1.452
				l-15.099-15.372l-30.896,32.456c1.888,1.01,3.99,1.637,6.249,1.637h85.505c2.242,0,4.328-0.617,6.208-1.616
				C144.91,137.878,137.151,129.429,118.499,108.664z"/>
			<path fill="#849995" d="M43.594,69.425c-0.166,0.916-0.266,1.856-0.266,2.826v55.497c0,1.931,0.374,3.77,1.009,5.46l30.473-32.01
				L43.594,69.425z"/>
		</g>
	</g>
	<g id="Facebook_copy" display="none">
		<circle display="inline" fill="none" stroke="#849995" stroke-miterlimit="10" cx="100" cy="100" r="82.392"/>
		<g display="inline">
			<path fill="#849995" d="M72.397,75.662h12.012v-6.11c0-6.914,0.755-12.039,2.168-15.378c1.48-3.432,4.161-6.066,8.109-8.23
				c3.882-2.164,8.843-3.196,14.884-3.196c6.137,0,12.11,0.892,18.032,2.726l-2.915,15.049c-3.455-0.8-6.773-1.222-9.923-1.222
				c-3.15,0-5.358,0.752-6.7,2.257c-1.409,1.41-2.045,4.231-2.045,8.371v5.734h16.154v17.025h-16.154v64.565h-21.61V92.688H72.397
				V75.662z"/>
		</g>
	</g>
	<g id="Linked-in_copy" display="none">
		<circle display="inline" fill="none" stroke="#849995" stroke-miterlimit="10" cx="100.043" cy="100" r="82.392"/>
		<g display="inline">
			<polygon id="XMLID_61_" fill="#849995" points="50.187,101.022 50.187,149.812 73.435,149.812 73.435,97.099 73.435,83.397 
				50.187,83.397 			"/>
			<path id="XMLID_60_" fill="#849995" d="M61.813,50.188c-6.421,0-11.626,5.206-11.626,11.625c0,6.418,5.205,11.622,11.626,11.622
				c6.419,0,11.622-5.204,11.622-11.622C73.435,55.394,68.232,50.188,61.813,50.188z"/>
			<path id="XMLID_59_" fill="#849995" d="M149.303,103.79c-1.574-12.52-7.326-20.393-24.248-20.393
				c-10.039,0-16.781,3.729-19.534,8.963h-0.287v-8.963H86.717V96.14v53.672h19.354v-32.918c0-8.682,1.639-17.084,12.378-17.084
				c10.58,0,11.43,9.924,11.43,17.645v32.357h19.93v-36.497h0.004C149.813,109.909,149.669,106.723,149.303,103.79z"/>
		</g>
	</g>
	<g id="Dribble_copy" display="none">
		<circle display="inline" fill="none" stroke="#849995" stroke-miterlimit="10" cx="100.043" cy="100" r="82.392"/>
		<path display="inline" fill="#849995" d="M156.509,97.887c-0.118-3.124-0.475-6.237-1.098-9.27
			c-0.742-3.637-1.85-7.219-3.298-10.635c-1.42-3.358-3.177-6.587-5.218-9.607c-2.021-2.993-4.341-5.812-6.9-8.37
			c-2.558-2.558-5.374-4.881-8.365-6.905c-3.025-2.045-6.261-3.794-9.612-5.217c-3.418-1.441-6.995-2.556-10.632-3.295
			c-3.72-0.759-7.551-1.151-11.383-1.151c-3.832,0-7.666,0.392-11.391,1.154c-3.636,0.739-7.211,1.855-10.624,3.297
			c-3.356,1.42-6.587,3.169-9.61,5.217c-2.999,2.021-5.812,4.344-8.375,6.905c-2.55,2.557-4.873,5.375-6.899,8.37
			c-2.045,3.02-3.8,6.251-5.21,9.607c-1.447,3.417-2.563,6.993-3.306,10.63c-0.587,2.867-0.945,5.804-1.082,8.752
			c-0.04,0.878-0.064,1.752-0.064,2.628c0,3.839,0.385,7.669,1.146,11.398c0.743,3.634,1.859,7.207,3.306,10.621
			c1.41,3.356,3.166,6.593,5.21,9.615c2.026,2.991,4.349,5.805,6.899,8.368c2.563,2.553,5.375,4.875,8.375,6.899
			c3.023,2.042,6.254,3.8,9.61,5.218c3.413,1.447,6.992,2.552,10.624,3.298c3.719,0.766,7.559,1.148,11.391,1.148
			c3.835,0,7.663-0.379,11.383-1.148c3.637-0.747,7.214-1.851,10.632-3.298c3.351-1.418,6.587-3.177,9.612-5.218
			c2.991-2.024,5.807-4.346,8.365-6.899c2.56-2.563,4.88-5.377,6.9-8.368c2.042-3.022,3.799-6.259,5.218-9.615
			c1.449-3.413,2.557-6.987,3.298-10.621c0.763-3.728,1.151-7.564,1.151-11.398C156.561,99.294,156.534,98.589,156.509,97.887z
			 M100.001,51.696c12.229,0,23.389,4.558,31.905,12.05c-0.12,0.19-6.999,10.662-25.234,17.494
			C98.418,66.07,89.343,54.016,88.614,53.057C92.266,52.176,96.074,51.696,100.001,51.696z M88.432,53.1
			c-0.003,0.005-0.011,0.008-0.011,0.008s-0.057,0.018-0.149,0.035C88.326,53.126,88.382,53.118,88.432,53.1z M79.389,56.311
			c0.641,0.865,9.578,12.973,17.939,27.835c-23.191,6.165-43.321,5.924-44.6,5.901C55.866,75.084,65.911,62.677,79.389,56.311z
			 M64.074,132.287c-7.695-8.563-12.378-19.875-12.378-32.289c0-0.513,0.019-1.023,0.04-1.524
			c0.852,0.019,24.719,0.558,49.588-6.883c1.385,2.713,2.711,5.461,3.919,8.21c-0.638,0.182-1.271,0.373-1.904,0.577
			c-26.065,8.424-39.289,31.88-39.289,31.88S64.068,132.279,64.074,132.287z M100.001,148.308c-11.201,0-21.483-3.843-29.68-10.24
			l-0.005,0.018c0,0-0.448-0.334-1.086-0.847c0.353,0.291,0.726,0.547,1.091,0.83c0.089-0.187,9.385-20.226,37.899-30.158
			c0.107-0.042,0.216-0.074,0.321-0.102c6.8,17.659,9.605,32.452,10.319,36.675C113.063,146.94,106.685,148.308,100.001,148.308z
			 M126.993,140.067c-0.496-2.918-3.065-17.093-9.406-34.504c15.599-2.491,29.114,1.786,30.104,2.107
			C145.542,121.132,137.833,132.746,126.993,140.067z M114.644,97.938c-0.344-0.83-0.687-1.655-1.042-2.496
			c-0.726-1.703-1.501-3.393-2.293-5.067c-0.302-0.647-0.604-1.298-0.916-1.935c19.078-7.784,26.818-18.989,26.916-19.118
			c6.005,7.295,9.901,16.394,10.784,26.351c0.112,1.271,0.182,2.553,0.197,3.847C147.591,99.368,131.243,95.85,114.644,97.938z"/>
	</g>
	<g id="Bloglovein_copy">
		<circle fill="none" stroke="#849995" stroke-miterlimit="10" cx="100.043" cy="100" r="82.392"/>
		<g>
			<g>
				<g>
					<path fill="#849995" d="M102.529,98.531c8.852-1.836,16.195-9.831,16.195-21.54c0-12.524-9.138-23.906-27.006-23.906H42.276
						v93.827h50.993c18.031,0,27.332-11.259,27.332-25.456C120.56,109.791,112.687,100.082,102.529,98.531z M62.265,70.669h25.048
						c6.772,0,10.974,4.079,10.974,9.831c0,6.038-4.243,9.831-10.974,9.831H62.265V70.669z M88.17,129.331H62.265v-21.376H88.17
						c7.751,0,11.953,4.773,11.953,10.688C100.163,125.374,95.635,129.331,88.17,129.331z M145.2,53.249
						c-6.038,0-11.137,5.059-11.137,11.096c0,6.038,4.243,10.117,9.587,10.117c1.142,0,2.244-0.122,2.692-0.408
						c-1.142,5.059-6.323,10.974-10.851,13.381l7.751,6.323c8.689-6.16,14.482-15.584,14.482-26.149
						C157.724,58.471,151.809,53.249,145.2,53.249z"/>
				</g>
			</g>
		</g>
	</g>
</g>
</svg>
