<?xml version="1.0" standalone="no"?>
<!DOCTYPE svg PUBLIC "-//W3C//DTD SVG 20010904//EN"
 "http://www.w3.org/TR/2001/REC-SVG-20010904/DTD/svg10.dtd">
<svg version="1.0" xmlns="http://www.w3.org/2000/svg"
 width="600.000000pt" height="600.000000pt" viewBox="0 0 600.000000 600.000000"
 preserveAspectRatio="xMidYMid meet">
<metadata>
Created by potrace 1.11, written by Peter Selinger 2001-2013
</metadata>
<g transform="translate(0.000000,600.000000) scale(0.100000,-0.100000)"
fill="#000000" stroke="none">
<path d="M4718 5755 c-1 -1 -25 -5 -53 -9 -27 -3 -61 -8 -75 -12 -14 -3 -38
-7 -55 -10 -68 -12 -284 -78 -384 -118 -342 -138 -629 -331 -887 -596 -103
-106 -132 -140 -219 -255 -121 -159 -205 -297 -300 -490 -106 -216 -143 -312
-235 -600 -45 -144 -144 -610 -142 -676 0 -9 -33 -58 -75 -110 -77 -97 -314
-410 -368 -487 -16 -24 -67 -96 -113 -160 -45 -64 -85 -124 -89 -132 -3 -8
-14 -24 -23 -35 -25 -31 -131 -199 -251 -399 -139 -232 -130 -220 -124 -168 2
24 6 46 9 50 2 4 7 29 10 56 4 27 9 52 10 55 2 3 6 33 10 66 3 33 8 76 10 95
3 19 7 74 11 122 5 73 13 105 51 195 117 277 247 686 287 903 52 278 50 267
72 455 15 130 21 464 11 590 -21 259 -89 559 -173 759 -60 143 -223 424 -281
484 -17 18 -22 14 -146 -112 -254 -258 -477 -595 -588 -886 -5 -14 -9 -26 -9
-28 1 -1 -6 -16 -14 -32 -17 -33 -80 -254 -90 -316 -3 -22 -8 -52 -11 -69 -26
-165 -25 -421 1 -545 3 -14 8 -41 11 -60 17 -115 98 -350 170 -492 55 -110
218 -365 254 -398 3 -3 39 -45 80 -95 41 -49 126 -141 189 -203 l113 -113 -6
-87 c-3 -48 -8 -98 -10 -112 -3 -14 -7 -44 -10 -67 -3 -22 -7 -52 -10 -65 -3
-12 -8 -40 -11 -61 -12 -85 -64 -278 -111 -410 -19 -53 -72 -175 -118 -270
-109 -226 -204 -440 -256 -580 -26 -69 -20 -100 18 -95 22 3 30 14 59 88 18
47 37 94 42 105 5 11 21 49 36 85 71 167 246 532 335 695 105 195 119 212 280
347 158 133 449 296 685 383 130 48 347 115 373 115 12 0 43 -13 69 -28 215
-126 487 -232 733 -287 8 -2 35 -8 60 -14 44 -10 63 -13 205 -30 70 -9 401 -7
442 2 11 3 43 9 70 12 69 10 196 42 283 72 380 131 728 401 1008 781 l61 83
-32 28 c-96 82 -160 126 -302 205 -183 102 -398 173 -615 203 -71 10 -370 10
-435 0 -294 -46 -534 -135 -799 -295 -245 -149 -471 -338 -723 -605 -43 -45
-63 -58 -110 -72 -143 -40 -317 -99 -390 -131 -17 -8 -33 -14 -36 -14 -11 0
-197 -91 -267 -130 -79 -45 -242 -152 -299 -198 -19 -15 -31 -20 -26 -12 180
308 538 823 812 1168 l117 148 71 12 c160 26 249 49 420 107 401 135 752 352
1033 637 131 133 281 321 357 450 93 156 156 283 221 444 48 120 126 370 139
447 3 17 7 33 9 36 7 10 55 283 62 346 3 33 8 67 9 76 3 15 10 88 20 215 4 50
4 51 -25 52 -15 0 -30 -1 -32 -3z"/>
</g>
</svg>
