<svg version="1.2" baseProfile="tiny" xmlns="http://www.w3.org/2000/svg" viewBox="0 0 200 200"><circle fill="none" stroke="#B8CDC9" stroke-width="2" stroke-miterlimit="10" cx="100" cy="100" r="82.4"/><path fill="#B8CDC9" d="M56.6 103.6h18c4 0 10.9 1.7 10.9 9.4 0 4-3.2 8.7-7.2 8.7H56.6v-18.1zm57.9-36.2H147v10.9h-32.5V67.4zm28.2 36.2h-23.9c.8-6.5 5.6-10.8 12-10.8 6.3 0 10.9 4.4 11.9 10.8zm-24.6 7.3h39.8V109c0-15-10.8-27-27.1-27-16.4 0-27.2 12-27.2 27s10.8 27.2 27.2 27.2c16.3 0 24-9.4 26.5-21.7h-14.6c-1.3 6.3-5.1 10.8-11.9 10.8-6.9 0-12.2-6.3-12.7-14.4zm-18 3.6c0-8-5.3-14.7-12.4-17.2 5.2-3.1 8.7-8.9 8.7-15.3a18 18 0 0 0-18-18.2H42v72.4h36.2c12 0 21.8-9.8 21.8-21.7zM74.6 92.8h-18V78.3h18c4 0 7.3 3.3 7.3 7.3s-3.3 7.2-7.3 7.2z"/></svg>