<svg xmlns="http://www.w3.org/2000/svg" viewBox="-222 314.2 165.8 165.8"><circle cx="-138" cy="397.2" r="82.4" fill="none" stroke="#b8cdc9" stroke-miterlimit="10"/><path d="M-181.4 400.8h18c4 0 10.9 1.7 10.9 9.4 0 4-3.2 8.7-7.2 8.7h-21.7v-18.1zm57.9-36.2H-91v10.9h-32.5v-10.9zm28.2 36.2h-23.9c.8-6.5 5.6-10.8 12-10.8 6.3 0 10.9 4.4 11.9 10.8zm-24.6 7.3h39.8v-1.8c0-15-10.8-27-27.1-27a26.3 26.3 0 0 0-27.2 27 26.2 26.2 0 0 0 27.2 27.1c16.3 0 24.1-9.3 26.5-21.7h-14.7c-1.3 6.3-5.1 10.9-11.9 10.9-6.8-.1-12.1-6.4-12.6-14.5zm-18 3.6c0-7.9-5.2-14.7-12.3-17.1a18 18 0 0 0-9.4-33.5h-36.2v72.3h36.2c11.8 0 21.7-9.8 21.7-21.7zm-25.5-21.7h-18v-14.5h18c4 0 7.3 3.3 7.3 7.3 0 3.9-3.3 7.2-7.3 7.2z" fill="#b8cdc9"/></svg>