<svg version="1.2" baseProfile="tiny" xmlns="http://www.w3.org/2000/svg" viewBox="0 0 200 200"><circle fill="none" stroke="#B8CDC9" stroke-width="2" stroke-miterlimit="10" cx="100" cy="100" r="82.4"/><path fill="#B8CDC9" d="M102.5 98.5c8.9-1.8 16.2-9.8 16.2-21.5 0-12.5-9.1-24-27-24H42.3v94h51c18 0 27.3-11.3 27.3-25.5 0-11.7-8-21.4-18-23zM62.3 70.7h25c6.8 0 11 4 11 9.8 0 6-4.3 9.8-11 9.8h-25V70.7zm25.9 58.6h-26V108h26c7.7 0 12 4.7 12 10.6 0 6.8-4.6 10.7-12 10.7zm57-76c-6 0-11.1 5-11.1 11s4.2 10.2 9.5 10.2c1.2 0 2.3-.2 2.7-.4-1.1 5-6.3 11-10.8 13.3l7.7 6.4a32.4 32.4 0 0 0 14.5-26.2c0-9.1-5.9-14.4-12.5-14.4z"/></svg>