<svg version="1.2" baseProfile="tiny" xmlns="http://www.w3.org/2000/svg" viewBox="0 0 200 200"><circle fill="none" stroke="#B8CDC9" stroke-width="2" stroke-miterlimit="10" cx="100" cy="100" r="82.4"/><path fill="#B8CDC9" d="M156.5 97.9a56.8 56.8 0 0 0-34.5-50 56.3 56.3 0 0 0-68.9 20.5 55.6 55.6 0 0 0-8.5 43A56 56 0 0 0 78 152a56.3 56.3 0 0 0 68.9-20.5 56.6 56.6 0 0 0 9.7-31.6v-2.1zM100 51.7c12.2 0 23.4 4.6 32 12-.2.2-7 10.7-25.3 17.5a244.8 244.8 0 0 0-18-28.1c3.6-1 7.4-1.4 11.3-1.4zm-11.6 1.4h-.1.1zm-9 3.2c.6.9 9.6 13 18 27.8-23.3 6.2-43.4 6-44.7 6a48.4 48.4 0 0 1 26.7-33.8zm-15.3 76a48.1 48.1 0 0 1-12.4-33.8c.9 0 24.8.5 49.6-7l4 8.3-2 .6c-26 8.4-39.3 31.9-39.3 31.9zm35.9 16a48 48 0 0 1-29.7-10.2l-1-.9 1 .9c.1-.2 9.4-20.3 38-30.2h.2c6.8 17.6 9.6 32.4 10.4 36.6a48.3 48.3 0 0 1-18.9 3.8zm27-8.2c-.5-3-3-17.1-9.4-34.5a70.2 70.2 0 0 1 30 2 48.3 48.3 0 0 1-20.6 32.5zm-12.4-42.2a412.4 412.4 0 0 0-3.3-7.5l-1-2c19.2-7.7 27-19 27-19a48 48 0 0 1 11 30.1c-.7-.1-17-3.7-33.7-1.6z"/></svg>