<svg version="1.2" baseProfile="tiny" xmlns="http://www.w3.org/2000/svg" viewBox="0 0 165.8 165.8"><circle fill="none" stroke="#849995" stroke-miterlimit="10" cx="83" cy="83" r="82.4"/><g fill="#849995"><path d="M32.6 44.1l50.8 51.7 50.3-51.7c.2-.2.4-.3.6-.4-2.4-2-5.3-3.2-8.5-3.2H40.2c-3.2 0-6.1 1.2-8.4 3.1.3.2.6.3.8.5zM137.3 115.2c.5.2.9.6 1.3 1 .6-1.7 1-3.5 1-5.5V55.3c0-.9-.1-1.7-.2-2.6l-30.9 31.7c12.5 13.8 25.9 28.3 28.8 30.8z"/><path d="M101.5 91.7l-14.7 15.1c-1 1-2.2 1.5-3.4 1.5-1.2 0-2.5-.5-3.4-1.5L64.9 91.4 34 123.9c1.9 1 4 1.6 6.2 1.6h85.5c2.2 0 4.3-.6 6.2-1.6-4-3-11.7-11.5-30.4-32.2zM26.6 52.4c-.2.9-.3 1.9-.3 2.8v55.5c0 1.9.4 3.8 1 5.5l30.5-32-31.2-31.8z"/></g></svg>