<svg version="1.2" baseProfile="tiny" xmlns="http://www.w3.org/2000/svg" viewBox="0 0 200 200"><circle fill="none" stroke="#B8CDC9" stroke-width="2" stroke-miterlimit="10" cx="100" cy="100" r="82.4"/><g fill="#B8CDC9"><path d="M49.6 61l50.8 51.8 50.3-51.7c.1-.2.4-.3.6-.4-2.4-2-5.3-3.2-8.5-3.2H57.2c-3.1 0-6 1.2-8.4 3l.8.6zM154.3 132.2l1.4 1c.6-1.7 1-3.5 1-5.5V72.3c0-1-.1-1.8-.3-2.6l-30.8 31.7a730 730 0 0 0 28.7 30.8z"/><path d="M118.5 108.7l-14.7 15a4.7 4.7 0 0 1-6.8 0l-15.1-15.3L51 141c1.9 1 4 1.6 6.2 1.6h85.6c2.2 0 4.3-.6 6.2-1.6-4-3-11.8-11.5-30.5-32.2zM43.6 69.4c-.2 1-.3 1.9-.3 2.9v55.4c0 2 .4 3.8 1 5.5l30.5-32-31.2-31.8z"/></g></svg>