<svg id="Layer_1" xmlns="http://www.w3.org/2000/svg" viewBox="-222 314.2 165.8 165.8"><style>.st1{fill:#b8cdc9}</style><circle cx="-138" cy="397.2" r="82.4" fill="none" stroke="#b8cdc9" stroke-miterlimit="10"/><path class="st1" d="M-188.4 358.3l50.8 51.7 50.3-51.7.6-.4c-2.4-2-5.3-3.2-8.5-3.2h-85.5c-3.2 0-6.1 1.2-8.4 3.1l.7.5zM-83.7 429.4c.5.2.9.6 1.3 1 .6-1.7 1-3.5 1-5.5v-55.5l-.2-2.6-30.9 31.7a737.8 737.8 0 0 0 28.8 30.9z"/><path class="st1" d="M-119.5 405.9l-14.7 15.1c-1 1-2.2 1.5-3.4 1.5-1.2 0-2.5-.5-3.4-1.5l-15.1-15.4-30.9 32.5c1.9 1 4 1.6 6.2 1.6h85.5c2.2 0 4.3-.6 6.2-1.6-4-3-11.7-11.5-30.4-32.2zM-194.4 366.6c-.2.9-.3 1.9-.3 2.8v55.5c0 1.9.4 3.8 1 5.5l30.5-32-31.2-31.8z"/></svg>