<svg xmlns="http://www.w3.org/2000/svg" viewBox="-222 314.2 165.8 165.8"><circle cx="-138" cy="397.2" r="82.4" fill="none" stroke="#b8cdc9" stroke-miterlimit="10"/><path d="M-100.7 397.2a37.2 37.2 0 1 0-74.4 0 37.2 37.2 0 0 0 74.4 0zm-.8-42.3a6 6 0 0 0-6 6 6 6 0 0 0 6 6 6 6 0 0 0 6-6 6 6 0 0 0-6-6zm-66.9-8.6h60.9c11.3 0 20.5 9.2 20.5 20.5v60.9c0 11.3-9.2 20.5-20.5 20.5h-60.9a20.5 20.5 0 0 1-20.5-20.5v-60.9c0-11.3 9.2-20.5 20.5-20.5zm60.9-6.8h-60.9c-15 0-27.3 12.3-27.3 27.3v60.9c0 15 12.3 27.3 27.3 27.3h60.9c15 0 27.3-12.3 27.3-27.3v-60.9a27.3 27.3 0 0 0-27.3-27.3zm-60 57.7a29.5 29.5 0 1 1 59 0 29.5 29.5 0 0 1-59 0z" fill-rule="evenodd" clip-rule="evenodd" fill="#b8cdc9"/></svg>