<svg version="1.2" baseProfile="tiny" xmlns="http://www.w3.org/2000/svg" viewBox="0 0 165.8 165.8"><circle fill="none" stroke="#849995" stroke-miterlimit="10" cx="83" cy="83" r="82.4"/><path fill-rule="evenodd" fill="#849995" d="M120.3 83c0-20.6-16.7-37.2-37.2-37.2-20.6 0-37.3 16.7-37.3 37.2 0 20.6 16.7 37.3 37.3 37.3 20.5-.1 37.2-16.7 37.2-37.3zm-.8-42.3c-3.3 0-6 2.7-6 6s2.7 6 6 6 6-2.7 6-6-2.7-6-6-6zm-66.9-8.6h60.9c11.3 0 20.5 9.2 20.5 20.5v60.9c0 11.3-9.2 20.5-20.5 20.5H52.6c-11.3 0-20.5-9.2-20.5-20.5V52.6c0-11.3 9.2-20.5 20.5-20.5zm60.9-6.8H52.6c-15 0-27.3 12.3-27.3 27.3v60.9c0 15 12.3 27.3 27.3 27.3h60.9c15 0 27.3-12.3 27.3-27.3V52.6c-.1-15.1-12.3-27.3-27.3-27.3zM53.5 83c0-16.3 13.2-29.5 29.5-29.5s29.5 13.2 29.5 29.5-13.2 29.5-29.5 29.5S53.5 99.3 53.5 83z"/></svg>