<svg version="1.2" baseProfile="tiny" xmlns="http://www.w3.org/2000/svg" viewBox="0 0 200 200"><g fill="none" stroke="#B8CDC9" stroke-width="2" stroke-miterlimit="10"><circle cx="-335" cy="-310" r="82.4"/><circle cx="-130" cy="-310" r="82.4"/><circle cx="-540" cy="-310" r="82.4"/><circle cx="-1770" cy="-310" r="82.4"/><circle cx="-1565" cy="-310" r="82.4"/><circle cx="-1360" cy="-310" r="82.4"/><circle cx="-1155" cy="-310" r="82.4"/><circle cx="-745" cy="-310" r="82.4"/><circle cx="-950" cy="-310" r="82.4"/><circle cx="-1975" cy="-310" r="82.4"/></g><path fill-rule="evenodd" fill="#B8CDC9" d="M-1732.7-310a37.2 37.2 0 1 0-74.5 0 37.2 37.2 0 0 0 74.5 0zm-.8-42.3a6 6 0 1 0 0 12 6 6 0 0 0 0-12zm-67-8.6h61c11.2 0 20.4 9.2 20.4 20.5v60.8c0 11.3-9.2 20.5-20.4 20.5h-61a20.5 20.5 0 0 1-20.4-20.5v-60.8c0-11.3 9.2-20.5 20.5-20.5zm61-6.8h-61c-15 0-27.2 12.2-27.2 27.3v60.8c0 15 12.2 27.3 27.3 27.3h60.9c15 0 27.3-12.2 27.3-27.3v-60.8c0-15-12.3-27.3-27.3-27.3zm-60 57.7a29.5 29.5 0 1 1 59 0 29.5 29.5 0 0 1-59 0z"/><path fill="#B8CDC9" d="M-1506.4-345.8c-4.3 1.9-8.9 3.1-13.8 3.7 5-3 8.8-7.5 10.6-13a48.6 48.6 0 0 1-15.3 5.7 24.2 24.2 0 0 0-41.6 16.2c0 1.8.2 3.6.6 5.4-20-1-37.7-10.4-49.6-24.8a23.3 23.3 0 0 0 7.5 31.6c-4 0-7.7-1.1-11-3v.4a24 24 0 0 0 19.3 23.2 24.9 24.9 0 0 1-10.8.4 24 24 0 0 0 22.5 16.5 48.8 48.8 0 0 1-35.6 9.8 69 69 0 0 0 36.8 10.6 67 67 0 0 0 68.5-70.4c4.6-3.4 8.7-7.6 12-12.3zM-1403.4-306.4h18c4 0 10.9 1.7 10.9 9.4 0 4-3.2 8.7-7.2 8.7h-21.7v-18.1zm57.9-36.2h32.5v10.9h-32.5v-10.9zm28.2 36.2h-23.9c.8-6.5 5.6-10.8 12-10.8 6.3 0 10.9 4.4 11.9 10.8zm-24.6 7.3h39.8v-1.9c0-15-10.8-27-27.1-27-16.4 0-27.2 12-27.2 27s10.8 27.2 27.2 27.2c16.3 0 24-9.4 26.5-21.7h-14.6c-1.3 6.3-5.1 10.8-11.9 10.8-6.9 0-12.2-6.3-12.7-14.4zm-18 3.6c0-8-5.3-14.7-12.4-17.2 5.2-3.1 8.7-8.9 8.7-15.3a18 18 0 0 0-18-18.2h-36.3v72.4h36.2c12 0 21.8-9.8 21.8-21.7zm-25.5-21.7h-18v-14.5h18c4 0 7.3 3.3 7.3 7.3s-3.3 7.2-7.3 7.2zM-1152.2-367.4c-32.4 0-48.8 22.4-48.8 41.2 0 3.4.5 6.8 1.3 9.9 2 7 6 12.7 12.7 15.3 1.6.6 3 0 3.4-1.7l1.4-5.3c.5-1.6.3-2.2-1-3.6-1.6-2-2.9-4.1-3.7-6.9-.5-1.8-.8-3.8-.8-6 0-16.8 13-31.7 33.6-31.7 18.3 0 28.4 10.8 28.4 25.3a58 58 0 0 1-1.3 12.2c-2.8 13.2-10.3 22.9-20.3 22.9-7.2 0-12.5-5.7-10.8-12.7 1-4 2.4-8.1 3.6-12 1.3-4.3 2.4-8.3 2.4-11.4 0-5.4-3-10-9.2-10-7.3 0-13.1 7.4-13.1 17.1a27.2 27.2 0 0 0 2.1 10.5l-8.7 36c-2.6 10.6-.4 23.7-.2 25 0 .8 1.1 1 1.6.4.7-.8 9.4-11.2 12.3-21.6l4.8-18.1c2.4 4.3 9.3 8.2 16.7 8.2 17.8 0 31-12.8 35.3-31.6a61 61 0 0 0 1.5-13.6c0-19.6-17.2-37.8-43.2-37.8zM-772.6-334.3h12v-6.1c0-7 .8-12 2.2-15.4 1.5-3.5 4.1-6 8-8.3 4-2.1 9-3.2 15-3.2 6.1 0 12 1 18 2.8l-3 15c-3.4-.8-6.7-1.2-9.8-1.2-3.2 0-5.4.8-6.7 2.3-1.4 1.4-2 4.2-2 8.3v5.8h16v17h-16v64.6h-21.7v-64.6h-12v-17z"/><g fill="#B8CDC9"><path d="M-1000.4-349l50.8 51.8 50.3-51.7c.1-.2.4-.3.6-.4-2.4-2-5.3-3.2-8.5-3.2h-85.6c-3.1 0-6 1.2-8.4 3l.8.6zM-895.7-277.8l1.4 1c.6-1.7 1-3.5 1-5.5v-55.4c0-1-.1-1.8-.3-2.6l-30.8 31.7a729.6 729.6 0 0 0 28.7 30.8z"/><path d="M-931.5-301.3l-14.7 15a4.7 4.7 0 0 1-6.8 0l-15.1-15.3L-999-269c1.9 1 4 1.6 6.2 1.6h85.6c2.2 0 4.3-.6 6.2-1.6-4-3-11.8-11.5-30.5-32.2zM-1006.4-340.6c-.2 1-.3 1.9-.3 2.9v55.4c0 2 .4 3.8 1 5.5l30.5-32-31.2-31.8z"/></g><path fill="#B8CDC9" d="M-1918.1-327.5c-1.4-22.1-19-27-19-27-22.4-6.2-37.9 12-37.9 12s-15.5-18.2-38-12c0 0-17.5 4.9-18.9 27-1.5 24 41.8 65.3 57 75.3 15-10 58.3-51.3 56.8-75.3zM-278.5-312.1a56.8 56.8 0 0 0-34.5-50 56.3 56.3 0 0 0-68.9 20.5 55.6 55.6 0 0 0-8.5 43A56 56 0 0 0-357-258a56.3 56.3 0 0 0 68.9-20.5 56.6 56.6 0 0 0 9.7-31.6v-2.1zm-56.5-46.2c12.2 0 23.4 4.6 32 12-.2.2-7 10.7-25.3 17.5a245 245 0 0 0-18-28.1c3.6-1 7.4-1.4 11.3-1.4zm-11.6 1.4h-.1.1zm-9 3.2c.6.9 9.6 13 18 27.8-23.3 6.2-43.4 6-44.7 6a48.4 48.4 0 0 1 26.7-33.8zm-15.3 76a48.1 48.1 0 0 1-12.4-33.8c.9 0 24.8.5 49.6-7l4 8.3-2 .6c-26 8.4-39.2 31.9-39.2 31.9zm35.9 16a48 48 0 0 1-29.7-10.2l-1-.9 1 .9c.1-.2 9.4-20.3 38-30.2h.2c6.8 17.6 9.6 32.4 10.4 36.6a48.3 48.3 0 0 1-18.9 3.8zm27-8.2c-.5-3-3-17.1-9.4-34.5a70.2 70.2 0 0 1 30 2 48.3 48.3 0 0 1-20.6 32.5zm-12.4-42.2a412.4 412.4 0 0 0-3.3-7.5l-1-2c19.2-7.7 27-19 27-19a48 48 0 0 1 11 30.1c-.7-.1-17-3.6-33.7-1.6z"/><g fill="#B8CDC9"><path d="M-587.8-311v48.8h23.2v-66.4h-23.2zM-576.2-361.8a11.6 11.6 0 1 0 0 23.2 11.6 11.6 0 0 0 0-23.2zM-488.7-308.2c-1.6-12.5-7.3-20.4-24.2-20.4-10 0-16.8 3.7-19.6 9h-.3v-9h-18.5v66.4h19.4v-33c0-8.6 1.6-17 12.3-17 10.6 0 11.5 10 11.5 17.7v32.3h20v-36.5c0-3.4-.2-6.6-.6-9.5z"/></g><path fill="#B8CDC9" d="M-121.4-308.4c8.8-1.9 16.2-9.9 16.2-21.6 0-12.5-9.2-23.9-27-23.9h-49.5v93.9h51c18 0 27.3-11.3 27.3-25.5 0-11.7-7.9-21.4-18-23zm-40.3-27.9h25c6.8 0 11 4.1 11 9.8 0 6-4.2 9.9-11 9.9h-25v-19.7zm26 58.7h-26V-299h26c7.7 0 11.9 4.8 11.9 10.7 0 6.7-4.5 10.7-12 10.7zm57-76.1c-6 0-11.2 5-11.2 11 0 6.1 4.3 10.2 9.6 10.2 1.1 0 2.2-.1 2.7-.4-1.2 5-6.3 11-10.9 13.4l7.8 6.3a32.4 32.4 0 0 0 14.5-26.1c0-9.2-6-14.4-12.6-14.4z"/><g><circle fill="none" stroke="#B8CDC9" stroke-width="2" stroke-miterlimit="10" cx="100" cy="100" r="82.4"/><path fill-rule="evenodd" fill="#B8CDC9" d="M137.3 100a37.2 37.2 0 1 0-74.5 0 37.2 37.2 0 0 0 74.5 0zm-.8-42.3a6 6 0 1 0 0 12 6 6 0 0 0 0-12zm-67-8.6h61c11.2 0 20.4 9.2 20.4 20.5v60.8c0 11.3-9.2 20.5-20.4 20.5h-61a20.5 20.5 0 0 1-20.4-20.5V69.5c0-11.2 9.2-20.4 20.5-20.4zm61-6.8h-61c-15 0-27.2 12.2-27.2 27.3v60.8c0 15 12.2 27.3 27.3 27.3h60.9c15 0 27.2-12.2 27.2-27.3V69.5c0-15-12.2-27.2-27.2-27.2zm-60 57.7a29.5 29.5 0 1 1 59 0 29.5 29.5 0 0 1-59 0z"/></g></svg>