<svg id="Layer_1" xmlns="http://www.w3.org/2000/svg" viewBox="-222 314.2 165.8 165.8"><style>.st1{fill:#b8cdc9}</style><circle cx="-138" cy="397.2" r="82.4" fill="none" stroke="#b8cdc9" stroke-miterlimit="10"/><path id="XMLID_3_" class="st1" d="M-185.8 396.2V445h23.2v-66.4h-23.2z"/><path id="XMLID_2_" class="st1" d="M-174.2 345.4a11.6 11.6 0 1 0 0 23.2 11.6 11.6 0 0 0 0-23.2z"/><path id="XMLID_1_" class="st1" d="M-86.7 399c-1.6-12.5-7.3-20.4-24.2-20.4-10 0-16.8 3.7-19.5 9h-.3v-9h-18.5V445h19.4v-32.9c0-8.7 1.6-17.1 12.4-17.1 10.6 0 11.4 9.9 11.4 17.6V445h19.9v-36.5c-.1-3.4-.2-6.6-.6-9.5z"/></svg>