<svg version="1.2" baseProfile="tiny" xmlns="http://www.w3.org/2000/svg" viewBox="0 0 165.8 165.8"><circle fill="none" stroke="#849995" stroke-miterlimit="10" cx="83" cy="83" r="82.4"/><g fill="#849995"><path d="M35.2 82v48.8h23.2V64.4H35.2zM46.8 31.2c-6.4 0-11.6 5.2-11.6 11.6 0 6.4 5.2 11.6 11.6 11.6 6.4 0 11.6-5.2 11.6-11.6 0-6.4-5.2-11.6-11.6-11.6zM134.3 84.8c-1.6-12.5-7.3-20.4-24.2-20.4-10 0-16.8 3.7-19.5 9h-.3v-9H71.7v66.4h19.4V97.9c0-8.7 1.6-17.1 12.4-17.1 10.6 0 11.4 9.9 11.4 17.6v32.4h19.9V94.3c0-3.4-.1-6.6-.5-9.5z"/></g></svg>