<svg version="1.2" baseProfile="tiny" xmlns="http://www.w3.org/2000/svg" viewBox="0 0 200 200"><circle fill="none" stroke="#B8CDC9" stroke-width="2" stroke-miterlimit="10" cx="100" cy="100" r="82.4"/><path fill="#B8CDC9" d="M102.8 42.6C70.4 42.6 54 65 54 83.8c0 3.4.5 6.8 1.3 9.9 2 7 6 12.7 12.7 15.3 1.6.6 3 0 3.4-1.7l1.4-5.3c.5-1.6.3-2.2-1-3.6-1.6-2-2.9-4.1-3.7-6.9-.5-1.8-.8-3.8-.8-6 0-16.8 13-31.7 33.6-31.7 18.3 0 28.4 10.8 28.4 25.3a58 58 0 0 1-1.3 12.2c-2.8 13.2-10.3 22.9-20.3 22.9-7.2 0-12.5-5.7-10.8-12.7 1-4 2.4-8.1 3.6-12 1.3-4.3 2.4-8.3 2.4-11.4 0-5.4-3-10-9.2-10-7.3 0-13.1 7.4-13.1 17.1a27.2 27.2 0 0 0 2.1 10.5l-8.7 36c-2.6 10.6-.4 23.7-.2 25 0 .8 1.1 1 1.6.4.7-.8 9.4-11.2 12.3-21.6l4.8-18.1c2.4 4.3 9.3 8.2 16.7 8.2 17.8 0 31-12.8 35.3-31.6a61 61 0 0 0 1.5-13.6c0-19.6-17.2-37.8-43.2-37.8z"/></svg>