<svg version="1.2" baseProfile="tiny" xmlns="http://www.w3.org/2000/svg" viewBox="0 0 165.8 165.8"><circle fill="none" stroke="#849995" stroke-miterlimit="10" cx="83" cy="83" r="82.4"/><path fill="#849995" d="M85.8 25.6C53.4 25.6 37 48 37 66.8c0 3.5.4 6.8 1.3 9.9 1.9 7 6.1 12.7 12.7 15.3 1.6.6 3 0 3.4-1.7.3-1.2 1.1-4.1 1.4-5.3.4-1.7.3-2.2-1-3.7-1.7-1.9-2.9-4.1-3.7-6.8-.5-1.8-.8-3.8-.8-6.1 0-16.7 12.9-31.6 33.6-31.6 18.3 0 28.4 10.8 28.4 25.3 0 4.3-.4 8.4-1.3 12.2-2.9 13.2-10.3 22.9-20.4 22.9-7.1 0-12.5-5.7-10.8-12.7 1-4 2.4-8.1 3.6-12 1.3-4.3 2.4-8.3 2.4-11.4 0-5.4-3-9.9-9.2-9.9-7.3 0-13.2 7.3-13.2 17.1 0 1.8.2 3.5.5 4.9.6 3.4 1.7 5.5 1.7 5.5s-7.5 30.6-8.8 36c-2.6 10.7-.4 23.8-.2 25.1.1.8 1.2 1 1.6.4.7-.8 9.4-11.2 12.3-21.6.8-2.9 4.8-18.1 4.8-18.1 2.4 4.4 9.3 8.2 16.7 8.2 17.9 0 31-12.8 35.3-31.6 1-4.3 1.5-8.8 1.5-13.6.2-19.7-17-37.9-43-37.9z"/></svg>