<svg xmlns="http://www.w3.org/2000/svg" viewBox="-222 314.2 165.8 165.8"><circle cx="-138" cy="397.2" r="82.4" fill="none" stroke="#b8cdc9" stroke-miterlimit="10"/><path d="M-135.2 339.8c-32.4 0-48.7 22.5-48.7 41.2 0 3.5.4 6.8 1.3 9.9 1.9 7 6.1 12.7 12.7 15.3 1.6.6 3 0 3.4-1.7l1.4-5.3c.4-1.7.3-2.2-1-3.7a17.2 17.2 0 0 1-3.7-6.8c-.5-1.8-.8-3.8-.8-6.1 0-16.7 12.9-31.6 33.6-31.6 18.3 0 28.4 10.8 28.4 25.3a53 53 0 0 1-1.3 12.2c-2.9 13.2-10.3 22.9-20.4 22.9-7.1 0-12.5-5.7-10.8-12.7 1-4 2.4-8.1 3.6-12a44 44 0 0 0 2.4-11.4c0-5.4-3-9.9-9.2-9.9-7.3 0-13.2 7.3-13.2 17.1 0 1.8.2 3.5.5 4.9.6 3.4 1.7 5.5 1.7 5.5l-8.8 36c-2.6 10.7-.4 23.8-.2 25.1.1.8 1.2 1 1.6.4.7-.8 9.4-11.2 12.3-21.6l4.8-18.1c2.4 4.4 9.3 8.2 16.7 8.2 17.9 0 31-12.8 35.3-31.6 1-4.3 1.5-8.8 1.5-13.6.1-19.7-17.1-37.9-43.1-37.9z" fill="#b8cdc9"/></svg>