<svg version="1.2" baseProfile="tiny" xmlns="http://www.w3.org/2000/svg" viewBox="0 0 165.8 165.8"><circle fill="none" stroke="#849995" stroke-miterlimit="10" cx="83" cy="83" r="82.4"/><path fill="#849995" d="M141.6 47.2c-4.3 1.9-8.9 3.2-13.8 3.7 5-2.9 8.8-7.6 10.6-13.1-4.6 2.7-9.8 4.7-15.3 5.8-4.4-4.6-10.6-7.5-17.6-7.5-13.3 0-24.1 10.6-24.1 23.7 0 1.9.2 3.7.6 5.4-20-1-37.7-10.4-49.6-24.8-2.1 3.5-3.3 7.6-3.3 11.9 0 8.2 4.3 15.5 10.7 19.7-3.9-.1-7.7-1.2-10.9-3v.3c0 3 .6 5.9 1.6 8.6 2.9 7.4 9.6 13 17.7 14.6-2 .5-4.1.8-6.3.8-1.5 0-3.1-.1-4.5-.4 3.1 9.4 12 16.3 22.5 16.5-8.2 6.4-18.6 10.1-29.9 10.1-1.9 0-3.9-.1-5.7-.3 10.7 6.7 23.3 10.6 36.9 10.6 37.6 0 60.7-26.1 66.8-53.1 1.1-4.8 1.6-9.6 1.6-14.3 0-1 0-2-.1-3.1 4.8-3.2 8.9-7.4 12.1-12.1z"/></svg>