<svg xmlns="http://www.w3.org/2000/svg" viewBox="-222 314.2 165.8 165.8"><circle cx="-138" cy="397.2" r="82.4" fill="none" stroke="#b8cdc9" stroke-miterlimit="10"/><path d="M-79.4 361.4a45.4 45.4 0 0 1-13.8 3.7c5-2.9 8.8-7.6 10.6-13.1a49.5 49.5 0 0 1-15.3 5.8 24.2 24.2 0 0 0-41.7 16.2c0 1.9.2 3.7.6 5.4-20-1-37.7-10.4-49.6-24.8a23.1 23.1 0 0 0-3.3 11.9c0 8.2 4.3 15.5 10.7 19.7-3.9-.1-7.7-1.2-10.9-3v.3c0 3 .6 5.9 1.6 8.6a24 24 0 0 0 17.7 14.6 25.9 25.9 0 0 1-10.8.4c3.1 9.4 12 16.3 22.5 16.5a48.4 48.4 0 0 1-35.6 9.8 69.2 69.2 0 0 0 36.9 10.6 67 67 0 0 0 68.4-67.4l-.1-3.1a45 45 0 0 0 12.1-12.1z" fill="#b8cdc9"/></svg>