<svg version="1.2" baseProfile="tiny" xmlns="http://www.w3.org/2000/svg" viewBox="0 0 200 200"><circle fill="none" stroke="#B8CDC9" stroke-width="2" stroke-miterlimit="10" cx="100" cy="100" r="82.4"/><path fill="#B8CDC9" d="M158.6 64.2c-4.3 1.9-8.9 3.1-13.8 3.7 5-3 8.8-7.5 10.6-13a48.6 48.6 0 0 1-15.3 5.7 24.2 24.2 0 0 0-41.6 16.2c0 1.8.2 3.6.6 5.4-20-1-37.7-10.4-49.6-24.8A23.3 23.3 0 0 0 57 89c-4 0-7.7-1.1-11-3v.4a24 24 0 0 0 19.3 23.2 24.9 24.9 0 0 1-10.8.4A24 24 0 0 0 77 126.5a48.8 48.8 0 0 1-35.6 9.8 69 69 0 0 0 36.8 10.6 67 67 0 0 0 68.5-70.4c4.6-3.4 8.7-7.6 12-12.3z"/></svg>